<svg width="10" height="10" viewBox="0 0 10 10" fill="none" xmlns="http://www.w3.org/2000/svg">
<g clip-path="url(#clip0_147_4942)">
<path d="M8.11579 5.07943L5.84312 2.80674C5.76148 2.71141 5.61801 2.7003 5.52268 2.78195C5.42734 2.86359 5.41623 3.00707 5.49789 3.1024C5.50551 3.11129 5.51379 3.11959 5.52268 3.12718L7.40672 5.01352H-1.59085C-1.71636 5.01352 -1.81812 5.11527 -1.81812 5.2408C-1.81812 5.36632 -1.71636 5.46806 -1.59085 5.46806H7.40672L5.52268 7.35211C5.42734 7.43375 5.41623 7.57722 5.49789 7.67255C5.57955 7.76788 5.723 7.779 5.81833 7.69734C5.82722 7.68972 5.83552 7.68144 5.84312 7.67255L8.11581 5.39986C8.20392 5.31125 8.20392 5.16808 8.11579 5.07943Z" fill="#007299"/>
</g>
<defs>
<clipPath id="clip0_147_4942">
<rect width="10" height="10" fill="white"/>
</clipPath>
</defs>
</svg>
