<svg width="23" height="23" viewBox="0 0 23 23" fill="none" xmlns="http://www.w3.org/2000/svg">
<g clip-path="url(#clip0_88_284)">
<path d="M16.9827 0.000114441C17.1197 0.000114441 17.2562 0.0522232 17.3609 0.156891C17.5698 0.365778 17.5698 0.704041 17.3609 0.912928L6.77373 11.5001L17.3609 22.0873C17.5698 22.2962 17.5698 22.6349 17.3609 22.8433C17.1525 23.0522 16.8133 23.0522 16.6049 22.8433L5.63945 11.8779C5.53927 11.7777 5.48267 11.6416 5.48267 11.4997C5.48267 11.3577 5.53927 11.222 5.63945 11.1214L16.6049 0.156443C16.7091 0.0522251 16.8461 -0.000335693 16.9831 -0.000335693L16.9827 0.000114441Z" fill="white"/>
</g>
<defs>
<clipPath id="clip0_88_284">
<rect width="23" height="23" fill="white" transform="translate(23 23) rotate(-180)"/>
</clipPath>
</defs>
</svg>
