<svg width="21" height="21" viewBox="0 0 21 21" fill="none" xmlns="http://www.w3.org/2000/svg">
<path d="M10.5 0C4.71053 0 0 4.71053 0 10.5C0 16.2895 4.71053 21 10.5 21C16.2895 21 21 16.2895 21 10.5C21 4.71053 16.2895 0 10.5 0ZM16.3684 7.73684L9.6579 14.3947C9.26316 14.7895 8.63158 14.8158 8.21053 14.4211L4.6579 11.1842C4.23684 10.7895 4.21053 10.1316 4.57895 9.71053C4.97368 9.28947 5.63158 9.26316 6.05263 9.6579L8.86842 12.2368L14.8684 6.23684C15.2895 5.81579 15.9474 5.81579 16.3684 6.23684C16.7895 6.6579 16.7895 7.31579 16.3684 7.73684Z" fill="white"/>
</svg>
