<svg width="22" height="22" viewBox="0 0 22 22" fill="none" xmlns="http://www.w3.org/2000/svg">
<g clip-path="url(#clip0_149_615)">
<path fill-rule="evenodd" clip-rule="evenodd" d="M6.53056 6.04999C6.28633 6.99883 5.42501 7.69996 4.3999 7.69996C3.18489 7.69996 2.19995 6.71501 2.19995 5.5C2.19995 4.28499 3.18489 3.30005 4.3999 3.30005C5.42501 3.30005 6.28633 4.00117 6.53056 4.95001H21.4499C21.7536 4.95001 21.9999 5.19622 21.9999 5.5C21.9999 5.80378 21.7536 6.04999 21.4499 6.04999H6.53056ZM5.49988 5.5C5.49988 6.10757 5.00735 6.59998 4.3999 6.59998C3.79246 6.59998 3.29993 6.10745 3.29993 5.5C3.29993 4.89255 3.79246 4.40003 4.3999 4.40003C5.00735 4.40003 5.49988 4.89244 5.49988 5.5Z" fill="#007299"/>
<path d="M0.549988 6.04993H2.26925C2.22398 5.87418 2.19995 5.68985 2.19995 5.49994C2.19995 5.31003 2.22398 5.1257 2.26925 4.94995H0.549988C0.246206 4.94995 0 5.19616 0 5.49994C0 5.80372 0.246206 6.04993 0.549988 6.04993Z" fill="#007299"/>
<path fill-rule="evenodd" clip-rule="evenodd" d="M13.1307 15.95C12.8864 15.0012 12.025 14.3 11 14.3C9.97501 14.3 9.11346 15.0012 8.86935 15.95H0.549988C0.246206 15.95 0 16.1963 0 16.5C0 16.8037 0.246206 17.05 0.549988 17.05H8.86923C9.11346 17.9988 9.9749 18.7 10.9999 18.7C12.0249 18.7 12.8864 17.9988 13.1305 17.05H21.4498C21.7534 17.05 21.9998 16.8037 21.9998 16.5C21.9998 16.1963 21.7534 15.95 21.4498 15.95H13.1307ZM11 17.6C11.6076 17.6 12.1 17.1076 12.1 16.5C12.1 15.8924 11.6076 15.4 11 15.4C10.3924 15.4 9.90002 15.8924 9.90002 16.5C9.90002 17.1076 10.3924 17.6 11 17.6Z" fill="#007299"/>
<path fill-rule="evenodd" clip-rule="evenodd" d="M19.7306 10.45C19.4864 9.50117 18.625 8.80005 17.6 8.80005C16.575 8.80005 15.7134 9.50117 15.4693 10.45H0.549988C0.246206 10.45 0 10.6963 0 11C0 11.3037 0.246206 11.55 0.549988 11.55H15.4693C15.7136 12.4988 16.575 13.2 17.6 13.2C18.625 13.2 19.4865 12.4988 19.7306 11.55H21.4499C21.7536 11.55 21.9999 11.3037 21.9999 11C21.9999 10.6963 21.7536 10.45 21.4499 10.45H19.7306ZM17.6 12.1C18.2075 12.1 18.7 11.6076 18.7 11C18.7 10.3924 18.2074 9.90003 17.6 9.90003C16.9924 9.90003 16.5 10.3924 16.5 11C16.5 11.6076 16.9924 12.1 17.6 12.1Z" fill="#007299"/>
</g>
<defs>
<clipPath id="clip0_149_615">
<rect width="22" height="22" fill="white"/>
</clipPath>
</defs>
</svg>
