<svg width="13" height="13" viewBox="0 0 13 13" fill="none" xmlns="http://www.w3.org/2000/svg">
<path d="M11.2605 1.2381H9.90476V0.309524C9.90476 0.227433 9.87215 0.148704 9.81411 0.0906575C9.75606 0.0326105 9.67733 0 9.59524 0C9.51315 0 9.43442 0.0326105 9.37637 0.0906575C9.31833 0.148704 9.28572 0.227433 9.28572 0.309524V1.2381H3.71429V0.309524C3.71429 0.227433 3.68168 0.148704 3.62363 0.0906575C3.56558 0.0326105 3.48685 0 3.40476 0C3.32267 0 3.24394 0.0326105 3.1859 0.0906575C3.12785 0.148704 3.09524 0.227433 3.09524 0.309524V1.2381H1.73952C1.27817 1.2381 0.835719 1.42137 0.509495 1.74759C0.183271 2.07381 0 2.51627 0 2.97762V11.2605C0 11.7218 0.183271 12.1643 0.509495 12.4905C0.835719 12.8167 1.27817 13 1.73952 13H11.2605C11.7218 13 12.1643 12.8167 12.4905 12.4905C12.8167 12.1643 13 11.7218 13 11.2605V2.97762C13 2.51627 12.8167 2.07381 12.4905 1.74759C12.1643 1.42137 11.7218 1.2381 11.2605 1.2381ZM1.73952 1.85714H11.2605C11.5576 1.85714 11.8426 1.97519 12.0528 2.18532C12.2629 2.39545 12.381 2.68045 12.381 2.97762V3.71429H0.619048V2.97762C0.619048 2.68045 0.737098 2.39545 0.947228 2.18532C1.15736 1.97519 1.44236 1.85714 1.73952 1.85714ZM11.2605 12.381H1.73952C1.44236 12.381 1.15736 12.2629 0.947228 12.0528C0.737098 11.8426 0.619048 11.5576 0.619048 11.2605V4.33333H12.381V11.2605C12.381 11.5576 12.2629 11.8426 12.0528 12.0528C11.8426 12.2629 11.5576 12.381 11.2605 12.381Z" fill="#007299"/>
</svg>
