<svg width="1440" height="2835" viewBox="0 0 1440 2835" fill="none" xmlns="http://www.w3.org/2000/svg">
<circle class="circle" cx="1235.4" cy="1339.4" r="44.2122" transform="rotate(150 1235.4 1339.4)" fill="url(#paint0_linear_571_1921)" fill-opacity="0.4"/>
<ellipse cx="1235.62" cy="1340.18" rx="21.514" ry="21.7113" transform="rotate(150 1235.62 1340.18)" fill="white"/>
<path d="M1465.48 2834.6C1449.12 2711.26 1420.34 2616.14 1396.83 2551.62C1346.53 2413.61 1286.02 2321.53 1328.18 2246.88C1349.61 2208.92 1383.1 2201.12 1390.2 2155.61C1398.29 2103.75 1359.53 2083.56 1370.04 2034.23C1380.53 1985.02 1422.12 1990.96 1435.7 1939.95C1449.99 1886.23 1410.32 1855.44 1431.59 1802.36C1440.89 1779.16 1452.75 1774.34 1466.19 1756.61C1526.42 1677.15 1430 1586.79 1466.19 1458.61C1485.31 1390.9 1521.29 1383.97 1550.87 1277.4C1560.68 1242.06 1565.27 1212.04 1567.61 1192C1547.96 1367.02 1531.11 1542.26 1517.06 1717.73C1487.34 2089.02 1470.14 2461.31 1465.48 2834.6Z" fill="#007299"/>
<path opacity="0.5" d="M-11.6165 908.718C-11.7178 909.262 -11.8173 909.804 -11.915 910.343C-10.1822 824.835 -9.59542 739.336 -10.1551 653.842C-11.5156 446.793 -19.5897 239.788 -34.3877 32.8303C-19.5456 91.373 -1.17142 136.724 13.6494 168.545L13.6494 168.545C22.0729 186.627 30.693 203.223 38.6699 218.58C39.2008 219.602 39.7288 220.619 40.2537 221.63C48.677 237.855 56.2886 252.66 62.1389 266.455C73.8529 294.075 78.2918 317.164 68.3778 338.915L68.3777 338.916C64.3531 347.749 59.0883 353.957 53.8932 360.082C52.5258 361.695 51.1633 363.301 49.8295 364.948C43.4381 372.841 37.9932 381.406 37.0456 395.256C35.9834 410.783 41.3914 421.146 46.457 430.853L46.6701 431.261C51.7822 441.061 56.434 450.23 54.7212 464.031C53.0184 477.74 46.5076 484.205 39.3881 491.185L39.2543 491.316C32.08 498.348 24.3694 505.907 21.6335 521.495L23.4613 521.816L21.6334 521.495C18.9152 537.001 23.1547 548.868 27.1511 560.055C27.3866 560.714 27.6213 561.371 27.8537 562.027C32.0306 573.804 35.5234 585.119 30.9219 600.279C28.9088 606.909 26.3445 610.993 23.428 614.778C22.5795 615.879 21.6745 616.984 20.7309 618.136C18.4612 620.907 15.9686 623.951 13.5037 627.864L15.1432 628.896L13.5037 627.864C-2.42616 653.151 5.31203 678.062 14.6363 705.302C15.0027 706.372 15.3718 707.447 15.7425 708.526C24.8678 735.092 34.931 764.388 28.1016 800.143C24.7889 817.484 19.0649 828.212 12.5687 840.387C11.7142 841.988 10.8463 843.615 9.96885 845.285C2.38892 859.71 -5.71421 877.057 -11.6165 908.718Z" stroke="#BFB61F" stroke-width="4"/>
<defs>
<style>
.circle {
  transform-box: fill-box;
  transform-origin: 50% 50%;
  animation-duration: 2.5s;
  animation-name: rotate;
  animation-iteration-count: infinite;
}

@keyframes rotate {
  from {
    transform: rotate(0deg);
  }
  to {
    transform: rotate(360deg);
  }
}
</style>
<linearGradient id="paint0_linear_571_1921" x1="1235.4" y1="1295.18" x2="1235.4" y2="1383.61" gradientUnits="userSpaceOnUse">
<stop stop-color="#107DA0"/>
<stop offset="1" stop-color="#BFB61F" stop-opacity="0.23"/>
</linearGradient>
</defs>
</svg>
