<svg width="160" height="21" viewBox="0 0 160 21" fill="none" xmlns="http://www.w3.org/2000/svg">
<path d="M140.914 17.0459L140.509 16.2517C141.991 15.5429 142.335 14.8597 142.335 13.126V4.63721H143.352V13.1175C143.352 15.2183 142.594 16.3542 140.905 17.0459H140.914Z" fill="#FAF9F7"/>
<path d="M148.519 5.75571H148.502L147.141 9.95741H149.82L148.519 5.75571ZM151.129 14.031L150.061 10.7175H146.891L145.866 13.8602H144.755L148.037 4.62842H149.088L152.145 13.7321L151.129 14.0225V14.031Z" fill="#FAF9F7"/>
<path d="M157.201 14.0312C154.97 14.0312 153.239 12.5452 153.239 9.46224C153.239 6.16578 155.168 4.46631 157.597 4.46631C158.605 4.46631 159.216 4.60295 159.974 4.92747L159.569 5.8498C158.984 5.58506 158.398 5.38863 157.563 5.38863C155.849 5.38863 154.281 6.73796 154.281 9.1121C154.281 11.7766 155.254 13.1259 157.683 13.1259C158.407 13.1259 159.122 12.8356 159.664 12.605L160 13.4334C159.208 13.8348 158.329 14.0312 157.184 14.0312H157.201Z" fill="#FAF9F7"/>
<path d="M130.518 21H129.657V13.4079L133.739 10.4616L129.657 7.52379V0H130.518V7.08825L135.204 10.4616L130.518 13.8434V21Z" fill="#FAF9F7"/>
<path d="M1.30053 13.7325H0V7.60932C0 7.60932 0.86128 7.50684 1.77424 7.50684C3.69489 7.50684 4.87484 8.49748 4.87484 10.2653C4.87484 12.5198 3.51402 13.7411 1.30053 13.7411V13.7325ZM1.62782 8.23274C1.19718 8.23274 0.86128 8.24982 0.86128 8.24982V12.9639H1.46418C2.93696 12.9639 3.9705 12.0928 3.9705 10.3848C3.9705 8.93303 2.98003 8.23274 1.62782 8.23274Z" fill="#FAF9F7"/>
<path d="M7.68262 13.7323V7.56641H10.7746V8.29231H8.5439V10.1882H10.5593V10.9056H8.5439V13.0064H10.878V13.7323H7.68262Z" fill="#FAF9F7"/>
<path d="M14.9431 13.8433C14.3058 13.8433 13.7373 13.7066 13.2464 13.5017L13.5134 12.7502C13.9182 12.938 14.3919 13.0918 14.8742 13.0918C15.6321 13.0918 16.1145 12.8014 16.1145 12.1267C16.1145 11.6229 15.7441 11.3752 15.2446 11.1446L14.2713 10.6835C13.6167 10.376 13.1775 9.97463 13.1775 9.10355C13.1775 8.04458 14.1077 7.44678 15.1843 7.44678C15.7613 7.44678 16.1317 7.54072 16.6743 7.7286L16.3815 8.4545C16.0111 8.30078 15.6924 8.1556 15.2359 8.1556C14.5986 8.1556 14.0129 8.4118 14.0129 9.06939C14.0129 9.52201 14.2885 9.71843 14.6847 9.90631L15.6838 10.4016C16.459 10.7774 16.9327 11.2044 16.9327 11.9901C16.9327 13.0661 16.1747 13.8347 14.9259 13.8347L14.9431 13.8433Z" fill="#FAF9F7"/>
<path d="M19.6802 13.7323V7.56641H20.5501V13.7323H19.6802Z" fill="#FAF9F7"/>
<path d="M27.94 8.54869C27.5266 8.37789 27.1045 8.22417 26.5447 8.22417C25.3045 8.22417 24.2537 9.04402 24.2537 10.5556C24.2537 12.2295 24.9083 13.0664 26.4672 13.0664C26.8806 13.0664 27.3371 12.9554 27.3371 12.9554V10.7093H28.1984V13.5275C28.1984 13.5275 27.4318 13.8435 26.0796 13.8435C24.5121 13.8435 23.3494 12.7589 23.3494 10.7606C23.3494 8.60847 24.8049 7.45557 26.5706 7.45557C27.2424 7.45557 27.7247 7.55805 28.2414 7.78009L27.94 8.54869Z" fill="#FAF9F7"/>
<path d="M34.8559 13.818L31.9103 8.88181H31.9017L31.9534 13.724H31.1438V7.55811H32.0395L34.899 12.3235H34.9076L34.8559 7.55811H35.6655V13.6642L34.8473 13.818H34.8559Z" fill="#FAF9F7"/>
<path d="M47.405 13.9031L46.07 12.8441C45.6393 13.4504 44.9848 13.8433 44.0115 13.8433C42.978 13.8433 42.2717 13.2711 42.2717 12.3146C42.2717 11.5289 42.6851 11.0934 43.3053 10.5724C42.8402 10.1198 42.5646 9.66719 42.5646 9.03523C42.5646 8.01896 43.2536 7.44678 44.1407 7.44678C44.8986 7.44678 45.4412 7.9421 45.4412 8.71925C45.4412 9.55617 45.0623 9.94901 44.356 10.5127L45.8977 11.751C46.0527 11.3069 46.0872 10.9653 46.1216 10.3077H47.8184V10.9567H46.7159C46.6987 11.3752 46.5781 11.7937 46.4403 12.178L47.8614 13.3138L47.3963 13.8945L47.405 13.9031ZM43.8995 11.0848C43.8995 11.0848 43.7962 10.9994 43.779 10.9909C43.4 11.2813 43.0469 11.6656 43.0469 12.1694C43.0469 12.7758 43.4775 13.1942 44.1407 13.1942C44.8039 13.1942 45.2431 12.8697 45.5532 12.4342L43.8995 11.0848ZM44.0718 8.08728C43.5981 8.08728 43.288 8.39472 43.288 8.99253C43.288 9.41099 43.4258 9.72697 43.8995 10.1711C44.4508 9.74405 44.7436 9.43661 44.7436 8.82173C44.7436 8.42034 44.5024 8.09582 44.0718 8.09582V8.08728Z" fill="#FAF9F7"/>
<path d="M56.0262 8.29231V13.7323H55.1563V8.29231H53.4165V7.56641H57.7574V8.29231H56.0176H56.0262Z" fill="#FAF9F7"/>
<path d="M60.1431 13.7323V7.56641H63.2351V8.29231H61.0043V10.1882H63.0197V10.9056H61.0043V13.0064H63.3384V13.7323H60.1431Z" fill="#FAF9F7"/>
<path d="M68.2736 13.8433C66.7578 13.8433 65.5864 12.827 65.5864 10.7774C65.5864 8.59968 66.887 7.44678 68.5578 7.44678C69.2469 7.44678 69.6775 7.54926 70.2029 7.7713L69.8756 8.52282C69.4794 8.35202 69.1091 8.21538 68.5492 8.21538C67.464 8.21538 66.4735 9.04377 66.4735 10.5639C66.4735 12.2548 67.1023 13.0832 68.6095 13.0832C69.1091 13.0832 69.5569 12.8868 69.9359 12.7245L70.2287 13.4077C69.6517 13.7066 69.066 13.8347 68.2736 13.8347V13.8433Z" fill="#FAF9F7"/>
<path d="M76.43 13.7323V10.9056H73.6309V13.7323H72.761V7.56641H73.6309V10.1882H76.43V7.56641H77.2999V13.7323H76.43Z" fill="#FAF9F7"/>
<path d="M84.1643 13.818L81.2187 8.88181H81.2101L81.2617 13.724H80.4521V7.55811H81.3479L84.2073 12.3235H84.2159L84.1643 7.55811H84.9739V13.6642L84.1556 13.818H84.1643Z" fill="#FAF9F7"/>
<path d="M90.6325 13.8435C88.5138 13.8435 87.7903 12.2892 87.7903 10.6495C87.7903 9.00986 88.5482 7.45557 90.6325 7.45557C92.7168 7.45557 93.4403 9.00132 93.4403 10.6495C93.4403 12.2978 92.7082 13.8435 90.6325 13.8435ZM90.6325 8.18147C89.332 8.18147 88.7205 9.18066 88.7205 10.6495C88.7205 12.1184 89.3061 13.1176 90.6325 13.1176C91.9589 13.1176 92.5359 12.1184 92.5359 10.6495C92.5359 9.18066 91.9503 8.18147 90.6325 8.18147Z" fill="#FAF9F7"/>
<path d="M96.2395 13.7323V7.56641H97.1094V13.0064H99.4865V13.7323H96.2395Z" fill="#FAF9F7"/>
<path d="M103.999 13.8435C101.881 13.8435 101.157 12.2892 101.157 10.6495C101.157 9.00986 101.915 7.45557 103.999 7.45557C106.084 7.45557 106.807 9.00132 106.807 10.6495C106.807 12.2978 106.075 13.8435 103.999 13.8435ZM103.999 8.18147C102.699 8.18147 102.087 9.18066 102.087 10.6495C102.087 12.1184 102.673 13.1176 103.999 13.1176C105.326 13.1176 105.903 12.1184 105.903 10.6495C105.903 9.18066 105.317 8.18147 103.999 8.18147Z" fill="#FAF9F7"/>
<path d="M113.853 8.54869C113.439 8.37789 113.017 8.22417 112.457 8.22417C111.217 8.22417 110.166 9.04402 110.166 10.5556C110.166 12.2295 110.821 13.0664 112.38 13.0664C112.793 13.0664 113.25 12.9554 113.25 12.9554V10.7093H114.111V13.5275C114.111 13.5275 113.344 13.8435 111.992 13.8435C110.425 13.8435 109.262 12.7589 109.262 10.7606C109.262 8.60847 110.718 7.45557 112.483 7.45557C113.155 7.45557 113.637 7.55805 114.154 7.78009L113.853 8.54869Z" fill="#FAF9F7"/>
<path d="M118.977 11.1277V13.7325H118.107V11.179L116.247 7.7288L117.022 7.37012L118.547 10.3079H118.555L120.019 7.56654H120.932L118.969 11.1277H118.977Z" fill="#FAF9F7"/>
</svg>
