<svg width="1439" height="587" viewBox="0 0 1439 587" fill="none" xmlns="http://www.w3.org/2000/svg">
<g opacity="0.9">
<path d="M906.384 327.918C906.384 327.918 901.927 306.037 923.365 302.86C936.261 300.948 932.467 292.484 944.35 287.841C954.151 284.013 961.558 290.59 968.978 287.312C980.702 282.133 978.725 273.947 996.975 271.853C1005.65 270.857 1069.16 267.756 1078.8 267.781C1084.61 267.795 1149.82 244.937 1179.82 299.79C1188.46 311.249 1194.94 327.437 1225.82 317.242C1314.32 286.437 1347.75 373.672 1331.32 400.28C1297.32 455.341 1130.3 400.281 1130.3 400.281L906.382 327.918H906.384Z" fill="#00759A"/>
<path d="M426.304 366.258C477.12 376.961 463.442 385.87 509.431 390.963C552.127 395.692 570.988 364.903 621.998 375.22C680.218 386.994 682.305 323.321 736.821 330.791C786.956 337.66 794.233 307.517 839.588 319.745C859.067 324.997 899.546 389.526 915.171 398.975V423.18L339.088 436.056V366.229C364.386 362.924 401.315 360.995 426.304 366.26V366.258Z" fill="#469AB4"/>
<path d="M268.5 397.069C235.142 423.698 241.606 366.693 210.191 381.205C181.025 394.679 159.449 359.529 125.523 374.424C80.9105 394.011 47.7265 384.849 5 397.069C-35.4263 408.634 7.46174 424.541 -51.8071 434.674C-68.6525 437.554 -91.8925 446.734 -113 456.431V485.069H340L343.5 367.069C343.5 367.069 301.698 370.568 268.5 397.069Z" fill="#469AB4"/>
<path d="M232.772 417.786C232.103 416.731 232.016 415.295 232.475 414.086C233.177 412.239 233.57 410.182 233.57 408.015C233.57 403.616 231.954 399.682 229.404 397.024C228.34 395.915 227.983 394.047 228.665 392.559C229.289 391.192 229.652 389.626 229.667 387.956C229.716 382.708 226.171 378.222 221.846 378.073C217.29 377.917 213.556 382.352 213.556 387.844C213.556 389.557 213.922 391.164 214.56 392.561C215.24 394.049 214.882 395.915 213.818 397.024C211.271 399.682 209.653 403.616 209.653 408.015C209.653 410.184 210.045 412.241 210.75 414.09C211.217 415.314 211.103 416.753 210.428 417.825C208.448 420.965 207.347 424.964 207.568 429.281C208.008 437.857 213.853 444.834 220.926 445.241C229.01 445.705 235.682 437.892 235.682 428.186C235.682 424.272 234.597 420.665 232.77 417.786H232.772Z" fill="#048982"/>
<path d="M170.786 423.87C170.883 423.066 170.901 422.233 170.835 421.38C170.461 416.629 167.335 412.772 163.428 412.247C158.357 411.566 154.065 416.366 154.065 422.38C154.065 422.771 154.084 423.158 154.119 423.536C154.464 427.247 154.127 431.037 152.886 434.454C152.231 436.258 151.91 438.282 152.022 440.412C152.355 446.701 156.545 451.812 161.725 452.244C167.843 452.755 172.937 446.886 172.937 439.571C172.937 437.761 172.625 436.038 172.061 434.478C170.856 431.147 170.348 427.467 170.784 423.866L170.786 423.87Z" fill="#048982"/>
<path d="M163.091 425.661H161.295V467.853H163.091V425.661Z" fill="#006168"/>
<path d="M194.629 410.19C194.757 409.133 194.782 408.035 194.695 406.911C194.203 400.659 190.089 395.581 184.944 394.89C178.27 393.996 172.623 400.311 172.623 408.229C172.623 408.744 172.647 409.253 172.693 409.752C173.147 414.635 172.705 419.623 171.071 424.121C170.207 426.496 169.786 429.161 169.934 431.963C170.375 440.242 175.887 446.968 182.708 447.538C190.761 448.212 197.466 440.486 197.466 430.858C197.466 428.473 197.054 426.206 196.313 424.156C194.728 419.769 194.058 414.927 194.631 410.19H194.629Z" fill="#00759A"/>
<path d="M184.113 412.904H182.32V467.853H184.113V412.904Z" fill="#006168"/>
<path d="M221.308 409.962H219.515V468.835H221.308V409.962Z" fill="#006168"/>
<path d="M354.523 364.398C354.523 383.394 343.261 398.796 343.261 398.796C343.261 398.796 332 383.396 332 364.398C332 345.401 343.261 330.001 343.261 330.001C343.261 330.001 354.523 345.401 354.523 364.398Z" fill="#123E6B"/>
<path d="M344.156 360.208H342.362V440.142H344.156V360.208Z" fill="#006168"/>
<path d="M311.546 372.169C311.546 391.165 300.285 406.566 300.285 406.566C300.285 406.566 289.024 391.167 289.024 372.169C289.024 353.171 300.285 337.771 300.285 337.771C300.285 337.771 311.546 353.171 311.546 372.169Z" fill="#107DA0"/>
<path d="M301.182 367.978H299.388V447.912H301.182V367.978Z" fill="#006168"/>
<path d="M76.343 435.906C76.343 448.003 69.1715 457.811 69.1715 457.811C69.1715 457.811 62 448.005 62 435.906C62 423.808 69.1715 414.001 69.1715 414.001C69.1715 414.001 76.343 423.808 76.343 435.906Z" fill="white"/>
<path d="M69.7425 433.237H68.6003V484.141H69.7425V433.237Z" fill="#006168"/>
<path d="M487.799 361.288C487.799 379.673 476.9 394.576 476.9 394.576C476.9 394.576 466 379.673 466 361.288C466 342.904 476.9 328.001 476.9 328.001C476.9 328.001 487.799 342.906 487.799 361.288Z" fill="#048982"/>
<path d="M478.121 360.16H476.327V415.209H478.121V360.16Z" fill="#006168"/>
<path d="M522.124 369.957C522.124 388.342 511.224 403.245 511.224 403.245C511.224 403.245 500.325 388.342 500.325 369.957C500.325 351.573 511.224 336.67 511.224 336.67C511.224 336.67 522.124 351.573 522.124 369.957Z" fill="#006168"/>
<path d="M512.121 369.218H510.328V413.382H512.121V369.218Z" fill="#006168"/>
<path d="M548.959 367.399C548.959 391.547 533.373 411.123 533.373 411.123C533.373 411.123 517.787 391.547 517.787 367.399C517.787 343.251 533.373 323.675 533.373 323.675C533.373 323.675 548.959 343.251 548.959 367.399Z" fill="#107DA0"/>
<path d="M534.27 359.704H532.476V417.713H534.27V359.704Z" fill="#006168"/>
<path d="M425.195 379.121C425.195 397.506 414.295 412.409 414.295 412.409C414.295 412.409 403.395 397.504 403.395 379.121C403.395 360.739 414.295 345.834 414.295 345.834C414.295 345.834 425.195 360.737 425.195 379.121Z" fill="#006168"/>
<path d="M415.192 378.382H413.398V435.075H415.192V378.382Z" fill="#048982"/>
<path d="M451.645 366.789C451.645 390.937 436.059 410.513 436.059 410.513C436.059 410.513 420.473 390.937 420.473 366.789C420.473 342.641 436.059 323.064 436.059 323.064C436.059 323.064 451.645 342.641 451.645 366.789Z" fill="#048982"/>
<path d="M436.956 359.093H435.162V427.662H436.956V359.093Z" fill="#006168"/>
<path d="M691.719 424.821C669.089 430.389 669.562 418.753 642.405 412.063C613.295 404.893 597.122 422.42 573.672 421.624C534.195 420.282 522.73 409.672 487.958 406.485C463.787 404.269 436.805 410.859 416.012 421.777C403.658 428.265 388.764 429.36 375.279 425.068C364.378 421.597 354.679 419.97 347.99 419.97C311.758 419.97 303.98 427.102 282.854 435.818C267.324 442.226 260.561 428.204 235.882 433.855C213.874 438.895 217.258 452.963 197.866 454.759C142.682 459.866 142.388 486.413 132.489 485.843H691.719V424.819V424.821Z" fill="#107DA0"/>
<path d="M117.227 406.035L107.629 457.243C106.755 461.906 109.675 466.346 113.617 466.346H129.098C133.071 466.346 135.999 461.833 135.067 457.145L124.897 406.045C123.909 401.082 118.225 401.074 117.227 406.033V406.035Z" fill="#048982"/>
<path d="M121.977 416.895H120.184V485.845H121.977V416.895Z" fill="#006168"/>
<path d="M120.184 443.122V432.747L116.078 424.882L117.675 424.071L121.977 432.319V438.053L126.298 432.694L127.703 433.793L120.184 443.122Z" fill="#006168"/>
<path d="M1438.84 485.896H-6.97119V586.07H1438.84V485.896Z" fill="#92EFEA"/>
<path d="M1002.46 501.999H943.411C942.126 501.999 941.082 500.973 941.082 499.704C941.082 498.438 942.123 497.409 943.411 497.409H1002.46C1003.75 497.409 1004.79 498.436 1004.79 499.704C1004.79 500.971 1003.75 501.999 1002.46 501.999Z" fill="#73DDDA"/>
<path d="M349.823 508.233H231.294C230.009 508.233 228.966 507.207 228.966 505.938C228.966 504.671 230.007 503.643 231.294 503.643H349.823C351.108 503.643 352.151 504.669 352.151 505.938C352.151 507.205 351.11 508.233 349.823 508.233Z" fill="#73DDDA"/>
<path d="M312.315 512.614H238.915C237.629 512.614 236.586 513.641 236.586 514.908C236.586 516.175 237.629 517.202 238.915 517.202H312.315C313.601 517.202 314.644 516.175 314.644 514.908C314.644 513.641 313.601 512.614 312.315 512.614Z" fill="#73DDDA"/>
<path d="M303.893 510.425C303.893 509.158 304.935 508.235 306.222 508.235H292.888V512.616H306.222C304.937 512.616 303.893 511.693 303.893 510.427V510.425Z" fill="#73DDDA"/>
<path d="M241.244 510.425C241.244 511.691 240.202 512.614 238.915 512.614H295.428V508.233H238.915C240.2 508.233 241.244 509.156 241.244 510.423V510.425Z" fill="#73DDDA"/>
<path d="M1126.39 516.935H1007.86C1006.57 516.935 1005.53 515.908 1005.53 514.64C1005.53 513.373 1006.57 512.345 1007.86 512.345H1126.39C1127.67 512.345 1128.72 513.371 1128.72 514.64C1128.72 515.906 1127.68 516.935 1126.39 516.935Z" fill="#73DDDA"/>
<path d="M1088.88 525.903H1015.48C1014.19 525.903 1013.15 524.877 1013.15 523.608C1013.15 522.341 1014.19 521.313 1015.48 521.313H1088.88C1090.17 521.313 1091.21 522.339 1091.21 523.608C1091.21 524.875 1090.17 525.903 1088.88 525.903Z" fill="#73DDDA"/>
<path d="M1080.46 519.124C1080.46 517.858 1081.5 516.935 1082.79 516.935H1069.45V521.315H1082.79C1081.5 521.315 1080.46 520.393 1080.46 519.126V519.124Z" fill="#73DDDA"/>
<path d="M1017.81 519.124C1017.81 520.39 1016.77 521.313 1015.48 521.313H1071.99V516.933H1015.48C1016.76 516.933 1017.81 517.855 1017.81 519.122V519.124Z" fill="#73DDDA"/>
<path d="M498.048 511.262H438.995C437.71 511.262 436.667 510.235 436.667 508.966C436.667 507.7 437.708 506.671 438.995 506.671H498.048C499.333 506.671 500.376 507.698 500.376 508.966C500.376 510.233 499.335 511.262 498.048 511.262Z" fill="#73DDDA"/>
<path d="M525.352 528.989H466.299C465.014 528.989 463.97 527.962 463.97 526.693C463.97 525.427 465.012 524.398 466.299 524.398H525.352C526.637 524.398 527.68 525.425 527.68 526.693C527.68 527.96 526.639 528.989 525.352 528.989Z" fill="#73DDDA"/>
<path d="M552.391 520.23H446.614C445.328 520.23 444.285 519.203 444.285 517.935C444.285 516.668 445.326 515.64 446.614 515.64H552.391C553.676 515.64 554.72 516.666 554.72 517.935C554.72 519.201 553.678 520.23 552.391 520.23Z" fill="#73DDDA"/>
<path d="M573.556 520.23H564.772C563.487 520.23 562.443 519.203 562.443 517.935C562.443 516.668 563.485 515.64 564.772 515.64H573.556C574.841 515.64 575.885 516.666 575.885 517.935C575.885 519.201 574.843 520.23 573.556 520.23Z" fill="#73DDDA"/>
<path d="M491.909 513.45C491.909 512.184 492.95 511.261 494.237 511.261H471.378V515.642H494.237C492.952 515.642 491.909 514.719 491.909 513.452V513.45Z" fill="#73DDDA"/>
<path d="M448.942 513.45C448.942 514.717 447.901 515.64 446.614 515.64H477.091V511.259H446.614C447.899 511.259 448.942 512.182 448.942 513.448V513.45Z" fill="#73DDDA"/>
<path d="M523.023 522.211C523.023 520.944 524.064 520.022 525.352 520.022H502.492V524.402H525.352C524.066 524.402 523.023 523.48 523.023 522.213V522.211Z" fill="#73DDDA"/>
<path d="M480.056 522.211C480.056 523.478 479.015 524.4 477.728 524.4H508.205V520.02H477.728C479.013 520.02 480.056 520.943 480.056 522.209V522.211Z" fill="#73DDDA"/>
<path d="M75.765 501.234H-6.97119V514.79H38.2577C39.543 514.79 40.5864 513.764 40.5864 512.495C40.5864 511.227 39.545 510.2 38.2577 510.2H32.1643C30.879 510.2 29.8356 509.278 29.8356 508.011C29.8356 506.745 30.877 505.822 32.1643 505.822H75.765C77.0502 505.822 78.0937 504.796 78.0937 503.527C78.0937 502.258 77.0522 501.232 75.765 501.232V501.234Z" fill="#73DDDA"/>
<path d="M1356.1 498.212H1438.84V511.769H1393.61C1392.32 511.769 1391.28 510.742 1391.28 509.473C1391.28 508.205 1392.32 507.178 1393.61 507.178H1399.7C1400.99 507.178 1402.03 506.256 1402.03 504.989C1402.03 503.723 1400.99 502.8 1399.7 502.8H1356.1C1354.81 502.8 1353.77 501.774 1353.77 500.505C1353.77 499.236 1354.81 498.21 1356.1 498.21V498.212Z" fill="#73DDDA"/>
<path d="M613.865 405.402C613.865 422.388 601.463 436.16 601.463 436.16C601.463 436.16 589.062 422.39 589.062 405.402C589.062 388.414 601.463 374.644 601.463 374.644C601.463 374.644 613.865 388.414 613.865 405.402Z" fill="#123E6B"/>
<path d="M602.459 401.655H600.471V453.289H602.459V401.655Z" fill="#006168"/>
<path d="M644.911 405.402C644.911 422.388 632.509 436.16 632.509 436.16C632.509 436.16 620.107 422.39 620.107 405.402C620.107 388.414 632.509 374.644 632.509 374.644C632.509 374.644 644.911 388.414 644.911 405.402Z" fill="white"/>
<path d="M633.503 401.655H631.515V453.289H633.503V401.655Z" fill="#006168"/>
<path d="M675.957 405.402C675.957 422.388 663.555 436.16 663.555 436.16C663.555 436.16 651.153 422.39 651.153 405.402C651.153 388.414 663.555 374.644 663.555 374.644C663.555 374.644 675.957 388.414 675.957 405.402Z" fill="#048982"/>
<path d="M664.549 401.655H662.561V453.289H664.549V401.655Z" fill="#006168"/>
<path d="M124.184 355.833C124.184 348.431 120.3 344.773 115.312 343.409C108.606 341.574 103.453 343.557 101.017 346.268C100.788 339.067 94.9359 333.298 87.7308 333.298C85.7244 333.298 83.8296 333.758 82.1229 334.558C82.125 334.461 82.1374 334.367 82.1374 334.269C82.1374 326.867 76.1782 320.865 68.8284 320.865C65.8302 320.865 63.0738 321.876 60.8505 323.56C60.1624 316.809 54.4987 311.541 47.6139 311.541C44.2107 311.541 41.1154 312.84 38.7619 314.956C36.8093 309.999 32.0155 306.488 26.3973 306.488C19.3884 306.488 13.6565 311.95 13.14 318.876C11.1481 317.678 8.82763 316.978 6.33775 316.978C-1.01202 316.978 -6.97119 322.979 -6.97119 330.382V360.378H124.184V355.833Z" fill="white"/>
<path d="M1043.19 444.405L939.526 438.581L945.159 319.207H1043.19V444.405Z" fill="#048982"/>
<path d="M980.24 346.247C980.24 356.771 969.014 365.304 969.014 365.304C969.014 365.304 957.788 356.771 957.788 346.247C957.788 341.616 959.962 337.37 962.396 334.069C965.652 329.65 972.376 329.65 975.632 334.069C978.067 337.372 980.24 341.616 980.24 346.247V346.247Z" fill="#123E6B"/>
<path d="M969.824 343.923H968.206V391.085H969.824V343.923Z" fill="#006168"/>
<path d="M1008.34 346.247C1008.34 356.771 997.116 365.304 997.116 365.304C997.116 365.304 985.89 356.771 985.89 346.247C985.89 341.616 988.063 337.37 990.498 334.069C993.754 329.65 1000.48 329.65 1003.73 334.069C1006.17 337.372 1008.34 341.616 1008.34 346.247V346.247Z" fill="white"/>
<path d="M997.926 343.923H996.308V375.916H997.926V343.923Z" fill="#006168"/>
<path d="M1036.44 346.247C1036.44 356.771 1025.22 365.304 1025.22 365.304C1025.22 365.304 1013.99 356.771 1013.99 346.247C1013.99 341.616 1016.16 337.37 1018.6 334.069C1021.86 329.65 1028.58 329.65 1031.84 334.069C1034.27 337.372 1036.44 341.616 1036.44 346.247V346.247Z" fill="#107DA0"/>
<path d="M1026.03 343.923H1024.41V375.916H1026.03V343.923Z" fill="#006168"/>
<path d="M1055.34 395.01C1055.34 390.456 1050.09 386.766 1043.61 386.766C1043.19 386.766 1042.78 386.783 1042.37 386.813C1042.4 386.492 1042.44 386.168 1042.44 385.84C1042.44 379.411 1035.02 374.198 1025.87 374.198C1023.5 374.198 1021.25 374.552 1019.22 375.179C1018.74 370.939 1013.69 367.602 1007.53 367.602C1001.37 367.602 996.31 370.956 995.847 375.21C994.072 374.819 992.185 374.607 990.229 374.607C979.86 374.607 971.456 380.511 971.456 387.795C971.456 388.031 971.49 388.261 971.506 388.495C969.905 387.921 968.097 387.589 966.175 387.589C959.695 387.589 954.443 391.279 954.443 395.833C954.443 400.386 959.695 404.076 966.175 404.076C966.882 404.076 967.574 404.031 968.245 403.948C973.57 407.015 988.617 409.228 1006.36 409.228C1025.67 409.228 1041.63 441.542 1045.5 438.052C1051 437.372 1055.35 399.073 1055.35 395.01H1055.34Z" fill="#00759A"/>
<path d="M977.591 399.872L963.47 416.616L855.809 417.846L834.193 373.971H945.525L977.591 399.872Z" fill="#1FB578"/>
<path d="M1221.44 330.175C1220.74 329.283 1220.65 328.074 1221.13 327.051C1221.86 325.494 1222.27 323.757 1222.27 321.928C1222.27 318.215 1220.59 314.894 1217.94 312.652C1216.83 311.715 1216.46 310.139 1217.17 308.882C1217.82 307.73 1218.2 306.408 1218.21 304.999C1218.26 300.57 1214.58 296.784 1210.08 296.658C1205.35 296.525 1201.47 300.268 1201.47 304.905C1201.47 306.351 1201.85 307.707 1202.51 308.886C1203.22 310.143 1202.85 311.717 1201.74 312.654C1199.09 314.898 1197.41 318.217 1197.41 321.93C1197.41 323.761 1197.82 325.498 1198.55 327.058C1199.03 328.09 1198.92 329.306 1198.21 330.21C1196.16 332.861 1195.01 336.236 1195.24 339.879C1195.7 347.116 1201.78 353.006 1209.13 353.35C1217.53 353.743 1224.46 347.147 1224.46 338.956C1224.46 335.653 1223.34 332.609 1221.44 330.179L1221.44 330.175Z" fill="#048982"/>
<path d="M1183.52 338.933C1183.63 338.255 1183.65 337.55 1183.58 336.832C1183.19 332.822 1179.94 329.566 1175.88 329.124C1170.6 328.549 1166.15 332.6 1166.15 337.677C1166.15 338.007 1166.16 338.332 1166.2 338.654C1166.56 341.786 1166.21 344.983 1164.92 347.867C1164.24 349.39 1163.91 351.099 1164.02 352.895C1164.37 358.204 1168.72 362.515 1174.11 362.882C1180.47 363.313 1185.76 358.359 1185.76 352.186C1185.76 350.657 1185.44 349.205 1184.85 347.889C1183.6 345.077 1183.07 341.972 1183.52 338.933V338.933Z" fill="#048982"/>
<path d="M1175.13 340.416H1173.51V400.971H1175.13V340.416Z" fill="#006168"/>
<path d="M1210.07 324.046H1208.45V372.649H1210.07V324.046Z" fill="#006168"/>
<path d="M880.755 319.208L860.189 299.788H924.959L945.525 319.208H880.755Z" fill="#4FAECC"/>
<path d="M860.323 299.77L839.764 319.191V373.975H880.883V319.191L860.323 299.77Z" fill="#73DDDA"/>
<path d="M945.525 319.208H880.755V373.971H945.525V319.208Z" fill="#107DA0"/>
<path d="M1123.49 324.229L1083.34 292.109V255.826L1123.49 287.946V324.229Z" fill="#048982"/>
<path d="M1043.19 324.229L1083.34 292.109V255.826L1043.19 287.946V324.229Z" fill="#107DA0"/>
<path d="M1083.38 292.092L1043.29 324.211V484.35H1123.46V324.211L1083.38 292.092Z" fill="white"/>
<path d="M1058.92 344.539H1054.48V349.011H1058.92V344.539Z" fill="#1FB578"/>
<path d="M1058.92 357.959H1054.48V362.431H1058.92V357.959Z" fill="#1FB578"/>
<path d="M1058.92 371.377H1054.48V375.849H1058.92V371.377Z" fill="#1FB578"/>
<path d="M1072.24 331.121H1067.8V335.593H1072.24V331.121Z" fill="#1FB578"/>
<path d="M1072.24 344.539H1067.8V349.011H1072.24V344.539Z" fill="#1FB578"/>
<path d="M1072.24 357.959H1067.8V362.431H1072.24V357.959Z" fill="#1FB578"/>
<path d="M1072.24 371.377H1067.8V375.849H1072.24V371.377Z" fill="#1FB578"/>
<path d="M1085.56 317.703H1081.12V322.175H1085.56V317.703Z" fill="#1FB578"/>
<path d="M1085.56 331.121H1081.12V335.593H1085.56V331.121Z" fill="#1FB578"/>
<path d="M1085.56 344.539H1081.12V349.011H1085.56V344.539Z" fill="#1FB578"/>
<path d="M1085.56 357.959H1081.12V362.431H1085.56V357.959Z" fill="#1FB578"/>
<path d="M1085.56 371.377H1081.12V375.849H1085.56V371.377Z" fill="#1FB578"/>
<path d="M1098.89 331.121H1094.45V335.593H1098.89V331.121Z" fill="#1FB578"/>
<path d="M1098.89 344.539H1094.45V349.011H1098.89V344.539Z" fill="#1FB578"/>
<path d="M1098.89 357.959H1094.45V362.431H1098.89V357.959Z" fill="#1FB578"/>
<path d="M1098.89 371.377H1094.45V375.849H1098.89V371.377Z" fill="#1FB578"/>
<path d="M1112.21 344.539H1107.77V349.011H1112.21V344.539Z" fill="#1FB578"/>
<path d="M1112.21 357.959H1107.77V362.431H1112.21V357.959Z" fill="#1FB578"/>
<path d="M1112.21 371.377H1107.77V375.849H1112.21V371.377Z" fill="#1FB578"/>
<path d="M1058.92 384.795H1054.48V389.267H1058.92V384.795Z" fill="#1FB578"/>
<path d="M1072.24 384.795H1067.8V389.267H1072.24V384.795Z" fill="#1FB578"/>
<path d="M1085.56 384.795H1081.12V389.267H1085.56V384.795Z" fill="#1FB578"/>
<path d="M1098.89 384.795H1094.45V389.267H1098.89V384.795Z" fill="#1FB578"/>
<path d="M1112.21 384.795H1107.77V389.267H1112.21V384.795Z" fill="#1FB578"/>
<path d="M953.624 372.809C953.624 387.07 943.212 398.631 943.212 398.631C943.212 398.631 932.8 387.07 932.8 372.809C932.8 358.548 943.212 346.987 943.212 346.987C943.212 346.987 953.624 358.548 953.624 372.809Z" fill="#73DDDA"/>
<path d="M944.022 368.264H942.405V402.523H944.022V368.264Z" fill="#006168"/>
<path d="M943.214 379.563L938.797 375.114L939.952 374L943.214 377.285L946.475 374L947.632 375.114L943.214 379.563Z" fill="#006168"/>
<path d="M920.998 373.725C920.998 386.322 911.801 396.533 911.801 396.533C911.801 396.533 902.604 386.32 902.604 373.725C902.604 361.13 911.801 350.917 911.801 350.917C911.801 350.917 920.998 361.13 920.998 373.725Z" fill="#123E6B"/>
<path d="M937.311 363.37C937.311 377.631 926.899 389.192 926.899 389.192C926.899 389.192 916.487 377.631 916.487 363.37C916.487 349.109 926.899 337.548 926.899 337.548C926.899 337.548 937.311 349.109 937.311 363.37Z" fill="#048982"/>
<path d="M927.709 360.224H926.091V403.571H927.709V360.224Z" fill="#006168"/>
<path d="M912.611 369.663H910.993V402.873H912.611V369.663Z" fill="#048982"/>
<path d="M961.78 415.795H879.707V485.895H961.78V415.795Z" fill="#107DA0"/>
<path d="M879.707 415.795L856.224 390.403C856.224 390.403 883.108 379.62 898.207 389.584C918.983 403.294 926.525 390.678 949.335 393.27C970.95 395.728 992.793 415.795 992.793 415.795H879.705H879.707Z" fill="#107DA0"/>
<path d="M879.707 406.224C891.964 404.88 895.022 420.947 901.81 425.546C908.61 430.152 909.832 420.996 922.597 420.948C937.096 420.893 933.844 415.119 941.687 411.333C949.174 407.719 958.658 411.751 961.778 415.797C971.872 428.879 1006.04 461.707 1006.04 461.707L979.315 458.56L879.705 453.516V406.224H879.707Z" fill="#00759A"/>
<path d="M895.045 405.043L885.553 437.669L912.419 448.299L901.818 405.05C900.947 401.49 895.925 401.484 895.043 405.041L895.045 405.043Z" fill="#29A4CC"/>
<path d="M899.259 412.833H897.641V438.323H899.259V412.833Z" fill="#048982"/>
<path d="M897.641 431.78V424.279L894.053 418.696L895.419 417.844L899.258 423.817V427.872L903.102 424L904.257 425.114L897.641 431.78Z" fill="#048982"/>
<path d="M911.344 403.577L901.36 452.594L928.717 455.524L918.117 403.585C917.245 400.026 912.224 400.019 911.342 403.577H911.344Z" fill="#0E3E4E"/>
<path d="M915.557 411.366H913.939V448.008H915.557V411.366Z" fill="#048982"/>
<path d="M913.939 430.313V422.813L910.352 417.231L911.718 416.378L915.557 422.351V426.405L919.401 422.534L920.556 423.65L913.939 430.313Z" fill="#048982"/>
<path d="M879.707 434.585C888.212 432.394 898.444 438.528 903.302 443.784C908.162 449.04 911.286 444.075 917.359 446.119C925.359 448.812 930.922 457.599 940.295 456.139C949.665 454.679 956.234 458.969 956.234 458.969L961.78 485.895H879.707V434.585V434.585Z" fill="#107DA0"/>
<path d="M879.707 461.45C890.601 451.14 895.737 462.355 905.191 460.011C913.028 458.068 914.786 454.409 927.079 451.8C934.542 450.216 937.664 452.592 942.871 447.314C947.952 442.161 946.863 435.174 961.78 432.975C978.145 430.564 981.885 440.866 981.885 440.866L977.589 453.299L965.795 485.898H879.705V461.453L879.707 461.45Z" fill="#006168"/>
<path d="M993.401 415.795L977.591 399.872H1027.38L1043.19 415.795H993.401Z" fill="#1FB578"/>
<path d="M977.688 399.854L961.881 415.779V485.979H993.496V415.779L977.688 399.854Z" fill="white"/>
<path d="M1043.19 415.795H993.4V485.895H1043.19V415.795Z" fill="#107DA0"/>
<path d="M1039.11 415.795L1023.3 399.872H1021.72L1037.53 415.795H1039.11Z" fill="#107DA0"/>
<path d="M1032.44 415.795L1016.63 399.872H1015.05L1030.86 415.795H1032.44Z" fill="#107DA0"/>
<path d="M1025.76 415.795L1009.95 399.872H1008.37L1024.18 415.795H1025.76Z" fill="#107DA0"/>
<path d="M1019.09 415.795L1003.28 399.872H1001.7L1017.51 415.795H1019.09Z" fill="#107DA0"/>
<path d="M1012.41 415.795L996.601 399.872H995.022L1010.83 415.795H1012.41Z" fill="#107DA0"/>
<path d="M1005.74 415.795L989.927 399.872H988.346L1004.16 415.795H1005.74Z" fill="#107DA0"/>
<path d="M999.062 415.795L983.251 399.872H981.672L997.483 415.795H999.062Z" fill="#107DA0"/>
<path class="cloud" d="M459.644 238.944C457.537 230.951 450.323 225.052 441.724 225.052C437.543 225.052 433.698 226.461 430.595 228.809C429.634 219.392 421.734 212.047 412.132 212.047C407.384 212.047 403.068 213.857 399.784 216.81C397.061 209.897 390.372 205.001 382.539 205.001C372.763 205.001 364.769 212.617 364.048 222.278C361.269 220.608 358.033 219.631 354.561 219.631C344.311 219.631 336 228 336 238.325V238.944H459.647H459.644Z" fill="#CFE9F1"/>
<path class="cloud" d="M1424.5 28C1424.5 28 1418.26 29 1418.26 31.0159C1417.03 18.946 1406.89 9.53157 1394.58 9.53157C1388.49 9.53157 1382.95 11.8531 1378.74 15.6368C1375.25 6.77425 1366.67 0.5 1356.63 0.5C1344.1 0.5 1333.86 10.2627 1332.93 22.6442C1329.37 20.5039 1325.24 19.2515 1320.79 19.2515C1307.65 19.2515 1297.02 29.9794 1297.02 43.2121V43.9799H1426.02C1433.02 43.9799 1434.5 40.4598 1434.5 34.5C1434.5 28.5402 1424.5 28 1424.5 28Z" fill="#CFE9F1"/>
<path class="cloud" d="M1164.42 74.243C1162.09 74.243 1159.87 74.744 1157.87 75.6298C1157.39 69.6387 1152.42 64.9243 1146.35 64.9243C1140.28 64.9243 1135.29 69.6631 1134.83 75.6747C1133.09 75.1228 1131.23 74.8234 1129.3 74.8234C1120.42 74.8234 1113.01 81.1262 1111.21 89.5305H1180.69C1180.1 80.9897 1173.05 74.241 1164.42 74.241L1164.42 74.243Z" fill="#CFE9F1"/>
<path class="cloud" d="M701.73 278.088H790.892C790.824 272.373 786.21 267.763 780.521 267.763C780.149 267.763 779.784 267.785 779.422 267.824C779.455 267.415 779.484 267.005 779.484 266.59C779.484 258.438 772.922 251.828 764.828 251.828C762.735 251.828 760.749 252.276 758.947 253.072C758.52 247.696 754.061 243.466 748.614 243.466C743.167 243.466 738.687 247.718 738.278 253.113C736.71 252.618 735.04 252.349 733.309 252.349C724.139 252.349 716.706 259.835 716.706 269.07C716.706 269.37 716.735 269.663 716.752 269.958C715.336 269.229 713.737 268.81 712.038 268.81C706.701 268.81 702.31 272.87 701.732 278.09L701.73 278.088Z" fill="#CFE9F1"/>
<path d="M731.422 345.288L691.086 385.804H799.035L839.371 345.288H731.422Z" fill="#048982"/>
<path d="M839.454 345.27L799.058 385.786V485.979H879.85V385.786L839.454 345.27Z" fill="#ABE1F2"/>
<path d="M765.018 385.805L745.062 365.758H784.974L765.018 385.805Z" fill="#006168"/>
<path d="M765.084 385.786L745.128 365.74L725.174 385.786H691.198V485.979H799.058V385.786H765.084Z" fill="#7FB6C8"/>
<path d="M818.374 411.957H814.411V416.492H818.374V411.957Z" fill="#AEA843"/>
<path d="M818.374 425.56H814.411V430.095H818.374V425.56Z" fill="#AEA843"/>
<path d="M818.374 439.166H814.411V443.701H818.374V439.166Z" fill="#AEA843"/>
<path d="M818.374 452.769H814.411V457.304H818.374V452.769Z" fill="#AEA843"/>
<path d="M830.265 411.957H826.302V416.492H830.265V411.957Z" fill="#AEA843"/>
<path d="M830.265 425.56H826.302V430.095H830.265V425.56Z" fill="#AEA843"/>
<path d="M830.265 439.166H826.302V443.701H830.265V439.166Z" fill="#AEA843"/>
<path d="M830.265 452.769H826.302V457.304H830.265V452.769Z" fill="#AEA843"/>
<path d="M842.155 411.957H838.191V416.492H842.155V411.957Z" fill="#AEA843"/>
<path d="M842.155 425.56H838.191V430.095H842.155V425.56Z" fill="#AEA843"/>
<path d="M842.155 439.166H838.191V443.701H842.155V439.166Z" fill="#AEA843"/>
<path d="M842.155 452.769H838.191V457.304H842.155V452.769Z" fill="#AEA843"/>
<path d="M854.046 411.957H850.083V416.492H854.046V411.957Z" fill="#AEA843"/>
<path d="M854.046 425.56H850.083V430.095H854.046V425.56Z" fill="#AEA843"/>
<path d="M854.046 439.166H850.083V443.701H854.046V439.166Z" fill="#AEA843"/>
<path d="M854.046 452.769H850.083V457.304H854.046V452.769Z" fill="#AEA843"/>
<path d="M865.936 411.957H861.972V416.492H865.936V411.957Z" fill="#AEA843"/>
<path d="M865.936 425.56H861.972V430.095H865.936V425.56Z" fill="#AEA843"/>
<path d="M865.936 439.166H861.972V443.701H865.936V439.166Z" fill="#AEA843"/>
<path d="M865.936 452.769H861.972V457.304H865.936V452.769Z" fill="#AEA843"/>
<path d="M706.424 411.804H701.354V428.303H706.424V411.804Z" fill="#107DA0"/>
<path d="M727.091 411.804H722.021V428.303H727.091V411.804Z" fill="#107DA0"/>
<path d="M747.758 411.804H742.688V428.303H747.758V411.804Z" fill="#107DA0"/>
<path d="M768.425 411.804H763.355V428.303H768.425V411.804Z" fill="#107DA0"/>
<path d="M789.092 411.804H784.022V428.303H789.092V411.804Z" fill="#107DA0"/>
<path d="M706.424 440.955H701.354V457.454H706.424V440.955Z" fill="#107DA0"/>
<path d="M727.091 440.955H722.021V457.454H727.091V440.955Z" fill="#107DA0"/>
<path d="M747.758 440.955H742.688V457.454H747.758V440.955Z" fill="#107DA0"/>
<path d="M768.425 440.955H763.355V457.454H768.425V440.955Z" fill="#107DA0"/>
<path d="M789.092 440.955H784.022V457.454H789.092V440.955Z" fill="#107DA0"/>
<path d="M1218.02 371.092C1214.92 371.092 1212.03 371.715 1209.54 372.778C1208.9 366.62 1201.76 361.765 1193.03 361.765C1186.03 361.765 1180.05 364.884 1177.62 369.293C1174.69 367.412 1170.83 366.257 1166.59 366.257C1158.01 366.257 1150.95 370.939 1150.1 376.942C1147.32 375.445 1143.89 374.547 1140.16 374.547C1131 374.547 1123.57 379.883 1123.57 386.463C1123.57 386.55 1123.59 386.634 1123.59 386.719C1123.59 386.719 1123.58 386.715 1123.57 386.713V485.893H1234.6V383.005C1234.6 376.423 1227.18 371.089 1218.02 371.089V371.092Z" fill="#00759A"/>
<path d="M1198.28 413.13L1179.13 377.03H1215.36L1234.52 413.13H1198.28Z" fill="#006168"/>
<path d="M1234.52 413.13H1198.28V485.896H1234.52V413.13Z" fill="#107DA0"/>
<path d="M1179.25 377.014V413.114V485.979H1198.26V413.114L1179.25 377.014Z" fill="white"/>
<path d="M1220.44 427.25H1212.65V436.335H1220.44V427.25Z" fill="#1FB578"/>
<path d="M1220.44 448.057H1212.65V457.141H1220.44V448.057Z" fill="#1FB578"/>
<path d="M1149.99 410C1149.99 422.886 1140.58 433.333 1140.58 433.333C1140.58 433.333 1131.18 422.886 1131.18 410C1131.18 409.641 1131.18 409.285 1131.2 408.933C1131.67 397.046 1149.5 397.046 1149.97 408.933C1149.99 409.287 1149.99 409.643 1149.99 410V410Z" fill="#048982"/>
<path d="M1141.39 416.675H1139.78V469.413H1141.39V416.675Z" fill="#006168"/>
<path d="M1173.54 410C1173.54 422.886 1164.14 433.333 1164.14 433.333C1164.14 433.333 1154.73 422.886 1154.73 410C1154.73 409.641 1154.74 409.285 1154.75 408.933C1155.22 397.046 1173.05 397.046 1173.52 408.933C1173.54 409.287 1173.54 409.643 1173.54 410V410Z" fill="#107DA0"/>
<path d="M1164.95 416.675H1163.33V469.413H1164.95V416.675Z" fill="#006168"/>
<path d="M1178.79 473.921C1178.79 466.268 1172.63 455.778 1165.03 455.778C1160.98 455.778 1157.36 457.548 1154.84 460.35C1154.6 452.907 1148.55 446.942 1141.1 446.942C1139.03 446.942 1137.07 447.417 1135.3 448.246C1135.31 448.146 1135.32 448.048 1135.32 447.946C1135.32 440.293 1129.16 434.088 1121.56 434.088C1118.46 434.088 1115.61 435.133 1113.31 436.874C1112.6 429.893 1106.74 424.45 1099.63 424.45C1096.11 424.45 1092.91 425.792 1090.47 427.981C1088.45 422.855 1083.5 419.227 1077.69 419.227C1070.44 419.227 1064.52 424.874 1063.98 432.034C1061.92 430.796 1059.52 430.073 1056.95 430.073C1049.35 430.073 1043.19 436.278 1043.19 443.931V485.897H1179.13L1178.79 473.923L1178.79 473.921Z" fill="#4FC6B7"/>
<path d="M1079.68 443.238C1078.98 442.346 1078.89 441.136 1079.37 440.114C1080.1 438.556 1080.51 436.819 1080.51 434.99C1080.51 431.278 1078.83 427.956 1076.18 425.714C1075.07 424.778 1074.7 423.201 1075.41 421.945C1076.06 420.792 1076.44 419.471 1076.45 418.061C1076.5 413.632 1072.82 409.846 1068.32 409.72C1063.59 409.588 1059.71 413.331 1059.71 417.968C1059.71 419.414 1060.09 420.77 1060.75 421.949C1061.46 423.205 1061.09 424.78 1059.98 425.716C1057.33 427.961 1055.65 431.28 1055.65 434.992C1055.65 436.823 1056.06 438.56 1056.79 440.12C1057.27 441.153 1057.16 442.368 1056.46 443.272C1054.4 445.924 1053.25 449.298 1053.48 452.941C1053.94 460.179 1060.02 466.068 1067.37 466.412C1075.77 466.805 1082.71 460.209 1082.71 452.019C1082.71 448.716 1081.58 445.671 1079.68 443.242L1079.68 443.238Z" fill="#107DA0"/>
<path d="M1107.24 447.557C1107.34 446.847 1107.36 446.109 1107.29 445.356C1106.88 441.157 1103.48 437.746 1099.23 437.281C1093.71 436.681 1089.03 440.923 1089.03 446.24C1089.03 446.586 1089.06 446.928 1089.09 447.264C1089.47 450.545 1089.1 453.895 1087.75 456.915C1087.03 458.509 1086.69 460.299 1086.81 462.181C1087.17 467.74 1091.73 472.257 1097.37 472.642C1104.03 473.094 1109.58 467.905 1109.58 461.44C1109.58 459.839 1109.24 458.316 1108.63 456.937C1107.32 453.992 1106.76 450.738 1107.24 447.557V447.557Z" fill="#73DDDA"/>
<path d="M1097.67 449.138H1096.05V485.789H1097.67V449.138Z" fill="#006168"/>
<path d="M1067.75 437.186H1066.13V485.789H1067.75V437.186Z" fill="#006168"/>
<path d="M1285.89 329.685L1260.2 303.38H1341.1L1366.79 329.685H1285.89Z" fill="#123E6B"/>
<path d="M1260.25 303.364L1234.63 329.669V413.075H1285.87V329.669L1260.25 303.364Z" fill="#46A3C0"/>
<path d="M1366.79 329.685H1285.89V413.13H1366.79V329.685Z" fill="#107DA0"/>
<path d="M1311.51 341.94H1305.58V345.952H1311.51V341.94Z" fill="#FFFBF7"/>
<path d="M1311.51 353.974H1305.58V357.985H1311.51V353.974Z" fill="#FFFBF7"/>
<path d="M1329.31 341.94H1323.38V345.952H1329.31V341.94Z" fill="#FFFBF7"/>
<path d="M1329.31 353.974H1323.38V357.985H1329.31V353.974Z" fill="#FFFBF7"/>
<path d="M1347.11 341.94H1341.17V345.952H1347.11V341.94Z" fill="#FFFBF7"/>
<path d="M1347.11 353.974H1341.17V357.985H1347.11V353.974Z" fill="#FFFBF7"/>
<path d="M1311.51 366.007H1305.58V370.019H1311.51V366.007Z" fill="#FFFBF7"/>
<path d="M1329.31 366.007H1323.38V370.019H1329.31V366.007Z" fill="#FFFBF7"/>
<path d="M1347.11 366.007H1341.17V370.019H1347.11V366.007Z" fill="#FFFBF7"/>
<path d="M1254.27 341.94H1248.34V345.952H1254.27V341.94Z" fill="#107DA0"/>
<path d="M1254.27 353.974H1248.34V357.985H1254.27V353.974Z" fill="#107DA0"/>
<path d="M1272.07 341.94H1266.14V345.952H1272.07V341.94Z" fill="#107DA0"/>
<path d="M1272.07 353.974H1266.14V357.985H1272.07V353.974Z" fill="#107DA0"/>
<path d="M1254.27 366.007H1248.34V370.019H1254.27V366.007Z" fill="#107DA0"/>
<path d="M1272.07 366.007H1266.14V370.019H1272.07V366.007Z" fill="#107DA0"/>
<path d="M1367.03 462.814H1438.84V367.226C1437.95 361.608 1428.76 351.957 1415.83 358.474C1415.84 358.294 1415.52 351.413 1409.11 346C1403.82 341.533 1394.71 337.639 1384.68 342.526C1384.06 336.718 1375.16 329.685 1366.79 329.685L1367.03 462.814Z" fill="#196C86"/>
<path d="M1383.72 401.009C1364.32 405.766 1361.29 399.143 1337.12 401.929C1318.47 404.078 1313.27 415.561 1296.65 412.918C1279.93 410.262 1258.02 404.477 1234.52 413.27V485.893H1438.84V390.305C1409.97 381.035 1397.16 397.712 1383.72 401.007L1383.72 401.009Z" fill="#048982"/>
<path d="M1327.61 445.448C1327.61 458.772 1341 469.573 1341 469.573C1341 469.573 1354.4 458.772 1354.4 445.448C1354.4 432.123 1341 421.322 1341 421.322C1341 421.322 1327.61 432.123 1327.61 445.448Z" fill="#123E6B"/>
<path d="M1341.81 442.507H1340.19V485.896H1341.81V442.507Z" fill="#006168"/>
<path d="M1294.08 445.448C1294.08 458.772 1307.48 469.573 1307.48 469.573C1307.48 469.573 1320.87 458.772 1320.87 445.448C1320.87 432.123 1307.48 421.322 1307.48 421.322C1307.48 421.322 1294.08 432.123 1294.08 445.448Z" fill="#57C5C6"/>
<path d="M1308.29 442.507H1306.67V485.896H1308.29V442.507Z" fill="#006168"/>
<path d="M1260.56 445.448C1260.56 458.772 1273.95 469.573 1273.95 469.573C1273.95 469.573 1287.34 458.772 1287.34 445.448C1287.34 432.123 1273.95 421.322 1273.95 421.322C1273.95 421.322 1260.56 432.123 1260.56 445.448Z" fill="#107DA0"/>
<path d="M1274.76 442.507H1273.14V485.896H1274.76V442.507Z" fill="#006168"/>
<path d="M1394.66 445.448C1394.66 458.772 1408.06 469.573 1408.06 469.573C1408.06 469.573 1421.45 458.772 1421.45 445.448C1421.45 432.123 1408.06 421.322 1408.06 421.322C1408.06 421.322 1394.66 432.123 1394.66 445.448Z" fill="white"/>
<path d="M1408.87 442.507H1407.25V485.896H1408.87V442.507Z" fill="#006168"/>
<path d="M1361.14 445.448C1361.14 458.772 1374.53 469.573 1374.53 469.573C1374.53 469.573 1387.92 458.772 1387.92 445.448C1387.92 432.123 1374.53 421.322 1374.53 421.322C1374.53 421.322 1361.14 432.123 1361.14 445.448Z" fill="#107DA0"/>
<path d="M1375.34 442.507H1373.72V485.896H1375.34V442.507Z" fill="#006168"/>
<path d="M527.224 473.152C498.969 467.197 494.649 456.327 460.809 451.286C422.862 445.633 412.462 459.656 388.584 453.25C356.102 444.534 338.983 463.851 292.085 454.29C257.625 447.265 216.884 478.194 169.221 485.845H689.975V449.511C624.43 425.014 555.156 479.041 527.224 473.154V473.152Z" fill="#048982"/>
<path d="M1262.53 525.928C1159.8 537.238 1187.45 546.651 1094.48 552.033C1008.17 557.028 970.262 545.292 869.285 547.294C740.723 549.844 741.983 569.868 631.09 568.866C513.181 567.801 512.561 543.722 383.34 546.84C292.903 549.023 238.487 568.288 140.212 571.208C64.1607 573.469 38.3321 548.502 -6.97119 560.494V586.07H1438.84V524.065C1387.7 520.574 1313.04 520.367 1262.52 525.928H1262.53Z" fill="#1FB578"/>
<path d="M1070.79 573.165C1073.55 573.175 1076.27 573.2 1078.96 573.265C1100.73 573.788 1121.91 571.438 1135.02 567.335C1149.7 562.743 1172.82 559.78 1198.83 559.78C1205.68 559.78 1212.32 559.987 1218.66 560.376C1238.49 561.592 1259.51 560.248 1274.99 557.096C1288.97 554.247 1307.08 552.528 1326.88 552.528C1354.64 552.528 1379.08 555.904 1393.48 561.034C1403.83 564.72 1420.4 567.172 1438.84 567.544V586.07H993.981C995.095 585.608 996.066 585.121 996.859 584.608C1005.29 579.152 1024.95 573.012 1070.79 573.165H1070.79Z" fill="#048982"/>
</g>
<defs>
<style>
.cloud{
    animation: move 50s linear infinite;
    transform: translateX(-30vw);
}


@-webkit-keyframes move {
    from {
      transform: translateX(-30vw);
    }
    to {
      transform: translateX(100vw);
    }
  }
</style>
</defs>
</svg>
