<svg width="81" height="952" viewBox="0 0 81 952" fill="none" xmlns="http://www.w3.org/2000/svg">
<path d="M-27.2392 901.492C-27.3591 902.031 -27.477 902.569 -27.593 903.105C-22.9423 817.706 -19.4373 732.277 -17.0782 646.814C-11.3701 439.838 -12.3732 232.679 -20.0978 25.3366C-7.26276 84.3517 9.55262 130.304 23.2785 162.612L23.2786 162.612C31.0798 180.971 39.1285 197.851 46.5765 213.472C47.0722 214.511 47.5651 215.545 48.0552 216.574C55.9198 233.077 63.0215 248.134 68.3975 262.12C79.1619 290.124 82.81 313.351 72.1593 334.751L72.1592 334.751C67.8353 343.443 62.3617 349.467 56.9605 355.411C55.5389 356.976 54.1224 358.535 52.7331 360.136C46.076 367.806 40.342 376.18 38.922 389.99C37.3305 405.471 42.3816 416.013 47.1129 425.887L47.3119 426.302C52.0865 436.271 56.4226 445.593 54.2396 459.328C52.0699 472.971 45.3422 479.21 37.9886 485.942L37.8504 486.069C30.4402 492.852 22.4761 500.143 19.2097 515.629L21.0255 516.012L19.2096 515.629C15.9637 531.033 19.7955 543.038 23.4078 554.355C23.6207 555.022 23.8328 555.686 24.0427 556.349C27.8151 568.262 30.9196 579.689 25.8033 594.684C23.565 601.241 20.8628 605.236 17.8188 608.918C16.9332 609.99 15.991 611.063 15.0087 612.183C12.6457 614.875 10.0506 617.832 7.4536 621.658L9.05687 622.746L7.45356 621.658C-9.33019 646.387 -2.44687 671.547 5.94207 699.09C6.27173 700.172 6.60398 701.259 6.93762 702.35C15.1507 729.211 24.208 758.834 16.1621 794.335C12.2593 811.553 6.17248 822.079 -0.735541 834.025C-1.64422 835.597 -2.56711 837.193 -3.5011 838.832C-11.569 852.99 -20.2596 870.05 -27.2392 901.492Z" stroke="#BFB61F" stroke-opacity="0.8" stroke-width="4"/>
</svg>
