<svg width="48" height="36" viewBox="0 0 48 36" fill="none" xmlns="http://www.w3.org/2000/svg">
<path d="M0 3.13031V32.836C0 34.5623 1.40401 35.9663 3.12972 35.9663H44.8703C46.596 35.9663 48 34.5623 48 32.836V3.13031C48 1.40401 46.596 0 44.8703 0H3.12972C1.40401 0 0 1.40401 0 3.13031V3.13031ZM46.7999 3.13031V32.836C46.7999 33.9001 45.9344 34.7662 44.8703 34.7662H3.12972C2.06558 34.7662 1.20009 33.9001 1.20009 32.836V3.13031C1.20009 2.06617 2.06558 1.20009 3.12972 1.20009H44.8703C45.9344 1.20009 46.7999 2.06617 46.7999 3.13031V3.13031Z" fill="url(#paint0_linear_88_377)"/>
<path d="M5.17939 9.37099H22.3392C22.6709 9.37099 22.9393 9.10261 22.9393 8.77094C22.9393 8.43928 22.6709 8.1709 22.3392 8.1709H5.17939C4.84772 8.1709 4.57935 8.43928 4.57935 8.77094C4.57935 9.10261 4.84772 9.37099 5.17939 9.37099V9.37099Z" fill="url(#paint1_linear_88_377)"/>
<path d="M5.17939 15.5126H22.3392C22.6709 15.5126 22.9393 15.2442 22.9393 14.9125C22.9393 14.5809 22.6709 14.3125 22.3392 14.3125H5.17939C4.84772 14.3125 4.57935 14.5809 4.57935 14.9125C4.57935 15.2442 4.84772 15.5126 5.17939 15.5126V15.5126Z" fill="url(#paint2_linear_88_377)"/>
<path d="M5.17939 21.6537H22.3392C22.6709 21.6537 22.9393 21.3853 22.9393 21.0537C22.9393 20.722 22.6709 20.4536 22.3392 20.4536H5.17939C4.84772 20.4536 4.57935 20.722 4.57935 21.0537C4.57935 21.3853 4.84772 21.6537 5.17939 21.6537V21.6537Z" fill="url(#paint3_linear_88_377)"/>
<path d="M5.17939 27.7953H22.3392C22.6709 27.7953 22.9393 27.5269 22.9393 27.1953C22.9393 26.8636 22.6709 26.5952 22.3392 26.5952H5.17939C4.84772 26.5952 4.57935 26.8636 4.57935 27.1953C4.57935 27.5269 4.84772 27.7953 5.17939 27.7953V27.7953Z" fill="url(#paint4_linear_88_377)"/>
<path d="M27.6606 27.7954H42.8205C43.1522 27.7954 43.4205 27.527 43.4205 27.1953V8.77094C43.4205 8.43928 43.1522 8.1709 42.8205 8.1709H27.6606C27.3289 8.1709 27.0605 8.43928 27.0605 8.77094V27.1953C27.0605 27.527 27.3289 27.7954 27.6606 27.7954ZM28.2606 9.37099H42.2204V26.5953H28.2606V9.37099Z" fill="url(#paint5_linear_88_377)"/>
<defs>
<linearGradient id="paint0_linear_88_377" x1="24" y1="0" x2="24" y2="35.9663" gradientUnits="userSpaceOnUse">
<stop stop-color="#BFB61F"/>
<stop offset="0.588542" stop-color="#107DA0"/>
</linearGradient>
<linearGradient id="paint1_linear_88_377" x1="13.7593" y1="8.1709" x2="13.7593" y2="9.37099" gradientUnits="userSpaceOnUse">
<stop stop-color="#BFB61F"/>
<stop offset="0.588542" stop-color="#107DA0"/>
</linearGradient>
<linearGradient id="paint2_linear_88_377" x1="13.7593" y1="14.3125" x2="13.7593" y2="15.5126" gradientUnits="userSpaceOnUse">
<stop stop-color="#BFB61F"/>
<stop offset="0.588542" stop-color="#107DA0"/>
</linearGradient>
<linearGradient id="paint3_linear_88_377" x1="13.7593" y1="20.4536" x2="13.7593" y2="21.6537" gradientUnits="userSpaceOnUse">
<stop stop-color="#BFB61F"/>
<stop offset="0.588542" stop-color="#107DA0"/>
</linearGradient>
<linearGradient id="paint4_linear_88_377" x1="13.7593" y1="26.5952" x2="13.7593" y2="27.7953" gradientUnits="userSpaceOnUse">
<stop stop-color="#BFB61F"/>
<stop offset="0.588542" stop-color="#107DA0"/>
</linearGradient>
<linearGradient id="paint5_linear_88_377" x1="35.2405" y1="8.1709" x2="35.2405" y2="27.7954" gradientUnits="userSpaceOnUse">
<stop stop-color="#BFB61F"/>
<stop offset="0.588542" stop-color="#107DA0"/>
</linearGradient>
</defs>
</svg>
