<svg width="13" height="13" viewBox="0 0 13 13" fill="none" xmlns="http://www.w3.org/2000/svg">
<path d="M4.13605 5.90442C3.973 5.90348 3.84005 6.03487 3.83912 6.1979C3.83866 6.27721 3.87012 6.35338 3.92644 6.40924L6.28821 8.77101C6.40337 8.88549 6.58934 8.88549 6.70447 8.77101L9.06624 6.40924C9.19007 6.30319 9.20451 6.11682 9.09844 5.99299C8.99239 5.86915 8.80602 5.85472 8.68218 5.96079C8.67064 5.97069 8.65985 5.98144 8.64999 5.99299L6.79304 7.84994V0.295212C6.79304 0.132181 6.66086 0 6.4978 0C6.33474 0 6.20259 0.132181 6.20259 0.295212V7.84994L4.34564 5.99299C4.29041 5.93664 4.21493 5.90475 4.13605 5.90442Z" fill="#007299"/>
<path d="M12.8583 5.19744C12.3358 2.65275 10.3472 0.664177 7.80251 0.141645H7.80545C7.65871 0.0705821 7.48213 0.131928 7.41107 0.278672C7.34 0.425415 7.40135 0.601994 7.54809 0.673057C7.58874 0.692745 7.63334 0.702842 7.6785 0.702563C10.8735 1.35474 12.9349 4.47354 12.2827 7.66859C11.6306 10.8636 8.51179 12.925 5.31675 12.2728C2.12171 11.6207 0.0603224 8.50186 0.712498 5.30681C1.18581 2.98802 2.99796 1.1759 5.31675 0.702563C5.47981 0.703527 5.61275 0.572108 5.61369 0.409076C5.61465 0.24602 5.48323 0.113078 5.3202 0.112139C5.27504 0.111885 5.23044 0.121983 5.1898 0.141645C1.6761 0.863133 -0.587465 4.29643 0.134024 7.81015C0.855512 11.3239 4.28881 13.5874 7.80251 12.8659C11.3162 12.1444 13.5798 8.71114 12.8583 5.19744Z" fill="#007299"/>
</svg>
