<svg width="264" height="56" viewBox="0 0 264 56" fill="none" xmlns="http://www.w3.org/2000/svg">
<g clip-path="url(#clip0_101_5068)">
<path d="M5.73292 14.6965H4.86015V18.6637C4.86015 18.7511 4.86015 18.843 4.86015 18.948C4.86015 19.0529 4.86458 19.1579 4.86901 19.2673C4.87344 19.3766 4.87787 19.4903 4.8823 19.5997C4.88673 19.709 4.89116 19.8184 4.89559 19.9234C4.90888 20.1683 4.92217 20.4176 4.93103 20.6669H4.89559L1.30701 14.6965H0.234863V21.9441H1.09878V18.0119C1.09878 17.8238 1.09878 17.6139 1.08549 17.3777C1.07663 17.1415 1.06777 16.9184 1.05448 16.7041C1.04119 16.4548 1.02347 16.2011 1.00574 15.9474H1.04562L4.65635 21.9485H5.73736V14.7008L5.73292 14.6965ZM12.981 21.1306H10.1057V18.5543H12.7905V17.7495H10.1057V15.51H12.981V14.6965H9.17087V21.9441H12.981V21.1306ZM17.9695 18.948C17.9252 19.1098 17.8854 19.2804 17.8455 19.4641C17.8056 19.6478 17.7702 19.8271 17.7392 20.0065C17.7037 20.1858 17.6771 20.3564 17.6506 20.5182C17.624 20.6801 17.6063 20.8244 17.5885 20.9425C17.5708 20.8156 17.5531 20.6801 17.5265 20.527C17.4999 20.3739 17.4778 20.2208 17.4468 20.059C17.4158 19.8971 17.3892 19.7353 17.3537 19.5691C17.3183 19.4029 17.2828 19.2498 17.243 19.0967L16.1221 14.6877H15.1341L17.0746 21.9354H18.0183L19.2322 17.3121C19.2765 17.1328 19.3252 16.9534 19.3651 16.7653C19.405 16.5773 19.4449 16.4111 19.4803 16.2536C19.5157 16.0699 19.5556 15.8949 19.5911 15.7287C19.6265 15.8993 19.6664 16.0786 19.7062 16.258C19.7417 16.4154 19.7816 16.5816 19.8259 16.7566C19.8702 16.9359 19.9145 17.1065 19.9588 17.2771L21.2347 21.9266H22.1784L24.0214 14.679H23.0201L22.0145 19.0529C21.979 19.2148 21.9436 19.381 21.9126 19.5516C21.8815 19.7222 21.8505 19.8884 21.8239 20.0502C21.7974 20.212 21.7752 20.3695 21.7531 20.5182C21.7309 20.6669 21.7176 20.8025 21.7043 20.9294C21.6866 20.8025 21.66 20.6626 21.6246 20.5095C21.5936 20.352 21.5581 20.1902 21.5138 20.0152C21.4695 19.8403 21.4252 19.6609 21.3765 19.4772C21.3277 19.2935 21.279 19.1054 21.2303 18.9217L20.0784 14.679H19.0904L17.9607 18.9305L17.9695 18.948ZM27.4992 18.878H30.184V18.0644H27.4992V15.5056H30.3789V14.6921H26.5689V21.9398H27.5037V18.8736L27.4992 18.878ZM38.8498 16.7741C38.7302 16.3454 38.5219 15.9474 38.2428 15.5975C37.977 15.2738 37.6359 15.0158 37.2504 14.8452C36.8207 14.6615 36.3511 14.5696 35.8814 14.5784C35.3941 14.5652 34.9112 14.6571 34.4593 14.8452C34.0694 15.0114 33.7283 15.2694 33.458 15.5975C33.1834 15.943 32.984 16.3454 32.8688 16.7697C32.6163 17.7757 32.6163 18.8255 32.8688 19.8315C32.9796 20.2602 33.1789 20.6626 33.4536 21.0125C33.7194 21.3405 34.0606 21.603 34.446 21.7692C34.8935 21.9573 35.3764 22.0491 35.8637 22.036C36.3378 22.0447 36.803 21.9529 37.2371 21.7692C37.627 21.5986 37.9681 21.3362 38.234 21.0125C38.5131 20.6626 38.7169 20.2602 38.8409 19.8315C39.1112 18.8299 39.1112 17.7757 38.8409 16.7741H38.8498ZM33.8036 17.0846C33.8745 16.7566 34.0118 16.446 34.2068 16.1705C34.384 15.9255 34.6188 15.7287 34.8935 15.5931C35.2036 15.4532 35.5403 15.3832 35.8814 15.3919C36.2226 15.3832 36.5593 15.4532 36.865 15.5931C37.1352 15.7243 37.37 15.9212 37.5428 16.1705C37.7333 16.446 37.8662 16.7566 37.9327 17.0846C38.101 17.8938 38.101 18.7249 37.9327 19.5297C37.8618 19.8577 37.7289 20.1727 37.5384 20.4526C37.3656 20.7019 37.1308 20.8988 36.8561 21.0343C36.227 21.3012 35.5137 21.3012 34.8846 21.0343C34.6099 20.9031 34.3751 20.7019 34.2023 20.4526C34.0118 20.1727 33.8745 19.8577 33.8036 19.5297C33.6308 18.7249 33.6308 17.8895 33.8036 17.0846V17.0846ZM46.4478 14.6833V19.4029C46.4478 19.6522 46.4124 19.9015 46.3415 20.1421C46.2795 20.3564 46.1776 20.5532 46.0358 20.7238C45.894 20.89 45.7124 21.0169 45.5086 21.1C45.2649 21.1962 45.0035 21.2399 44.7421 21.2355C44.2548 21.2749 43.7763 21.1 43.4308 20.7588C43.1206 20.3826 42.9656 19.9015 42.9966 19.416V14.6965H42.0573V19.3679C42.0529 19.7396 42.1105 20.1114 42.2301 20.4657C42.3365 20.7807 42.5092 21.0693 42.7352 21.3099C42.9656 21.5505 43.2491 21.7342 43.5592 21.8523C43.9225 21.9835 44.308 22.0491 44.6934 22.0447C45.101 22.0535 45.5042 21.9835 45.8807 21.8435C46.1997 21.7211 46.4833 21.5286 46.7181 21.2837C46.944 21.0431 47.1124 20.7544 47.2187 20.4395C47.3295 20.1027 47.3871 19.7484 47.3826 19.3897V14.6877H46.4478V14.6833ZM56.2477 14.6921H55.375V18.6593C55.375 18.7468 55.375 18.8386 55.375 18.9436C55.375 19.0486 55.3794 19.1535 55.3838 19.2629C55.3883 19.3722 55.3927 19.486 55.3971 19.5953C55.4016 19.7047 55.406 19.814 55.4104 19.919C55.4237 20.1639 55.437 20.4132 55.4459 20.6626H55.4104L51.813 14.6921H50.7453V21.9398H51.6092V18.0076C51.6092 17.8195 51.6092 17.6095 51.5959 17.3733C51.587 17.1371 51.5782 16.9141 51.5649 16.6997C51.5516 16.4504 51.5339 16.1967 51.5161 15.943H51.556L55.1667 21.9441H56.2477V14.6965V14.6921ZM64.8559 16.7085C64.7141 16.293 64.4838 15.9124 64.1781 15.5931C63.8812 15.2913 63.518 15.0595 63.1192 14.9152C62.6718 14.7577 62.2021 14.679 61.7281 14.6877H59.6857V21.9354H61.5243C62.0382 21.9441 62.5477 21.8654 63.035 21.7036C63.4604 21.5592 63.8414 21.323 64.1559 21.0081C64.4705 20.6801 64.7097 20.282 64.8559 19.8534C65.0243 19.3329 65.1084 18.7905 65.0952 18.2438C65.104 17.7232 65.0243 17.2027 64.8603 16.7041L64.8559 16.7085ZM63.4338 20.422C62.9021 20.9381 62.1756 21.2006 61.4357 21.1437H60.6205V15.475H61.6306C61.9895 15.4707 62.3439 15.5275 62.6806 15.6412C62.9774 15.7462 63.2477 15.9212 63.4604 16.1486C63.6863 16.3979 63.8502 16.6954 63.9433 17.019C64.0629 17.4258 64.116 17.8501 64.1072 18.27C64.1648 19.0442 63.9255 19.8096 63.4338 20.4176V20.422ZM71.9755 21.9398V21.1175H69.0958V14.6921H68.161V21.9398H71.9755V21.9398ZM79.9102 21.9398L77.2077 14.6615H76.3571L73.659 21.9398H74.6027L75.4179 19.6915H78.1558L78.9577 21.9398H79.9102V21.9398ZM75.7147 18.8736L76.4413 16.7697C76.4634 16.7129 76.4856 16.6429 76.5122 16.5598C76.5387 16.4767 76.5698 16.3848 76.6008 16.2798C76.6318 16.1749 76.6628 16.0743 76.6894 15.9649C76.716 15.8556 76.747 15.7506 76.7691 15.6456C76.7957 15.7462 76.8223 15.8512 76.8533 15.9605C76.8843 16.0699 76.9109 16.1705 76.9419 16.2711C76.9729 16.3717 76.9995 16.4635 77.0305 16.551C77.0615 16.6385 77.0837 16.7085 77.1014 16.7697L77.8457 18.8736H75.7103H75.7147ZM87.845 14.6877H86.9722V18.6549C86.9722 18.7424 86.9722 18.8342 86.9722 18.9392C86.9722 19.0442 86.9766 19.1492 86.9811 19.2585C86.9855 19.3679 86.9899 19.4816 86.9944 19.5909C86.9988 19.7003 87.0032 19.8096 87.0077 19.9146C87.0209 20.1596 87.0342 20.4089 87.0431 20.6582H87.0077L83.4102 14.6877H82.3425V21.9354H83.2064V18.0032C83.2064 17.8151 83.2064 17.6052 83.1931 17.369C83.1843 17.1328 83.1754 16.9097 83.1621 16.6954C83.1488 16.446 83.1311 16.1924 83.1134 15.9387H83.1533L86.764 21.9398H87.845V14.6921V14.6877ZM96.4532 16.7041C96.3114 16.2886 96.081 15.908 95.7753 15.5887C95.4785 15.2869 95.1152 15.0551 94.7165 14.9108C94.269 14.7533 93.7994 14.6746 93.3253 14.6833H91.2829V21.931H93.1215C93.6355 21.9398 94.1449 21.861 94.6323 21.6992C95.0576 21.5548 95.4386 21.3187 95.7532 21.0037C96.0721 20.6757 96.307 20.2776 96.4532 19.849C96.6215 19.3285 96.7057 18.7861 96.6924 18.2394C96.7013 17.7189 96.6215 17.1984 96.4532 16.6997V16.7041ZM95.031 20.4176C94.4994 20.9337 93.7728 21.1962 93.0329 21.1393H92.2177V15.4707H93.2279C93.5867 15.4663 93.9411 15.5231 94.2779 15.6369C94.5747 15.7418 94.8449 15.9168 95.0576 16.1442C95.2835 16.3936 95.4475 16.691 95.5405 17.0147C95.6601 17.4214 95.7133 17.8457 95.7044 18.2656C95.762 19.0398 95.5228 19.8053 95.031 20.4132V20.4176ZM105.243 15.5363C105.433 15.3832 105.677 15.3044 105.925 15.3176C106.054 15.3176 106.182 15.3351 106.302 15.3788C106.408 15.4182 106.501 15.475 106.585 15.5494C106.665 15.6237 106.727 15.7112 106.767 15.8118C106.811 15.9168 106.829 16.0305 106.829 16.1399C106.829 16.2667 106.807 16.3979 106.758 16.516C106.709 16.6385 106.634 16.7479 106.545 16.8485C106.439 16.9666 106.32 17.0715 106.191 17.159C106.045 17.264 105.877 17.369 105.677 17.4871C105.566 17.3777 105.464 17.2596 105.367 17.1371C105.287 17.0365 105.216 16.9272 105.154 16.8091C105.101 16.7085 105.061 16.5991 105.03 16.4854C105.004 16.3761 104.99 16.2667 104.99 16.1574C104.973 15.9212 105.066 15.6937 105.239 15.5319L105.243 15.5363ZM105.123 21.1481C104.973 21.0956 104.831 21.0081 104.716 20.8988C104.605 20.7894 104.516 20.6582 104.463 20.5138C104.401 20.3564 104.375 20.1902 104.375 20.0196C104.375 19.8534 104.397 19.6872 104.446 19.5297C104.494 19.3897 104.561 19.2585 104.654 19.1404C104.751 19.0136 104.866 18.9042 104.995 18.8036C105.145 18.6899 105.296 18.5805 105.456 18.4843L107.401 20.5007C107.294 20.6013 107.179 20.6976 107.059 20.7894C106.935 20.8813 106.807 20.96 106.67 21.0212C106.523 21.0912 106.368 21.1437 106.213 21.1787C106.036 21.2181 105.859 21.2355 105.677 21.2355C105.491 21.2355 105.305 21.2093 105.132 21.1481H105.123ZM103.573 20.8944C103.67 21.1349 103.821 21.3493 104.016 21.5199C104.22 21.6992 104.463 21.8304 104.725 21.9048C105.03 21.9966 105.349 22.0404 105.673 22.036C105.908 22.036 106.142 22.0141 106.377 21.9704C106.576 21.9266 106.771 21.8654 106.958 21.7823C107.139 21.6992 107.312 21.603 107.471 21.4849C107.64 21.3624 107.804 21.2268 107.959 21.0868L108.801 21.9398H109.93L108.539 20.4876C108.668 20.3564 108.787 20.2164 108.898 20.0721C109.009 19.9277 109.106 19.779 109.195 19.6172C109.288 19.451 109.363 19.276 109.43 19.101C109.501 18.9042 109.563 18.703 109.607 18.4974H108.681C108.65 18.6418 108.61 18.7861 108.561 18.9261C108.517 19.0486 108.468 19.171 108.411 19.2891C108.353 19.3985 108.291 19.5078 108.216 19.6084C108.14 19.709 108.061 19.8096 107.972 19.9015L106.204 18.0557C106.404 17.9376 106.599 17.8107 106.78 17.6795C106.958 17.5527 107.117 17.4127 107.263 17.2509C107.401 17.1021 107.516 16.9316 107.6 16.7522C107.684 16.5685 107.728 16.3673 107.724 16.1661C107.724 15.9387 107.689 15.7112 107.604 15.5013C107.529 15.3088 107.409 15.1382 107.254 15.0026C107.095 14.8583 106.904 14.7533 106.696 14.6921C106.457 14.6177 106.204 14.5827 105.952 14.5871C105.686 14.5871 105.42 14.6177 105.163 14.6921C104.951 14.7533 104.751 14.8627 104.578 15.0026C104.423 15.1382 104.299 15.3132 104.22 15.5013C104.131 15.7112 104.091 15.9387 104.096 16.1661C104.096 16.3454 104.118 16.5204 104.166 16.6954C104.211 16.8528 104.273 17.0103 104.348 17.1546C104.423 17.299 104.512 17.4346 104.614 17.5614C104.716 17.6883 104.818 17.8107 104.92 17.9288C104.698 18.0557 104.485 18.1956 104.286 18.3487C104.109 18.4799 103.949 18.6374 103.812 18.808C103.683 18.9742 103.582 19.1579 103.52 19.3591C103.369 19.8621 103.387 20.4001 103.568 20.8944H103.573ZM120.457 21.9398V21.1175H117.577V14.6921H116.642V21.9398H120.457ZM128.392 21.9398L125.689 14.6615H124.834L122.136 21.9398H123.08L123.895 19.6959H126.633L127.435 21.9441H128.392V21.9398ZM124.196 18.8736L124.923 16.7697C124.94 16.7129 124.967 16.6429 124.993 16.5598C125.02 16.4767 125.051 16.3848 125.082 16.2798C125.113 16.1749 125.144 16.0743 125.171 15.9649C125.197 15.8556 125.228 15.7506 125.25 15.6456C125.277 15.7462 125.304 15.8512 125.335 15.9605C125.366 16.0699 125.392 16.1705 125.423 16.2711C125.454 16.3717 125.481 16.4635 125.512 16.551C125.543 16.6385 125.565 16.7085 125.583 16.7697L126.327 18.8736H124.192H124.196ZM130.828 21.9398H133.265C133.602 21.9441 133.943 21.896 134.266 21.7954C134.541 21.7079 134.798 21.568 135.015 21.3799C135.223 21.2006 135.383 20.9731 135.489 20.7194C135.6 20.4395 135.657 20.1377 135.653 19.8359C135.662 19.5866 135.617 19.3416 135.524 19.1098C135.445 18.9217 135.325 18.7511 135.17 18.6155C135.015 18.4843 134.833 18.3793 134.638 18.3094C134.426 18.2306 134.209 18.1738 133.987 18.1388V18.0907C134.204 18.0644 134.412 18.0032 134.607 17.9113C134.78 17.8282 134.935 17.7101 135.068 17.5702C135.192 17.4346 135.29 17.2727 135.352 17.0978C135.418 16.9141 135.449 16.7172 135.449 16.5204C135.458 16.223 135.4 15.9299 135.285 15.6587C135.179 15.4269 135.006 15.2345 134.789 15.0945C134.541 14.937 134.262 14.8321 133.969 14.7839C133.597 14.714 133.216 14.6833 132.835 14.6877H130.833V21.9354L130.828 21.9398ZM131.763 15.4794H132.884C133.309 15.4488 133.73 15.5363 134.107 15.7375C134.377 15.9343 134.523 16.258 134.492 16.5904C134.492 16.7653 134.47 16.9403 134.412 17.1021C134.364 17.2465 134.275 17.3733 134.16 17.4696C134.023 17.5745 133.867 17.6489 133.699 17.6883C133.469 17.7407 133.229 17.767 132.99 17.7626H131.763V15.475V15.4794ZM133.039 18.5412C133.3 18.5368 133.562 18.5674 133.81 18.633C133.991 18.6811 134.164 18.7686 134.31 18.8911C134.435 19.0004 134.528 19.136 134.581 19.2891C134.638 19.4553 134.665 19.6259 134.665 19.8009C134.665 19.989 134.638 20.1727 134.585 20.352C134.532 20.5138 134.443 20.6626 134.319 20.7807C134.182 20.9075 134.018 21.0037 133.836 21.0606C133.597 21.1306 133.345 21.1656 133.097 21.1612H131.759V18.5412H133.039V18.5412ZM140.743 18.948L142.507 21.9441H143.605L141.607 18.6986C141.793 18.633 141.975 18.5456 142.143 18.445C142.316 18.34 142.476 18.2131 142.609 18.06C142.75 17.8982 142.861 17.7101 142.936 17.5089C143.025 17.2684 143.065 17.0103 143.06 16.7566C143.105 16.1705 142.87 15.5975 142.422 15.2082C141.842 14.8233 141.147 14.644 140.447 14.6965H138.661V21.9441H139.596V18.948H140.748H140.743ZM139.591 15.4838H140.393C140.646 15.4838 140.903 15.5056 141.151 15.5538C141.341 15.5931 141.523 15.6719 141.678 15.7856C141.815 15.8906 141.922 16.0305 141.988 16.1924C142.064 16.3848 142.095 16.5904 142.09 16.796C142.09 16.9972 142.064 17.2027 141.997 17.3952C141.94 17.5614 141.838 17.7058 141.7 17.8238C141.55 17.9463 141.372 18.0338 141.182 18.0819C140.929 18.1431 140.672 18.1738 140.415 18.1694H139.591V15.4881V15.4838ZM151.416 21.9441L148.714 14.6658H147.863L145.165 21.9441H146.108L146.924 19.6959H149.662L150.464 21.9441H151.412H151.416ZM147.221 18.878L147.947 16.7741C147.965 16.7172 147.991 16.6472 148.018 16.5641C148.045 16.481 148.076 16.3892 148.107 16.2842C148.138 16.1792 148.169 16.0786 148.195 15.9693C148.222 15.8599 148.253 15.755 148.275 15.65C148.302 15.7506 148.328 15.8556 148.359 15.9649C148.39 16.0743 148.421 16.1749 148.448 16.2755C148.474 16.3761 148.505 16.4679 148.536 16.5554C148.567 16.6429 148.589 16.7129 148.607 16.7741L149.351 18.878H147.216H147.221ZM159.023 16.7085C158.881 16.293 158.651 15.9124 158.345 15.5931C158.048 15.2913 157.685 15.0595 157.286 14.9152C156.839 14.7577 156.369 14.679 155.895 14.6877H153.853V21.9354H155.691C156.205 21.9441 156.715 21.8654 157.202 21.7036C157.627 21.5592 158.008 21.323 158.323 21.0081C158.638 20.6801 158.877 20.282 159.023 19.8534C159.191 19.3329 159.275 18.7905 159.262 18.2438C159.271 17.7232 159.191 17.2027 159.023 16.7085ZM157.601 20.422C157.069 20.9381 156.343 21.2006 155.603 21.1437H154.788V15.475H155.798C156.157 15.4707 156.511 15.5275 156.848 15.6412C157.144 15.7462 157.415 15.9212 157.627 16.1486C157.853 16.3979 158.017 16.6954 158.11 17.019C158.23 17.4258 158.283 17.8501 158.274 18.27C158.332 19.0442 158.093 19.8096 157.605 20.4176L157.601 20.422ZM168.123 16.7697C168.003 16.3411 167.795 15.943 167.516 15.5931C167.25 15.2694 166.909 15.0114 166.524 14.8408C166.094 14.6571 165.624 14.5652 165.155 14.574C164.667 14.5609 164.184 14.6527 163.732 14.8408C163.343 15.007 163.001 15.2651 162.731 15.5931C162.456 15.9387 162.253 16.3367 162.142 16.7653C161.889 17.7714 161.889 18.8211 162.142 19.8271C162.253 20.2558 162.452 20.6582 162.727 21.0081C162.993 21.3362 163.334 21.5986 163.719 21.7648C164.167 21.9529 164.649 22.0447 165.137 22.0316C165.611 22.0404 166.076 21.9485 166.51 21.7648C166.9 21.5942 167.241 21.3318 167.507 21.0081C167.786 20.6582 167.994 20.2558 168.114 19.8271C168.384 18.8255 168.389 17.7714 168.118 16.7697H168.123ZM163.077 17.0803C163.148 16.7522 163.285 16.4417 163.48 16.1661C163.657 15.9212 163.892 15.7243 164.167 15.5887C164.477 15.4488 164.813 15.3788 165.155 15.3875C165.496 15.3788 165.832 15.4488 166.138 15.5887C166.408 15.72 166.643 15.9168 166.816 16.1661C167.006 16.4417 167.139 16.7522 167.206 17.0803C167.374 17.8895 167.374 18.7205 167.206 19.5253C167.135 19.8534 167.002 20.1683 166.812 20.4482C166.639 20.6976 166.404 20.8944 166.129 21.03C165.5 21.2968 164.787 21.2968 164.153 21.03C163.879 20.8988 163.644 20.6976 163.471 20.4482C163.281 20.1683 163.143 19.8534 163.072 19.5253C162.9 18.7205 162.9 17.8851 163.072 17.0803H163.077ZM173.488 18.9436L175.251 21.9398H176.35L174.356 18.6943C174.542 18.6287 174.724 18.5412 174.892 18.4406C175.065 18.3356 175.225 18.2088 175.358 18.0557C175.499 17.8938 175.61 17.7058 175.685 17.5045C175.774 17.264 175.814 17.0059 175.81 16.7522C175.854 16.1661 175.619 15.5931 175.172 15.2038C174.591 14.8189 173.896 14.6396 173.196 14.6921H171.406V21.9398H172.341V18.9436H173.488ZM172.336 15.4794H173.138C173.391 15.4794 173.648 15.5013 173.896 15.5494C174.086 15.5887 174.268 15.6675 174.423 15.7812C174.56 15.8862 174.667 16.0261 174.733 16.188C174.808 16.3804 174.839 16.586 174.835 16.7916C174.835 16.9928 174.808 17.1984 174.742 17.3908C174.684 17.557 174.582 17.7014 174.445 17.8195C174.294 17.9419 174.117 18.0294 173.927 18.0775C173.674 18.1388 173.417 18.1694 173.16 18.165H172.341V15.4838L172.336 15.4794Z" fill="#231F20"/>
<path d="M4.48353 1.33839C4.38606 1.08032 4.22657 0.852875 4.01834 0.673542C3.78354 0.481087 3.50885 0.34112 3.21645 0.262388C2.83987 0.161787 2.45 0.113673 2.0557 0.122421H0.239258V7.36572H1.16963V4.54451H1.92279C2.35696 4.55763 2.79557 4.49202 3.20759 4.35205C3.52215 4.24708 3.80569 4.07212 4.04493 3.8403C4.25315 3.63472 4.40821 3.38103 4.50125 3.10547C4.59429 2.82554 4.63859 2.53248 4.63859 2.23942C4.63859 1.93325 4.58986 1.62707 4.48353 1.33839V1.33839ZM1.16963 0.905363H1.97152C2.42785 0.870371 2.87974 0.988468 3.25632 1.24653C3.54873 1.51335 3.69936 1.89825 3.66835 2.29191C3.67278 2.52373 3.63733 2.75555 3.55316 2.97425C3.48227 3.15359 3.36265 3.31105 3.20759 3.42915C3.03481 3.55599 2.83987 3.64347 2.63165 3.68284C2.36139 3.7397 2.09114 3.76594 1.81646 3.76157H1.16963V0.905363V0.905363ZM9.68476 4.36955L11.448 7.36572H12.5468L10.5487 4.12023C10.7348 4.05462 10.9164 3.96715 11.0847 3.86654C11.2575 3.76594 11.417 3.63472 11.5499 3.48163C11.6917 3.3198 11.8025 3.13172 11.8778 2.93051C11.9664 2.68994 12.0063 2.43188 12.0018 2.17819C12.0461 1.59208 11.8113 1.01909 11.3639 0.629802C10.7835 0.244893 10.0879 0.0655596 9.39236 0.118047H7.6025V7.36572H8.5373V4.36955H9.68476V4.36955ZM8.53287 0.905363H9.33476C9.58729 0.905363 9.84425 0.927233 10.0924 0.975346C10.2829 1.01471 10.4645 1.09344 10.6196 1.20717C10.7569 1.31214 10.8632 1.45211 10.9297 1.61395C11.005 1.8064 11.0404 2.01198 11.0316 2.21756C11.0316 2.41876 11.005 2.62433 10.9385 2.81679C10.881 2.983 10.7791 3.12734 10.6417 3.24544C10.4911 3.36791 10.3139 3.45539 10.1234 3.5035C9.87083 3.56474 9.61387 3.59536 9.35691 3.59098H8.5373V0.905363H8.53287ZM20.898 2.19569C20.7783 1.76704 20.5701 1.369 20.291 1.01909C20.0252 0.695412 19.6841 0.437347 19.2986 0.266762C18.8689 0.0830555 18.3993 -0.008798 17.9296 -5.00494e-05C17.4423 -0.013172 16.9594 0.0786815 16.5075 0.266762C16.1176 0.432973 15.7765 0.691038 15.5062 1.01909C15.2316 1.36463 15.0322 1.76704 14.917 2.19131C14.6645 3.19733 14.6645 4.25145 14.917 5.25747C15.0278 5.68612 15.2271 6.08852 15.5018 6.43844C15.7676 6.76649 16.1088 7.02893 16.4942 7.19514C16.9417 7.38322 17.4246 7.47507 17.9119 7.46195C18.386 7.4707 18.8511 7.37885 19.2853 7.19514C19.6752 7.02455 20.0163 6.76211 20.2821 6.43844C20.5613 6.08852 20.7695 5.68612 20.8891 5.25747C21.1594 4.25583 21.1594 3.2017 20.8891 2.20006L20.898 2.19569ZM15.8518 2.50624C15.9227 2.17819 16.06 1.86764 16.255 1.59208C16.4322 1.34713 16.667 1.15031 16.9417 1.01471C17.2518 0.874745 17.5885 0.804761 17.9296 0.813509C18.2708 0.804761 18.6075 0.874745 18.9132 1.01471C19.1834 1.14593 19.4182 1.34276 19.591 1.59208C19.7815 1.86764 19.9144 2.17819 19.9809 2.50624C20.1492 3.31542 20.1492 4.14648 19.9809 4.95566C19.91 5.28371 19.7771 5.59864 19.5866 5.87857C19.4138 6.12789 19.179 6.32472 18.9043 6.46031C18.2752 6.72712 17.5619 6.72712 16.9328 6.46031C16.6581 6.32909 16.4233 6.12789 16.2505 5.87857C16.06 5.59864 15.9227 5.28809 15.8518 4.95566C15.679 4.14648 15.679 3.31542 15.8518 2.50624V2.50624ZM25.1112 4.29957H27.8005V3.48601H25.1112V0.927232H27.9865V0.113673H24.1764V7.36572H25.1112V4.29957ZM34.4814 6.54779H31.6061V3.96714H34.2909V3.16233H31.6061V0.927232H34.4814V0.113673H30.6713V7.36572H34.4814V6.55216V6.54779ZM41.2864 4.6801C41.2111 4.47453 41.0915 4.28644 40.9364 4.12898C40.7681 3.9584 40.5731 3.81406 40.3605 3.70033C40.1035 3.56037 39.8333 3.43789 39.5586 3.33292C39.2795 3.22357 39.0402 3.12297 38.8497 3.02237C38.6814 2.93926 38.5263 2.83429 38.3846 2.71181C38.2738 2.61121 38.1852 2.47999 38.132 2.34003C38.0789 2.18256 38.0523 2.01635 38.0567 1.85014C38.0434 1.56146 38.1675 1.28152 38.3934 1.09344C38.6681 0.892241 39.0048 0.791639 39.3415 0.813509C39.6295 0.813509 39.9175 0.848501 40.1966 0.918485C40.4491 0.984094 40.6972 1.0672 40.9364 1.1678L41.2731 0.393608C41.0029 0.271136 40.7149 0.174909 40.4225 0.109299C40.0681 0.0305678 39.7092 -0.00442402 39.3504 -0.00442402C39.0491 -0.00442402 38.7478 0.0349417 38.4599 0.118047C38.2073 0.192405 37.9725 0.314876 37.7643 0.476713C37.5694 0.634176 37.4143 0.831005 37.3124 1.05408C37.2016 1.29902 37.1485 1.56583 37.1529 1.83265C37.1529 2.08634 37.1839 2.33565 37.2548 2.57622C37.3213 2.79055 37.4276 2.98737 37.5694 3.16233C37.7244 3.34604 37.9061 3.49913 38.1099 3.62597C38.358 3.77469 38.6149 3.90154 38.8852 4.00651C39.1953 4.12898 39.4567 4.24271 39.6561 4.34768C39.8333 4.43516 39.9972 4.54014 40.1478 4.67136C40.263 4.77196 40.3516 4.89443 40.4048 5.03439C40.458 5.18311 40.4801 5.34057 40.4757 5.50241C40.4934 5.83046 40.3516 6.14976 40.0902 6.35533C39.7358 6.57841 39.3194 6.68338 38.9029 6.65277C38.7345 6.65277 38.5618 6.63964 38.3978 6.61777C38.2295 6.5959 38.0656 6.56091 37.9016 6.52155C37.7466 6.48218 37.5915 6.43844 37.4409 6.38595C37.2947 6.33347 37.1662 6.28098 37.051 6.22849V7.11203C37.308 7.23888 37.5782 7.32198 37.8618 7.36572C38.2073 7.42696 38.5529 7.4532 38.9029 7.4532C39.2529 7.45758 39.6029 7.41384 39.944 7.31761C40.232 7.23888 40.4978 7.10328 40.7282 6.91958C40.9409 6.74462 41.1092 6.52592 41.2244 6.2766C41.344 6.00542 41.4016 5.71236 41.3972 5.41493C41.4016 5.16561 41.3617 4.91192 41.2776 4.67573L41.2864 4.6801ZM48.0649 4.6801C47.9895 4.47453 47.8699 4.28644 47.7149 4.12898C47.5465 3.9584 47.3516 3.81406 47.1389 3.70033C46.882 3.56037 46.6117 3.43789 46.337 3.33292C46.0579 3.22357 45.8187 3.12297 45.6282 3.02237C45.4598 2.93926 45.3003 2.83429 45.163 2.71181C45.0522 2.61121 44.9636 2.47999 44.9105 2.34003C44.8573 2.18256 44.8307 2.01635 44.8351 1.85014C44.8218 1.56146 44.9459 1.28152 45.1718 1.09344C45.4465 0.892241 45.7832 0.791639 46.1199 0.813509C46.4079 0.813509 46.6959 0.848501 46.975 0.918485C47.2275 0.97972 47.4756 1.0672 47.7149 1.1678L48.0516 0.393608C47.7813 0.271136 47.4933 0.174909 47.2009 0.109299C46.8465 0.0305678 46.4877 -0.00442402 46.1244 -0.00442402C45.8231 -0.00442402 45.5218 0.0349417 45.2339 0.118047C44.9813 0.192405 44.7465 0.314876 44.5383 0.476713C44.3434 0.634176 44.1883 0.831005 44.0864 1.05408C43.9757 1.29902 43.9225 1.56583 43.9269 1.83265C43.9269 2.08634 43.9579 2.33565 44.0288 2.57622C44.0953 2.79055 44.2016 2.98737 44.3434 3.16233C44.4984 3.34604 44.6801 3.49913 44.8839 3.62597C45.1275 3.77469 45.3889 3.90154 45.6592 4.00651C45.9693 4.12898 46.2263 4.24271 46.4345 4.34768C46.6117 4.43516 46.7756 4.54014 46.9263 4.67136C47.0414 4.77196 47.1301 4.89443 47.1832 5.03439C47.2364 5.18311 47.2585 5.34057 47.2585 5.50241C47.2763 5.83046 47.1345 6.14976 46.8731 6.35533C46.5187 6.57841 46.1022 6.68338 45.6858 6.65277C45.5174 6.65277 45.3446 6.63964 45.1807 6.61777C45.0124 6.5959 44.8484 6.56091 44.6845 6.52155C44.5294 6.48218 44.3744 6.43844 44.2237 6.38595C44.0775 6.33347 43.9491 6.28098 43.8339 6.22849V7.11203C44.0908 7.23888 44.3611 7.32198 44.6446 7.36572C44.9902 7.42696 45.3358 7.4532 45.6858 7.4532C46.0358 7.45758 46.3858 7.41384 46.7269 7.31761C47.0149 7.23888 47.2807 7.10328 47.5111 6.91958C47.7237 6.74462 47.8921 6.52592 48.0073 6.2766C48.1269 6.00542 48.1845 5.71236 48.18 5.41493C48.1845 5.16561 48.1446 4.91192 48.0604 4.67573L48.0649 4.6801ZM53.1686 6.84959L52.3047 6.64839V0.826631L53.1686 0.625428V0.118047H50.506V0.621054L51.3699 0.822257V6.65714L50.506 6.85834V7.36572H53.1686V6.85834V6.84959ZM61.7103 2.18256C61.5907 1.75391 61.3825 1.35588 61.1034 1.00596C60.8376 0.68229 60.4964 0.424225 60.111 0.25364C59.6812 0.0699336 59.2116 -0.0219199 58.742 -0.013172C58.2547 -0.0262939 57.7718 0.0655596 57.3199 0.25364C56.93 0.419852 56.5889 0.677916 56.3186 1.00596C56.0439 1.35151 55.8446 1.75391 55.7294 2.17819C55.4768 3.1842 55.4768 4.23833 55.7294 5.24435C55.8401 5.67299 56.0395 6.0754 56.3142 6.42532C56.58 6.75337 56.9211 7.01581 57.3066 7.18202C57.754 7.3701 58.2369 7.46195 58.7243 7.44883C59.1983 7.45758 59.6635 7.36572 60.0977 7.18202C60.4876 7.01143 60.8287 6.74899 61.0945 6.42532C61.3736 6.0754 61.5819 5.67299 61.7015 5.24435C61.9717 4.24271 61.9717 3.18858 61.7015 2.18694L61.7103 2.18256ZM56.6642 2.48874C56.7351 2.16069 56.8724 1.85014 57.0673 1.57458C57.2445 1.32964 57.4794 1.12844 57.754 0.997216C58.0642 0.857249 58.4009 0.787265 58.742 0.796013C59.0831 0.787265 59.4198 0.857249 59.7255 0.997216C59.9958 1.12844 60.2306 1.32526 60.4034 1.57458C60.5939 1.85014 60.7268 2.16069 60.7933 2.48874C60.9616 3.29793 60.9616 4.12898 60.7933 4.93817C60.7224 5.26622 60.5895 5.58114 60.399 5.86108C60.2262 6.11039 59.9914 6.30722 59.7167 6.44281C59.0876 6.70963 58.3743 6.70963 57.7407 6.44281C57.4661 6.3116 57.2313 6.11039 57.0585 5.86108C56.868 5.58114 56.7306 5.27059 56.6597 4.93817C56.487 4.13336 56.487 3.29793 56.6597 2.48874H56.6642ZM70.4957 0.113673H69.6229V4.08087C69.6229 4.16835 69.6229 4.26458 69.6229 4.36518C69.6229 4.46578 69.6274 4.57513 69.6318 4.68448C69.6362 4.79383 69.6407 4.90755 69.6451 5.0169C69.6495 5.12625 69.6539 5.2356 69.6584 5.34057C69.6717 5.58552 69.685 5.83483 69.6938 6.08415H69.6584L66.0654 0.113673H64.9977V7.36572H65.8616V3.43352C65.8616 3.24544 65.8616 3.03549 65.8483 2.79929C65.8394 2.5631 65.8306 2.34003 65.8173 2.1257C65.804 1.87639 65.7863 1.62269 65.7685 1.369H65.8084L69.4191 7.3701H70.5001V0.118047L70.4957 0.113673ZM79.1881 7.36135L76.4855 0.0874294H75.6305L72.9324 7.36572H73.8761L74.6913 5.1175H77.4292L78.2311 7.36572H79.1881V7.36135ZM74.9925 4.29519L75.7191 2.19131C75.7412 2.13445 75.7634 2.06447 75.79 1.98136C75.8166 1.89825 75.8476 1.8064 75.8786 1.70143C75.9096 1.59645 75.9406 1.49585 75.9672 1.3865C75.9938 1.27715 76.0248 1.17218 76.0469 1.0672C76.0735 1.17218 76.1001 1.27715 76.1311 1.38213C76.1621 1.4871 76.1887 1.59208 76.2197 1.69268C76.2507 1.79328 76.2773 1.88513 76.3083 1.97261C76.3393 2.06009 76.3615 2.13008 76.3792 2.19131L77.1235 4.29519H74.9881H74.9925ZM85.4348 7.35698V6.53467H82.5551V0.118047H81.6203V7.36572H85.4348V7.35698ZM96.0367 6.54342H93.1569V3.96277H95.8462V3.15796H93.1569V0.927232H96.0367V0.113673H92.2266V7.36572H96.0367V6.55216V6.54342ZM104.596 0.118047H103.723V4.08524C103.723 4.17272 103.723 4.26895 103.723 4.36955C103.723 4.47015 103.728 4.5795 103.732 4.68885C103.737 4.7982 103.741 4.91192 103.745 5.02127C103.75 5.13062 103.754 5.23997 103.759 5.34495C103.772 5.58989 103.785 5.83921 103.794 6.08852H103.759L100.17 0.118047H99.1025V7.36572H99.9664V3.43352C99.9664 3.24544 99.9664 3.03549 99.9531 2.79929C99.9442 2.5631 99.9354 2.34003 99.9221 2.1257C99.9088 1.87639 99.8911 1.62269 99.8733 1.369H99.9132L103.524 7.3701H104.605V0.118047H104.596ZM110.963 4.35205H112.464V6.5128C112.376 6.53029 112.287 6.54779 112.194 6.56529C112.101 6.58278 112.004 6.60028 111.902 6.6134C111.8 6.62652 111.685 6.63527 111.561 6.64402C111.437 6.65277 111.304 6.65714 111.157 6.65714C110.763 6.66589 110.369 6.5959 110.006 6.44281C109.7 6.3116 109.434 6.10602 109.226 5.84358C109.018 5.56802 108.867 5.25309 108.787 4.92067C108.69 4.53576 108.645 4.13773 108.65 3.7397C108.645 3.32854 108.699 2.91739 108.814 2.51936C108.911 2.18256 109.075 1.87201 109.297 1.60082C109.509 1.34713 109.78 1.15031 110.085 1.02346C110.431 0.883493 110.799 0.817883 111.171 0.822257C111.326 0.822257 111.481 0.835379 111.636 0.857249C111.791 0.879119 111.942 0.909737 112.092 0.949102C112.238 0.988468 112.385 1.03221 112.522 1.08032C112.659 1.12844 112.792 1.1853 112.912 1.24216L113.275 0.437347C112.969 0.29738 112.65 0.188031 112.323 0.118047C111.973 0.0436897 111.614 0.0086979 111.255 0.0086979C110.732 -5.00494e-05 110.214 0.0918034 109.726 0.271136C109.297 0.432973 108.911 0.686664 108.601 1.01471C108.287 1.35151 108.052 1.75391 107.906 2.18694C107.742 2.68557 107.662 3.20607 107.666 3.72658C107.657 4.25145 107.733 4.77633 107.883 5.27934C108.012 5.70799 108.225 6.11039 108.517 6.45594C108.796 6.77961 109.146 7.0333 109.54 7.19951C109.983 7.37884 110.457 7.4707 110.936 7.46195C111.188 7.46195 111.423 7.4532 111.64 7.43571C111.857 7.41821 112.066 7.39634 112.265 7.36135C112.464 7.33073 112.655 7.29137 112.841 7.24325C113.027 7.19514 113.213 7.14265 113.399 7.08579V3.54287H110.976V4.35643L110.963 4.35205ZM118.645 6.85834L117.781 6.65714V0.826631L118.645 0.625428V0.118047H115.982V0.621054L116.846 0.822257V6.65714L115.982 6.85834V7.36572H118.645V6.85834ZM126.996 0.118047H126.123V4.08524C126.123 4.17272 126.123 4.26895 126.123 4.36955C126.123 4.47015 126.128 4.5795 126.132 4.68885C126.136 4.7982 126.141 4.91192 126.145 5.02127C126.15 5.13062 126.154 5.23997 126.159 5.34495C126.172 5.58989 126.185 5.83921 126.194 6.08852H126.159L122.566 0.118047H121.498V7.36572H122.362V3.43352C122.362 3.24544 122.362 3.03549 122.348 2.79929C122.34 2.5631 122.331 2.34003 122.317 2.1257C122.304 1.87639 122.286 1.62269 122.269 1.369H122.313L125.924 7.3701H127.005V0.118047H126.996ZM134.248 6.55654H131.369V3.97589H134.058V3.17108H131.369V0.927232H134.248V0.113673H130.438V7.36572H134.248V6.55216V6.55654ZM141.115 6.55654H138.236V3.97589H140.925V3.17108H138.236V0.927232H141.115V0.113673H137.305V7.36572H141.115V6.55216V6.55654ZM146.255 4.37392L148.018 7.3701H149.117L147.119 4.12461C147.305 4.059 147.486 3.97152 147.655 3.87092C147.827 3.77032 147.987 3.6391 148.12 3.48601C148.262 3.32417 148.372 3.13609 148.448 2.93489C148.536 2.69432 148.576 2.43625 148.572 2.18256C148.616 1.59645 148.381 1.02346 147.934 0.634176C147.353 0.249267 146.658 0.0699335 145.958 0.122421H144.172V7.36572H145.107V4.36955H146.259L146.255 4.37392ZM145.103 0.909737H145.905C146.157 0.909737 146.414 0.931607 146.662 0.97972C146.853 1.01909 147.034 1.09782 147.189 1.21154C147.327 1.31652 147.433 1.45648 147.5 1.61832C147.575 1.81078 147.606 2.01635 147.601 2.22193C147.606 2.42313 147.579 2.62871 147.513 2.82116C147.455 2.98737 147.353 3.13609 147.216 3.24981C147.065 3.37228 146.888 3.45976 146.698 3.50788C146.445 3.56911 146.188 3.59973 145.931 3.59536H145.107V0.905363H145.103V0.909737ZM155.425 4.69322C155.35 4.48765 155.231 4.29957 155.075 4.1421C154.907 3.97152 154.712 3.82718 154.5 3.71345C154.243 3.57349 153.972 3.45102 153.698 3.34604C153.419 3.23669 153.179 3.13609 152.989 3.03549C152.82 2.95238 152.665 2.84741 152.524 2.72494C152.413 2.62433 152.324 2.49312 152.271 2.35315C152.218 2.19569 152.191 2.02947 152.196 1.86326C152.182 1.57458 152.307 1.29465 152.532 1.10657C152.807 0.905363 153.144 0.804761 153.481 0.826631C153.769 0.826631 154.056 0.861623 154.336 0.931607C154.588 0.997216 154.836 1.08032 155.075 1.18092L155.412 0.40673C155.142 0.284258 154.854 0.188031 154.562 0.122421C154.207 0.0436897 153.848 0.0086979 153.489 0.0086979C153.188 0.0086979 152.887 0.0480637 152.599 0.131169C152.346 0.205527 152.112 0.327998 151.903 0.489835C151.708 0.647298 151.553 0.844127 151.451 1.0672C151.341 1.31214 151.288 1.57895 151.292 1.84577C151.292 2.09946 151.323 2.34877 151.394 2.58934C151.46 2.80367 151.567 3.0005 151.708 3.17546C151.863 3.35916 152.045 3.51225 152.249 3.6391C152.497 3.78781 152.754 3.91466 153.024 4.01963C153.334 4.1421 153.591 4.25583 153.795 4.3608C153.972 4.44828 154.136 4.55326 154.287 4.68448C154.402 4.78508 154.491 4.90755 154.544 5.04752C154.597 5.19623 154.619 5.35369 154.615 5.51553C154.632 5.84358 154.491 6.16288 154.229 6.36846C153.875 6.59153 153.458 6.69651 153.042 6.66589C152.874 6.66589 152.701 6.65277 152.532 6.6309C152.364 6.60903 152.2 6.57403 152.036 6.53467C151.881 6.4953 151.726 6.45156 151.576 6.39907C151.429 6.34659 151.301 6.2941 151.186 6.24161V7.12516C151.443 7.252 151.713 7.33511 151.996 7.37885C152.342 7.44008 152.688 7.46632 153.038 7.46632C153.388 7.4707 153.738 7.42696 154.079 7.33073C154.367 7.252 154.632 7.11641 154.863 6.9327C155.075 6.75774 155.244 6.53904 155.359 6.28973C155.479 6.01854 155.536 5.72548 155.532 5.42805C155.536 5.17436 155.496 4.92505 155.417 4.68885L155.425 4.69322ZM163.936 0.970972C164.127 0.817883 164.37 0.739152 164.618 0.752274C164.747 0.752274 164.875 0.769769 164.995 0.813509C165.101 0.852875 165.194 0.909737 165.279 0.984094C165.358 1.05845 165.42 1.14593 165.46 1.24653C165.505 1.35151 165.522 1.46523 165.522 1.57458C165.522 1.70143 165.5 1.83265 165.451 1.95074C165.403 2.07321 165.327 2.18694 165.239 2.28316C165.132 2.40126 165.013 2.50624 164.884 2.59372C164.738 2.69432 164.57 2.80367 164.37 2.92176C164.26 2.81242 164.158 2.69432 164.06 2.57185C163.98 2.47125 163.91 2.3619 163.848 2.2438C163.794 2.1432 163.755 2.03385 163.724 1.92012C163.697 1.81078 163.684 1.70143 163.684 1.59208C163.67 1.35588 163.759 1.12844 163.932 0.966598L163.936 0.970972ZM163.817 6.58278C163.666 6.53029 163.524 6.44281 163.409 6.33347C163.298 6.22412 163.21 6.0929 163.156 5.94856C163.094 5.79109 163.068 5.62488 163.068 5.4543C163.068 5.28809 163.09 5.12187 163.139 4.96441C163.187 4.82444 163.254 4.69322 163.347 4.57513C163.444 4.44828 163.56 4.33893 163.688 4.23833C163.839 4.12461 163.989 4.01526 164.149 3.91903L166.094 5.93543C165.987 6.03603 165.872 6.13226 165.753 6.22412C165.629 6.31597 165.5 6.3947 165.363 6.45594C165.217 6.52592 165.061 6.57841 164.906 6.6134C164.729 6.65277 164.552 6.67026 164.37 6.67026C164.184 6.67026 163.998 6.64402 163.825 6.58278H163.817ZM162.266 6.32909C162.363 6.56966 162.514 6.78398 162.709 6.95457C162.913 7.1339 163.156 7.26512 163.418 7.33948C163.724 7.43133 164.042 7.47507 164.366 7.4707C164.601 7.4707 164.836 7.44883 165.07 7.40509C165.27 7.36135 165.465 7.30011 165.651 7.21701C165.832 7.1339 166.005 7.03767 166.165 6.91958C166.333 6.79711 166.497 6.66151 166.652 6.52155L167.494 7.37447H168.623L167.232 5.92231C167.361 5.79109 167.48 5.65113 167.591 5.50678C167.702 5.36244 167.799 5.21373 167.888 5.05189C167.981 4.88568 168.056 4.71072 168.123 4.53576C168.194 4.33893 168.256 4.13773 168.3 3.93215H167.374C167.343 4.07649 167.303 4.22084 167.254 4.3608C167.21 4.48327 167.161 4.60575 167.104 4.72384C167.046 4.83319 166.984 4.94254 166.909 5.04314C166.834 5.14374 166.754 5.24435 166.665 5.3362L164.898 3.49038C165.097 3.37228 165.292 3.24544 165.474 3.11422C165.651 2.98737 165.81 2.84741 165.956 2.68557C166.094 2.53686 166.209 2.36627 166.293 2.18694C166.377 2.00323 166.422 1.80203 166.417 1.60082C166.417 1.37338 166.382 1.14593 166.298 0.935981C166.222 0.743526 166.103 0.572941 165.948 0.437347C165.788 0.29738 165.598 0.188031 165.389 0.126795C165.15 0.0524376 164.898 0.0174459 164.645 0.0218198C164.379 0.0218198 164.113 0.0524376 163.856 0.126795C163.644 0.188031 163.444 0.29738 163.272 0.437347C163.112 0.572941 162.993 0.7479 162.908 0.935981C162.82 1.14593 162.78 1.37338 162.784 1.60082C162.784 1.78016 162.806 1.95512 162.855 2.13008C162.899 2.28754 162.961 2.445 163.037 2.58934C163.112 2.73368 163.201 2.86928 163.303 2.99612C163.405 3.12297 163.506 3.24544 163.608 3.36791C163.387 3.49476 163.174 3.63472 162.975 3.78781C162.798 3.91903 162.638 4.07649 162.501 4.24708C162.372 4.41329 162.27 4.597 162.208 4.7982C162.058 5.30121 162.075 5.83921 162.261 6.32909H162.266ZM178.264 4.3608H179.766V6.52155C179.677 6.53904 179.589 6.55654 179.496 6.57403C179.403 6.59153 179.305 6.60903 179.203 6.62215C179.101 6.63527 178.986 6.64402 178.862 6.65277C178.738 6.66151 178.605 6.66589 178.459 6.66589C178.065 6.67464 177.67 6.60465 177.307 6.45156C177.001 6.32034 176.735 6.11477 176.527 5.85233C176.319 5.57677 176.168 5.26184 176.089 4.92942C175.991 4.54451 175.947 4.14648 175.951 3.74845C175.947 3.33729 176 2.92614 176.115 2.52811C176.213 2.19131 176.377 1.88076 176.598 1.60957C176.811 1.35588 177.081 1.15905 177.387 1.03221C177.732 0.892241 178.1 0.826631 178.472 0.831005C178.627 0.831005 178.782 0.844127 178.937 0.865997C179.092 0.887867 179.243 0.918485 179.394 0.95785C179.54 0.997216 179.686 1.04096 179.823 1.08907C179.961 1.13718 180.094 1.18967 180.213 1.24653L180.577 0.441721C180.271 0.301754 179.952 0.192405 179.624 0.122421C179.274 0.0480637 178.915 0.0130719 178.556 0.0130719C178.034 0.00432393 177.515 0.0961774 177.028 0.27551C176.598 0.437347 176.213 0.691038 175.903 1.01909C175.588 1.35588 175.353 1.75829 175.207 2.19131C175.043 2.68994 174.963 3.21045 174.968 3.73095C174.959 4.25583 175.034 4.7807 175.185 5.28371C175.313 5.71236 175.526 6.11477 175.818 6.46031C176.097 6.78398 176.447 7.03767 176.842 7.20389C177.285 7.38322 177.759 7.47507 178.237 7.46632C178.49 7.46632 178.725 7.45758 178.942 7.44008C179.159 7.42258 179.367 7.40072 179.566 7.36572C179.766 7.33511 179.956 7.29574 180.142 7.24763C180.328 7.19951 180.515 7.14702 180.701 7.09016V3.54287H178.268V4.35643L178.264 4.3608ZM187.683 6.56091H184.803V3.98027H187.492V3.17546H184.803V0.931607H187.683V0.118047H183.873V7.36572H187.683V6.55216V6.56091ZM196.535 2.20443C196.415 1.77578 196.207 1.37775 195.928 1.02783C195.662 0.70416 195.321 0.446095 194.935 0.27551C194.506 0.0918034 194.036 -5.00494e-05 193.566 0.0086979C193.079 -0.00442402 192.596 0.0874294 192.144 0.27551C191.754 0.441721 191.413 0.699786 191.143 1.02783C190.868 1.37338 190.669 1.77578 190.554 2.20006C190.301 3.20607 190.301 4.2602 190.554 5.26622C190.664 5.69486 190.864 6.09727 191.139 6.44719C191.404 6.77524 191.745 7.03767 192.131 7.20389C192.578 7.39197 193.061 7.48382 193.549 7.4707C194.023 7.47945 194.488 7.38759 194.922 7.20389C195.312 7.0333 195.653 6.77086 195.919 6.44719C196.198 6.09727 196.406 5.69486 196.526 5.26622C196.796 4.26458 196.796 3.20607 196.526 2.20443H196.535ZM191.489 2.51499C191.559 2.18694 191.697 1.87639 191.892 1.60082C192.069 1.35588 192.304 1.15905 192.578 1.02346C192.888 0.883493 193.225 0.813509 193.566 0.822257C193.907 0.813509 194.244 0.883493 194.55 1.02346C194.82 1.15468 195.055 1.35151 195.228 1.60082C195.418 1.87639 195.551 2.18694 195.618 2.51499C195.786 3.32417 195.786 4.15523 195.618 4.96441C195.547 5.29246 195.414 5.60739 195.223 5.88732C195.05 6.13664 194.816 6.33347 194.541 6.46906C193.912 6.73587 193.199 6.73587 192.565 6.46906C192.29 6.33784 192.056 6.13664 191.883 5.88732C191.692 5.60739 191.555 5.29683 191.484 4.96441C191.311 4.15523 191.311 3.3198 191.484 2.51499H191.489ZM203.561 4.6976C203.486 4.49202 203.366 4.30394 203.211 4.14648C203.043 3.97589 202.848 3.83155 202.635 3.71783C202.378 3.57786 202.108 3.45539 201.833 3.35041C201.554 3.24106 201.315 3.14046 201.125 3.03986C200.956 2.95676 200.797 2.85178 200.659 2.72931C200.549 2.62433 200.46 2.49749 200.407 2.35752C200.354 2.20006 200.327 2.03385 200.331 1.86764C200.318 1.57895 200.442 1.29902 200.668 1.11094C200.943 0.909737 201.28 0.809135 201.616 0.831005C201.904 0.831005 202.192 0.865997 202.471 0.935981C202.724 0.997216 202.972 1.0847 203.211 1.1853L203.548 0.411104C203.278 0.288632 202.99 0.192405 202.697 0.126795C202.343 0.0480637 201.984 0.0130719 201.621 0.0130719C201.319 0.0130719 201.018 0.0524376 200.73 0.135543C200.478 0.209901 200.243 0.332372 200.035 0.494209C199.84 0.651672 199.685 0.848501 199.583 1.07157C199.472 1.31652 199.419 1.58333 199.423 1.85014C199.423 2.10383 199.454 2.35315 199.525 2.59372C199.592 2.80804 199.698 3.00487 199.84 3.17983C199.995 3.36354 200.176 3.51663 200.38 3.64347C200.624 3.79219 200.885 3.91903 201.156 4.02401C201.466 4.14648 201.723 4.2602 201.931 4.36518C202.108 4.45266 202.272 4.55763 202.418 4.68885C202.533 4.78945 202.622 4.91192 202.675 5.05189C202.728 5.20061 202.75 5.35807 202.746 5.51991C202.764 5.84795 202.622 6.16725 202.361 6.37283C202.011 6.5959 201.59 6.70088 201.173 6.67026C201.005 6.67026 200.832 6.65714 200.664 6.63527C200.495 6.6134 200.331 6.57841 200.168 6.53904C200.012 6.49968 199.857 6.45594 199.707 6.40345C199.561 6.35096 199.432 6.29847 199.317 6.24599V7.12953C199.574 7.25637 199.844 7.33948 200.128 7.38322C200.473 7.44445 200.819 7.4707 201.169 7.4707C201.519 7.47507 201.869 7.43133 202.21 7.33511C202.498 7.25637 202.764 7.12078 202.994 6.93707C203.207 6.76211 203.375 6.54342 203.49 6.2941C203.61 6.02291 203.668 5.72986 203.663 5.43243C203.668 5.17874 203.628 4.92942 203.543 4.68885L203.561 4.6976ZM210.415 0.949102C210.65 1.01909 210.88 1.11094 211.102 1.22029L211.492 0.446095C211.212 0.301754 210.911 0.196779 210.601 0.126795C210.26 0.0524376 209.914 0.0174458 209.564 0.0174458C209.068 0.0086979 208.581 0.100551 208.124 0.288632C207.721 0.459217 207.358 0.721656 207.07 1.0497C206.778 1.39525 206.561 1.79328 206.428 2.2263C206.277 2.71619 206.202 3.22357 206.211 3.73532C206.206 4.25145 206.268 4.76321 206.401 5.26184C206.512 5.69049 206.711 6.0929 206.986 6.44281C207.252 6.77086 207.593 7.0333 207.983 7.19951C208.435 7.38759 208.917 7.47945 209.409 7.46632C209.609 7.46632 209.786 7.46195 209.95 7.44883C210.114 7.43571 210.264 7.41821 210.406 7.39634C210.543 7.37447 210.681 7.34385 210.814 7.30449C210.947 7.26512 211.075 7.22138 211.208 7.17327V6.36846C210.947 6.44281 210.681 6.5128 210.415 6.56966C210.136 6.6309 209.852 6.65714 209.569 6.65714C209.214 6.66589 208.86 6.60028 208.532 6.46468C208.244 6.33784 207.987 6.14538 207.792 5.90044C207.584 5.62926 207.433 5.3187 207.349 4.98628C207.247 4.5795 207.194 4.16397 207.203 3.74407C207.199 3.33292 207.252 2.92176 207.371 2.52373C207.469 2.19131 207.633 1.87639 207.85 1.6052C208.049 1.36026 208.306 1.15905 208.594 1.02783C208.9 0.892241 209.232 0.822257 209.569 0.826631C209.852 0.826631 210.14 0.861623 210.415 0.940354V0.949102ZM216.303 6.87146L215.439 6.67026V0.826631L216.303 0.625428V0.118047H213.64V0.621054L214.504 0.822257V6.65714L213.64 6.85834V7.36572H216.303V6.85834V6.87146ZM222.966 6.56529H220.086V3.98464H222.776V3.17983H220.086V0.931607H222.966V0.118047H219.156V7.36572H222.966V6.55216V6.56529ZM231.534 0.118047H230.662V4.36955C230.662 4.47015 230.666 4.5795 230.67 4.68885C230.675 4.7982 230.679 4.91192 230.684 5.02127C230.688 5.13062 230.693 5.23997 230.697 5.34495C230.71 5.58989 230.724 5.83921 230.733 6.08852H230.697L227.1 0.118047H226.032V7.36572H226.896V3.43352C226.896 3.24544 226.896 3.03549 226.883 2.79929C226.874 2.5631 226.865 2.34003 226.852 2.1257C226.838 1.87639 226.821 1.62269 226.803 1.369H226.843L230.453 7.3701H231.534V0.118047V0.118047ZM237.112 0.931607H239.208V0.118047H234.077V0.931607H236.177V7.36572H237.117V0.931607H237.112ZM243.824 6.86272L242.96 6.66151V0.826631L243.824 0.625428V0.118047H241.162V0.621054L242.025 0.822257V6.65714L241.162 6.85834V7.36572H243.824V6.85834V6.86272ZM250.425 4.69322C250.35 4.48765 250.231 4.29957 250.075 4.1421C249.907 3.97152 249.712 3.82718 249.499 3.71345C249.243 3.57349 248.972 3.45102 248.698 3.34604C248.418 3.23669 248.179 3.13609 247.989 3.03549C247.82 2.95238 247.661 2.84741 247.524 2.72494C247.413 2.61996 247.324 2.49312 247.271 2.35315C247.218 2.19569 247.191 2.02947 247.196 1.86326C247.182 1.57458 247.306 1.29465 247.532 1.10657C247.803 0.905363 248.139 0.804761 248.481 0.826631C248.768 0.826631 249.056 0.861623 249.336 0.931607C249.588 0.992842 249.836 1.08032 250.075 1.18092L250.412 0.40673C250.142 0.284258 249.854 0.188031 249.566 0.122421C249.212 0.0436897 248.853 0.0086979 248.489 0.0086979C248.188 0.0086979 247.887 0.0480637 247.599 0.131169C247.346 0.205527 247.112 0.327998 246.903 0.489835C246.708 0.647298 246.553 0.844127 246.451 1.0672C246.341 1.31214 246.287 1.57895 246.292 1.84577C246.292 2.09946 246.323 2.34877 246.394 2.58934C246.46 2.80367 246.567 3.0005 246.713 3.17546C246.868 3.35916 247.05 3.51225 247.253 3.6391C247.497 3.78781 247.758 3.91466 248.029 4.01963C248.339 4.1421 248.596 4.25583 248.804 4.3608C248.981 4.44828 249.145 4.55326 249.291 4.68448C249.406 4.78508 249.495 4.90755 249.548 5.04752C249.601 5.19623 249.624 5.35369 249.619 5.51553C249.637 5.84358 249.495 6.16288 249.234 6.36846C248.879 6.59153 248.463 6.69651 248.046 6.66589C247.878 6.66589 247.705 6.65277 247.541 6.6309C247.373 6.60903 247.209 6.57403 247.045 6.53467C246.89 6.4953 246.735 6.45156 246.584 6.39907C246.438 6.34659 246.31 6.2941 246.194 6.24161V7.12516C246.451 7.252 246.722 7.33511 247.005 7.37885C247.351 7.44008 247.696 7.46632 248.046 7.46632C248.396 7.4707 248.746 7.42696 249.087 7.33073C249.375 7.252 249.641 7.11641 249.872 6.9327C250.084 6.75774 250.253 6.53904 250.368 6.28973C250.487 6.01854 250.545 5.72548 250.541 5.42805C250.545 5.17436 250.505 4.92505 250.421 4.68448L250.425 4.69322ZM255.596 0.935981H257.691V0.118047H252.556V0.931607H254.656V7.36572H255.596V0.931607V0.935981ZM263.885 4.6976C263.81 4.49202 263.69 4.30394 263.535 4.14648C263.366 3.97589 263.172 3.83155 262.959 3.71783C262.702 3.57786 262.432 3.45539 262.157 3.35041C261.878 3.24106 261.639 3.14046 261.448 3.03986C261.28 2.95676 261.12 2.85178 260.983 2.72931C260.872 2.62433 260.784 2.49749 260.73 2.35752C260.677 2.20006 260.651 2.03385 260.655 1.86764C260.642 1.57895 260.766 1.29902 260.992 1.11094C261.262 0.909737 261.599 0.809135 261.94 0.831005C262.228 0.831005 262.516 0.865997 262.795 0.935981C263.047 0.997216 263.296 1.0847 263.535 1.1853L263.872 0.411104C263.601 0.288632 263.313 0.192405 263.025 0.126795C262.671 0.0480637 262.312 0.0130719 261.949 0.0130719C261.648 0.0130719 261.346 0.0524376 261.058 0.135543C260.806 0.209901 260.571 0.332372 260.363 0.494209C260.168 0.651672 260.013 0.848501 259.911 1.07157C259.8 1.31652 259.747 1.58333 259.751 1.85014C259.751 2.10383 259.782 2.35315 259.853 2.59372C259.92 2.80804 260.026 3.00487 260.168 3.17983C260.323 3.36354 260.504 3.51663 260.708 3.64347C260.952 3.79219 261.213 3.91903 261.484 4.02401C261.794 4.14648 262.051 4.2602 262.259 4.36518C262.436 4.45266 262.6 4.55763 262.746 4.68885C262.861 4.78945 262.95 4.91192 263.003 5.05189C263.056 5.20061 263.078 5.35807 263.074 5.51991C263.092 5.84795 262.95 6.16725 262.689 6.37283C262.334 6.5959 261.918 6.70088 261.501 6.67026C261.333 6.67026 261.16 6.65714 260.992 6.63527C260.823 6.6134 260.66 6.57841 260.496 6.53904C260.341 6.49968 260.185 6.45594 260.035 6.40345C259.889 6.35096 259.76 6.29847 259.645 6.24599V7.12953C259.902 7.25637 260.172 7.33948 260.456 7.38322C260.801 7.44445 261.147 7.4707 261.497 7.4707C261.847 7.47507 262.197 7.43133 262.538 7.33511C262.822 7.25637 263.092 7.12078 263.322 6.93707C263.535 6.76211 263.703 6.54342 263.818 6.2941C263.938 6.02291 263.996 5.72986 263.991 5.43243C263.996 5.17874 263.956 4.92942 263.872 4.68885L263.885 4.6976Z" fill="#231F20"/>
<path d="M3.7525 40.0617C4.00503 39.9305 4.21769 39.7424 4.38161 39.515C4.57212 39.2394 4.70946 38.9332 4.78921 38.6139C4.8911 38.2072 4.93984 37.7873 4.93541 37.3674C4.93984 36.9518 4.89553 36.5319 4.79364 36.1252C4.71832 35.8059 4.58098 35.4997 4.39934 35.2285C4.24427 35.001 4.03162 34.813 3.78795 34.6817C3.54428 34.5593 3.2696 34.4937 2.99492 34.498C2.82656 34.498 2.65378 34.5199 2.49429 34.5636C2.35251 34.603 2.21517 34.6642 2.09112 34.743C1.97593 34.8173 1.86961 34.9048 1.77657 35.0054C1.68796 35.106 1.60822 35.211 1.53733 35.3247H1.46645L1.24936 34.6074H0V42.5899H1.5329V40.3417C1.5329 40.2936 1.52847 40.2236 1.51961 40.1317C1.51075 40.0399 1.50189 39.9524 1.49303 39.8649C1.47974 39.7643 1.46645 39.655 1.45315 39.5369H1.5329C1.60379 39.6331 1.68353 39.7206 1.76771 39.8037C1.85632 39.8911 1.95821 39.9655 2.06897 40.0311C2.19302 40.1011 2.3215 40.1536 2.45884 40.1886C2.61834 40.2279 2.78669 40.2498 2.95504 40.2498C3.23415 40.2498 3.50884 40.1886 3.75693 40.0661L3.7525 40.0617ZM3.15441 36.1164C3.31833 36.5057 3.39365 36.9256 3.36706 37.3455C3.38922 37.7698 3.31833 38.1984 3.15441 38.5921C3.04365 38.8589 2.77783 39.0295 2.48543 39.0207C2.32593 39.0251 2.17087 38.9901 2.0291 38.9114C1.90062 38.8326 1.79872 38.7233 1.7367 38.5921C1.65695 38.4259 1.60379 38.2509 1.5772 38.0672C1.54176 37.831 1.52847 37.5904 1.52847 37.3542V37.1924C1.52847 36.9737 1.55062 36.755 1.59049 36.5407C1.61708 36.3788 1.67024 36.2214 1.74999 36.077C1.81644 35.9589 1.91834 35.8627 2.03796 35.8015C2.17087 35.7359 2.3215 35.7053 2.47213 35.7096C2.76454 35.6965 3.03479 35.8583 3.15441 36.1208V36.1164ZM8.42209 34.5636C8.28032 34.6074 8.15184 34.6686 8.03222 34.7517C7.9126 34.8348 7.80627 34.9354 7.71767 35.0448C7.6202 35.1673 7.53159 35.2941 7.45628 35.4297H7.38096L7.15501 34.5986H5.99426V40.1405H7.52716V37.3193C7.52273 37.0962 7.55374 36.8687 7.62463 36.6588C7.68222 36.4926 7.77526 36.3439 7.89931 36.2214C8.01893 36.1077 8.16513 36.0289 8.32462 35.9808C8.50184 35.9283 8.68348 35.9065 8.86956 35.9065C8.905 35.9065 8.94487 35.9065 8.99361 35.9065C9.04234 35.9065 9.0955 35.9108 9.14867 35.9152C9.20183 35.9196 9.25057 35.9283 9.29487 35.9327C9.33917 35.9371 9.37905 35.9458 9.40563 35.9502V34.533C9.37462 34.5243 9.34803 34.5199 9.31702 34.5155C9.27715 34.5112 9.23727 34.5068 9.19297 34.5024C9.14867 34.498 9.09993 34.4937 9.0512 34.4937C9.00247 34.4937 8.95816 34.4937 8.91829 34.4937C8.74994 34.4937 8.58158 34.5155 8.42209 34.5636V34.5636ZM11.7094 36.1252C11.86 35.854 12.1569 35.6965 12.4714 35.7184C12.786 35.6965 13.0872 35.854 13.2423 36.1252C13.424 36.5101 13.5037 36.9387 13.4771 37.363C13.5037 37.7916 13.4195 38.2159 13.2423 38.6052C12.9809 39.0251 12.4227 39.1519 12.0018 38.8939C11.8866 38.8239 11.7847 38.7233 11.7138 38.6096C11.5322 38.2203 11.4524 37.7916 11.479 37.363C11.4524 36.9387 11.5322 36.5144 11.7138 36.1252H11.7094ZM14.8505 36.1383C14.7353 35.8059 14.5581 35.4997 14.3189 35.2372C14.0974 34.9967 13.8183 34.8086 13.5126 34.6861C13.1847 34.5593 12.8391 34.4937 12.4892 34.498C12.1214 34.4937 11.7537 34.5549 11.4081 34.6861C11.098 34.8042 10.8189 34.9967 10.5974 35.2372C10.3626 35.4997 10.1898 35.8059 10.0835 36.1383C9.95942 36.5363 9.8974 36.9475 9.90626 37.363C9.8974 37.7785 9.96385 38.1984 10.0968 38.5921C10.212 38.9245 10.3892 39.2307 10.6284 39.4931C10.8499 39.7381 11.129 39.9261 11.4347 40.053C11.7581 40.1842 12.1081 40.2498 12.4581 40.2454C12.8259 40.2498 13.1936 40.1842 13.5347 40.053C13.8448 39.9305 14.1239 39.7424 14.3499 39.4931C14.5847 39.2307 14.7575 38.9245 14.8638 38.5921C14.9879 38.194 15.0499 37.7785 15.041 37.363C15.0499 36.9475 14.9834 36.5319 14.8505 36.1383V36.1383ZM19.0239 34.603H17.8853V34.2575C17.8765 34.0869 17.9208 33.9163 18.0094 33.7676C18.1068 33.632 18.2663 33.562 18.4347 33.5751C18.572 33.5751 18.7049 33.5882 18.8378 33.6189C18.953 33.6495 19.0594 33.6801 19.1657 33.7195L19.529 32.6085C19.3562 32.5385 19.1745 32.486 18.9929 32.4466C18.7359 32.3942 18.4746 32.3679 18.2132 32.3767C17.9562 32.3767 17.6948 32.4029 17.4467 32.4641C17.2296 32.5166 17.0303 32.6172 16.8619 32.7572C16.6936 32.9103 16.5651 33.1027 16.4898 33.3171C16.3967 33.6014 16.3524 33.8988 16.3613 34.1962V34.603L15.5195 35.0098V35.7402H16.3613V40.1448H17.8942V35.7402H19.0328V34.603H19.0239ZM22.5239 35.6659C22.6435 35.7227 22.7454 35.8059 22.8252 35.9108C22.9093 36.0202 22.9714 36.147 23.0068 36.2782C23.0467 36.4313 23.0688 36.5888 23.0733 36.7463H21.1239C21.1239 36.4226 21.2302 36.112 21.434 35.8583C21.6068 35.6703 21.8549 35.5697 22.1074 35.574C22.2536 35.574 22.3954 35.6003 22.5283 35.6615L22.5239 35.6659ZM22.8695 40.2236C23.0334 40.2104 23.1973 40.1842 23.3568 40.1536C23.503 40.123 23.6448 40.0836 23.7865 40.0311C23.9239 39.983 24.0612 39.9218 24.1897 39.8562V38.6839C24.0435 38.7583 23.8973 38.8195 23.7555 38.8764C23.6182 38.9289 23.472 38.977 23.3302 39.012C23.184 39.047 23.0378 39.0776 22.8872 39.0951C22.7277 39.1126 22.5638 39.1213 22.4043 39.1213C22.2182 39.1213 22.0321 39.0907 21.8593 39.0251C21.7043 38.9639 21.5669 38.872 21.4517 38.7539C21.3366 38.6314 21.2479 38.4827 21.1904 38.3209C21.1239 38.1372 21.0929 37.9447 21.0885 37.7479H24.5131V37.0131C24.5175 36.65 24.4644 36.287 24.3448 35.9414C24.2429 35.6484 24.0789 35.3772 23.8619 35.1498C23.6492 34.9311 23.3878 34.7648 23.0998 34.6599C22.7764 34.5462 22.4353 34.4893 22.0941 34.4937C21.7397 34.4893 21.3853 34.5505 21.053 34.6774C20.7473 34.7955 20.4682 34.9835 20.2511 35.2241C20.0163 35.4866 19.8391 35.7971 19.7328 36.1339C19.5999 36.5451 19.5378 36.9781 19.5467 37.4067C19.5378 37.831 19.6087 38.2553 19.7505 38.6577C19.8701 38.9901 20.065 39.2919 20.322 39.5412C20.5701 39.7774 20.8669 39.9568 21.1948 40.0661C21.5536 40.1842 21.9258 40.2454 22.3068 40.2411C22.515 40.2411 22.7055 40.2323 22.8783 40.2148L22.8695 40.2236ZM29.1827 37.8747C29.1118 37.7042 29.0011 37.5511 28.8681 37.4242C28.7219 37.2886 28.5536 37.1705 28.3764 37.0787C28.1859 36.9781 27.9732 36.8775 27.734 36.7725C27.5302 36.6807 27.3618 36.6019 27.2378 36.5363C27.1314 36.4882 27.034 36.427 26.9409 36.357C26.8834 36.3176 26.8346 36.2607 26.7992 36.1995C26.777 36.1426 26.7637 36.0858 26.7637 36.0246C26.7593 35.9108 26.808 35.7971 26.9011 35.7271C27.034 35.644 27.1935 35.6046 27.353 35.6178C27.5878 35.6178 27.8226 35.6571 28.0441 35.7315C28.2922 35.8146 28.5359 35.9108 28.7707 36.0246L29.2314 34.9529C28.9346 34.8086 28.62 34.6949 28.3011 34.6118C27.9909 34.533 27.6675 34.498 27.3485 34.498C27.0561 34.498 26.7682 34.5287 26.4846 34.5943C26.2454 34.6511 26.0194 34.7474 25.8201 34.8829C25.6384 35.0054 25.4922 35.1716 25.3948 35.3685C25.2884 35.5784 25.2397 35.8102 25.2441 36.0464C25.2441 36.252 25.2707 36.4576 25.3283 36.6544C25.3815 36.8206 25.4701 36.9737 25.5853 37.1093C25.7137 37.2493 25.8644 37.3717 26.0283 37.468C26.2321 37.5904 26.4447 37.6954 26.6618 37.7916C26.9144 37.9054 27.1137 37.9972 27.2644 38.0759C27.384 38.1372 27.4947 38.2028 27.6055 38.2859C27.6675 38.3296 27.7207 38.3909 27.7517 38.4609C27.7738 38.5221 27.7871 38.5833 27.7827 38.6446C27.7827 38.7102 27.7694 38.7802 27.7384 38.8414C27.7074 38.907 27.6631 38.9595 27.6011 38.9989C27.5302 39.047 27.446 39.082 27.3618 39.1038C27.2466 39.1301 27.127 39.1432 27.0118 39.1432C26.8745 39.1432 26.7416 39.1301 26.6087 39.1082C26.458 39.082 26.3074 39.0513 26.1568 39.012C26.0017 38.9726 25.8466 38.9201 25.6916 38.8676C25.541 38.8151 25.3903 38.7495 25.2486 38.6796V39.9305C25.377 39.9874 25.5099 40.0399 25.6429 40.0792C25.7758 40.1186 25.9131 40.1536 26.0504 40.1798C26.1966 40.2061 26.3473 40.2279 26.4979 40.2367C26.6574 40.2498 26.8258 40.2542 27.0118 40.2542C27.3308 40.2542 27.6454 40.2192 27.9555 40.1448C28.2125 40.0836 28.4561 39.9699 28.6732 39.8168C28.8681 39.6724 29.0232 39.4887 29.1295 39.27C29.2403 39.0295 29.2979 38.7714 29.289 38.5046C29.2935 38.2903 29.258 38.0759 29.1783 37.8791L29.1827 37.8747ZM33.87 37.8747C33.7991 37.7042 33.6884 37.5511 33.5555 37.4242C33.4093 37.2886 33.2409 37.1705 33.0637 37.0787C32.8732 36.9781 32.6605 36.8775 32.4213 36.7725C32.2175 36.6807 32.0536 36.6019 31.9251 36.5363C31.8188 36.4882 31.7213 36.427 31.6283 36.357C31.5707 36.3176 31.5219 36.2607 31.4865 36.1995C31.4643 36.1426 31.451 36.0858 31.451 36.0246C31.4466 35.9108 31.4953 35.7971 31.5884 35.7271C31.7213 35.644 31.8808 35.6046 32.0403 35.6178C32.2751 35.6178 32.5099 35.6571 32.7314 35.7315C32.9795 35.8146 33.2232 35.9108 33.458 36.0246L33.9232 34.9529C33.6263 34.8086 33.3118 34.6949 32.9928 34.6118C32.6827 34.533 32.3593 34.498 32.0403 34.498C31.7479 34.498 31.4599 34.5287 31.1764 34.5943C30.9371 34.6511 30.7112 34.7474 30.5118 34.8829C30.3302 35.0054 30.184 35.1716 30.0865 35.3685C29.9802 35.5784 29.9314 35.8102 29.9359 36.0464C29.9359 36.252 29.9624 36.4576 30.02 36.6544C30.0732 36.8206 30.1618 36.9737 30.277 37.1093C30.4055 37.2493 30.5561 37.3717 30.72 37.468C30.9238 37.5904 31.1365 37.6954 31.3536 37.7916C31.6061 37.9054 31.8055 37.9972 31.9561 38.0759C32.0757 38.1372 32.1865 38.2028 32.2972 38.2859C32.3593 38.3296 32.4124 38.3909 32.4434 38.4609C32.4656 38.5221 32.4789 38.5833 32.4744 38.6446C32.4744 38.7102 32.4612 38.7802 32.4301 38.8414C32.3991 38.907 32.3548 38.9595 32.2928 38.9989C32.2219 39.047 32.1377 39.082 32.0536 39.1038C31.9384 39.1301 31.8188 39.1432 31.7036 39.1432C31.5662 39.1432 31.4333 39.1301 31.3004 39.1082C31.1498 39.082 30.9991 39.0513 30.8485 39.012C30.6934 38.9726 30.5384 38.9201 30.3833 38.8676C30.2327 38.8151 30.0821 38.7495 29.9403 38.6796V39.9305C30.0688 39.9874 30.2017 40.0399 30.3346 40.0792C30.4675 40.1186 30.6048 40.1536 30.7422 40.1798C30.8884 40.2061 31.039 40.2279 31.1896 40.2367C31.3491 40.2498 31.5175 40.2542 31.7036 40.2542C32.0226 40.2542 32.3371 40.2192 32.6472 40.1448C32.9042 40.0836 33.1479 39.9699 33.3649 39.8168C33.5599 39.6724 33.7149 39.4887 33.8213 39.27C33.932 39.0295 33.9896 38.7714 33.9808 38.5046C33.9852 38.2903 33.9498 38.0759 33.87 37.8791V37.8747ZM34.9289 33.5226C34.9687 33.6145 35.0308 33.6932 35.1061 33.7545C35.1858 33.8157 35.2744 33.8551 35.3719 33.8769C35.4782 33.9032 35.5846 33.9163 35.6953 33.9163C35.8016 33.9163 35.9124 33.9032 36.0187 33.8769C36.1162 33.8551 36.2048 33.8113 36.2845 33.7545C36.3643 33.6932 36.4263 33.6145 36.4662 33.5226C36.5548 33.2952 36.5548 33.0415 36.4662 32.8184C36.4263 32.731 36.3643 32.6522 36.2845 32.591C36.2048 32.5341 36.1162 32.4904 36.0187 32.4685C35.9124 32.4466 35.8061 32.4335 35.6953 32.4335C35.5846 32.4335 35.4782 32.4466 35.3719 32.4685C35.2744 32.4904 35.1858 32.5297 35.1061 32.591C35.0308 32.6522 34.9687 32.731 34.9289 32.8184C34.8403 33.0459 34.8447 33.2952 34.9289 33.5226ZM36.4618 34.603H34.9289V40.1448H36.4618V34.603ZM39.3193 36.1295C39.47 35.8583 39.7668 35.7009 40.0814 35.7227C40.3959 35.7009 40.6972 35.8583 40.8567 36.1295C41.0383 36.5144 41.1181 36.9431 41.0915 37.3674C41.1181 37.796 41.0339 38.2203 40.8567 38.6096C40.5953 39.0295 40.0371 39.1563 39.6162 38.8983C39.501 38.8283 39.3991 38.7277 39.3282 38.6139C39.1466 38.2247 39.0668 37.796 39.0934 37.3674C39.0668 36.9431 39.1466 36.5188 39.3282 36.1295H39.3193ZM42.4605 36.1427C42.3453 35.8102 42.168 35.5041 41.9288 35.2416C41.7073 35.001 41.4282 34.813 41.1225 34.6905C40.7946 34.5636 40.4491 34.498 40.0991 34.5024C39.7314 34.498 39.3636 34.5593 39.0181 34.6905C38.7079 34.8086 38.4288 35.001 38.2073 35.2416C37.9725 35.5041 37.7997 35.8102 37.6934 36.1427C37.5693 36.5407 37.5073 36.9518 37.5162 37.3674C37.5073 37.7829 37.5738 38.2028 37.7067 38.5965C37.8174 38.9289 37.9991 39.2351 38.2383 39.4975C38.4598 39.7424 38.739 39.9305 39.0447 40.0574C39.3681 40.1886 39.7181 40.2542 40.0681 40.2498C40.4358 40.2542 40.8035 40.1886 41.1446 40.0574C41.4548 39.9349 41.7339 39.7468 41.9598 39.4975C42.1946 39.2351 42.3674 38.9289 42.4737 38.5965C42.5978 38.1984 42.6598 37.7829 42.651 37.3674C42.6598 36.9518 42.5934 36.5363 42.4649 36.1427H42.4605ZM48.5876 36.5363C48.5921 36.2258 48.5478 35.9152 48.4547 35.6178C48.3794 35.3816 48.2509 35.1673 48.0826 34.9835C47.9231 34.8173 47.7237 34.6949 47.5066 34.6205C47.2674 34.5418 47.0148 34.5024 46.7579 34.5024C46.5984 34.5024 46.4389 34.5199 46.2838 34.5505C46.1332 34.5811 45.987 34.6293 45.8452 34.6949C45.7079 34.7605 45.5794 34.848 45.4642 34.9486C45.3446 35.0535 45.2471 35.176 45.1718 35.316H45.0876L44.8839 34.6074H43.7142V40.1448H45.2471V37.5379C45.2471 37.2755 45.2604 37.0131 45.2959 36.755C45.3225 36.5538 45.3756 36.3614 45.4642 36.1776C45.5351 36.0333 45.6459 35.9108 45.7832 35.8277C45.9383 35.7446 46.1111 35.7009 46.2838 35.7096C46.5187 35.6921 46.7446 35.8102 46.8686 36.0114C47.0104 36.2914 47.0724 36.6019 47.0503 36.9125V40.1492H48.5832V36.5363H48.5876ZM54.2363 40.1492V36.4532C54.2806 35.9021 54.0768 35.3597 53.6781 34.9748C53.2218 34.6249 52.6458 34.4499 52.0699 34.4893C51.7066 34.4893 51.3477 34.533 50.9933 34.6249C50.6655 34.708 50.3553 34.8305 50.0585 34.9923L50.5547 35.9939C50.7762 35.8802 51.0066 35.7884 51.2458 35.7184C51.4762 35.6484 51.711 35.6134 51.9503 35.6134C52.1496 35.6003 52.349 35.6571 52.5129 35.7796C52.6547 35.9065 52.73 36.0945 52.7123 36.287V36.7025L51.8173 36.7331C51.2148 36.72 50.6167 36.8775 50.1028 37.1968C49.7041 37.5117 49.4914 37.9972 49.5313 38.5002C49.5269 38.767 49.5667 39.0295 49.6509 39.2788C49.7218 39.4844 49.837 39.6681 49.9832 39.8255C50.125 39.9699 50.2977 40.0792 50.4882 40.1492C50.692 40.2236 50.9047 40.2586 51.1218 40.2542C51.3123 40.2542 51.5028 40.2411 51.6889 40.2061C51.9946 40.1492 52.2692 40.0049 52.4908 39.7862C52.6104 39.6681 52.7211 39.5369 52.823 39.4013H52.8673L53.1642 40.1536H54.2319L54.2363 40.1492ZM52.7167 38.0366C52.7167 38.1984 52.6946 38.3559 52.6414 38.509C52.5971 38.6358 52.5262 38.7539 52.4332 38.8545C52.3446 38.9464 52.2382 39.0207 52.1186 39.0688C51.9946 39.117 51.8616 39.1432 51.7243 39.1388C51.5604 39.1476 51.4053 39.0951 51.2768 38.9901C51.1484 38.8589 51.0863 38.6796 51.1041 38.4958C51.1041 38.3734 51.1218 38.2509 51.1617 38.1372C51.1971 38.0322 51.2636 37.936 51.3477 37.8572C51.4452 37.7741 51.5604 37.7085 51.6889 37.6735C51.8572 37.6211 52.03 37.5948 52.2072 37.5948L52.7123 37.5773V38.0322L52.7167 38.0366ZM57.0895 32.4335H55.5566V40.1492H57.0895V32.4335ZM63.5445 35.6659C63.6641 35.7227 63.766 35.8059 63.8457 35.9108C63.9299 36.0202 63.9919 36.147 64.0274 36.2782C64.0673 36.4313 64.0894 36.5888 64.0938 36.7463H62.1401C62.1401 36.4226 62.2464 36.112 62.4502 35.8583C62.623 35.6703 62.8711 35.5697 63.1236 35.574C63.2698 35.574 63.4116 35.6047 63.5445 35.6659V35.6659ZM63.89 40.2236C64.054 40.2104 64.2179 40.1842 64.3774 40.1536C64.5236 40.123 64.6654 40.0836 64.8071 40.0311C64.9445 39.983 65.0818 39.9218 65.2103 39.8562V38.6883C65.0641 38.7627 64.9179 38.8239 64.7805 38.8808C64.6432 38.9332 64.497 38.9814 64.3552 39.0164C64.209 39.0513 64.0628 39.082 63.9122 39.0995C63.7527 39.117 63.5888 39.1257 63.4293 39.1257C63.2432 39.1257 63.0571 39.0951 62.8844 39.0295C62.7293 38.9682 62.592 38.8764 62.4768 38.7583C62.3616 38.6358 62.273 38.4871 62.2154 38.3253C62.1489 38.1416 62.1179 37.9491 62.1135 37.7523H65.5381V37.0174C65.5426 36.6544 65.4894 36.2914 65.3698 35.9458C65.2679 35.6528 65.104 35.3816 64.8869 35.1541C64.6742 34.9354 64.4128 34.7692 64.1249 34.6642C63.8014 34.5505 63.4603 34.4937 63.1192 34.498C62.7647 34.4937 62.4103 34.5549 62.078 34.6817C61.7723 34.7998 61.4977 34.9879 61.2761 35.2285C61.0413 35.4909 60.8641 35.8015 60.7578 36.1383C60.6249 36.5494 60.5629 36.9825 60.5717 37.4111C60.5629 37.8354 60.6337 38.2597 60.7755 38.6621C60.8951 38.9945 61.0901 39.2963 61.347 39.5456C61.5951 39.7818 61.892 39.9611 62.2198 40.0705C62.5787 40.1886 62.9508 40.2498 63.3274 40.2454C63.5356 40.2454 63.7261 40.2367 63.8989 40.2192L63.89 40.2236ZM65.8172 40.1448H67.5539L68.5818 38.3515L69.6096 40.1448H71.3463L69.4324 37.3149L71.2666 34.603H69.5299L68.5818 36.2695L67.647 34.603H65.9058L67.7134 37.3149L65.8128 40.1448H65.8172ZM74.6957 40.2236C74.8197 40.2104 74.9438 40.1886 75.0678 40.158C75.1874 40.1273 75.3071 40.088 75.4222 40.0442C75.5419 39.9961 75.6615 39.9436 75.7855 39.8868V38.6271C75.5507 38.7364 75.307 38.8326 75.0589 38.9114C74.802 38.9901 74.5362 39.0251 74.2659 39.0251C73.9469 39.047 73.6457 38.8939 73.4773 38.6271C73.2824 38.2465 73.1982 37.8223 73.2248 37.398C73.1982 36.965 73.2824 36.5319 73.4773 36.1427C73.6457 35.8627 73.9602 35.7009 74.2881 35.7227C74.4874 35.7227 74.6824 35.7577 74.8684 35.8146C75.0855 35.8802 75.2982 35.9589 75.5064 36.0508L75.9494 34.9004C75.6925 34.7736 75.4222 34.673 75.1476 34.6074C74.8684 34.5374 74.5805 34.5024 74.2881 34.5024C73.9248 34.5024 73.5615 34.5462 73.2115 34.6468C72.8969 34.7342 72.6134 34.9004 72.383 35.1279C72.1349 35.3816 71.9533 35.6878 71.8514 36.0246C71.714 36.4751 71.652 36.9431 71.6653 37.4111C71.6564 37.8485 71.7185 38.2815 71.8469 38.6971C71.9533 39.0251 72.1305 39.3313 72.3742 39.5806C72.6045 39.8124 72.8881 39.9874 73.2026 40.088C73.5526 40.2017 73.9204 40.2586 74.2925 40.2498C74.4298 40.2498 74.5672 40.2454 74.7045 40.2279L74.6957 40.2236ZM79.5115 35.6615C79.6311 35.7184 79.733 35.8015 79.8127 35.9065C79.8969 36.0158 79.9589 36.1426 79.9944 36.2739C80.0342 36.427 80.0564 36.5844 80.0608 36.7419H78.107C78.107 36.4182 78.2134 36.1077 78.4172 35.854C78.5899 35.6703 78.838 35.5653 79.095 35.5697C79.2412 35.5697 79.383 35.6003 79.5159 35.6615H79.5115ZM79.857 40.2192C80.0209 40.2061 80.1849 40.1798 80.3444 40.1492C80.4906 40.1186 80.6323 40.0792 80.7741 40.0267C80.9114 39.9786 81.0488 39.9174 81.1773 39.8518V38.6796C81.0311 38.7539 80.8849 38.8151 80.7475 38.872C80.6102 38.9245 80.464 38.9726 80.3222 39.0076C80.176 39.0426 80.0298 39.0732 79.8792 39.0907C79.7197 39.1082 79.5558 39.117 79.3963 39.117C79.2102 39.117 79.0241 39.0863 78.8513 39.0207C78.6963 38.9595 78.5589 38.8676 78.4437 38.7495C78.3285 38.6271 78.2399 38.4784 78.1823 38.3165C78.1159 38.1328 78.0849 37.9404 78.0804 37.7435H81.5007V37.0087C81.5051 36.6457 81.4519 36.2826 81.3323 35.9371C81.2304 35.644 81.0665 35.3728 80.8494 35.1454C80.6368 34.9267 80.3754 34.7605 80.0874 34.6555C79.764 34.5418 79.4228 34.4849 79.0817 34.4893C78.7273 34.4849 78.3728 34.5461 78.0406 34.673C77.7349 34.7911 77.4558 34.9792 77.2387 35.2197C77.0039 35.4822 76.8267 35.7927 76.7203 36.1295C76.5874 36.5407 76.5254 36.9737 76.5343 37.4024C76.5254 37.8266 76.5963 38.2509 76.7381 38.6533C76.8577 38.9857 77.0526 39.2875 77.3096 39.5369C77.5577 39.7731 77.8545 39.9524 78.1823 40.0617C78.5412 40.1798 78.9134 40.2411 79.2899 40.2367C79.4982 40.2367 79.6931 40.2279 79.8659 40.2104L79.857 40.2192ZM84.0703 32.4248H82.5374V40.1405H84.0658V32.4248H84.0703ZM86.95 32.4248H85.4171V40.1405H86.95V32.4248ZM90.9905 35.6571C91.1101 35.714 91.212 35.7971 91.2917 35.9021C91.3759 36.0114 91.4379 36.1383 91.4734 36.2695C91.5133 36.4226 91.5354 36.58 91.5398 36.7375H89.5861C89.5861 36.4138 89.6924 36.1033 89.8962 35.8496C90.069 35.6615 90.3171 35.5609 90.5696 35.5653C90.7158 35.5653 90.8576 35.5915 90.9905 35.6528V35.6571ZM91.336 40.2148C91.5 40.2017 91.6639 40.1755 91.8234 40.1448C91.9696 40.1142 92.1114 40.0749 92.2531 40.0224C92.3905 39.9743 92.5278 39.913 92.6563 39.8474V38.6752C92.5101 38.7495 92.3639 38.8108 92.2265 38.8676C92.0892 38.9201 91.943 38.9682 91.8012 39.0032C91.655 39.0382 91.5088 39.0688 91.3582 39.0863C91.1987 39.1038 91.0348 39.1126 90.8753 39.1126C90.6892 39.1126 90.5031 39.082 90.3304 39.0164C90.1753 38.9551 90.038 38.8633 89.9228 38.7452C89.8076 38.6227 89.719 38.474 89.6614 38.3121C89.5949 38.1284 89.5639 37.936 89.5595 37.7392H92.9841V37.0043C92.9886 36.6413 92.9354 36.2782 92.8158 35.9327C92.7139 35.6396 92.55 35.3685 92.3329 35.141C92.1202 34.9223 91.8588 34.7561 91.5709 34.6511C91.2474 34.5374 90.9063 34.4805 90.5652 34.4849C90.2107 34.4805 89.8563 34.5418 89.524 34.6686C89.2183 34.7867 88.9437 34.9748 88.7221 35.2154C88.4873 35.4778 88.3101 35.7884 88.2038 36.1252C88.0709 36.5363 88.0089 36.9693 88.0177 37.398C88.0089 37.8223 88.0797 38.2465 88.2215 38.6489C88.3411 38.9814 88.5361 39.2832 88.793 39.5325C89.0411 39.7687 89.338 39.948 89.6658 40.0574C90.0247 40.1755 90.3968 40.2367 90.7734 40.2323C90.9816 40.2323 91.1721 40.2236 91.3449 40.2061L91.336 40.2148ZM98.8898 36.5232C98.8942 36.2126 98.8543 35.9021 98.7613 35.6047C98.686 35.3685 98.5575 35.1541 98.3892 34.9704C98.2297 34.8042 98.0303 34.6817 97.8132 34.6074C97.574 34.5287 97.3214 34.4893 97.0645 34.4893C96.905 34.4893 96.7455 34.5068 96.5904 34.5374C96.4398 34.568 96.2936 34.6161 96.1518 34.6817C96.0145 34.7474 95.886 34.8348 95.7708 34.9354C95.6512 35.0404 95.5537 35.1629 95.4784 35.3028H95.3942L95.1905 34.5943H94.0208V40.1361H95.5537V37.5292C95.5537 37.2668 95.567 37.0043 95.6025 36.7463C95.6291 36.5451 95.6822 36.3526 95.7708 36.1689C95.8417 36.0246 95.9525 35.9021 96.0898 35.819C96.2449 35.7359 96.4177 35.6921 96.5904 35.7009C96.8253 35.6834 97.0512 35.8015 97.1752 36.0027C97.317 36.2826 97.379 36.5932 97.3569 36.9037V40.1405H98.8898V36.5276V36.5232ZM102.957 40.2148C103.081 40.2017 103.205 40.1798 103.329 40.1492C103.449 40.1186 103.568 40.0792 103.683 40.0355C103.803 39.9874 103.923 39.9349 104.047 39.878V38.6183C103.812 38.7277 103.568 38.8239 103.32 38.9026C103.063 38.9814 102.797 39.0164 102.527 39.0164C102.213 39.0382 101.907 38.8851 101.739 38.6183C101.544 38.2378 101.459 37.8135 101.486 37.3892C101.459 36.9562 101.544 36.5232 101.739 36.1339C101.907 35.854 102.217 35.6921 102.549 35.714C102.749 35.714 102.944 35.749 103.134 35.8059C103.351 35.8715 103.564 35.9502 103.772 36.042L104.215 34.8917C103.958 34.7648 103.688 34.6642 103.413 34.5986C103.134 34.5287 102.846 34.4937 102.554 34.4937C102.19 34.4937 101.827 34.5374 101.477 34.638C101.163 34.7299 100.879 34.8917 100.649 35.1191C100.401 35.3728 100.219 35.679 100.117 36.0158C99.9797 36.4663 99.9176 36.9343 99.9309 37.4024C99.9221 37.8398 99.9841 38.2728 100.113 38.6883C100.219 39.0164 100.396 39.3225 100.64 39.5718C100.87 39.8037 101.154 39.9786 101.468 40.0792C101.818 40.193 102.186 40.2498 102.554 40.2411C102.691 40.2411 102.828 40.2323 102.966 40.2192L102.957 40.2148ZM107.773 35.6571C107.892 35.714 107.994 35.7971 108.074 35.9021C108.158 36.0114 108.22 36.1383 108.256 36.2695C108.295 36.4226 108.318 36.58 108.322 36.7375H106.368C106.368 36.4138 106.475 36.1033 106.678 35.8496C106.851 35.6659 107.099 35.5609 107.356 35.5653C107.502 35.5653 107.644 35.5915 107.777 35.6528L107.773 35.6571ZM108.118 40.2148C108.282 40.2017 108.446 40.1755 108.606 40.1448C108.752 40.1142 108.894 40.0749 109.035 40.0224C109.173 39.9743 109.31 39.913 109.438 39.8474V38.6752C109.292 38.7495 109.146 38.8108 109.009 38.8676C108.871 38.9201 108.725 38.9682 108.583 39.0032C108.437 39.0382 108.291 39.0688 108.14 39.0863C107.981 39.1038 107.817 39.1126 107.657 39.1126C107.471 39.1126 107.285 39.082 107.113 39.0164C106.957 38.9551 106.82 38.8633 106.705 38.7452C106.59 38.6227 106.501 38.474 106.444 38.3121C106.377 38.1284 106.346 37.936 106.342 37.7392H109.766V37.0043C109.771 36.6413 109.718 36.2782 109.598 35.9327C109.496 35.6396 109.332 35.3685 109.115 35.141C108.902 34.9223 108.641 34.7561 108.353 34.6511C108.03 34.5374 107.688 34.4805 107.347 34.4849C106.993 34.4805 106.638 34.5418 106.306 34.6686C106 34.7867 105.721 34.9748 105.504 35.2154C105.269 35.4822 105.092 35.7884 104.986 36.1252C104.853 36.5363 104.791 36.9693 104.8 37.398C104.791 37.8223 104.862 38.2465 105.004 38.6489C105.123 38.9814 105.318 39.2832 105.575 39.5325C105.823 39.7687 106.12 39.948 106.448 40.0574C106.807 40.1755 107.179 40.2367 107.556 40.2323C107.764 40.2323 107.954 40.2236 108.127 40.2061L108.118 40.2148ZM110.652 39.8124C110.692 39.913 110.759 40.0049 110.838 40.0749C110.918 40.1448 111.016 40.1973 111.122 40.2236C111.233 40.2542 111.352 40.2717 111.468 40.2717C111.583 40.2717 111.693 40.2542 111.8 40.2236C112.012 40.1623 112.185 40.0092 112.269 39.808C112.318 39.6856 112.345 39.5587 112.34 39.4275C112.34 39.2919 112.318 39.1607 112.269 39.0338C112.23 38.9332 112.163 38.8414 112.079 38.7714C111.999 38.7058 111.902 38.6577 111.8 38.6271C111.689 38.5965 111.578 38.5833 111.468 38.5833C111.352 38.5833 111.233 38.5965 111.122 38.6271C111.02 38.6533 110.923 38.7058 110.838 38.7714C110.754 38.8414 110.688 38.9332 110.652 39.0338C110.604 39.1607 110.581 39.2919 110.586 39.4275C110.586 39.5587 110.604 39.6899 110.652 39.808V39.8124ZM119.646 40.053C119.898 39.9218 120.111 39.7337 120.275 39.5062C120.466 39.2307 120.603 38.9245 120.683 38.6052C120.785 38.1984 120.833 37.7785 120.829 37.3586C120.833 36.9431 120.789 36.5232 120.687 36.1164C120.612 35.7971 120.474 35.4909 120.288 35.2197C120.133 34.9923 119.921 34.8042 119.677 34.673C119.433 34.5505 119.159 34.4849 118.884 34.4893C118.716 34.4893 118.543 34.5112 118.383 34.5549C118.242 34.5943 118.104 34.6555 117.98 34.7342C117.865 34.8086 117.759 34.8961 117.666 34.9967C117.577 35.0973 117.497 35.2022 117.426 35.316H117.355L117.138 34.5986H115.893V42.5811H117.426V40.3329C117.426 40.2848 117.426 40.2148 117.413 40.123C117.4 40.0311 117.395 39.9436 117.386 39.8562C117.373 39.7556 117.36 39.6462 117.347 39.5281H117.426C117.497 39.6243 117.577 39.7118 117.661 39.7949C117.75 39.8824 117.852 39.9568 117.962 40.0224C118.086 40.0924 118.215 40.1448 118.352 40.1798C118.512 40.2192 118.68 40.2411 118.849 40.2411C119.128 40.2411 119.402 40.1798 119.65 40.0574L119.646 40.053ZM119.048 36.1077C119.212 36.4969 119.287 36.9168 119.261 37.3367C119.283 37.761 119.212 38.1897 119.048 38.5833C118.937 38.8501 118.671 39.0207 118.379 39.012C118.219 39.0164 118.064 38.9814 117.923 38.9026C117.794 38.8239 117.692 38.7145 117.63 38.5833C117.55 38.4171 117.497 38.2422 117.471 38.0585C117.435 37.8223 117.422 37.5817 117.422 37.3455V37.1837C117.422 36.965 117.444 36.7463 117.484 36.5319C117.511 36.3701 117.564 36.2126 117.643 36.0727C117.71 35.9546 117.812 35.8583 117.931 35.7971C118.064 35.7315 118.215 35.7009 118.366 35.7053C118.654 35.6921 118.924 35.854 119.043 36.112L119.048 36.1077ZM126.726 40.1361V34.5943H125.193V37.2012C125.193 37.4636 125.179 37.726 125.144 37.9841C125.117 38.1853 125.064 38.3778 124.976 38.5615C124.905 38.7058 124.794 38.8283 124.657 38.9114C124.502 38.9945 124.329 39.0382 124.156 39.0295C123.921 39.047 123.695 38.9289 123.571 38.7277C123.429 38.4477 123.367 38.1372 123.39 37.8266V34.5899H121.857V38.2028C121.852 38.5133 121.897 38.8239 121.99 39.1213C122.065 39.3575 122.193 39.5718 122.362 39.7512C122.521 39.9174 122.721 40.0399 122.938 40.1142C123.177 40.193 123.429 40.2323 123.686 40.2323C123.846 40.2323 124.005 40.2148 124.16 40.1842C124.311 40.1536 124.457 40.1055 124.599 40.0399C124.736 39.9743 124.865 39.8911 124.98 39.7905C125.1 39.6856 125.202 39.5631 125.277 39.4275H125.361L125.565 40.1361H126.735H126.726ZM130.567 34.5549C130.425 34.5943 130.288 34.6511 130.164 34.7299C130.048 34.7998 129.942 34.8917 129.849 34.9879C129.76 35.0885 129.676 35.1935 129.61 35.3116H129.552C129.561 35.1804 129.57 35.0535 129.583 34.9267C129.588 34.8173 129.597 34.6992 129.601 34.5724C129.61 34.4455 129.61 34.3275 129.61 34.2181V32.4248H128.077V40.1405H129.247L129.503 39.5325H129.61C129.681 39.6243 129.76 39.7162 129.845 39.7993C129.933 39.8868 130.035 39.9611 130.141 40.0267C130.266 40.0967 130.394 40.1492 130.531 40.1842C130.695 40.2279 130.864 40.2454 131.032 40.2454C131.311 40.2454 131.59 40.1842 131.843 40.0617C132.095 39.9349 132.308 39.7468 132.472 39.515C132.662 39.2438 132.8 38.9376 132.875 38.6139C132.977 38.2028 133.026 37.7829 133.017 37.363C133.021 36.9475 132.977 36.5276 132.875 36.1208C132.795 35.8015 132.662 35.4953 132.476 35.2241C132.321 34.9967 132.109 34.8086 131.865 34.6774C131.621 34.5549 131.351 34.4893 131.076 34.4937C130.908 34.4937 130.735 34.5155 130.576 34.5593L130.567 34.5549ZM131.231 36.1077C131.395 36.4969 131.471 36.9168 131.444 37.3367C131.466 37.761 131.395 38.1897 131.231 38.5833C131.121 38.8501 130.855 39.0207 130.562 39.012C130.403 39.0164 130.248 38.9814 130.106 38.9026C129.978 38.8239 129.876 38.7145 129.814 38.5833C129.734 38.4171 129.681 38.2422 129.654 38.0585C129.619 37.8223 129.605 37.5817 129.605 37.3455V37.1837C129.605 36.965 129.628 36.7463 129.667 36.5319C129.694 36.3701 129.747 36.2126 129.827 36.0683C129.893 35.9502 129.995 35.854 130.115 35.7927C130.252 35.7271 130.398 35.6965 130.549 35.7009C130.841 35.6878 131.112 35.8496 131.231 36.112V36.1077ZM135.6 32.4204H134.067V40.1361H135.6V32.4204ZM136.951 33.5095C136.991 33.6014 137.053 33.6801 137.128 33.7413C137.208 33.8026 137.296 33.8419 137.394 33.8638C137.5 33.8901 137.611 33.9032 137.717 33.9032C137.824 33.9032 137.934 33.8901 138.036 33.8638C138.134 33.8419 138.222 33.7982 138.302 33.7413C138.382 33.6801 138.444 33.6014 138.484 33.5095C138.572 33.2821 138.572 33.0284 138.484 32.8053C138.444 32.7178 138.382 32.6391 138.302 32.5779C138.222 32.5166 138.134 32.4773 138.036 32.4554C137.93 32.4335 137.824 32.4204 137.717 32.4204C137.607 32.4204 137.5 32.4335 137.394 32.4554C137.296 32.4773 137.208 32.5166 137.128 32.5779C137.053 32.6391 136.991 32.7178 136.951 32.8053C136.862 33.0328 136.867 33.2864 136.951 33.5139V33.5095ZM138.484 34.5899H136.951V40.1317H138.484V34.5899ZM142.582 40.2104C142.706 40.1973 142.83 40.1755 142.954 40.1448C143.074 40.1142 143.193 40.0749 143.308 40.0311C143.428 39.983 143.548 39.9305 143.672 39.8737V38.6139C143.437 38.7233 143.193 38.8195 142.945 38.8983C142.688 38.977 142.422 39.012 142.152 39.012C141.833 39.0338 141.532 38.8808 141.364 38.6139C141.169 38.2334 141.084 37.8091 141.111 37.3849C141.084 36.9518 141.169 36.5188 141.364 36.1295C141.532 35.8496 141.842 35.6878 142.174 35.7096C142.374 35.7096 142.569 35.7446 142.759 35.8015C142.976 35.8671 143.189 35.9458 143.397 36.0377L143.84 34.8873C143.583 34.7605 143.313 34.6599 143.038 34.5943C142.759 34.5243 142.467 34.4893 142.179 34.4893C141.815 34.4893 141.452 34.533 141.102 34.6336C140.788 34.7211 140.504 34.8873 140.274 35.1148C140.026 35.3685 139.844 35.6746 139.742 36.0114C139.605 36.4619 139.543 36.93 139.556 37.398C139.547 37.8354 139.609 38.2684 139.738 38.6839C139.844 39.012 140.021 39.3182 140.265 39.5675C140.495 39.7993 140.779 39.9743 141.093 40.0749C141.443 40.1886 141.811 40.2454 142.179 40.2367C142.316 40.2367 142.458 40.2323 142.595 40.2148L142.582 40.2104ZM148.979 38.872C148.864 38.7408 148.802 38.5702 148.82 38.3952V35.7227H150.184V34.5855H148.82V33.4045H147.841L147.398 34.5768L146.556 35.0841V35.7227H147.291V38.3952C147.282 38.6971 147.327 38.9989 147.424 39.2832C147.5 39.4975 147.624 39.6899 147.788 39.8474C147.943 39.9874 148.133 40.088 148.337 40.1405C148.558 40.1973 148.789 40.2279 149.019 40.2236C149.254 40.2236 149.484 40.2017 149.715 40.1536C149.901 40.1142 150.078 40.053 150.251 39.9743V38.8501C150.113 38.8983 149.976 38.942 149.839 38.9726C149.697 39.0076 149.555 39.0207 149.409 39.0207C149.254 39.0295 149.103 38.9726 148.988 38.872H148.979ZM153.551 34.5505C153.41 34.5943 153.281 34.6555 153.162 34.7386C153.042 34.8217 152.936 34.9223 152.847 35.0317C152.75 35.1541 152.661 35.281 152.586 35.4166H152.51L152.284 34.5855H151.124V40.1273H152.656V37.3061C152.652 37.0831 152.683 36.8556 152.754 36.6457C152.807 36.4794 152.905 36.3307 153.029 36.2083C153.148 36.0945 153.294 36.0158 153.454 35.9677C153.631 35.9152 153.813 35.8933 153.999 35.8933C154.034 35.8933 154.074 35.8933 154.123 35.8933C154.172 35.8933 154.225 35.8977 154.278 35.9021C154.331 35.9065 154.38 35.9152 154.424 35.9196C154.469 35.924 154.508 35.9327 154.535 35.9371V34.5199C154.504 34.5112 154.477 34.5068 154.446 34.5024C154.406 34.498 154.367 34.4937 154.322 34.4893C154.278 34.4849 154.229 34.4805 154.181 34.4805C154.132 34.4805 154.087 34.4805 154.048 34.4805C153.879 34.4805 153.711 34.5024 153.551 34.5505V34.5505ZM160.175 40.1317V34.5899H158.642V37.1968C158.642 37.4592 158.629 37.7217 158.593 37.9797C158.567 38.1809 158.513 38.3734 158.425 38.5571C158.354 38.7014 158.243 38.8239 158.106 38.907C157.951 38.9901 157.778 39.0338 157.605 39.0251C157.37 39.0426 157.144 38.9245 157.02 38.7233C156.879 38.4434 156.817 38.1328 156.839 37.8223V34.5855H155.306V38.1984C155.297 38.509 155.341 38.8195 155.434 39.117C155.51 39.3531 155.638 39.5675 155.806 39.7468C155.966 39.913 156.165 40.0355 156.382 40.1098C156.622 40.1886 156.874 40.2279 157.131 40.2279C157.291 40.2279 157.45 40.2104 157.605 40.1798C157.756 40.1492 157.902 40.1011 158.044 40.0355C158.181 39.9699 158.31 39.8868 158.425 39.7862C158.544 39.6812 158.646 39.5587 158.722 39.4231H158.806L159.01 40.1317H160.179H160.175ZM165.155 37.8616C165.084 37.691 164.973 37.5379 164.84 37.4111C164.694 37.2755 164.525 37.1574 164.348 37.0656C164.158 36.965 163.945 36.8644 163.706 36.7594C163.502 36.6675 163.334 36.5888 163.21 36.5232C163.103 36.4751 163.006 36.4138 162.913 36.3439C162.855 36.3045 162.806 36.2476 162.771 36.1864C162.749 36.1295 162.736 36.0727 162.736 36.0114C162.731 35.8977 162.784 35.784 162.873 35.714C163.006 35.6309 163.165 35.5915 163.325 35.6047C163.56 35.6047 163.794 35.644 164.016 35.7184C164.264 35.8015 164.508 35.8977 164.742 36.0114L165.203 34.9398C164.906 34.7955 164.592 34.6817 164.273 34.5986C163.963 34.5199 163.639 34.4849 163.32 34.4849C163.028 34.4849 162.736 34.5155 162.452 34.5811C162.213 34.638 161.987 34.7342 161.787 34.8698C161.606 34.9923 161.46 35.1585 161.362 35.3553C161.256 35.5653 161.207 35.7971 161.211 36.0333C161.211 36.2389 161.238 36.4445 161.296 36.6413C161.349 36.8075 161.437 36.9606 161.553 37.0962C161.681 37.2361 161.832 37.3586 161.996 37.4548C162.199 37.5773 162.412 37.6823 162.629 37.7785C162.882 37.8922 163.081 37.9841 163.227 38.0628C163.347 38.1241 163.458 38.1897 163.568 38.2728C163.63 38.3165 163.684 38.3778 163.719 38.4477C163.741 38.509 163.755 38.5702 163.75 38.6314C163.75 38.6971 163.737 38.767 163.706 38.8283C163.675 38.8939 163.63 38.9464 163.568 38.9857C163.498 39.0338 163.413 39.0688 163.329 39.0907C163.214 39.117 163.094 39.1301 162.979 39.1301C162.842 39.1301 162.709 39.117 162.576 39.0951C162.425 39.0688 162.275 39.0382 162.124 38.9989C161.969 38.9595 161.814 38.907 161.659 38.8545C161.508 38.802 161.358 38.7364 161.216 38.6664V39.9174C161.344 39.9743 161.477 40.0267 161.615 40.0661C161.748 40.1055 161.885 40.1405 162.022 40.1667C162.168 40.193 162.319 40.2148 162.47 40.2236C162.625 40.2367 162.798 40.2411 162.984 40.2411C163.303 40.2411 163.617 40.2061 163.927 40.1317C164.184 40.0705 164.428 39.9568 164.645 39.8037C164.84 39.6593 164.995 39.4756 165.101 39.2569C165.212 39.0164 165.27 38.7583 165.261 38.4915C165.265 38.2772 165.225 38.0672 165.15 37.866L165.155 37.8616ZM168.07 38.872C167.95 38.7408 167.892 38.5702 167.91 38.3952V35.7227H169.275V34.5855H167.91V33.4045H166.931L166.488 34.5768L165.646 35.0841V35.7227H166.382V38.3952C166.373 38.6971 166.417 38.9989 166.515 39.2832C166.59 39.4975 166.714 39.6899 166.878 39.8474C167.033 39.9874 167.219 40.088 167.427 40.1405C167.649 40.1973 167.879 40.2279 168.11 40.2236C168.344 40.2236 168.575 40.2017 168.805 40.1536C168.991 40.1142 169.168 40.053 169.341 39.9743V38.8501C169.204 38.8983 169.066 38.942 168.929 38.9726C168.787 39.0076 168.646 39.0207 168.499 39.0207C168.344 39.0295 168.194 38.977 168.079 38.872H168.07ZM170.063 39.8037C170.103 39.9043 170.17 39.9961 170.249 40.0661C170.329 40.1361 170.427 40.1886 170.533 40.2148C170.644 40.2454 170.763 40.2629 170.879 40.2629C170.994 40.2629 171.104 40.2498 171.211 40.2148C171.423 40.1536 171.596 40.0005 171.68 39.7993C171.729 39.6768 171.756 39.55 171.751 39.4188C171.751 39.2832 171.729 39.1519 171.68 39.0251C171.641 38.9245 171.574 38.8326 171.49 38.7627C171.41 38.6971 171.313 38.6489 171.211 38.6183C171.1 38.5877 170.989 38.5746 170.879 38.5746C170.763 38.5746 170.644 38.5877 170.533 38.6183C170.431 38.6446 170.334 38.6971 170.249 38.7627C170.165 38.8326 170.103 38.9245 170.063 39.0251C170.015 39.1519 169.992 39.2832 169.997 39.4188C169.997 39.55 170.019 39.6812 170.068 39.8037H170.063Z" fill="#231F20"/>
</g>
<defs>
<clipPath id="clip0_101_5068">
<rect width="264" height="56" fill="white"/>
</clipPath>
</defs>
</svg>
