<svg width="253" height="189" viewBox="0 0 253 189" fill="none" xmlns="http://www.w3.org/2000/svg">
<path d="M5.93775 148.857H5.10284V152.712C5.10284 152.797 5.10284 152.887 5.10284 152.989C5.10284 153.091 5.10708 153.193 5.11132 153.299C5.11556 153.405 5.11979 153.516 5.12403 153.622C5.12827 153.728 5.13251 153.835 5.13675 153.937C5.14946 154.175 5.16217 154.417 5.17065 154.659H5.13675L1.69538 148.857H0.678223V155.901H1.50466V152.079C1.50466 151.896 1.50466 151.692 1.49195 151.462C1.48347 151.233 1.47499 151.016 1.46228 150.808C1.44956 150.566 1.43261 150.319 1.41566 150.072H1.4538L4.90789 155.905H5.94199V148.861L5.93775 148.857ZM12.8714 155.11H10.1208V152.606H12.6891V151.824H10.1208V149.647H12.8714V148.857H9.22655V155.901H12.8714V155.11ZM17.6435 152.989C17.6011 153.146 17.563 153.312 17.5248 153.49C17.4867 153.669 17.4528 153.843 17.4231 154.017C17.3892 154.192 17.3638 154.357 17.3384 154.515C17.3129 154.672 17.296 154.812 17.279 154.927C17.2621 154.804 17.2451 154.672 17.2197 154.523C17.1943 154.374 17.1731 154.226 17.1434 154.068C17.1137 153.911 17.0883 153.754 17.0544 153.592C17.0205 153.431 16.9866 153.282 16.9484 153.133L15.8762 148.848H14.9311L16.7874 155.892H17.6901L18.8514 151.399C18.8937 151.224 18.9404 151.05 18.9785 150.867C19.0167 150.685 19.0548 150.523 19.0887 150.37C19.1226 150.191 19.1608 150.021 19.1947 149.86C19.2286 150.026 19.2667 150.2 19.3048 150.374C19.3388 150.527 19.3769 150.689 19.4193 150.859C19.4617 151.033 19.504 151.199 19.5464 151.365L20.767 155.884H21.6697L23.4328 148.84H22.475L21.5129 153.091C21.479 153.248 21.4451 153.409 21.4154 153.575C21.3858 153.741 21.3561 153.903 21.3307 154.06C21.3053 154.217 21.2841 154.37 21.2629 154.515C21.2417 154.659 21.229 154.791 21.2162 154.914C21.1993 154.791 21.1739 154.655 21.14 154.506C21.1103 154.353 21.0764 154.196 21.034 154.026C20.9916 153.856 20.9492 153.682 20.9026 153.503C20.856 153.324 20.8094 153.142 20.7628 152.963L19.6609 148.84H18.7157L17.635 152.972L17.6435 152.989ZM26.7597 152.921H29.328V152.13H26.7597V149.643H29.5145V148.852H25.8697V155.896H26.764V152.916L26.7597 152.921ZM37.6179 150.876C37.5034 150.459 37.3042 150.072 37.0372 149.732C36.7829 149.418 36.4566 149.167 36.0879 149.001C35.6768 148.823 35.2275 148.733 34.7783 148.742C34.3121 148.729 33.8501 148.818 33.4179 149.001C33.0449 149.163 32.7186 149.413 32.46 149.732C32.1973 150.068 32.0066 150.459 31.8964 150.872C31.6548 151.849 31.6548 152.87 31.8964 153.847C32.0023 154.264 32.193 154.655 32.4558 154.995C32.7101 155.314 33.0364 155.569 33.4051 155.731C33.8332 155.913 34.2951 156.003 34.7613 155.99C35.2148 155.998 35.6598 155.909 36.0752 155.731C36.4481 155.565 36.7745 155.31 37.0288 154.995C37.2958 154.655 37.4907 154.264 37.6094 153.847C37.8679 152.874 37.8679 151.849 37.6094 150.876H37.6179ZM32.7906 151.178C32.8584 150.859 32.9898 150.557 33.1763 150.289C33.3458 150.051 33.5704 149.86 33.8332 149.728C34.1299 149.592 34.452 149.524 34.7783 149.532C35.1046 149.524 35.4267 149.592 35.7192 149.728C35.9777 149.856 36.2023 150.047 36.3676 150.289C36.5498 150.557 36.677 150.859 36.7406 151.178C36.9016 151.964 36.9016 152.772 36.7406 153.554C36.6727 153.873 36.5456 154.179 36.3634 154.451C36.1981 154.693 35.9735 154.885 35.7107 155.016C35.1089 155.276 34.4265 155.276 33.8247 155.016C33.562 154.889 33.3373 154.693 33.172 154.451C32.9898 154.179 32.8584 153.873 32.7906 153.554C32.6253 152.772 32.6253 151.96 32.7906 151.178ZM44.8863 148.844V153.431C44.8863 153.673 44.8524 153.915 44.7845 154.149C44.7252 154.357 44.6277 154.549 44.4921 154.715C44.3565 154.876 44.1827 154.999 43.9878 155.08C43.7547 155.174 43.5046 155.216 43.2546 155.212C42.7884 155.25 42.3307 155.08 42.0001 154.749C41.7034 154.383 41.5551 153.915 41.5848 153.444V148.857H40.6863V153.397C40.682 153.758 40.7371 154.119 40.8516 154.464C40.9533 154.77 41.1186 155.05 41.3347 155.284C41.5551 155.518 41.8263 155.697 42.123 155.811C42.4705 155.939 42.8392 156.003 43.208 155.998C43.5979 156.007 43.9835 155.939 44.3438 155.803C44.6489 155.684 44.9202 155.497 45.1448 155.259C45.3609 155.025 45.522 154.744 45.6237 154.438C45.7297 154.111 45.7847 153.767 45.7805 153.418V148.848H44.8863V148.844ZM54.261 148.852H53.4261V152.708C53.4261 152.793 53.4261 152.882 53.4261 152.984C53.4261 153.086 53.4304 153.188 53.4346 153.295C53.4388 153.401 53.4431 153.512 53.4473 153.618C53.4515 153.724 53.4558 153.83 53.46 153.932C53.4727 154.17 53.4854 154.413 53.4939 154.655H53.46L50.0186 148.852H48.9973V155.896H49.8237V152.075C49.8237 151.892 49.8237 151.688 49.811 151.458C49.8025 151.229 49.794 151.012 49.7813 150.804C49.7686 150.561 49.7516 150.315 49.7347 150.068H49.7728L53.2269 155.901H54.261V148.857V148.852ZM62.4957 150.812C62.3601 150.408 62.1397 150.038 61.8473 149.728C61.5633 149.435 61.2158 149.209 60.8344 149.069C60.4063 148.916 59.9571 148.84 59.5036 148.848H57.5498V155.892H59.3087C59.8003 155.901 60.2877 155.824 60.7539 155.667C61.1607 155.527 61.5252 155.297 61.8261 154.991C62.127 154.672 62.3559 154.285 62.4957 153.869C62.6568 153.363 62.7373 152.836 62.7246 152.304C62.7331 151.798 62.6568 151.292 62.5 150.808L62.4957 150.812ZM61.1353 154.421C60.6267 154.923 59.9317 155.178 59.2239 155.123H58.4441V149.613H59.4104C59.7537 149.609 60.0927 149.664 60.4148 149.775C60.6988 149.877 60.9573 150.047 61.1607 150.268C61.3769 150.51 61.5337 150.799 61.6227 151.114C61.7371 151.509 61.788 151.922 61.7795 152.33C61.8346 153.082 61.6057 153.826 61.1353 154.417V154.421ZM69.3064 155.896V155.097H66.5516V148.852H65.6574V155.896H69.3064ZM76.8969 155.896L74.3117 148.823H73.4979L70.9169 155.896H71.8196L72.5995 153.711H75.2186L75.9857 155.896H76.8969ZM72.8834 152.916L73.5785 150.872C73.5997 150.816 73.6208 150.748 73.6463 150.668C73.6717 150.587 73.7014 150.497 73.731 150.395C73.7607 150.293 73.7904 150.196 73.8158 150.089C73.8412 149.983 73.8709 149.881 73.8921 149.779C73.9175 149.877 73.9429 149.979 73.9726 150.085C74.0023 150.191 74.0277 150.289 74.0574 150.387C74.087 150.485 74.1125 150.574 74.1421 150.659C74.1718 150.744 74.193 150.812 74.21 150.872L74.922 152.916H72.8792H72.8834ZM84.4874 148.848H83.6525V152.704C83.6525 152.789 83.6525 152.878 83.6525 152.98C83.6525 153.082 83.6568 153.184 83.661 153.29C83.6652 153.397 83.6695 153.507 83.6737 153.614C83.6779 153.72 83.6822 153.826 83.6864 153.928C83.6992 154.166 83.7119 154.409 83.7203 154.651H83.6864L80.2451 148.848H79.2237V155.892H80.0501V152.07C80.0501 151.888 80.0501 151.684 80.0374 151.454C80.0289 151.224 80.0204 151.008 80.0077 150.799C79.995 150.557 79.9781 150.31 79.9611 150.064H79.9992L83.4533 155.896H84.4874V148.852V148.848ZM92.7221 150.808C92.5865 150.404 92.3661 150.034 92.0737 149.724C91.7898 149.43 91.4422 149.205 91.0608 149.065C90.6327 148.912 90.1835 148.835 89.73 148.844H87.7762V155.888H89.5351C90.0267 155.896 90.5141 155.82 90.9803 155.663C91.3871 155.522 91.7516 155.293 92.0525 154.987C92.3577 154.668 92.5823 154.281 92.7221 153.864C92.8832 153.358 92.9637 152.831 92.951 152.3C92.9595 151.794 92.8832 151.288 92.7221 150.804V150.808ZM91.3617 154.417C90.8531 154.919 90.1581 155.174 89.4503 155.118H88.6705V149.609H89.6368C89.9801 149.605 90.3191 149.66 90.6412 149.771C90.9252 149.873 91.1837 150.043 91.3871 150.264C91.6033 150.506 91.7601 150.795 91.8491 151.11C91.9635 151.505 92.0144 151.917 92.0059 152.325C92.061 153.078 91.8321 153.822 91.3617 154.413V154.417ZM101.131 149.673C101.313 149.524 101.546 149.447 101.783 149.46C101.906 149.46 102.029 149.477 102.144 149.52C102.245 149.558 102.334 149.613 102.415 149.686C102.491 149.758 102.55 149.843 102.589 149.941C102.631 150.043 102.648 150.153 102.648 150.259C102.648 150.383 102.627 150.51 102.58 150.625C102.533 150.744 102.461 150.85 102.377 150.948C102.275 151.063 102.16 151.165 102.038 151.25C101.898 151.352 101.737 151.454 101.546 151.569C101.44 151.462 101.343 151.348 101.249 151.229C101.173 151.131 101.105 151.025 101.046 150.91C100.995 150.812 100.957 150.706 100.927 150.595C100.902 150.489 100.889 150.383 100.889 150.276C100.872 150.047 100.961 149.826 101.126 149.669L101.131 149.673ZM101.016 155.127C100.872 155.076 100.736 154.991 100.626 154.885C100.52 154.778 100.436 154.651 100.385 154.511C100.325 154.357 100.3 154.196 100.3 154.03C100.3 153.869 100.321 153.707 100.368 153.554C100.414 153.418 100.478 153.29 100.567 153.176C100.66 153.052 100.77 152.946 100.893 152.848C101.037 152.738 101.181 152.632 101.334 152.538L103.195 154.498C103.093 154.596 102.983 154.689 102.868 154.778C102.75 154.868 102.627 154.944 102.495 155.004C102.355 155.072 102.207 155.123 102.059 155.157C101.889 155.195 101.72 155.212 101.546 155.212C101.368 155.212 101.19 155.186 101.025 155.127H101.016ZM99.5328 154.88C99.6261 155.114 99.7702 155.322 99.9566 155.488C100.152 155.663 100.385 155.79 100.635 155.862C100.927 155.952 101.232 155.994 101.542 155.99C101.766 155.99 101.991 155.969 102.216 155.926C102.406 155.884 102.593 155.824 102.771 155.743C102.945 155.663 103.11 155.569 103.262 155.454C103.423 155.335 103.58 155.203 103.729 155.067L104.534 155.896H105.615L104.284 154.485C104.407 154.357 104.521 154.221 104.627 154.081C104.733 153.941 104.826 153.796 104.911 153.639C105 153.478 105.072 153.307 105.136 153.137C105.203 152.946 105.263 152.751 105.305 152.551H104.419C104.39 152.691 104.352 152.831 104.305 152.967C104.263 153.086 104.216 153.205 104.161 153.32C104.106 153.426 104.046 153.533 103.974 153.631C103.902 153.728 103.826 153.826 103.741 153.915L102.05 152.121C102.241 152.007 102.427 151.883 102.601 151.756C102.771 151.633 102.923 151.496 103.063 151.339C103.195 151.195 103.305 151.029 103.385 150.855C103.466 150.676 103.508 150.48 103.504 150.285C103.504 150.064 103.47 149.843 103.39 149.639C103.317 149.452 103.203 149.286 103.055 149.154C102.902 149.014 102.72 148.912 102.521 148.852C102.292 148.78 102.05 148.746 101.809 148.75C101.554 148.75 101.3 148.78 101.054 148.852C100.851 148.912 100.66 149.018 100.495 149.154C100.347 149.286 100.228 149.456 100.152 149.639C100.067 149.843 100.029 150.064 100.033 150.285C100.033 150.459 100.054 150.629 100.101 150.799C100.143 150.952 100.202 151.105 100.275 151.246C100.347 151.386 100.431 151.518 100.529 151.641C100.626 151.764 100.724 151.883 100.821 151.998C100.609 152.121 100.406 152.257 100.215 152.406C100.046 152.534 99.8931 152.687 99.7617 152.853C99.6388 153.014 99.5413 153.193 99.482 153.388C99.3379 153.877 99.3548 154.4 99.5286 154.88H99.5328ZM115.684 155.896V155.097H112.93V148.852H112.035V155.896H115.684ZM123.275 155.896L120.69 148.823H119.872L117.291 155.896H118.193L118.973 153.716H121.592L122.359 155.901H123.275V155.896ZM119.261 152.916L119.956 150.872C119.973 150.816 119.999 150.748 120.024 150.668C120.05 150.587 120.079 150.497 120.109 150.395C120.139 150.293 120.168 150.196 120.194 150.089C120.219 149.983 120.249 149.881 120.27 149.779C120.295 149.877 120.321 149.979 120.351 150.085C120.38 150.191 120.406 150.289 120.435 150.387C120.465 150.485 120.49 150.574 120.52 150.659C120.55 150.744 120.571 150.812 120.588 150.872L121.3 152.916H119.257H119.261ZM125.606 155.896H127.937C128.259 155.901 128.585 155.854 128.895 155.756C129.157 155.671 129.403 155.535 129.611 155.352C129.81 155.178 129.963 154.957 130.064 154.71C130.17 154.438 130.225 154.145 130.221 153.852C130.23 153.609 130.187 153.371 130.098 153.146C130.022 152.963 129.908 152.797 129.759 152.666C129.611 152.538 129.437 152.436 129.251 152.368C129.047 152.291 128.84 152.236 128.628 152.202V152.155C128.835 152.13 129.035 152.07 129.221 151.981C129.386 151.9 129.535 151.786 129.662 151.65C129.78 151.518 129.874 151.36 129.933 151.19C129.997 151.012 130.026 150.821 130.026 150.629C130.035 150.34 129.98 150.055 129.869 149.792C129.768 149.566 129.602 149.379 129.395 149.243C129.157 149.09 128.89 148.988 128.611 148.942C128.255 148.874 127.89 148.844 127.526 148.848H125.61V155.892L125.606 155.896ZM126.5 149.618H127.572C127.979 149.588 128.382 149.673 128.742 149.868C129.001 150.06 129.14 150.374 129.111 150.697C129.111 150.867 129.09 151.037 129.035 151.195C128.988 151.335 128.903 151.458 128.793 151.552C128.662 151.654 128.513 151.726 128.352 151.764C128.132 151.815 127.903 151.841 127.674 151.837H126.5V149.613V149.618ZM127.721 152.593C127.971 152.589 128.221 152.619 128.458 152.683C128.632 152.729 128.797 152.814 128.937 152.933C129.056 153.04 129.145 153.171 129.196 153.32C129.251 153.482 129.276 153.648 129.276 153.818C129.276 154 129.251 154.179 129.2 154.353C129.149 154.511 129.064 154.655 128.946 154.77C128.814 154.893 128.657 154.987 128.484 155.042C128.255 155.11 128.013 155.144 127.776 155.14H126.496V152.593H127.721ZM135.091 152.989L136.778 155.901H137.829L135.917 152.746C136.095 152.683 136.269 152.598 136.43 152.5C136.595 152.398 136.748 152.274 136.875 152.126C137.011 151.968 137.117 151.786 137.189 151.59C137.273 151.356 137.312 151.105 137.307 150.859C137.35 150.289 137.125 149.732 136.697 149.354C136.142 148.98 135.477 148.806 134.807 148.857H133.099V155.901H133.993V152.989H135.095H135.091ZM133.989 149.622H134.756C134.998 149.622 135.243 149.643 135.481 149.69C135.663 149.728 135.837 149.805 135.985 149.915C136.116 150.017 136.218 150.153 136.282 150.31C136.354 150.497 136.383 150.697 136.379 150.897C136.379 151.093 136.354 151.292 136.29 151.479C136.235 151.641 136.138 151.781 136.006 151.896C135.862 152.015 135.693 152.1 135.51 152.147C135.269 152.206 135.023 152.236 134.777 152.232H133.989V149.626V149.622ZM145.301 155.901L142.715 148.827H141.902L139.32 155.901H140.223L141.003 153.716H143.622L144.389 155.901H145.296H145.301ZM141.287 152.921L141.982 150.876C141.999 150.821 142.024 150.753 142.05 150.672C142.075 150.591 142.105 150.502 142.135 150.4C142.164 150.298 142.194 150.2 142.219 150.094C142.245 149.987 142.274 149.885 142.296 149.783C142.321 149.881 142.347 149.983 142.376 150.089C142.406 150.196 142.436 150.293 142.461 150.391C142.486 150.489 142.516 150.578 142.546 150.663C142.575 150.748 142.597 150.816 142.614 150.876L143.326 152.921H141.283H141.287ZM152.577 150.812C152.442 150.408 152.221 150.038 151.929 149.728C151.645 149.435 151.297 149.209 150.916 149.069C150.488 148.916 150.039 148.84 149.585 148.848H147.631V155.892H149.39C149.882 155.901 150.369 155.824 150.836 155.667C151.242 155.527 151.607 155.297 151.908 154.991C152.209 154.672 152.438 154.285 152.577 153.869C152.738 153.363 152.819 152.836 152.806 152.304C152.815 151.798 152.738 151.292 152.577 150.812ZM151.217 154.421C150.708 154.923 150.013 155.178 149.306 155.123H148.526V149.613H149.492C149.835 149.609 150.174 149.664 150.496 149.775C150.78 149.877 151.039 150.047 151.242 150.268C151.459 150.51 151.615 150.799 151.704 151.114C151.819 151.509 151.87 151.922 151.861 152.33C151.916 153.082 151.687 153.826 151.221 154.417L151.217 154.421ZM161.283 150.872C161.168 150.455 160.969 150.068 160.702 149.728C160.448 149.413 160.121 149.163 159.753 148.997C159.341 148.818 158.892 148.729 158.443 148.738C157.977 148.725 157.515 148.814 157.083 148.997C156.71 149.158 156.383 149.409 156.125 149.728C155.862 150.064 155.667 150.451 155.561 150.867C155.319 151.845 155.319 152.865 155.561 153.843C155.667 154.26 155.858 154.651 156.12 154.991C156.375 155.31 156.701 155.565 157.07 155.726C157.498 155.909 157.96 155.998 158.426 155.986C158.88 155.994 159.325 155.905 159.74 155.726C160.113 155.561 160.439 155.305 160.693 154.991C160.96 154.651 161.16 154.26 161.274 153.843C161.533 152.87 161.537 151.845 161.278 150.872H161.283ZM156.455 151.173C156.523 150.855 156.654 150.553 156.841 150.285C157.01 150.047 157.235 149.856 157.498 149.724C157.795 149.588 158.117 149.52 158.443 149.528C158.769 149.52 159.091 149.588 159.384 149.724C159.642 149.851 159.867 150.043 160.032 150.285C160.215 150.553 160.342 150.855 160.405 151.173C160.566 151.96 160.566 152.768 160.405 153.55C160.337 153.869 160.21 154.175 160.028 154.447C159.863 154.689 159.638 154.88 159.375 155.012C158.774 155.271 158.091 155.271 157.485 155.012C157.222 154.885 156.998 154.689 156.832 154.447C156.65 154.175 156.519 153.869 156.451 153.55C156.286 152.768 156.286 151.956 156.451 151.173H156.455ZM166.415 152.984L168.102 155.896H169.153L167.246 152.742C167.424 152.678 167.597 152.593 167.758 152.496C167.924 152.393 168.076 152.27 168.203 152.121C168.339 151.964 168.445 151.781 168.517 151.586C168.602 151.352 168.64 151.101 168.636 150.855C168.678 150.285 168.453 149.728 168.025 149.35C167.47 148.976 166.805 148.801 166.135 148.852H164.423V155.896H165.317V152.984H166.415ZM165.313 149.618H166.08C166.322 149.618 166.567 149.639 166.805 149.686C166.987 149.724 167.161 149.8 167.309 149.911C167.441 150.013 167.542 150.149 167.606 150.306C167.678 150.493 167.708 150.693 167.703 150.893C167.703 151.088 167.678 151.288 167.614 151.475C167.559 151.637 167.462 151.777 167.33 151.892C167.186 152.011 167.017 152.096 166.835 152.143C166.593 152.202 166.347 152.232 166.101 152.228H165.317V149.622L165.313 149.618Z" fill="white"/>
<path d="M4.7426 135.87C4.64936 135.619 4.49679 135.398 4.29759 135.224C4.07297 135.036 3.81021 134.9 3.53049 134.824C3.17025 134.726 2.79729 134.679 2.4201 134.688H0.678223V141.732H1.57247V138.99H2.29295C2.70829 139.003 3.12787 138.939 3.52201 138.803C3.82292 138.701 4.09416 138.531 4.32302 138.306C4.52222 138.106 4.67055 137.859 4.75955 137.591C4.84855 137.319 4.89093 137.034 4.89093 136.75C4.89093 136.452 4.84431 136.155 4.7426 135.874V135.87ZM1.57247 135.449H2.33957C2.7761 135.415 3.20839 135.53 3.56863 135.78C3.84835 136.04 3.99245 136.414 3.96278 136.796C3.96702 137.022 3.93311 137.247 3.85259 137.46C3.78478 137.634 3.67035 137.787 3.52201 137.902C3.35673 138.025 3.17025 138.11 2.97106 138.148C2.71253 138.204 2.454 138.229 2.19124 138.225H1.57247V135.449ZM9.71817 138.816L11.405 141.728H12.456L10.5446 138.573C10.7226 138.51 10.8964 138.425 11.0574 138.327C11.2227 138.229 11.3753 138.102 11.5024 137.953C11.6381 137.795 11.744 137.613 11.8161 137.417C11.9008 137.183 11.939 136.932 11.9347 136.686C11.9771 136.116 11.7525 135.559 11.3244 135.181C10.7692 134.807 10.1038 134.633 9.43846 134.684H7.72625V141.728H8.6205V138.816H9.71817ZM8.61626 135.449H9.38336C9.62494 135.449 9.87075 135.47 10.1081 135.517C10.2903 135.555 10.4641 135.632 10.6124 135.742C10.7438 135.844 10.8455 135.98 10.9091 136.137C10.9811 136.325 11.015 136.524 11.0066 136.724C11.0066 136.92 10.9811 137.12 10.9176 137.307C10.8625 137.468 10.765 137.608 10.6336 137.723C10.4895 137.842 10.32 137.927 10.1378 137.974C9.89618 138.033 9.65036 138.063 9.40455 138.059H8.6205V135.453L8.61626 135.449ZM20.4449 136.703C20.3305 136.286 20.1313 135.899 19.8643 135.559C19.61 135.245 19.2837 134.994 18.9149 134.828C18.5038 134.65 18.0546 134.56 17.6054 134.569C17.1392 134.556 16.6772 134.645 16.2449 134.828C15.872 134.99 15.5456 135.241 15.2871 135.559C15.0243 135.895 14.8336 136.286 14.7234 136.699C14.4818 137.676 14.4818 138.701 14.7234 139.679C14.8294 140.095 15.0201 140.486 15.2829 140.826C15.5371 141.145 15.8635 141.4 16.2322 141.562C16.6602 141.745 17.1222 141.834 17.5884 141.821C18.0419 141.83 18.4869 141.74 18.9022 141.562C19.2752 141.396 19.6015 141.141 19.8558 140.826C20.1228 140.486 20.322 140.095 20.4364 139.679C20.695 138.705 20.695 137.681 20.4364 136.707L20.4449 136.703ZM15.6177 137.005C15.6855 136.686 15.8169 136.384 16.0033 136.116C16.1729 135.878 16.3975 135.687 16.6602 135.555C16.9569 135.419 17.279 135.351 17.6054 135.36C17.9317 135.351 18.2538 135.419 18.5462 135.555C18.8047 135.683 19.0294 135.874 19.1947 136.116C19.3769 136.384 19.504 136.686 19.5676 137.005C19.7287 137.791 19.7287 138.599 19.5676 139.385C19.4998 139.704 19.3727 140.01 19.1904 140.282C19.0251 140.525 18.8005 140.716 18.5377 140.848C17.9359 141.107 17.2536 141.107 16.6518 140.848C16.389 140.72 16.1644 140.525 15.9991 140.282C15.8169 140.01 15.6855 139.708 15.6177 139.385C15.4524 138.599 15.4524 137.791 15.6177 137.005ZM24.4754 138.748H27.0479V137.957H24.4754V135.47H27.2259V134.679H23.5811V141.728H24.4754V138.748ZM33.439 140.933H30.6885V138.425H33.2568V137.642H30.6885V135.466H33.439V134.675H29.7942V141.723H33.439V140.933ZM39.9488 139.118C39.8768 138.918 39.7624 138.735 39.614 138.582C39.453 138.416 39.2665 138.276 39.0631 138.165C38.8172 138.029 38.5587 137.91 38.296 137.808C38.0289 137.702 37.8001 137.604 37.6179 137.506C37.4568 137.426 37.3085 137.324 37.1728 137.205C37.0669 137.107 36.9821 136.979 36.9313 136.843C36.8804 136.69 36.855 136.529 36.8592 136.367C36.8465 136.086 36.9652 135.814 37.1813 135.632C37.4441 135.436 37.7662 135.338 38.0883 135.36C38.3638 135.36 38.6392 135.394 38.9062 135.462C39.1478 135.525 39.3852 135.606 39.614 135.704L39.9361 134.951C39.6776 134.832 39.4021 134.739 39.1224 134.675C38.7833 134.599 38.4401 134.565 38.0968 134.565C37.8086 134.565 37.5204 134.603 37.2449 134.684C37.0033 134.756 36.7787 134.875 36.5795 135.032C36.393 135.185 36.2447 135.377 36.1472 135.593C36.0413 135.831 35.9904 136.091 35.9946 136.35C35.9946 136.597 36.0243 136.839 36.0921 137.073C36.1557 137.281 36.2574 137.472 36.393 137.642C36.5414 137.821 36.7151 137.97 36.9101 138.093C37.1474 138.238 37.3932 138.361 37.6518 138.463C37.9484 138.582 38.1985 138.692 38.3892 138.794C38.5587 138.879 38.7155 138.981 38.8596 139.109C38.9698 139.207 39.0546 139.326 39.1054 139.462C39.1563 139.606 39.1775 139.759 39.1732 139.917C39.1902 140.236 39.0546 140.546 38.8045 140.746C38.4655 140.963 38.0671 141.065 37.6687 141.035C37.5077 141.035 37.3424 141.022 37.1856 141.001C37.0245 140.98 36.8677 140.945 36.7109 140.907C36.5626 140.869 36.4142 140.826 36.2701 140.775C36.1303 140.724 36.0074 140.673 35.8972 140.622V141.481C36.143 141.604 36.4015 141.685 36.6727 141.728C37.0033 141.787 37.3339 141.813 37.6687 141.813C38.0035 141.817 38.3383 141.774 38.6647 141.681C38.9402 141.604 39.1944 141.473 39.4148 141.294C39.6183 141.124 39.7793 140.911 39.8895 140.669C40.0039 140.406 40.059 140.121 40.0548 139.832C40.059 139.589 40.0209 139.343 39.9403 139.113L39.9488 139.118ZM46.4332 139.118C46.3611 138.918 46.2467 138.735 46.0984 138.582C45.9373 138.416 45.7508 138.276 45.5474 138.165C45.3016 138.029 45.0431 137.91 44.7803 137.808C44.5133 137.702 44.2844 137.604 44.1022 137.506C43.9412 137.426 43.7886 137.324 43.6572 137.205C43.5512 137.107 43.4665 136.979 43.4156 136.843C43.3648 136.69 43.3393 136.529 43.3436 136.367C43.3309 136.086 43.4495 135.814 43.6657 135.632C43.9284 135.436 44.2505 135.338 44.5726 135.36C44.8481 135.36 45.1236 135.394 45.3906 135.462C45.6322 135.521 45.8695 135.606 46.0984 135.704L46.4205 134.951C46.1619 134.832 45.8865 134.739 45.6067 134.675C45.2677 134.599 44.9244 134.565 44.5769 134.565C44.2887 134.565 44.0005 134.603 43.725 134.684C43.4834 134.756 43.2588 134.875 43.0596 135.032C42.8731 135.185 42.7248 135.377 42.6273 135.593C42.5214 135.831 42.4705 136.091 42.4748 136.35C42.4748 136.597 42.5044 136.839 42.5722 137.073C42.6358 137.281 42.7375 137.472 42.8731 137.642C43.0215 137.821 43.1952 137.97 43.3902 138.093C43.6233 138.238 43.8733 138.361 44.1319 138.463C44.4285 138.582 44.6744 138.692 44.8735 138.794C45.0431 138.879 45.1999 138.981 45.344 139.109C45.4542 139.207 45.5389 139.326 45.5898 139.462C45.6407 139.606 45.6618 139.759 45.6618 139.917C45.6788 140.236 45.5432 140.546 45.2931 140.746C44.9541 140.963 44.5557 141.065 44.1573 141.035C43.9963 141.035 43.831 141.022 43.6742 141.001C43.5131 140.98 43.3563 140.945 43.1995 140.907C43.0511 140.869 42.9028 140.826 42.7587 140.775C42.6189 140.724 42.496 140.673 42.3858 140.622V141.481C42.6316 141.604 42.8901 141.685 43.1613 141.728C43.4919 141.787 43.8225 141.813 44.1573 141.813C44.4921 141.817 44.8269 141.774 45.1533 141.681C45.4287 141.604 45.683 141.473 45.9034 141.294C46.1068 141.124 46.2679 140.911 46.3781 140.669C46.4925 140.406 46.5476 140.121 46.5434 139.832C46.5476 139.589 46.5095 139.343 46.4289 139.113L46.4332 139.118ZM51.3155 141.226L50.4891 141.031V135.364L51.3155 135.168V134.675H48.7684V135.168L49.5948 135.364V141.031L48.7684 141.226V141.719H51.3155V141.226ZM59.4867 136.69C59.3722 136.274 59.173 135.887 58.906 135.547C58.6517 135.232 58.3254 134.981 57.9567 134.815C57.5456 134.637 57.0963 134.548 56.6471 134.556C56.1809 134.543 55.7189 134.633 55.2867 134.815C54.9137 134.977 54.5874 135.228 54.3288 135.547C54.0661 135.882 53.8754 136.274 53.7652 136.686C53.5236 137.664 53.5236 138.688 53.7652 139.666C53.8711 140.083 54.0618 140.474 54.3246 140.814C54.5789 141.133 54.9052 141.388 55.2739 141.549C55.702 141.732 56.1639 141.821 56.6301 141.808C57.0836 141.817 57.5286 141.728 57.944 141.549C58.3169 141.383 58.6433 141.128 58.8975 140.814C59.1646 140.474 59.3637 140.083 59.4782 139.666C59.7367 138.692 59.7367 137.668 59.4782 136.694L59.4867 136.69ZM54.6594 136.988C54.7272 136.669 54.8586 136.367 55.0451 136.099C55.2146 135.861 55.4392 135.666 55.702 135.538C55.9987 135.402 56.3208 135.334 56.6471 135.343C56.9734 135.334 57.2955 135.402 57.588 135.538C57.8465 135.666 58.0711 135.857 58.2364 136.099C58.4186 136.367 58.5458 136.669 58.6094 136.988C58.7704 137.774 58.7704 138.582 58.6094 139.368C58.5415 139.687 58.4144 139.993 58.2322 140.265C58.0669 140.508 57.8423 140.699 57.5795 140.831C56.9777 141.09 56.2953 141.09 55.6893 140.831C55.4265 140.703 55.2019 140.508 55.0366 140.265C54.8544 139.993 54.723 139.691 54.6552 139.368C54.4899 138.586 54.4899 137.774 54.6552 136.988H54.6594ZM67.8824 134.662H67.0475V138.518C67.0475 138.603 67.0475 138.697 67.0475 138.794C67.0475 138.892 67.0517 138.998 67.056 139.105C67.0602 139.211 67.0644 139.322 67.0687 139.428C67.0729 139.534 67.0772 139.64 67.0814 139.742C67.0941 139.981 67.1068 140.223 67.1153 140.465H67.0814L63.64 134.662H62.6186V141.711H63.4451V137.889C63.4451 137.706 63.4451 137.502 63.4324 137.273C63.4239 137.043 63.4154 136.826 63.4027 136.618C63.39 136.376 63.373 136.129 63.3561 135.882H63.3942L66.8483 141.715H67.8824V134.667V134.662ZM76.1976 141.706L73.6124 134.633H72.7944L70.2134 141.706H71.1161L71.8959 139.521H74.5151L75.2822 141.706H76.1976ZM72.1841 138.726L72.8792 136.682C72.9004 136.626 72.9216 136.558 72.947 136.478C72.9724 136.397 73.0021 136.308 73.0317 136.206C73.0614 136.103 73.0911 136.006 73.1165 135.899C73.1419 135.793 73.1716 135.691 73.1928 135.589C73.2182 135.691 73.2437 135.793 73.2733 135.895C73.303 135.997 73.3284 136.099 73.3581 136.197C73.3877 136.295 73.4132 136.384 73.4428 136.469C73.4725 136.554 73.4937 136.622 73.5107 136.682L74.2227 138.726H72.1799H72.1841ZM82.1734 141.702V140.903H79.4186V134.658H78.5244V141.702H82.1734ZM92.3153 140.911H89.5605V138.403H92.133V137.621H89.5605V135.445H92.3153V134.654H88.6705V141.702H92.3153V140.911ZM100.499 134.658H99.6642V138.514C99.6642 138.599 99.6642 138.692 99.6642 138.79C99.6642 138.888 99.6684 138.994 99.6727 139.101C99.6769 139.207 99.6812 139.317 99.6854 139.424C99.6897 139.53 99.6939 139.636 99.6981 139.738C99.7108 139.976 99.7236 140.219 99.732 140.461H99.6981L96.2568 134.658H95.2354V141.702H96.0618V137.88C96.0618 137.698 96.0618 137.494 96.0491 137.264C96.0406 137.034 96.0321 136.818 96.0194 136.609C96.0067 136.367 95.9897 136.12 95.9728 135.874H96.0109L99.465 141.706H100.499V134.658ZM106.589 138.773H108.026V140.873C107.941 140.89 107.857 140.907 107.768 140.924C107.679 140.941 107.585 140.958 107.488 140.971C107.39 140.984 107.28 140.992 107.161 141.001C107.043 141.009 106.916 141.014 106.776 141.014C106.399 141.022 106.021 140.954 105.674 140.805C105.381 140.678 105.127 140.478 104.928 140.223C104.729 139.955 104.585 139.649 104.508 139.326C104.415 138.952 104.373 138.565 104.377 138.178C104.373 137.778 104.424 137.379 104.534 136.992C104.627 136.665 104.784 136.363 104.996 136.099C105.199 135.853 105.458 135.661 105.75 135.538C106.081 135.402 106.433 135.338 106.789 135.343C106.937 135.343 107.085 135.355 107.234 135.377C107.382 135.398 107.526 135.428 107.67 135.466C107.81 135.504 107.95 135.547 108.081 135.593C108.213 135.64 108.34 135.695 108.454 135.751L108.802 134.968C108.509 134.832 108.204 134.726 107.89 134.658C107.556 134.586 107.212 134.552 106.869 134.552C106.369 134.543 105.873 134.633 105.407 134.807C104.996 134.964 104.627 135.211 104.33 135.53C104.03 135.857 103.805 136.248 103.665 136.669C103.508 137.154 103.432 137.659 103.436 138.165C103.428 138.675 103.5 139.186 103.644 139.674C103.767 140.091 103.97 140.482 104.25 140.818C104.517 141.133 104.852 141.379 105.229 141.541C105.653 141.715 106.106 141.804 106.564 141.796C106.805 141.796 107.03 141.787 107.238 141.77C107.445 141.753 107.645 141.732 107.835 141.698C108.026 141.668 108.208 141.63 108.386 141.583C108.564 141.536 108.742 141.485 108.92 141.43V137.974H106.602V138.765L106.589 138.773ZM113.938 141.209L113.112 141.014V135.347L113.938 135.151V134.658H111.391V135.151L112.218 135.347V141.014L111.391 141.209V141.702H113.938V141.209ZM121.927 134.654H121.092V138.51C121.092 138.595 121.092 138.688 121.092 138.786C121.092 138.884 121.096 138.99 121.101 139.096C121.105 139.203 121.109 139.313 121.113 139.419C121.118 139.526 121.122 139.632 121.126 139.734C121.139 139.972 121.152 140.214 121.16 140.457H121.126L117.685 134.654H116.663V141.698H117.49V137.876C117.49 137.693 117.49 137.489 117.477 137.26C117.469 137.03 117.46 136.813 117.447 136.605C117.435 136.363 117.418 136.116 117.401 135.87H117.443L120.897 141.702H121.931V134.654H121.927ZM128.865 140.911H126.11V138.403H128.683V137.621H126.11V135.445H128.865V134.654H125.22V141.702H128.865V140.911ZM135.434 140.911H132.679V138.403H135.252V137.621H132.679V135.445H135.434V134.654H131.789V141.702H135.434V140.911ZM140.35 138.79L142.037 141.702H143.088L141.177 138.548C141.355 138.484 141.529 138.399 141.69 138.301C141.855 138.204 142.007 138.076 142.135 137.927C142.27 137.77 142.376 137.587 142.448 137.392C142.533 137.158 142.571 136.907 142.567 136.66C142.609 136.091 142.385 135.534 141.957 135.155C141.401 134.781 140.736 134.607 140.066 134.658H138.358V141.702H139.253V138.79H140.355H140.35ZM139.248 135.423H140.016C140.257 135.423 140.503 135.445 140.74 135.491C140.923 135.53 141.096 135.606 141.245 135.717C141.376 135.819 141.478 135.955 141.541 136.112C141.613 136.299 141.643 136.499 141.639 136.699C141.643 136.894 141.618 137.094 141.554 137.281C141.499 137.443 141.401 137.587 141.27 137.698C141.126 137.817 140.956 137.902 140.774 137.948C140.533 138.008 140.287 138.038 140.041 138.033H139.253V135.428H139.248V135.423ZM149.123 139.101C149.051 138.901 148.937 138.718 148.788 138.565C148.627 138.399 148.441 138.259 148.238 138.148C147.992 138.012 147.733 137.893 147.47 137.791C147.203 137.685 146.975 137.587 146.792 137.489C146.631 137.409 146.483 137.307 146.347 137.188C146.241 137.09 146.157 136.962 146.106 136.826C146.055 136.673 146.029 136.512 146.034 136.35C146.021 136.069 146.14 135.797 146.356 135.615C146.619 135.419 146.941 135.321 147.263 135.343C147.538 135.343 147.814 135.377 148.081 135.445C148.322 135.508 148.56 135.589 148.788 135.687L149.111 134.934C148.852 134.815 148.577 134.722 148.297 134.658C147.958 134.582 147.615 134.548 147.271 134.548C146.983 134.548 146.695 134.586 146.419 134.667C146.178 134.739 145.953 134.858 145.754 135.015C145.568 135.168 145.419 135.36 145.322 135.576C145.216 135.814 145.165 136.074 145.169 136.333C145.169 136.58 145.199 136.822 145.267 137.056C145.33 137.264 145.432 137.455 145.568 137.625C145.716 137.804 145.89 137.953 146.085 138.076C146.322 138.221 146.568 138.344 146.826 138.446C147.123 138.565 147.369 138.675 147.564 138.777C147.733 138.862 147.89 138.964 148.034 139.092C148.144 139.19 148.229 139.309 148.28 139.445C148.331 139.589 148.352 139.742 148.348 139.9C148.365 140.219 148.229 140.529 147.979 140.729C147.64 140.946 147.242 141.048 146.843 141.018C146.682 141.018 146.517 141.005 146.356 140.984C146.195 140.963 146.038 140.929 145.881 140.89C145.733 140.852 145.584 140.809 145.44 140.758C145.301 140.707 145.178 140.656 145.067 140.605V141.464C145.313 141.587 145.572 141.668 145.843 141.711C146.174 141.77 146.504 141.796 146.839 141.796C147.174 141.8 147.509 141.757 147.835 141.664C148.11 141.587 148.365 141.456 148.585 141.277C148.788 141.107 148.95 140.894 149.06 140.652C149.174 140.389 149.229 140.104 149.225 139.815C149.229 139.568 149.191 139.326 149.115 139.096L149.123 139.101ZM157.265 135.483C157.447 135.334 157.68 135.258 157.917 135.27C158.04 135.27 158.163 135.287 158.278 135.33C158.379 135.368 158.468 135.423 158.549 135.496C158.625 135.568 158.685 135.653 158.723 135.751C158.765 135.853 158.782 135.963 158.782 136.069C158.782 136.193 158.761 136.32 158.714 136.435C158.668 136.554 158.596 136.665 158.511 136.758C158.409 136.873 158.295 136.975 158.172 137.06C158.032 137.158 157.871 137.264 157.68 137.379C157.574 137.273 157.477 137.158 157.383 137.039C157.307 136.941 157.239 136.835 157.18 136.72C157.129 136.622 157.091 136.516 157.061 136.405C157.036 136.299 157.023 136.193 157.023 136.086C157.01 135.857 157.095 135.636 157.261 135.479L157.265 135.483ZM157.15 140.937C157.006 140.886 156.871 140.801 156.76 140.695C156.654 140.588 156.57 140.461 156.519 140.321C156.46 140.168 156.434 140.006 156.434 139.84C156.434 139.679 156.455 139.517 156.502 139.364C156.549 139.228 156.612 139.101 156.701 138.986C156.794 138.862 156.905 138.756 157.027 138.658C157.172 138.548 157.316 138.442 157.468 138.348L159.329 140.308C159.227 140.406 159.117 140.499 159.002 140.588C158.884 140.678 158.761 140.754 158.629 140.814C158.49 140.882 158.341 140.933 158.193 140.967C158.023 141.005 157.854 141.022 157.68 141.022C157.502 141.022 157.324 140.997 157.159 140.937H157.15ZM155.667 140.69C155.76 140.924 155.904 141.133 156.091 141.298C156.286 141.473 156.519 141.6 156.769 141.672C157.061 141.762 157.367 141.804 157.676 141.8C157.9 141.8 158.125 141.779 158.35 141.736C158.54 141.694 158.727 141.634 158.905 141.553C159.079 141.473 159.244 141.379 159.397 141.264C159.558 141.145 159.714 141.014 159.863 140.877L160.668 141.706H161.749L160.418 140.295C160.541 140.168 160.655 140.032 160.761 139.891C160.867 139.751 160.96 139.606 161.045 139.449C161.134 139.288 161.206 139.118 161.27 138.947C161.338 138.756 161.397 138.561 161.439 138.361H160.554C160.524 138.501 160.486 138.641 160.439 138.777C160.397 138.896 160.35 139.015 160.295 139.13C160.24 139.237 160.181 139.343 160.109 139.441C160.037 139.538 159.96 139.636 159.875 139.725L158.184 137.931C158.375 137.817 158.562 137.693 158.735 137.566C158.905 137.443 159.058 137.307 159.197 137.149C159.329 137.005 159.439 136.839 159.519 136.665C159.6 136.486 159.642 136.291 159.638 136.095C159.638 135.874 159.604 135.653 159.524 135.449C159.452 135.262 159.337 135.096 159.189 134.964C159.036 134.828 158.854 134.722 158.655 134.662C158.426 134.59 158.184 134.556 157.943 134.56C157.689 134.56 157.434 134.59 157.188 134.662C156.985 134.722 156.794 134.828 156.629 134.964C156.476 135.096 156.362 135.266 156.282 135.449C156.197 135.653 156.159 135.874 156.163 136.095C156.163 136.269 156.184 136.439 156.231 136.609C156.273 136.762 156.332 136.915 156.404 137.056C156.476 137.196 156.561 137.328 156.659 137.451C156.756 137.574 156.854 137.693 156.951 137.812C156.739 137.936 156.536 138.072 156.345 138.221C156.176 138.348 156.023 138.501 155.892 138.667C155.769 138.828 155.671 139.007 155.612 139.203C155.468 139.691 155.485 140.214 155.663 140.69H155.667ZM170.971 138.777H172.408V140.877C172.323 140.894 172.238 140.911 172.149 140.929C172.06 140.946 171.967 140.963 171.869 140.975C171.772 140.988 171.662 140.997 171.543 141.005C171.424 141.014 171.297 141.018 171.157 141.018C170.78 141.026 170.403 140.958 170.055 140.809C169.763 140.682 169.509 140.482 169.31 140.227C169.11 139.959 168.966 139.653 168.89 139.33C168.797 138.956 168.754 138.569 168.759 138.182C168.754 137.783 168.805 137.383 168.915 136.996C169.009 136.669 169.165 136.367 169.377 136.103C169.581 135.857 169.839 135.666 170.132 135.542C170.462 135.406 170.814 135.343 171.17 135.347C171.318 135.347 171.467 135.36 171.615 135.381C171.763 135.402 171.908 135.432 172.052 135.47C172.191 135.508 172.331 135.551 172.463 135.598C172.594 135.644 172.721 135.695 172.836 135.751L173.183 134.968C172.891 134.832 172.586 134.726 172.272 134.658C171.937 134.586 171.594 134.552 171.251 134.552C170.751 134.543 170.255 134.633 169.788 134.807C169.377 134.964 169.009 135.211 168.712 135.53C168.411 135.857 168.186 136.248 168.047 136.669C167.89 137.154 167.814 137.659 167.818 138.165C167.809 138.675 167.881 139.186 168.025 139.674C168.148 140.091 168.352 140.482 168.631 140.818C168.898 141.133 169.233 141.379 169.61 141.541C170.034 141.715 170.488 141.804 170.945 141.796C171.187 141.796 171.412 141.787 171.619 141.77C171.827 141.753 172.026 141.732 172.217 141.698C172.408 141.668 172.59 141.63 172.768 141.583C172.946 141.536 173.124 141.485 173.302 141.43V137.974H170.975V138.765L170.971 138.777ZM179.981 140.916H177.226V138.408H179.799V137.625H177.226V135.449H179.981V134.658H176.336V141.706H179.981V140.916ZM188.449 136.682C188.335 136.265 188.135 135.878 187.868 135.538C187.614 135.224 187.288 134.973 186.919 134.807C186.508 134.628 186.059 134.539 185.609 134.548C185.143 134.535 184.681 134.624 184.249 134.807C183.876 134.968 183.55 135.219 183.291 135.538C183.028 135.874 182.838 136.265 182.728 136.677C182.486 137.655 182.486 138.68 182.728 139.657C182.833 140.074 183.024 140.465 183.287 140.805C183.541 141.124 183.868 141.379 184.236 141.541C184.664 141.723 185.126 141.813 185.593 141.8C186.046 141.808 186.491 141.719 186.906 141.541C187.279 141.375 187.606 141.12 187.86 140.805C188.127 140.465 188.326 140.074 188.441 139.657C188.699 138.684 188.699 137.655 188.441 136.682H188.449ZM183.622 136.983C183.69 136.665 183.821 136.363 184.007 136.095C184.177 135.857 184.402 135.666 184.664 135.534C184.961 135.398 185.283 135.33 185.609 135.338C185.936 135.33 186.258 135.398 186.55 135.534C186.809 135.661 187.033 135.853 187.199 136.095C187.381 136.363 187.508 136.665 187.572 136.983C187.733 137.77 187.733 138.578 187.572 139.364C187.504 139.683 187.377 139.989 187.195 140.261C187.029 140.503 186.805 140.695 186.542 140.826C185.94 141.086 185.258 141.086 184.652 140.826C184.389 140.699 184.164 140.503 183.999 140.261C183.817 139.989 183.685 139.687 183.618 139.364C183.452 138.578 183.452 137.766 183.618 136.983H183.622ZM195.171 139.105C195.099 138.905 194.984 138.722 194.836 138.569C194.675 138.403 194.488 138.263 194.285 138.153C194.039 138.016 193.781 137.897 193.518 137.795C193.251 137.689 193.022 137.591 192.84 137.494C192.679 137.413 192.526 137.311 192.395 137.192C192.289 137.09 192.204 136.966 192.153 136.83C192.102 136.677 192.077 136.516 192.081 136.354C192.068 136.074 192.187 135.802 192.403 135.619C192.666 135.423 192.988 135.326 193.31 135.347C193.586 135.347 193.861 135.381 194.128 135.449C194.37 135.508 194.607 135.593 194.836 135.691L195.158 134.939C194.899 134.82 194.624 134.726 194.344 134.662C194.005 134.586 193.662 134.552 193.314 134.552C193.026 134.552 192.738 134.59 192.463 134.671C192.221 134.743 191.996 134.862 191.797 135.019C191.611 135.172 191.462 135.364 191.365 135.581C191.259 135.819 191.208 136.078 191.212 136.337C191.212 136.584 191.242 136.826 191.31 137.06C191.373 137.268 191.475 137.46 191.611 137.63C191.759 137.808 191.933 137.957 192.128 138.08C192.361 138.225 192.611 138.348 192.869 138.45C193.166 138.569 193.412 138.68 193.611 138.782C193.781 138.867 193.937 138.969 194.077 139.096C194.187 139.194 194.272 139.313 194.323 139.449C194.374 139.594 194.395 139.747 194.391 139.904C194.408 140.223 194.272 140.533 194.022 140.733C193.687 140.95 193.285 141.052 192.886 141.022C192.725 141.022 192.56 141.009 192.399 140.988C192.238 140.967 192.081 140.933 191.924 140.894C191.776 140.856 191.628 140.814 191.484 140.763C191.344 140.712 191.221 140.661 191.111 140.61V141.468C191.356 141.592 191.615 141.672 191.886 141.715C192.217 141.774 192.547 141.8 192.882 141.8C193.217 141.804 193.552 141.762 193.878 141.668C194.154 141.592 194.408 141.46 194.628 141.281C194.832 141.111 194.993 140.899 195.103 140.656C195.217 140.393 195.272 140.108 195.268 139.819C195.272 139.572 195.234 139.33 195.154 139.096L195.171 139.105ZM201.727 135.462C201.952 135.53 202.172 135.619 202.384 135.725L202.757 134.973C202.49 134.832 202.202 134.73 201.905 134.662C201.579 134.59 201.248 134.556 200.913 134.556C200.439 134.548 199.973 134.637 199.536 134.82C199.15 134.985 198.803 135.241 198.527 135.559C198.248 135.895 198.04 136.282 197.913 136.703C197.769 137.179 197.697 137.672 197.705 138.17C197.701 138.671 197.76 139.169 197.887 139.653C197.993 140.07 198.184 140.461 198.447 140.801C198.701 141.12 199.027 141.375 199.4 141.536C199.833 141.719 200.295 141.808 200.765 141.796C200.956 141.796 201.125 141.791 201.282 141.779C201.439 141.766 201.583 141.749 201.719 141.728C201.85 141.706 201.981 141.677 202.109 141.638C202.236 141.6 202.359 141.558 202.486 141.511V140.729C202.236 140.801 201.981 140.869 201.727 140.924C201.46 140.984 201.189 141.009 200.918 141.009C200.579 141.018 200.24 140.954 199.926 140.822C199.65 140.699 199.405 140.512 199.218 140.274C199.019 140.01 198.875 139.708 198.794 139.385C198.697 138.99 198.646 138.586 198.654 138.178C198.65 137.778 198.701 137.379 198.815 136.992C198.909 136.669 199.066 136.363 199.273 136.099C199.464 135.861 199.71 135.666 199.985 135.538C200.278 135.406 200.596 135.338 200.918 135.343C201.189 135.343 201.464 135.377 201.727 135.453V135.462ZM207.36 141.218L206.533 141.022V135.351L207.36 135.155V134.662H204.812V135.155L205.639 135.351V141.018L204.812 141.213V141.706H207.36V141.213V141.218ZM213.734 140.92H210.979V138.412H213.552V137.63H210.979V135.453H213.734V134.662H210.089V141.706H213.734V140.916V140.92ZM221.918 134.667H221.083V138.794C221.083 138.892 221.087 138.998 221.091 139.105C221.095 139.211 221.1 139.322 221.104 139.428C221.108 139.534 221.112 139.64 221.117 139.742C221.129 139.981 221.142 140.223 221.151 140.465H221.117L217.675 134.662H216.654V141.706H217.48V137.885C217.48 137.702 217.48 137.498 217.468 137.268C217.459 137.039 217.451 136.822 217.438 136.614C217.425 136.371 217.408 136.125 217.391 135.878H217.429L220.884 141.711H221.918V134.667ZM227.253 135.457H229.258V134.667H224.35V135.457H226.359V141.711H227.258V135.453L227.253 135.457ZM233.674 141.222L232.848 141.026V135.355L233.674 135.16V134.667H231.127V135.16L231.954 135.355V141.022L231.127 141.218V141.711H233.674V141.218V141.222ZM239.989 139.113C239.917 138.913 239.803 138.731 239.654 138.578C239.493 138.412 239.307 138.272 239.103 138.161C238.857 138.025 238.599 137.906 238.336 137.804C238.069 137.698 237.84 137.6 237.658 137.502C237.497 137.421 237.344 137.319 237.213 137.2C237.107 137.098 237.022 136.975 236.971 136.839C236.921 136.686 236.895 136.524 236.899 136.363C236.887 136.082 237.005 135.81 237.222 135.627C237.48 135.432 237.802 135.334 238.128 135.355C238.404 135.355 238.679 135.389 238.946 135.457C239.188 135.517 239.425 135.602 239.654 135.7L239.976 134.947C239.718 134.828 239.442 134.735 239.167 134.671C238.828 134.594 238.485 134.56 238.137 134.56C237.849 134.56 237.561 134.599 237.285 134.679C237.044 134.752 236.819 134.871 236.62 135.028C236.433 135.181 236.285 135.372 236.187 135.589C236.081 135.827 236.031 136.086 236.035 136.346C236.035 136.592 236.065 136.835 236.132 137.068C236.196 137.277 236.298 137.468 236.437 137.638C236.586 137.817 236.76 137.965 236.955 138.089C237.188 138.233 237.438 138.357 237.696 138.459C237.993 138.578 238.239 138.688 238.438 138.79C238.607 138.875 238.764 138.977 238.904 139.105C239.014 139.203 239.099 139.322 239.15 139.458C239.201 139.602 239.222 139.755 239.218 139.912C239.235 140.231 239.099 140.542 238.849 140.741C238.51 140.958 238.112 141.06 237.713 141.031C237.552 141.031 237.387 141.018 237.23 140.997C237.069 140.975 236.912 140.941 236.755 140.903C236.607 140.865 236.459 140.822 236.315 140.771C236.175 140.72 236.052 140.669 235.942 140.618V141.477C236.187 141.6 236.446 141.681 236.717 141.723C237.048 141.783 237.378 141.808 237.713 141.808C238.048 141.813 238.383 141.77 238.709 141.677C238.985 141.6 239.239 141.468 239.459 141.29C239.663 141.12 239.824 140.907 239.934 140.665C240.048 140.401 240.103 140.117 240.099 139.827C240.103 139.581 240.065 139.339 239.985 139.105L239.989 139.113ZM244.935 135.462H246.94V134.671H242.028V135.462H244.036V141.715H244.935V135.457V135.462ZM252.865 139.118C252.792 138.918 252.678 138.735 252.53 138.582C252.369 138.416 252.182 138.276 251.979 138.165C251.733 138.029 251.474 137.91 251.212 137.808C250.945 137.702 250.716 137.604 250.534 137.506C250.372 137.426 250.22 137.324 250.089 137.205C249.983 137.103 249.898 136.979 249.847 136.843C249.796 136.69 249.771 136.529 249.775 136.367C249.762 136.086 249.881 135.814 250.097 135.632C250.356 135.436 250.678 135.338 251.004 135.36C251.279 135.36 251.555 135.394 251.822 135.462C252.064 135.521 252.301 135.606 252.53 135.704L252.852 134.951C252.593 134.832 252.318 134.739 252.042 134.675C251.703 134.599 251.36 134.565 251.012 134.565C250.724 134.565 250.436 134.603 250.161 134.684C249.919 134.756 249.694 134.875 249.495 135.032C249.309 135.185 249.16 135.377 249.063 135.593C248.957 135.831 248.906 136.091 248.91 136.35C248.91 136.597 248.94 136.839 249.008 137.073C249.071 137.281 249.173 137.472 249.309 137.642C249.457 137.821 249.631 137.97 249.826 138.093C250.059 138.238 250.309 138.361 250.567 138.463C250.864 138.582 251.11 138.692 251.309 138.794C251.479 138.879 251.635 138.981 251.775 139.109C251.886 139.207 251.97 139.326 252.021 139.462C252.072 139.606 252.093 139.759 252.089 139.917C252.106 140.236 251.97 140.546 251.72 140.746C251.381 140.963 250.983 141.065 250.584 141.035C250.423 141.035 250.258 141.022 250.097 141.001C249.936 140.98 249.779 140.945 249.622 140.907C249.474 140.869 249.326 140.826 249.182 140.775C249.042 140.724 248.919 140.673 248.809 140.622V141.481C249.054 141.604 249.313 141.685 249.584 141.728C249.915 141.787 250.245 141.813 250.58 141.813C250.915 141.817 251.25 141.774 251.576 141.681C251.847 141.604 252.106 141.473 252.326 141.294C252.53 141.124 252.691 140.911 252.801 140.669C252.915 140.406 252.97 140.121 252.966 139.832C252.97 139.585 252.932 139.343 252.852 139.109L252.865 139.118Z" fill="white"/>
<path d="M4.04307 186.543C4.28465 186.416 4.48808 186.233 4.64489 186.012C4.82713 185.744 4.95851 185.446 5.0348 185.136C5.13228 184.741 5.17889 184.332 5.17466 183.924C5.17889 183.521 5.13651 183.112 5.03904 182.717C4.96699 182.407 4.83561 182.109 4.66184 181.846C4.51351 181.625 4.31008 181.442 4.07698 181.314C3.84388 181.195 3.58112 181.131 3.31835 181.136C3.1573 181.136 2.99201 181.157 2.83944 181.199C2.70382 181.238 2.57244 181.297 2.45377 181.374C2.34358 181.446 2.24186 181.531 2.15286 181.629C2.0681 181.727 1.99181 181.829 1.924 181.939H1.85619L1.64852 181.242H0.453369V189H1.91977V186.815C1.91977 186.768 1.91553 186.7 1.90705 186.611C1.89857 186.522 1.8901 186.437 1.88162 186.352C1.86891 186.254 1.85619 186.148 1.84348 186.033H1.91977C1.98758 186.126 2.06386 186.211 2.14439 186.292C2.22915 186.377 2.32663 186.45 2.43258 186.513C2.55125 186.581 2.67415 186.632 2.80554 186.666C2.95811 186.705 3.11916 186.726 3.28021 186.726C3.54721 186.726 3.80998 186.666 4.04731 186.547L4.04307 186.543ZM3.47092 182.709C3.62774 183.087 3.69978 183.495 3.67436 183.903C3.69555 184.315 3.62774 184.732 3.47092 185.115C3.36497 185.374 3.11068 185.54 2.83097 185.531C2.67839 185.536 2.53006 185.502 2.39444 185.425C2.27153 185.349 2.17405 185.242 2.11472 185.115C2.03843 184.953 1.98758 184.783 1.96215 184.605C1.92824 184.375 1.91553 184.141 1.91553 183.912V183.754C1.91553 183.542 1.93672 183.329 1.97486 183.121C2.00029 182.964 2.05115 182.811 2.12743 182.67C2.19101 182.556 2.28848 182.462 2.40291 182.403C2.53006 182.339 2.67415 182.309 2.81825 182.313C3.09797 182.3 3.35649 182.458 3.47092 182.713V182.709ZM8.51007 181.199C8.37445 181.242 8.25155 181.301 8.13712 181.382C8.02269 181.463 7.92097 181.561 7.83621 181.667C7.74297 181.786 7.65821 181.909 7.58616 182.041H7.51411L7.29796 181.233H6.18757V186.62H7.65397V183.878C7.64973 183.661 7.6794 183.44 7.74721 183.236C7.8023 183.074 7.8913 182.93 8.00997 182.811C8.1244 182.7 8.26426 182.624 8.41683 182.577C8.58636 182.526 8.76012 182.505 8.93812 182.505C8.97203 182.505 9.01017 182.505 9.05679 182.505C9.10341 182.505 9.15427 182.509 9.20513 182.513C9.25599 182.517 9.3026 182.526 9.34499 182.53C9.38737 182.534 9.42551 182.543 9.45094 182.547V181.17C9.42127 181.161 9.39584 181.157 9.36618 181.153C9.32803 181.148 9.28989 181.144 9.24751 181.14C9.20513 181.136 9.15851 181.131 9.11189 181.131C9.06527 181.131 9.02289 181.131 8.98475 181.131C8.8237 181.131 8.66265 181.153 8.51007 181.199ZM11.6548 182.717C11.7989 182.454 12.0828 182.3 12.3837 182.322C12.6846 182.3 12.9728 182.454 13.1212 182.717C13.2949 183.091 13.3712 183.508 13.3458 183.92C13.3712 184.337 13.2907 184.749 13.1212 185.127C12.8711 185.536 12.3371 185.659 11.9345 185.408C11.8243 185.34 11.7268 185.242 11.659 185.132C11.4852 184.753 11.409 184.337 11.4344 183.92C11.409 183.508 11.4852 183.095 11.659 182.717H11.6548ZM14.6596 182.73C14.5494 182.407 14.3799 182.109 14.151 181.854C13.9391 181.62 13.6721 181.437 13.3797 181.318C13.0661 181.195 12.7355 181.131 12.4007 181.136C12.0489 181.131 11.6972 181.191 11.3666 181.318C11.0699 181.433 10.8029 181.62 10.591 181.854C10.3664 182.109 10.2011 182.407 10.0994 182.73C9.98071 183.117 9.92137 183.516 9.92985 183.92C9.92137 184.324 9.98495 184.732 10.1121 185.115C10.2223 185.438 10.3918 185.735 10.6207 185.99C10.8326 186.228 11.0996 186.411 11.392 186.535C11.7014 186.662 12.0362 186.726 12.371 186.722C12.7228 186.726 13.0745 186.662 13.4009 186.535C13.6976 186.416 13.9646 186.233 14.1807 185.99C14.4053 185.735 14.5706 185.438 14.6723 185.115C14.791 184.728 14.8503 184.324 14.8419 183.92C14.8503 183.516 14.7868 183.112 14.6596 182.73ZM18.6519 181.238H17.5627V180.902C17.5543 180.736 17.5966 180.57 17.6814 180.426C17.7746 180.294 17.9272 180.226 18.0883 180.239C18.2197 180.239 18.3468 180.251 18.4739 180.281C18.5841 180.311 18.6858 180.341 18.7876 180.379L19.1351 179.299C18.9698 179.231 18.796 179.18 18.6223 179.142C18.3765 179.091 18.1264 179.065 17.8764 179.074C17.6306 179.074 17.3805 179.099 17.1432 179.159C16.9355 179.21 16.7448 179.308 16.5837 179.444C16.4227 179.593 16.2998 179.78 16.2277 179.988C16.1387 180.264 16.0963 180.553 16.1048 180.842V181.238L15.2996 181.633V182.343H16.1048V186.624H17.5712V182.343H18.6604V181.238H18.6519ZM22.0001 182.271C22.1145 182.326 22.212 182.407 22.2883 182.509C22.3688 182.615 22.4281 182.738 22.462 182.866C22.5002 183.015 22.5214 183.168 22.5256 183.321H20.6608C20.6608 183.006 20.7625 182.704 20.9575 182.458C21.1228 182.275 21.3601 182.177 21.6017 182.181C21.7415 182.181 21.8772 182.207 22.0043 182.266L22.0001 182.271ZM22.3306 186.7C22.4875 186.688 22.6443 186.662 22.7968 186.632C22.9367 186.603 23.0723 186.564 23.2079 186.513C23.3393 186.467 23.4707 186.407 23.5936 186.343V185.204C23.4538 185.276 23.3139 185.336 23.1783 185.391C23.0469 185.442 22.907 185.489 22.7714 185.523C22.6316 185.557 22.4917 185.587 22.3476 185.604C22.195 185.621 22.0382 185.629 21.8856 185.629C21.7076 185.629 21.5296 185.599 21.3644 185.536C21.216 185.476 21.0846 185.387 20.9744 185.272C20.8643 185.153 20.7795 185.008 20.7244 184.851C20.6608 184.673 20.6312 184.486 20.6269 184.294H23.903V183.58C23.9072 183.227 23.8564 182.874 23.7419 182.539C23.6445 182.254 23.4877 181.99 23.28 181.769C23.0766 181.557 22.8265 181.395 22.551 181.293C22.2416 181.182 21.9153 181.127 21.589 181.131C21.2499 181.127 20.9109 181.187 20.593 181.31C20.3006 181.425 20.0336 181.608 19.8259 181.841C19.6013 182.096 19.4318 182.398 19.33 182.726C19.2029 183.125 19.1436 183.546 19.152 183.963C19.1436 184.375 19.2114 184.787 19.347 185.178C19.4614 185.502 19.6479 185.795 19.8937 186.037C20.1311 186.267 20.415 186.441 20.7286 186.547C21.0719 186.662 21.4279 186.722 21.7924 186.717C21.9916 186.717 22.1738 186.709 22.3391 186.692L22.3306 186.7ZM28.37 184.418C28.3022 184.252 28.1962 184.103 28.0691 183.98C27.9292 183.848 27.7682 183.733 27.5987 183.644C27.4164 183.546 27.213 183.448 26.9841 183.346C26.7892 183.257 26.6281 183.18 26.5095 183.117C26.4077 183.07 26.3145 183.01 26.2255 182.942C26.1704 182.904 26.1238 182.849 26.0899 182.789C26.0687 182.734 26.056 182.679 26.056 182.619C26.0517 182.509 26.0984 182.398 26.1874 182.33C26.3145 182.249 26.4671 182.211 26.6196 182.224C26.8443 182.224 27.0689 182.262 27.2808 182.334C27.5181 182.415 27.7512 182.509 27.9758 182.619L28.4166 181.578C28.1327 181.437 27.8318 181.327 27.5266 181.246C27.2299 181.17 26.9206 181.136 26.6154 181.136C26.3357 181.136 26.0602 181.165 25.789 181.229C25.5601 181.284 25.344 181.378 25.1532 181.51C24.9795 181.629 24.8396 181.79 24.7464 181.982C24.6447 182.186 24.5981 182.411 24.6023 182.641C24.6023 182.84 24.6277 183.04 24.6828 183.231C24.7337 183.393 24.8184 183.542 24.9286 183.674C25.0515 183.81 25.1956 183.929 25.3524 184.022C25.5474 184.141 25.7508 184.243 25.9585 184.337C26.2001 184.447 26.3908 184.537 26.5349 184.613C26.6493 184.673 26.7553 184.736 26.8612 184.817C26.9206 184.86 26.9714 184.919 27.0011 184.987C27.0223 185.047 27.035 185.106 27.0307 185.166C27.0307 185.229 27.018 185.297 26.9884 185.357C26.9587 185.421 26.9163 185.472 26.857 185.51C26.7892 185.557 26.7086 185.591 26.6281 185.612C26.5179 185.638 26.4035 185.65 26.2933 185.65C26.1619 185.65 26.0348 185.638 25.9076 185.616C25.7635 185.591 25.6194 185.561 25.4753 185.523C25.327 185.485 25.1787 185.434 25.0303 185.383C24.8862 185.332 24.7421 185.268 24.6065 185.2V186.416C24.7294 186.471 24.8566 186.522 24.9837 186.56C25.1109 186.598 25.2422 186.632 25.3736 186.658C25.5135 186.683 25.6576 186.705 25.8017 186.713C25.9543 186.726 26.1153 186.73 26.2933 186.73C26.5985 186.73 26.8994 186.696 27.196 186.624C27.4418 186.564 27.6749 186.454 27.8826 186.305C28.0691 186.165 28.2174 185.986 28.3191 185.774C28.4251 185.54 28.4802 185.289 28.4717 185.03C28.4759 184.821 28.442 184.613 28.3658 184.422L28.37 184.418ZM32.8539 184.418C32.7861 184.252 32.6802 184.103 32.553 183.98C32.4132 183.848 32.2521 183.733 32.0826 183.644C31.9004 183.546 31.6969 183.448 31.4681 183.346C31.2731 183.257 31.1163 183.18 30.9934 183.117C30.8917 183.07 30.7984 183.01 30.7094 182.942C30.6544 182.904 30.6077 182.849 30.5738 182.789C30.5526 182.734 30.5399 182.679 30.5399 182.619C30.5357 182.509 30.5823 182.398 30.6713 182.33C30.7985 182.249 30.951 182.211 31.1036 182.224C31.3282 182.224 31.5528 182.262 31.7647 182.334C32.0021 182.415 32.2352 182.509 32.4598 182.619L32.9048 181.578C32.6208 181.437 32.3199 181.327 32.0148 181.246C31.7181 181.17 31.4087 181.136 31.1036 181.136C30.8239 181.136 30.5484 181.165 30.2772 181.229C30.0483 181.284 29.8322 181.378 29.6414 181.51C29.4677 181.629 29.3278 181.79 29.2346 181.982C29.1329 182.186 29.0862 182.411 29.0905 182.641C29.0905 182.84 29.1159 183.04 29.171 183.231C29.2219 183.393 29.3066 183.542 29.4168 183.674C29.5397 183.81 29.6838 183.929 29.8406 184.022C30.0356 184.141 30.239 184.243 30.4467 184.337C30.6883 184.447 30.879 184.537 31.0231 184.613C31.1375 184.673 31.2435 184.736 31.3494 184.817C31.4087 184.86 31.4596 184.919 31.4893 184.987C31.5105 185.047 31.5232 185.106 31.5189 185.166C31.5189 185.229 31.5062 185.297 31.4766 185.357C31.4469 185.421 31.4045 185.472 31.3452 185.51C31.2774 185.557 31.1968 185.591 31.1163 185.612C31.0061 185.638 30.8917 185.65 30.7815 185.65C30.6501 185.65 30.523 185.638 30.3958 185.616C30.2517 185.591 30.1076 185.561 29.9635 185.523C29.8152 185.485 29.6669 185.434 29.5185 185.383C29.3744 185.332 29.2303 185.268 29.0947 185.2V186.416C29.2176 186.471 29.3448 186.522 29.4719 186.56C29.5991 186.598 29.7304 186.632 29.8618 186.658C30.0017 186.683 30.1458 186.705 30.2899 186.713C30.4424 186.726 30.6035 186.73 30.7815 186.73C31.0866 186.73 31.3876 186.696 31.6842 186.624C31.93 186.564 32.1631 186.454 32.3708 186.305C32.5573 186.165 32.7056 185.986 32.8073 185.774C32.9133 185.54 32.9684 185.289 32.9599 185.03C32.9641 184.821 32.9302 184.613 32.8539 184.422V184.418ZM33.8669 180.188C33.905 180.277 33.9643 180.353 34.0364 180.413C34.1127 180.473 34.1974 180.511 34.2907 180.532C34.3924 180.558 34.4941 180.57 34.6001 180.57C34.7018 180.57 34.8077 180.558 34.9094 180.532C35.0027 180.511 35.0874 180.468 35.1637 180.413C35.24 180.353 35.2994 180.277 35.3375 180.188C35.4223 179.967 35.4223 179.72 35.3375 179.503C35.2994 179.418 35.24 179.342 35.1637 179.282C35.0874 179.227 35.0027 179.184 34.9094 179.163C34.8077 179.142 34.706 179.129 34.6001 179.129C34.4941 179.129 34.3924 179.142 34.2907 179.163C34.1974 179.184 34.1127 179.223 34.0364 179.282C33.9643 179.342 33.905 179.418 33.8669 179.503C33.7821 179.724 33.7863 179.967 33.8669 180.188ZM35.3333 181.238H33.8669V186.624H35.3333V181.238ZM38.0669 182.721C38.211 182.458 38.4949 182.305 38.7958 182.326C39.0967 182.305 39.3849 182.458 39.5375 182.721C39.7113 183.095 39.7875 183.512 39.7621 183.924C39.7875 184.341 39.707 184.753 39.5375 185.132C39.2874 185.54 38.7534 185.663 38.3508 185.412C38.2406 185.344 38.1431 185.246 38.0753 185.136C37.9016 184.758 37.8253 184.341 37.8507 183.924C37.8253 183.512 37.9016 183.1 38.0753 182.721H38.0669ZM41.0717 182.734C40.9615 182.411 40.792 182.113 40.5631 181.858C40.3512 181.625 40.0842 181.442 39.7918 181.323C39.4782 181.199 39.1476 181.136 38.8128 181.14C38.461 181.136 38.1092 181.195 37.7787 181.323C37.482 181.437 37.215 181.625 37.0031 181.858C36.7785 182.113 36.6132 182.411 36.5115 182.734C36.3928 183.121 36.3335 183.521 36.3419 183.924C36.3335 184.328 36.397 184.736 36.5242 185.119C36.6301 185.442 36.8039 185.74 37.0328 185.995C37.2447 186.233 37.5117 186.416 37.8041 186.539C38.1135 186.666 38.4483 186.73 38.7831 186.726C39.1349 186.73 39.4866 186.666 39.813 186.539C40.1096 186.42 40.3766 186.237 40.5928 185.995C40.8174 185.74 40.9827 185.442 41.0844 185.119C41.2031 184.732 41.2624 184.328 41.2539 183.924C41.2624 183.521 41.1988 183.117 41.0759 182.734H41.0717ZM46.933 183.117C46.9373 182.815 46.8949 182.513 46.8059 182.224C46.7339 181.994 46.6109 181.786 46.4499 181.608C46.2973 181.446 46.1066 181.327 45.8989 181.255C45.6701 181.178 45.4285 181.14 45.1827 181.14C45.0301 181.14 44.8775 181.157 44.7292 181.187C44.5851 181.216 44.4453 181.263 44.3096 181.327C44.1783 181.391 44.0554 181.476 43.9452 181.574C43.8307 181.676 43.7375 181.795 43.6654 181.931H43.5849L43.39 181.242H42.2711V186.624H43.7375V184.09C43.7375 183.835 43.7502 183.58 43.7841 183.329C43.8095 183.134 43.8604 182.947 43.9452 182.768C44.013 182.628 44.1189 182.509 44.2503 182.428C44.3986 182.347 44.5639 182.305 44.7292 182.313C44.9538 182.296 45.17 182.411 45.2887 182.607C45.4243 182.879 45.4836 183.18 45.4624 183.482V186.628H46.9288V183.117H46.933ZM52.3367 186.628V183.036C52.3791 182.5 52.1841 181.973 51.8027 181.599C51.3661 181.259 50.8152 181.089 50.2642 181.127C49.9167 181.127 49.5734 181.17 49.2344 181.259C48.9207 181.34 48.6241 181.459 48.3401 181.616L48.8148 182.59C49.0267 182.479 49.2471 182.39 49.4759 182.322C49.6963 182.254 49.9209 182.22 50.1498 182.22C50.3405 182.207 50.5312 182.262 50.688 182.381C50.8237 182.505 50.8957 182.687 50.8788 182.874V183.278L50.0227 183.308C49.4463 183.295 48.8741 183.448 48.3825 183.759C48.0011 184.065 47.7976 184.537 47.8358 185.025C47.8315 185.285 47.8697 185.54 47.9502 185.782C48.018 185.982 48.1282 186.16 48.2681 186.314C48.4037 186.454 48.569 186.56 48.7512 186.628C48.9462 186.7 49.1496 186.734 49.3573 186.73C49.5395 186.73 49.7217 186.717 49.8997 186.683C50.1922 186.628 50.4549 186.488 50.6669 186.275C50.7813 186.16 50.8872 186.033 50.9847 185.901H51.0271L51.311 186.632H52.3324L52.3367 186.628ZM50.883 184.575C50.883 184.732 50.8618 184.885 50.8109 185.034C50.7686 185.157 50.7008 185.272 50.6118 185.37C50.527 185.459 50.4253 185.531 50.3108 185.578C50.1922 185.625 50.065 185.65 49.9337 185.646C49.7768 185.655 49.6285 185.604 49.5056 185.502C49.3827 185.374 49.3234 185.2 49.3403 185.021C49.3403 184.902 49.3573 184.783 49.3954 184.673C49.4293 184.571 49.4929 184.477 49.5734 184.401C49.6666 184.32 49.7768 184.256 49.8997 184.222C50.0608 184.171 50.2261 184.145 50.3956 184.145L50.8788 184.128V184.571L50.883 184.575ZM55.066 179.129H53.5996V186.628H55.066V179.129ZM61.241 182.271C61.3554 182.326 61.4529 182.407 61.5292 182.509C61.6097 182.615 61.6691 182.738 61.703 182.866C61.7411 183.015 61.7623 183.168 61.7665 183.321H59.8975C59.8975 183.006 59.9992 182.704 60.1942 182.458C60.3595 182.275 60.5968 182.177 60.8384 182.181C60.9782 182.181 61.1139 182.211 61.241 182.271ZM61.5716 186.7C61.7284 186.688 61.8852 186.662 62.0378 186.632C62.1776 186.603 62.3133 186.564 62.4489 186.513C62.5803 186.467 62.7116 186.407 62.8345 186.343V185.208C62.6947 185.281 62.5548 185.34 62.4234 185.395C62.2921 185.446 62.1522 185.493 62.0166 185.527C61.8767 185.561 61.7369 185.591 61.5928 185.608C61.4402 185.625 61.2834 185.633 61.1308 185.633C60.9528 185.633 60.7748 185.604 60.6095 185.54C60.4612 185.48 60.3298 185.391 60.2196 185.276C60.1094 185.157 60.0247 185.013 59.9696 184.855C59.906 184.677 59.8763 184.49 59.8721 184.298H63.1482V183.584C63.1524 183.231 63.1015 182.879 62.9871 182.543C62.8896 182.258 62.7328 181.994 62.5252 181.773C62.3217 181.561 62.0717 181.399 61.7962 181.297C61.4868 181.187 61.1605 181.131 60.8341 181.136C60.4951 181.131 60.156 181.191 59.8382 181.314C59.5457 181.429 59.283 181.612 59.0711 181.846C58.8465 182.101 58.6769 182.402 58.5752 182.73C58.4481 183.129 58.3887 183.55 58.3972 183.967C58.3887 184.379 58.4565 184.792 58.5922 185.183C58.7066 185.506 58.8931 185.799 59.1389 186.041C59.3762 186.271 59.6602 186.445 59.9738 186.552C60.3171 186.666 60.6731 186.726 61.0333 186.722C61.2325 186.722 61.4148 186.713 61.5801 186.696L61.5716 186.7ZM63.4152 186.624H65.0765L66.0598 184.881L67.043 186.624H68.7044L66.8735 183.873L68.6281 181.238H66.9667L66.0598 182.857L65.1655 181.238H63.4999L65.2291 183.873L63.4109 186.624H63.4152ZM71.9084 186.7C72.0271 186.688 72.1457 186.666 72.2644 186.637C72.3788 186.607 72.4933 186.569 72.6035 186.526C72.7179 186.479 72.8323 186.428 72.951 186.373V185.149C72.7264 185.255 72.4933 185.349 72.2559 185.425C72.0101 185.502 71.7558 185.536 71.4973 185.536C71.1922 185.557 70.904 185.408 70.7429 185.149C70.5564 184.779 70.4759 184.367 70.5013 183.954C70.4759 183.533 70.5564 183.112 70.7429 182.734C70.904 182.462 71.2049 182.305 71.5185 182.326C71.7092 182.326 71.8957 182.36 72.0737 182.415C72.2814 182.479 72.4848 182.556 72.684 182.645L73.1078 181.527C72.862 181.403 72.6035 181.306 72.3407 181.242C72.0737 181.174 71.7982 181.14 71.5185 181.14C71.171 181.14 70.8234 181.182 70.4886 181.28C70.1877 181.365 69.9165 181.527 69.6961 181.748C69.4588 181.994 69.285 182.292 69.1875 182.619C69.0561 183.057 68.9968 183.512 69.0095 183.967C69.001 184.392 69.0604 184.813 69.1833 185.217C69.285 185.536 69.4545 185.833 69.6876 186.075C69.908 186.301 70.1792 186.471 70.4801 186.569C70.815 186.679 71.1667 186.734 71.5227 186.726C71.6541 186.726 71.7855 186.722 71.9169 186.705L71.9084 186.7ZM76.5153 182.266C76.6297 182.322 76.7272 182.402 76.8035 182.505C76.884 182.611 76.9433 182.734 76.9772 182.862C77.0154 183.01 77.0366 183.163 77.0408 183.316H75.1718C75.1718 183.002 75.2735 182.7 75.4684 182.454C75.6337 182.275 75.8711 182.173 76.1169 182.177C76.2567 182.177 76.3924 182.207 76.5195 182.266H76.5153ZM76.8458 186.696C77.0026 186.683 77.1595 186.658 77.312 186.628C77.4519 186.598 77.5875 186.56 77.7231 186.509C77.8545 186.462 77.9859 186.403 78.1088 186.339V185.2C77.9689 185.272 77.8291 185.332 77.6977 185.387C77.5663 185.438 77.4265 185.485 77.2908 185.519C77.151 185.553 77.0111 185.582 76.867 185.599C76.7144 185.616 76.5576 185.625 76.4051 185.625C76.2271 185.625 76.0491 185.595 75.8838 185.531C75.7354 185.472 75.6041 185.383 75.4939 185.268C75.3837 185.149 75.2989 185.004 75.2438 184.847C75.1802 184.668 75.1506 184.481 75.1463 184.29H78.4182V183.576C78.4224 183.223 78.3716 182.87 78.2571 182.534C78.1597 182.249 78.0028 181.986 77.7952 181.765C77.5917 181.552 77.3417 181.391 77.0662 181.289C76.7568 181.178 76.4305 181.123 76.1042 181.127C75.7651 181.123 75.4261 181.182 75.1082 181.306C74.8158 181.42 74.5488 181.603 74.3411 181.837C74.1165 182.092 73.9469 182.394 73.8452 182.721C73.7181 183.121 73.6588 183.542 73.6672 183.958C73.6588 184.371 73.7266 184.783 73.8622 185.174C73.9766 185.497 74.1631 185.791 74.4089 186.033C74.6462 186.262 74.9302 186.437 75.2438 186.543C75.5871 186.658 75.9431 186.717 76.3034 186.713C76.5025 186.713 76.689 186.705 76.8543 186.688L76.8458 186.696ZM80.8763 179.121H79.4099V186.62H80.8721V179.121H80.8763ZM83.6311 179.121H82.1647V186.62H83.6311V179.121ZM87.4963 182.262C87.6107 182.317 87.7082 182.398 87.7845 182.5C87.865 182.607 87.9243 182.73 87.9582 182.857C87.9964 183.006 88.0176 183.159 88.0218 183.312H86.1528C86.1528 182.998 86.2545 182.696 86.4495 182.449C86.6147 182.266 86.8521 182.169 87.0937 182.173C87.2335 182.173 87.3691 182.198 87.4963 182.258V182.262ZM87.8269 186.692C87.9837 186.679 88.1405 186.654 88.2931 186.624C88.4329 186.594 88.5685 186.556 88.7041 186.505C88.8355 186.458 88.9669 186.399 89.0898 186.335V185.195C88.95 185.268 88.8101 185.327 88.6787 185.383C88.5473 185.434 88.4075 185.48 88.2719 185.514C88.132 185.548 87.9921 185.578 87.848 185.595C87.6955 185.612 87.5387 185.621 87.3861 185.621C87.2081 185.621 87.0301 185.591 86.8648 185.527C86.7165 185.468 86.5851 185.378 86.4749 185.263C86.3647 185.144 86.2799 185 86.2248 184.843C86.1613 184.664 86.1316 184.477 86.1274 184.286H89.4034V183.572C89.4077 183.219 89.3568 182.866 89.2424 182.53C89.1449 182.245 88.9881 181.982 88.7804 181.761C88.577 181.548 88.327 181.386 88.0515 181.284C87.7421 181.174 87.4158 181.119 87.0894 181.123C86.7504 181.119 86.4113 181.178 86.0935 181.301C85.801 181.416 85.5383 181.599 85.3264 181.833C85.1017 182.088 84.9322 182.39 84.8305 182.717C84.7033 183.117 84.644 183.538 84.6525 183.954C84.644 184.367 84.7118 184.779 84.8474 185.17C84.9619 185.493 85.1484 185.786 85.3942 186.029C85.6315 186.258 85.9155 186.433 86.2291 186.539C86.5724 186.654 86.9284 186.713 87.2886 186.709C87.4878 186.709 87.67 186.7 87.8353 186.683L87.8269 186.692ZM95.0529 183.104C95.0571 182.802 95.019 182.5 94.93 182.211C94.8579 181.982 94.735 181.773 94.574 181.595C94.4214 181.433 94.2307 181.314 94.023 181.242C93.7942 181.165 93.5526 181.127 93.3068 181.127C93.1542 181.127 93.0016 181.144 92.8533 181.174C92.7092 181.204 92.5693 181.25 92.4337 181.314C92.3023 181.378 92.1794 181.463 92.0692 181.561C91.9548 181.663 91.8616 181.782 91.7895 181.918H91.709L91.514 181.229H90.3952V186.615H91.8616V184.082C91.8616 183.827 91.8743 183.572 91.9082 183.321C91.9336 183.125 91.9845 182.938 92.0692 182.76C92.137 182.619 92.243 182.5 92.3744 182.419C92.5227 182.339 92.688 182.296 92.8533 182.305C93.0779 182.288 93.2941 182.402 93.4127 182.598C93.5483 182.87 93.6077 183.172 93.5865 183.474V186.62H95.0529V183.108V183.104ZM98.9435 186.692C99.0622 186.679 99.1808 186.658 99.2995 186.628C99.4139 186.598 99.5284 186.56 99.6385 186.518C99.753 186.471 99.8674 186.42 99.9861 186.365V185.14C99.7615 185.246 99.5284 185.34 99.291 185.417C99.0452 185.493 98.7909 185.527 98.5324 185.527C98.2315 185.548 97.9391 185.4 97.778 185.14C97.5915 184.77 97.511 184.358 97.5364 183.946C97.511 183.525 97.5915 183.104 97.778 182.726C97.9391 182.454 98.2357 182.296 98.5536 182.317C98.7443 182.317 98.9308 182.351 99.113 182.407C99.3207 182.471 99.5241 182.547 99.7233 182.636L100.147 181.518C99.9013 181.395 99.6428 181.297 99.38 181.233C99.113 181.165 98.8375 181.131 98.5578 181.131C98.2103 181.131 97.8628 181.174 97.528 181.272C97.227 181.361 96.9558 181.518 96.7354 181.739C96.4981 181.986 96.3243 182.283 96.2268 182.611C96.0955 183.049 96.0361 183.504 96.0488 183.958C96.0404 184.384 96.0997 184.804 96.2226 185.208C96.3243 185.527 96.4939 185.825 96.7269 186.067C96.9473 186.292 97.2186 186.462 97.5195 186.56C97.8543 186.671 98.2061 186.726 98.5578 186.717C98.6892 186.717 98.8206 186.709 98.952 186.696L98.9435 186.692ZM103.55 182.262C103.665 182.317 103.762 182.398 103.839 182.5C103.919 182.607 103.978 182.73 104.012 182.857C104.05 183.006 104.072 183.159 104.076 183.312H102.207C102.207 182.998 102.309 182.696 102.504 182.449C102.669 182.271 102.906 182.169 103.152 182.173C103.292 182.173 103.427 182.198 103.555 182.258L103.55 182.262ZM103.881 186.692C104.038 186.679 104.195 186.654 104.347 186.624C104.487 186.594 104.623 186.556 104.758 186.505C104.89 186.458 105.021 186.399 105.144 186.335V185.195C105.004 185.268 104.864 185.327 104.733 185.383C104.601 185.434 104.462 185.48 104.326 185.514C104.186 185.548 104.046 185.578 103.902 185.595C103.75 185.612 103.593 185.621 103.44 185.621C103.262 185.621 103.084 185.591 102.919 185.527C102.771 185.468 102.639 185.378 102.529 185.263C102.419 185.144 102.334 185 102.279 184.843C102.215 184.664 102.186 184.477 102.181 184.286H105.458V183.572C105.462 183.219 105.411 182.866 105.296 182.53C105.199 182.245 105.042 181.982 104.835 181.761C104.631 181.548 104.381 181.386 104.106 181.284C103.796 181.174 103.47 181.119 103.143 181.123C102.804 181.119 102.465 181.178 102.148 181.301C101.855 181.416 101.588 181.599 101.38 181.833C101.156 182.092 100.986 182.39 100.885 182.717C100.757 183.117 100.698 183.538 100.707 183.954C100.698 184.367 100.766 184.779 100.902 185.17C101.016 185.493 101.202 185.786 101.448 186.029C101.686 186.258 101.97 186.433 102.283 186.539C102.626 186.654 102.982 186.713 103.343 186.709C103.542 186.709 103.724 186.7 103.889 186.683L103.881 186.692ZM106.305 186.301C106.343 186.399 106.407 186.488 106.483 186.556C106.559 186.624 106.653 186.675 106.754 186.7C106.86 186.73 106.975 186.747 107.085 186.747C107.195 186.747 107.301 186.73 107.403 186.7C107.606 186.641 107.772 186.492 107.852 186.297C107.899 186.177 107.924 186.054 107.92 185.927C107.92 185.795 107.899 185.667 107.852 185.544C107.814 185.446 107.75 185.357 107.67 185.289C107.594 185.225 107.5 185.178 107.403 185.149C107.297 185.119 107.191 185.106 107.085 185.106C106.975 185.106 106.86 185.119 106.754 185.149C106.657 185.174 106.564 185.225 106.483 185.289C106.403 185.357 106.339 185.446 106.305 185.544C106.259 185.667 106.237 185.795 106.242 185.927C106.242 186.054 106.259 186.182 106.305 186.297V186.301ZM114.909 186.535C115.15 186.407 115.354 186.224 115.51 186.003C115.693 185.735 115.824 185.438 115.9 185.127C115.998 184.732 116.044 184.324 116.04 183.916C116.044 183.512 116.002 183.104 115.905 182.709C115.832 182.398 115.701 182.101 115.523 181.837C115.375 181.616 115.171 181.433 114.938 181.306C114.705 181.187 114.442 181.123 114.18 181.127C114.019 181.127 113.853 181.148 113.701 181.191C113.565 181.229 113.434 181.289 113.315 181.365C113.205 181.437 113.103 181.523 113.014 181.62C112.929 181.718 112.853 181.82 112.785 181.931H112.717L112.51 181.233H111.319V188.992H112.785V186.807C112.785 186.76 112.785 186.692 112.773 186.603C112.76 186.513 112.756 186.428 112.747 186.343C112.734 186.245 112.722 186.139 112.709 186.024H112.785C112.853 186.118 112.929 186.203 113.01 186.284C113.095 186.369 113.192 186.441 113.298 186.505C113.417 186.573 113.54 186.624 113.671 186.658C113.824 186.696 113.985 186.717 114.146 186.717C114.413 186.717 114.675 186.658 114.913 186.539L114.909 186.535ZM114.336 182.7C114.493 183.078 114.565 183.487 114.54 183.895C114.561 184.307 114.493 184.724 114.336 185.106C114.23 185.366 113.976 185.531 113.696 185.523C113.544 185.527 113.396 185.493 113.26 185.417C113.137 185.34 113.04 185.234 112.98 185.106C112.904 184.945 112.853 184.775 112.828 184.596C112.794 184.367 112.781 184.133 112.781 183.903V183.746C112.781 183.533 112.802 183.321 112.84 183.112C112.866 182.955 112.917 182.802 112.993 182.666C113.056 182.551 113.154 182.458 113.268 182.398C113.396 182.334 113.54 182.305 113.684 182.309C113.959 182.296 114.218 182.454 114.332 182.704L114.336 182.7ZM121.681 186.615V181.229H120.215V183.763C120.215 184.018 120.202 184.273 120.168 184.524C120.143 184.719 120.092 184.906 120.007 185.085C119.939 185.225 119.833 185.344 119.702 185.425C119.554 185.506 119.388 185.548 119.223 185.54C118.998 185.557 118.782 185.442 118.664 185.246C118.528 184.974 118.469 184.673 118.49 184.371V181.225H117.023V184.736C117.019 185.038 117.062 185.34 117.151 185.629C117.223 185.859 117.345 186.067 117.507 186.241C117.659 186.403 117.85 186.522 118.058 186.594C118.286 186.671 118.528 186.709 118.774 186.709C118.926 186.709 119.079 186.692 119.227 186.662C119.371 186.632 119.511 186.586 119.647 186.522C119.778 186.458 119.901 186.377 120.011 186.28C120.126 186.177 120.223 186.058 120.295 185.927H120.376L120.571 186.615H121.69H121.681ZM125.356 181.191C125.22 181.229 125.089 181.284 124.97 181.361C124.86 181.429 124.758 181.518 124.669 181.612C124.584 181.71 124.504 181.812 124.44 181.926H124.385C124.394 181.799 124.402 181.676 124.415 181.552C124.419 181.446 124.427 181.331 124.432 181.208C124.44 181.085 124.44 180.97 124.44 180.864V179.121H122.974V186.62H124.093L124.338 186.029H124.44C124.508 186.118 124.584 186.207 124.665 186.288C124.75 186.373 124.847 186.445 124.949 186.509C125.067 186.577 125.19 186.628 125.322 186.662C125.478 186.705 125.64 186.722 125.801 186.722C126.068 186.722 126.335 186.662 126.576 186.543C126.818 186.42 127.021 186.237 127.178 186.012C127.36 185.748 127.492 185.451 127.564 185.136C127.661 184.736 127.708 184.328 127.699 183.92C127.704 183.516 127.661 183.108 127.564 182.713C127.487 182.402 127.36 182.105 127.182 181.841C127.034 181.62 126.83 181.437 126.597 181.31C126.364 181.191 126.106 181.127 125.843 181.131C125.682 181.131 125.517 181.153 125.364 181.195L125.356 181.191ZM125.991 182.7C126.148 183.078 126.22 183.487 126.195 183.895C126.216 184.307 126.148 184.724 125.991 185.106C125.885 185.366 125.631 185.531 125.351 185.523C125.199 185.527 125.05 185.493 124.915 185.417C124.792 185.34 124.694 185.234 124.635 185.106C124.559 184.945 124.508 184.775 124.483 184.596C124.449 184.367 124.436 184.133 124.436 183.903V183.746C124.436 183.533 124.457 183.321 124.495 183.112C124.521 182.955 124.572 182.802 124.648 182.662C124.711 182.547 124.809 182.454 124.923 182.394C125.055 182.33 125.195 182.3 125.339 182.305C125.618 182.292 125.877 182.449 125.991 182.704V182.7ZM130.17 179.116H128.704V186.615H130.17V179.116ZM131.463 180.175C131.501 180.264 131.56 180.341 131.632 180.4C131.709 180.46 131.793 180.498 131.887 180.519C131.988 180.545 132.094 180.558 132.196 180.558C132.298 180.558 132.404 180.545 132.501 180.519C132.594 180.498 132.679 180.455 132.755 180.4C132.832 180.341 132.891 180.264 132.929 180.175C133.014 179.954 133.014 179.707 132.929 179.49C132.891 179.405 132.832 179.329 132.755 179.269C132.679 179.21 132.594 179.172 132.501 179.15C132.399 179.129 132.298 179.116 132.196 179.116C132.09 179.116 131.988 179.129 131.887 179.15C131.793 179.172 131.709 179.21 131.632 179.269C131.56 179.329 131.501 179.405 131.463 179.49C131.378 179.712 131.382 179.958 131.463 180.179V180.175ZM132.929 181.225H131.463V186.611H132.929V181.225ZM136.849 186.688C136.968 186.675 137.087 186.654 137.205 186.624C137.32 186.594 137.434 186.556 137.544 186.513C137.659 186.467 137.773 186.416 137.892 186.36V185.136C137.667 185.242 137.434 185.336 137.197 185.412C136.951 185.489 136.697 185.523 136.438 185.523C136.133 185.544 135.845 185.395 135.684 185.136C135.497 184.766 135.417 184.354 135.442 183.941C135.417 183.521 135.497 183.1 135.684 182.721C135.845 182.449 136.142 182.292 136.46 182.313C136.65 182.313 136.837 182.347 137.019 182.403C137.227 182.466 137.43 182.543 137.629 182.632L138.053 181.514C137.807 181.391 137.549 181.293 137.286 181.229C137.019 181.161 136.739 181.127 136.464 181.127C136.116 181.127 135.769 181.17 135.434 181.267C135.133 181.352 134.862 181.514 134.641 181.735C134.404 181.982 134.23 182.279 134.133 182.607C134.001 183.044 133.942 183.499 133.955 183.954C133.946 184.379 134.006 184.8 134.129 185.204C134.23 185.523 134.4 185.82 134.633 186.063C134.853 186.288 135.124 186.458 135.425 186.556C135.76 186.666 136.112 186.722 136.464 186.713C136.595 186.713 136.731 186.709 136.862 186.692L136.849 186.688ZM142.969 185.387C142.859 185.259 142.8 185.093 142.817 184.923V182.326H144.122V181.221H142.817V180.073H141.88L141.456 181.212L140.651 181.705V182.326H141.355V184.923C141.346 185.217 141.388 185.51 141.482 185.786C141.554 185.995 141.672 186.182 141.829 186.335C141.978 186.471 142.16 186.569 142.355 186.62C142.567 186.675 142.787 186.705 143.007 186.7C143.232 186.7 143.452 186.679 143.673 186.632C143.851 186.594 144.02 186.535 144.186 186.458V185.366C144.054 185.412 143.923 185.455 143.791 185.485C143.656 185.519 143.52 185.531 143.38 185.531C143.232 185.54 143.088 185.485 142.978 185.387H142.969ZM147.343 181.187C147.207 181.229 147.085 181.289 146.97 181.369C146.856 181.45 146.754 181.548 146.669 181.654C146.576 181.773 146.491 181.897 146.419 182.028H146.347L146.131 181.221H145.021V186.607H146.487V183.865C146.483 183.648 146.512 183.427 146.58 183.223C146.631 183.061 146.724 182.917 146.843 182.798C146.957 182.687 147.097 182.611 147.25 182.564C147.419 182.513 147.593 182.492 147.771 182.492C147.805 182.492 147.843 182.492 147.89 182.492C147.936 182.492 147.987 182.496 148.038 182.5C148.089 182.505 148.136 182.513 148.178 182.517C148.22 182.522 148.258 182.53 148.284 182.534V181.157C148.254 181.148 148.229 181.144 148.199 181.14C148.161 181.136 148.123 181.131 148.08 181.127C148.038 181.123 147.991 181.119 147.945 181.119C147.898 181.119 147.856 181.119 147.818 181.119C147.657 181.119 147.496 181.14 147.343 181.187ZM153.679 186.611V181.225H152.213V183.759C152.213 184.014 152.2 184.269 152.166 184.52C152.141 184.715 152.09 184.902 152.005 185.081C151.937 185.221 151.831 185.34 151.7 185.421C151.552 185.502 151.386 185.544 151.221 185.536C150.996 185.553 150.78 185.438 150.662 185.242C150.526 184.97 150.467 184.668 150.488 184.367V181.221H149.021V184.732C149.013 185.034 149.055 185.336 149.144 185.625C149.216 185.854 149.339 186.063 149.5 186.237C149.653 186.399 149.844 186.518 150.051 186.59C150.28 186.666 150.522 186.705 150.767 186.705C150.92 186.705 151.073 186.688 151.221 186.658C151.365 186.628 151.505 186.581 151.641 186.518C151.772 186.454 151.895 186.373 152.005 186.275C152.119 186.173 152.217 186.054 152.289 185.922H152.369L152.564 186.611H153.683H153.679ZM158.443 184.405C158.375 184.239 158.269 184.09 158.142 183.967C158.002 183.835 157.841 183.72 157.671 183.631C157.489 183.533 157.286 183.436 157.057 183.333C156.862 183.244 156.701 183.168 156.582 183.104C156.48 183.057 156.387 182.998 156.298 182.93C156.243 182.891 156.197 182.836 156.163 182.777C156.141 182.721 156.129 182.666 156.129 182.607C156.124 182.496 156.175 182.385 156.26 182.317C156.387 182.237 156.54 182.198 156.692 182.211C156.917 182.211 157.142 182.249 157.354 182.322C157.591 182.403 157.824 182.496 158.049 182.607L158.489 181.565C158.205 181.425 157.904 181.314 157.599 181.233C157.303 181.157 156.993 181.123 156.688 181.123C156.408 181.123 156.129 181.153 155.857 181.216C155.629 181.272 155.412 181.365 155.222 181.497C155.048 181.616 154.908 181.778 154.815 181.969C154.713 182.173 154.667 182.398 154.671 182.628C154.671 182.828 154.696 183.027 154.751 183.219C154.802 183.38 154.887 183.529 154.997 183.661C155.12 183.797 155.264 183.916 155.421 184.009C155.616 184.128 155.819 184.23 156.027 184.324C156.269 184.435 156.459 184.524 156.599 184.6C156.714 184.66 156.82 184.724 156.925 184.804C156.985 184.847 157.036 184.906 157.07 184.974C157.091 185.034 157.103 185.093 157.099 185.153C157.099 185.217 157.087 185.285 157.057 185.344C157.027 185.408 156.985 185.459 156.925 185.497C156.858 185.544 156.777 185.578 156.697 185.599C156.586 185.625 156.472 185.638 156.362 185.638C156.23 185.638 156.103 185.625 155.976 185.604C155.832 185.578 155.688 185.548 155.544 185.51C155.396 185.472 155.247 185.421 155.099 185.37C154.955 185.319 154.811 185.255 154.675 185.187V186.403C154.798 186.458 154.925 186.509 155.056 186.547C155.184 186.586 155.315 186.62 155.446 186.645C155.586 186.671 155.73 186.692 155.874 186.7C156.023 186.713 156.188 186.717 156.366 186.717C156.671 186.717 156.972 186.683 157.269 186.611C157.515 186.552 157.748 186.441 157.955 186.292C158.142 186.152 158.29 185.973 158.392 185.761C158.498 185.527 158.553 185.276 158.544 185.017C158.549 184.809 158.511 184.605 158.438 184.409L158.443 184.405ZM161.231 185.387C161.117 185.259 161.062 185.093 161.079 184.923V182.326H162.384V181.221H161.079V180.073H160.142L159.718 181.212L158.913 181.705V182.326H159.617V184.923C159.608 185.217 159.651 185.51 159.744 185.786C159.816 185.995 159.935 186.182 160.091 186.335C160.24 186.471 160.418 186.569 160.617 186.62C160.829 186.675 161.049 186.705 161.27 186.7C161.494 186.7 161.715 186.679 161.935 186.632C162.113 186.594 162.282 186.535 162.448 186.458V185.366C162.316 185.412 162.185 185.455 162.054 185.485C161.918 185.519 161.782 185.531 161.643 185.531C161.494 185.54 161.35 185.489 161.24 185.387H161.231ZM163.139 186.292C163.177 186.39 163.24 186.479 163.317 186.547C163.393 186.615 163.486 186.666 163.588 186.692C163.694 186.722 163.808 186.739 163.918 186.739C164.029 186.739 164.135 186.726 164.236 186.692C164.44 186.632 164.605 186.484 164.686 186.288C164.732 186.169 164.758 186.046 164.753 185.918C164.753 185.786 164.732 185.659 164.686 185.536C164.647 185.438 164.584 185.349 164.503 185.28C164.427 185.217 164.334 185.17 164.236 185.14C164.13 185.11 164.024 185.098 163.918 185.098C163.808 185.098 163.694 185.11 163.588 185.14C163.49 185.166 163.397 185.217 163.317 185.28C163.236 185.349 163.177 185.438 163.139 185.536C163.092 185.659 163.071 185.786 163.075 185.918C163.075 186.046 163.096 186.173 163.143 186.292H163.139Z" fill="white"/>
<path d="M189.72 100.513H167.567L154.997 62.2235L164.779 72.7407L180.35 90.081L179.689 82.3907L184.397 87.3688L197.73 100.509H189.716L189.72 100.513ZM119.253 62.2235H101.211L98.8291 34.1917L106.025 41.8947L115.807 51.6552L98.969 0L114.756 17.0937L155.001 62.2192H119.257L119.253 62.2235Z" fill="white"/>
<path d="M0 83.8787V126.717H7.7897V111.927C9.12471 113.254 10.6971 114.325 12.4177 115.082C14.0155 115.732 15.7235 116.064 17.4484 116.047C21.4916 116.047 24.9881 114.474 27.9421 111.332C30.8918 108.191 32.3709 104.284 32.3709 99.612C32.3709 94.77 30.9427 90.7995 28.0862 87.7047C25.4585 84.7119 21.6569 83.0157 17.6815 83.0625C15.8634 83.0497 14.0621 83.4153 12.3923 84.1295C10.6716 84.8904 9.10776 85.9787 7.79394 87.3306V83.8702H0V83.8787ZM22.1358 92.9165C23.7463 94.6382 24.5515 96.8403 24.5515 99.5313C24.5515 102.239 23.7336 104.471 22.0934 106.218C20.5465 107.927 18.3427 108.884 16.0414 108.841C13.7189 108.905 11.4769 107.965 9.89182 106.261C8.26437 104.543 7.44641 102.29 7.45065 99.5015C7.45065 96.7723 8.26437 94.5617 9.89182 92.8698C11.4938 91.1906 13.7273 90.2681 16.0414 90.3319C18.3469 90.2723 20.5677 91.2118 22.1358 92.9123V92.9165Z" fill="white"/>
<path d="M64.0383 100.339C64.0383 95.1483 62.4956 90.9738 59.4102 87.8152C56.3248 84.6524 52.3198 83.0752 47.3951 83.0752C42.7586 83.0752 38.9019 84.6566 35.825 87.8152C32.7481 90.978 31.2139 94.9485 31.2139 99.7353C31.2139 104.522 32.7565 108.293 35.8419 111.396C38.9273 114.499 42.9238 116.051 47.8274 116.051C50.989 116.051 53.7226 115.49 56.0197 114.363C58.4058 113.165 60.4443 111.375 61.9404 109.16L55.3289 106.048C53.3285 108.059 50.5991 109.173 47.768 109.134C45.3142 109.134 43.2968 108.476 41.716 107.162C40.1182 105.814 39.0756 103.918 38.8001 101.844H64.0128L64.0425 100.343L64.0383 100.339ZM39.1434 95.6415C40.025 93.703 40.987 92.3469 42.0211 91.5774C43.6867 90.3446 45.7083 89.6942 47.7808 89.7324C49.6794 89.6984 51.5442 90.2723 53.0954 91.3734C54.5745 92.4021 55.6552 93.907 56.1638 95.6415H39.1434Z" fill="white"/>
<path d="M87.1361 87.3392C85.7417 85.9661 84.1101 84.8566 82.3216 84.0659C80.7026 83.3984 78.9692 83.0626 77.2188 83.0711C73.485 83.0201 69.8953 84.4995 67.2719 87.1649C64.2035 90.1832 62.6736 94.1792 62.6736 99.1573C62.6736 103.808 64.1188 107.651 67.0134 110.686C69.7512 113.658 73.6207 115.312 77.6511 115.239C79.41 115.269 81.1561 114.959 82.7962 114.33C84.4322 113.641 85.907 112.629 87.1361 111.345C87.1361 113.883 86.8733 115.669 86.3478 116.706C85.7375 117.824 84.7839 118.712 83.6312 119.244C82.347 119.894 80.6517 120.222 78.5454 120.222C77.0875 120.251 75.638 120.022 74.2606 119.546C73.1206 119.137 72.1034 118.449 71.2982 117.543H62.6396C63.2711 119.58 64.3646 121.442 65.831 122.981C67.3143 124.498 69.124 125.659 71.1202 126.369C73.2096 127.138 75.7864 127.521 78.8548 127.521C84.6059 127.521 88.9076 125.829 91.7599 122.449C93.8874 119.949 94.9512 116.051 94.9512 110.746V83.8788H87.1319V87.3392H87.1361ZM85.1526 92.8699C86.7419 94.5023 87.5387 96.6279 87.5387 99.2423C87.5387 101.857 86.7462 104.038 85.1654 105.67C83.593 107.302 81.4061 108.191 79.143 108.119C76.8162 108.187 74.5658 107.277 72.9341 105.61C71.2855 103.94 70.4633 101.797 70.4633 99.1828C70.3912 96.8532 71.2643 94.5916 72.879 92.9124C74.481 91.2545 76.7018 90.349 79.0031 90.417C81.5121 90.417 83.5633 91.2332 85.1569 92.8657L85.1526 92.8699Z" fill="white"/>
<path d="M98.2442 115.243H106.093V102.66C106.093 99.3992 106.208 97.2779 106.437 96.2959C106.767 94.6167 107.589 93.0778 108.801 91.8747C109.899 90.8247 111.37 90.2508 112.887 90.2763C113.993 90.2381 115.082 90.5782 115.968 91.2413C116.845 91.9555 117.46 92.9418 117.718 94.0471C118.053 95.2756 118.219 97.7625 118.219 101.504V115.239H125.979V94.5147C125.979 90.9012 125.072 88.172 123.253 86.3271C121.185 84.193 118.325 83.0154 115.358 83.0707C113.836 83.0707 112.332 83.3725 110.925 83.9549C109.162 84.7456 107.53 85.8042 106.089 87.0923V83.8784H98.24V115.243H98.2442Z" fill="white"/>
<path d="M128.95 115.243H136.799V71.7715H128.95V115.243Z" fill="white"/>
</svg>
