<svg width="156" height="100" viewBox="0 0 156 100" fill="none" xmlns="http://www.w3.org/2000/svg">
<path d="M131.871 78.8684L121.94 48.8453L129.677 57.0439L141.917 70.6697L141.34 64.6651L145.035 68.5912L155.543 78.8684H131.871ZM79.5613 48.8453L77.7137 26.9053L83.3719 32.9099L91.1086 40.5312L77.8292 0L90.3003 13.3949L121.94 48.8453H79.5613Z" fill="white"/>
<path d="M0 65.8199V99.4226H6.12009V87.8753C7.15935 88.9145 8.42956 89.7229 9.81524 90.3002C11.0855 90.7621 12.4711 91.1085 13.7413 91.1085C16.9746 91.1085 19.6305 89.8383 21.94 87.4134C24.2494 84.9884 25.4042 81.8707 25.4042 78.1755C25.4042 74.3649 24.2494 71.2471 22.0554 68.8222C19.9769 66.5127 16.9746 65.127 13.8568 65.127C12.4711 65.127 10.97 65.358 9.69977 65.9353C8.31409 66.5127 7.15935 67.4365 6.12009 68.4757V65.7044H0V65.8199ZM17.4365 72.9792C18.7067 74.3649 19.2841 76.097 19.2841 78.1755C19.2841 80.254 18.5912 82.1016 17.321 83.3718C16.0508 84.7575 14.3187 85.4503 12.5866 85.4503C10.739 85.4503 9.00693 84.7575 7.73672 83.3718C6.46651 81.9861 5.77367 80.254 5.77367 78.06C5.77367 75.866 6.46651 74.1339 7.73672 72.8637C9.00693 71.5935 10.739 70.7852 12.5866 70.9007C14.4342 70.9007 16.1663 71.5935 17.4365 72.9792Z" fill="white"/>
<path d="M50.3465 78.7529C50.3465 74.7113 49.0763 71.3626 46.6514 68.9376C44.2264 66.5127 41.1086 65.2425 37.1825 65.2425C33.4874 65.2425 30.4851 66.5127 28.0601 68.9376C25.6352 71.3626 24.4805 74.4804 24.4805 78.291C24.4805 81.9861 25.7507 84.9885 28.1756 87.4134C30.6006 89.8383 33.7183 91.1085 37.6444 91.1085C40.1849 91.1085 42.2634 90.6467 44.111 89.8383C45.9585 88.9146 47.5752 87.5289 48.7299 85.7968L43.5336 83.3718C41.917 84.9885 39.8384 85.7968 37.529 85.7968C35.5659 85.7968 34.0648 85.3349 32.7946 84.2956C31.5243 83.2564 30.716 81.7552 30.4851 80.1386H50.3465V78.7529ZM30.716 75.0577C31.4089 73.5566 32.2172 72.5173 33.0255 71.8245C34.2957 70.9007 35.9123 70.3233 37.529 70.3233C39.0301 70.3233 40.5313 70.7852 41.686 71.5935C42.8407 72.4018 43.6491 73.5566 44.111 74.9423H30.716V75.0577Z" fill="white"/>
<path d="M68.4758 68.5912C67.321 67.552 66.0508 66.6282 64.6652 66.0508C63.3949 65.4734 62.0093 65.2425 60.6236 65.2425C57.7367 65.2425 54.8499 66.3972 52.7714 68.4758C50.3464 70.7852 49.1917 74.0185 49.1917 77.8291C49.1917 81.5243 50.3464 84.5266 52.6559 86.836C54.8499 89.1455 57.8522 90.4157 60.97 90.4157C62.3557 90.4157 63.7414 90.1848 65.0116 89.7229C66.2818 89.1455 67.4365 88.3372 68.4758 87.4134C68.4758 89.3764 68.2448 90.7621 67.8984 91.5704C67.4365 92.4942 66.6282 93.1871 65.7044 93.5335C64.6652 93.9954 63.3949 94.3418 61.6628 94.3418C60.5081 94.3418 59.3534 94.2263 58.3141 93.7644C57.3903 93.418 56.582 92.9561 56.0046 92.1478H49.1917C49.6536 93.7644 50.5774 95.1501 51.7321 96.4203C52.8869 97.5751 54.2725 98.4988 55.8892 99.0762C57.5058 99.6536 59.5843 100 62.0093 100C66.5127 100 69.8615 98.7298 72.1709 96.0739C73.7876 94.1109 74.7113 91.1085 74.7113 86.836V65.8199H68.5913V68.5912H68.4758ZM66.9746 72.8637C68.2448 74.1339 68.8222 75.8661 68.8222 77.8291C68.8222 79.9076 68.2448 81.6397 66.9746 82.9099C65.7044 84.1801 63.9723 84.873 62.2402 84.873C60.3926 84.873 58.6605 84.1801 57.3903 82.9099C56.1201 81.6397 55.4273 79.9076 55.4273 77.8291C55.4273 75.9815 56.0046 74.2494 57.2749 72.8637C58.5451 71.5935 60.2772 70.9007 62.1247 70.9007C64.0878 71.0162 65.7044 71.5935 66.9746 72.8637Z" fill="white"/>
<path d="M77.2518 90.4157H83.3719V80.6004C83.3719 78.06 83.4873 76.3279 83.6028 75.6351C83.8338 74.3649 84.5266 73.0946 85.4504 72.1709C86.2587 71.3625 87.4134 70.9007 88.6836 70.9007C89.6074 70.9007 90.4157 71.1316 91.1086 71.709C91.8014 72.2863 92.2633 73.0946 92.4943 73.903C92.7252 74.8267 92.8407 76.7898 92.8407 79.7921V90.5311H98.9608V74.2494C98.9608 71.3625 98.2679 69.284 96.7668 67.7829C95.2656 66.0508 93.0716 65.127 90.7622 65.2425C89.6074 65.2425 88.3372 65.4734 87.298 65.9353C85.9123 66.5127 84.6421 67.4365 83.4873 68.3602V65.8198H77.3672V90.4157H77.2518Z" fill="white"/>
<path d="M107.506 56.3511H101.386V90.4157H107.506V56.3511Z" fill="white"/>
</svg>
