<svg width="48" height="48" viewBox="0 0 48 48" fill="none" xmlns="http://www.w3.org/2000/svg">
<g clip-path="url(#clip0_88_369)">
<path d="M41.7426 33.6042C40.5831 32.2489 39.0385 31.2843 37.333 30.8357V4.71277C37.333 2.11414 35.2185 0 32.6191 0H14.8583C14.1848 0 13.5286 0.159302 12.9382 0.454468C12.9353 0.455933 12.9324 0.456665 12.9294 0.45813C12.9265 0.459595 12.9232 0.461792 12.9199 0.463257C12.8837 0.481567 12.8478 0.501343 12.8119 0.520752C12.7844 0.535767 12.7566 0.550415 12.7295 0.565796C12.6973 0.584106 12.6658 0.603149 12.6343 0.622559C12.6031 0.641235 12.5724 0.659912 12.542 0.679321C12.5142 0.697266 12.4867 0.715576 12.4589 0.734253C12.4255 0.756592 12.3922 0.779663 12.3596 0.803101C12.3347 0.820679 12.3102 0.838623 12.286 0.856567C12.2512 0.882568 12.2172 0.908935 12.1835 0.936035C12.1611 0.953979 12.1388 0.971558 12.1168 0.989868C12.0824 1.01843 12.0483 1.0481 12.0146 1.07776C11.9938 1.09607 11.9733 1.11401 11.9528 1.13269C11.9187 1.16382 11.8854 1.19641 11.8524 1.22864C11.8334 1.24731 11.814 1.26562 11.7953 1.28467C11.7557 1.32495 11.7173 1.36633 11.6792 1.40845C11.6689 1.4198 11.6583 1.43042 11.6481 1.44177L8.82861 4.61353L5.30383 8.57849C5.26135 8.6261 5.2207 8.67444 5.18042 8.72388C5.16833 8.73889 5.15698 8.75427 5.1449 8.76929C5.1189 8.80261 5.09253 8.83557 5.06763 8.86963C5.04749 8.89636 5.02844 8.92383 5.00903 8.95093C4.99365 8.97327 4.97754 8.99524 4.96216 9.01758C4.93835 9.05273 4.91565 9.08826 4.89294 9.12378C4.88379 9.13843 4.87427 9.15271 4.86511 9.16736C4.83875 9.20984 4.81384 9.25232 4.78894 9.29553C4.78455 9.30322 4.78015 9.31091 4.77576 9.3186C4.74792 9.36768 4.72119 9.41748 4.69519 9.46802C4.69446 9.46875 4.69409 9.46948 4.69373 9.47058C4.38428 10.0726 4.21875 10.7435 4.21875 11.4316V40.571C4.21875 43.1704 6.33325 45.2849 8.93262 45.2849H28.7856C30.4292 47.0156 32.7092 48 35.1094 48C39.921 48 43.8354 44.0856 43.8354 39.2739C43.8354 37.1949 43.092 35.1815 41.7426 33.6042ZM12.4131 3.4032V8.65466C12.4131 8.96521 12.1604 9.2179 11.8499 9.2179H7.24438L10.0693 6.03955L12.4131 3.4032ZM8.93225 43.4099C7.36707 43.4099 6.09375 42.1366 6.09375 40.5714V11.432C6.09375 11.3177 6.104 11.2046 6.12012 11.0929H11.8499C13.1942 11.0929 14.2881 9.99902 14.2881 8.65466V1.94421C14.4734 1.89917 14.6646 1.875 14.8583 1.875H32.6191C34.1847 1.875 35.458 3.14795 35.458 4.71277V30.5544C35.3419 30.55 35.2255 30.5475 35.1094 30.5475C30.2977 30.5475 26.3829 34.4623 26.3829 39.2739C26.3829 39.39 26.3862 39.5057 26.391 39.6215C26.3921 39.653 26.3936 39.6841 26.3954 39.7152C26.4001 39.8134 26.4067 39.9111 26.4148 40.0085C26.4166 40.028 26.4177 40.0474 26.4196 40.0664C26.4298 40.1803 26.4426 40.2935 26.4576 40.4062C26.4613 40.4352 26.4657 40.4641 26.4697 40.493C26.4825 40.5842 26.4968 40.6747 26.5126 40.7655C26.5173 40.7926 26.5217 40.8201 26.5265 40.8475C26.547 40.9589 26.5693 41.0691 26.5939 41.1793C26.5994 41.2031 26.6052 41.2269 26.6107 41.2507C26.632 41.3408 26.6543 41.4305 26.6781 41.5195C26.6862 41.5503 26.6942 41.5811 26.7026 41.6118C26.733 41.7206 26.7645 41.8286 26.799 41.9359C26.803 41.948 26.8074 41.9597 26.811 41.9718C26.8425 42.0685 26.8762 42.1648 26.911 42.2604C26.9224 42.2915 26.9341 42.323 26.9458 42.3541C26.9802 42.4453 27.0161 42.5358 27.0535 42.6259C27.0601 42.642 27.0663 42.6584 27.0732 42.6746C27.1168 42.7775 27.1626 42.8793 27.2102 42.9807C27.2241 43.01 27.2384 43.0393 27.2527 43.0686C27.2915 43.1488 27.3314 43.2286 27.3724 43.3077C27.3856 43.3326 27.3981 43.3575 27.4113 43.3824C27.4164 43.3916 27.4208 43.4011 27.4255 43.4099H8.93225ZM35.1094 46.125C33.1095 46.125 31.2155 45.2545 29.9117 43.7362C28.8453 42.4966 28.2579 40.9116 28.2579 39.2739C28.2579 35.4961 31.3315 32.4225 35.1094 32.4225C35.4891 32.4225 35.8696 32.454 36.2421 32.5166C39.5555 33.0667 41.9604 35.9084 41.9604 39.2739C41.9604 43.0514 38.8872 46.125 35.1094 46.125Z" fill="url(#paint0_linear_88_369)"/>
<path d="M13.6721 16.2378H28.5352C29.053 16.2378 29.4727 15.8181 29.4727 15.3003C29.4727 14.7825 29.053 14.3628 28.5352 14.3628H13.6721C13.1543 14.3628 12.7346 14.7825 12.7346 15.3003C12.7346 15.8181 13.1543 16.2378 13.6721 16.2378Z" fill="url(#paint1_linear_88_369)"/>
<path d="M29.3146 21.6749C29.2809 21.6243 29.2417 21.5756 29.1985 21.5324C29.1545 21.4892 29.1066 21.45 29.056 21.4163C29.0044 21.3823 28.9502 21.3533 28.8938 21.3299C28.8374 21.3065 28.7784 21.2885 28.7184 21.2764C28.5975 21.2523 28.473 21.2523 28.3518 21.2764C28.2917 21.2885 28.2328 21.3065 28.1768 21.3299C28.1204 21.3533 28.0658 21.3823 28.0145 21.4163C27.9636 21.45 27.9149 21.4892 27.8721 21.5324C27.8289 21.5756 27.7893 21.6243 27.7556 21.6749C27.7219 21.7265 27.693 21.7807 27.6696 21.8371C27.6461 21.8935 27.6282 21.9525 27.6161 22.0125C27.6036 22.0733 27.5981 22.1345 27.5981 22.1953C27.5981 22.2571 27.6036 22.3179 27.6161 22.3791C27.6282 22.4391 27.6461 22.4981 27.6696 22.5541C27.693 22.6105 27.7219 22.6651 27.7556 22.7164C27.7893 22.7673 27.8289 22.8149 27.8721 22.8588C28.0464 23.0335 28.2881 23.1339 28.5345 23.1339C28.5964 23.1339 28.6576 23.1273 28.7184 23.1148C28.7784 23.1027 28.8374 23.0848 28.8938 23.0613C28.9502 23.0379 29.0044 23.009 29.056 22.9753C29.1066 22.9405 29.1545 22.902 29.1985 22.8588C29.2417 22.8149 29.2802 22.7673 29.3146 22.7164C29.3486 22.6651 29.3776 22.6105 29.401 22.5541C29.4244 22.4981 29.4424 22.4391 29.4545 22.3791C29.4666 22.3179 29.472 22.2571 29.472 22.1953C29.472 22.1345 29.4666 22.0733 29.4545 22.0125C29.4424 21.9525 29.4244 21.8935 29.401 21.8371C29.3776 21.7807 29.3486 21.7265 29.3146 21.6749Z" fill="url(#paint2_linear_88_369)"/>
<path d="M13.6721 23.1331H24.7852C25.303 23.1331 25.7227 22.7134 25.7227 22.1956C25.7227 21.6777 25.303 21.2581 24.7852 21.2581H13.6721C13.1543 21.2581 12.7346 21.6777 12.7346 22.1956C12.7346 22.7134 13.1543 23.1331 13.6721 23.1331Z" fill="url(#paint3_linear_88_369)"/>
<path d="M13.6721 30.0288H28.5352C29.053 30.0288 29.4727 29.6088 29.4727 29.0913C29.4727 28.5735 29.053 28.1538 28.5352 28.1538H13.6721C13.1543 28.1538 12.7346 28.5735 12.7346 29.0913C12.7346 29.6088 13.1543 30.0288 13.6721 30.0288Z" fill="url(#paint4_linear_88_369)"/>
<path d="M24.3904 35.0493H13.6721C13.1543 35.0493 12.7346 35.469 12.7346 35.9868C12.7346 36.5046 13.1543 36.9243 13.6721 36.9243H24.3904C24.9082 36.9243 25.3279 36.5046 25.3279 35.9868C25.3279 35.469 24.9082 35.0493 24.3904 35.0493Z" fill="url(#paint5_linear_88_369)"/>
<path d="M38.0707 35.3441C36.3736 37.1474 35.0758 39.8994 34.4408 41.4145L31.5422 39.5563C31.1064 39.2769 30.5263 39.404 30.2469 39.8397C29.9675 40.2755 30.0946 40.8552 30.5304 41.1347L34.3888 43.6084C34.5418 43.7062 34.7176 43.7564 34.8949 43.7564C34.9967 43.7564 35.0989 43.7399 35.1977 43.7062C35.468 43.6139 35.6815 43.4033 35.7778 43.1342C35.7928 43.0921 37.3086 38.8898 39.4363 36.6292C39.7911 36.2523 39.7728 35.6591 39.396 35.3039C39.0188 34.9494 38.4255 34.9673 38.0707 35.3441Z" fill="url(#paint6_linear_88_369)"/>
</g>
<defs>
<linearGradient id="paint0_linear_88_369" x1="24.0271" y1="0" x2="24.0271" y2="48" gradientUnits="userSpaceOnUse">
<stop stop-color="#BFB61F"/>
<stop offset="1" stop-color="#107DA0"/>
</linearGradient>
<linearGradient id="paint1_linear_88_369" x1="21.1036" y1="14.3628" x2="21.1036" y2="16.2378" gradientUnits="userSpaceOnUse">
<stop stop-color="#BFB61F"/>
<stop offset="1" stop-color="#107DA0"/>
</linearGradient>
<linearGradient id="paint2_linear_88_369" x1="28.5351" y1="21.2583" x2="28.5351" y2="23.1339" gradientUnits="userSpaceOnUse">
<stop stop-color="#BFB61F"/>
<stop offset="1" stop-color="#107DA0"/>
</linearGradient>
<linearGradient id="paint3_linear_88_369" x1="19.2286" y1="21.2581" x2="19.2286" y2="23.1331" gradientUnits="userSpaceOnUse">
<stop stop-color="#BFB61F"/>
<stop offset="1" stop-color="#107DA0"/>
</linearGradient>
<linearGradient id="paint4_linear_88_369" x1="21.1036" y1="28.1538" x2="21.1036" y2="30.0288" gradientUnits="userSpaceOnUse">
<stop stop-color="#BFB61F"/>
<stop offset="1" stop-color="#107DA0"/>
</linearGradient>
<linearGradient id="paint5_linear_88_369" x1="19.0312" y1="35.0493" x2="19.0312" y2="36.9243" gradientUnits="userSpaceOnUse">
<stop stop-color="#BFB61F"/>
<stop offset="1" stop-color="#107DA0"/>
</linearGradient>
<linearGradient id="paint6_linear_88_369" x1="34.8948" y1="35.0493" x2="34.8948" y2="43.7564" gradientUnits="userSpaceOnUse">
<stop stop-color="#BFB61F"/>
<stop offset="1" stop-color="#107DA0"/>
</linearGradient>
<clipPath id="clip0_88_369">
<rect width="48" height="48" fill="white"/>
</clipPath>
</defs>
</svg>
