<svg width="16" height="16" viewBox="0 0 16 16" fill="none" xmlns="http://www.w3.org/2000/svg">
<g clip-path="url(#clip0_134_1443)">
<path d="M8 0C7.7928 0 7.59409 0.0823097 7.44757 0.228823C7.30106 0.375336 7.21875 0.57405 7.21875 0.78125V15.2188C7.21875 15.426 7.30106 15.6247 7.44757 15.7712C7.59409 15.9177 7.7928 16 8 16C8.2072 16 8.40591 15.9177 8.55243 15.7712C8.69894 15.6247 8.78125 15.426 8.78125 15.2188V0.78125C8.78125 0.57405 8.69894 0.375336 8.55243 0.228823C8.40591 0.0823097 8.2072 0 8 0Z" fill="#007299"/>
<path d="M15.2188 7.21875H0.78125C0.57405 7.21875 0.375336 7.30106 0.228823 7.44757C0.08231 7.59409 0 7.7928 0 8C0 8.2072 0.08231 8.40591 0.228823 8.55243C0.375336 8.69894 0.57405 8.78125 0.78125 8.78125H15.2188C15.426 8.78125 15.6247 8.69894 15.7712 8.55243C15.9177 8.40591 16 8.2072 16 8C16 7.7928 15.9177 7.59409 15.7712 7.44757C15.6247 7.30106 15.426 7.21875 15.2188 7.21875Z" fill="#007299"/>
</g>
<defs>
<clipPath id="clip0_134_1443">
<rect width="16" height="16" fill="white" transform="matrix(1 0 0 -1 0 16)"/>
</clipPath>
</defs>
</svg>
