<svg width="15" height="13" viewBox="0 0 15 13" fill="none" xmlns="http://www.w3.org/2000/svg">
<path d="M13 3.575H12.675V3.25C12.675 2.81902 12.5038 2.4057 12.199 2.10095C11.8943 1.7962 11.481 1.625 11.05 1.625H6.175C6.175 1.19402 6.0038 0.780698 5.69905 0.475951C5.3943 0.171205 4.98098 0 4.55 0H1.625C1.19402 0 0.780698 0.171205 0.475951 0.475951C0.171205 0.780698 0 1.19402 0 1.625V11.5375C0.000858509 11.9251 0.155218 12.2966 0.429305 12.5707C0.703391 12.8448 1.07488 12.9991 1.4625 13H13C13.431 13 13.8443 12.8288 14.149 12.524C14.4538 12.2193 14.625 11.806 14.625 11.375V5.2C14.625 4.76902 14.4538 4.3557 14.149 4.05095C13.8443 3.7462 13.431 3.575 13 3.575ZM2.275 11.5375C2.275 11.753 2.1894 11.9597 2.03702 12.112C1.88465 12.2644 1.67799 12.35 1.4625 12.35C1.24701 12.35 1.04035 12.2644 0.887976 12.112C0.735602 11.9597 0.65 11.753 0.65 11.5375V1.625C0.65 1.36641 0.752723 1.11842 0.935571 0.935571C1.11842 0.752723 1.36641 0.65 1.625 0.65H4.55C4.80859 0.65 5.05658 0.752723 5.23943 0.935571C5.42228 1.11842 5.525 1.36641 5.525 1.625H3.575C3.4888 1.625 3.40614 1.65924 3.34519 1.72019C3.28424 1.78114 3.25 1.8638 3.25 1.95C3.25 2.0362 3.28424 2.11886 3.34519 2.17981C3.40614 2.24076 3.4888 2.275 3.575 2.275H11.05C11.3086 2.275 11.5566 2.37772 11.7394 2.56057C11.9223 2.74342 12.025 2.99141 12.025 3.25V3.575H3.9C3.46902 3.575 3.0557 3.7462 2.75095 4.05095C2.4462 4.3557 2.275 4.76902 2.275 5.2V11.5375ZM13.975 11.375C13.975 11.6336 13.8723 11.8816 13.6894 12.0644C13.5066 12.2473 13.2586 12.35 13 12.35H2.678C2.83906 12.1096 2.92504 11.8268 2.925 11.5375V5.2C2.925 4.94141 3.02772 4.69342 3.21057 4.51057C3.39342 4.32772 3.64141 4.225 3.9 4.225H13C13.2586 4.225 13.5066 4.32772 13.6894 4.51057C13.8723 4.69342 13.975 4.94141 13.975 5.2V11.375Z" fill="#007299"/>
</svg>
