<svg width="17" height="17" viewBox="0 0 17 17" fill="none" xmlns="http://www.w3.org/2000/svg">
<g clip-path="url(#clip0_147_4925)">
<path d="M16.8876 8.22764L13.0241 4.36406C12.8853 4.202 12.6414 4.18311 12.4793 4.32193C12.3173 4.46071 12.2984 4.70462 12.4372 4.86668C12.4502 4.88179 12.4642 4.8959 12.4793 4.90881L15.6822 8.11558H0.386345C0.172985 8.11558 0 8.28857 0 8.50196C0 8.71535 0.172985 8.8883 0.386345 8.8883H15.6822L12.4793 12.0912C12.3173 12.23 12.2984 12.4739 12.4372 12.6359C12.576 12.798 12.8199 12.8169 12.982 12.6781C12.9971 12.6651 13.0112 12.651 13.0241 12.6359L16.8877 8.77236C17.0375 8.62172 17.0375 8.37835 16.8876 8.22764Z" fill="black"/>
</g>
<defs>
<clipPath id="clip0_147_4925">
<rect width="17" height="17" fill="white"/>
</clipPath>
</defs>
</svg>
