<svg width="20" height="20" viewBox="0 0 20 20" fill="none" xmlns="http://www.w3.org/2000/svg">
<g clip-path="url(#clip0_88_300)">
<path d="M19.8678 9.67938L15.3225 5.13399C15.1592 4.94333 14.8722 4.9211 14.6816 5.08442C14.4909 5.2477 14.4687 5.53464 14.632 5.7253C14.6472 5.74308 14.6638 5.75968 14.6816 5.77487L18.4497 9.54754H0.454523C0.203512 9.54754 0 9.75105 0 10.0021C0 10.2532 0.203512 10.4566 0.454523 10.4566H18.4497L14.6816 14.2247C14.4909 14.388 14.4687 14.675 14.632 14.8656C14.7953 15.0563 15.0822 15.0785 15.2729 14.9152C15.2907 14.8999 15.3073 14.8834 15.3225 14.8656L19.8679 10.3202C20.0441 10.143 20.0441 9.85668 19.8678 9.67938Z" fill="#34515A"/>
</g>
<defs>
<clipPath id="clip0_88_300">
<rect width="20" height="20" fill="white"/>
</clipPath>
</defs>
</svg>
