<svg width="164" height="1081" viewBox="0 0 164 1081" fill="none" xmlns="http://www.w3.org/2000/svg">
<path d="M235.018 61.9734C239.983 49.6759 243.265 38.5772 245.425 28.8299C242.404 138.235 243.453 246.679 248.574 354.165C260.256 599.021 293.035 838.898 346.944 1073.79C298.609 1006.79 235.625 961.787 186.062 932.728L186.062 932.728C160.446 917.713 134.3 904.549 110.089 892.359C108.479 891.548 106.877 890.741 105.284 889.939C79.7186 877.057 56.5861 865.238 38.722 853.365C20.8066 841.459 8.49774 829.691 4.18086 817.034C-0.0679831 804.577 3.30388 790.813 17.9451 774.479L17.9453 774.479C29.8118 761.236 45.6689 750.111 60.9163 739.414C64.8768 736.635 68.7962 733.886 72.5939 731.135C81.7526 724.502 90.1972 717.862 96.6382 710.839C103.082 703.813 107.619 696.3 108.79 687.911C110.14 678.241 106.478 671.272 100.537 665.805C94.8494 660.571 86.9944 656.642 79.4671 652.878L78.8447 652.566C71.0108 648.646 63.6251 644.877 58.7464 639.944C56.3355 637.506 54.5859 634.828 53.7007 631.756C52.8172 628.69 52.7642 625.127 53.9082 620.868C56.197 612.353 62.2332 604.936 70.4632 597.962C78.6915 590.988 88.9462 584.59 99.4785 578.041L99.8161 577.831C110.198 571.374 120.821 564.769 129.765 557.397C138.807 549.945 146.264 541.607 150.043 531.681L150.043 531.681C154.057 521.125 152.304 512.977 147.803 506.125C143.879 500.15 137.853 495.163 132.09 490.393C131.389 489.813 130.692 489.236 130.003 488.661C123.526 483.254 117.764 478.011 115.18 471.595C112.664 465.349 113.064 457.694 119.725 447.194C125.561 437.999 133.236 431.304 142.035 424.709C144.651 422.748 147.377 420.79 150.181 418.775C156.754 414.052 163.758 409.019 170.786 402.926C193.296 383.409 199.358 367.52 195.481 353.054C193.572 345.928 189.289 339.34 183.753 333.006C178.217 326.671 171.345 320.498 164.161 314.234C163.014 313.234 161.859 312.231 160.7 311.225C147.263 299.559 133.258 287.401 124.368 272.812C114.795 257.102 111.159 238.569 121.01 214.732C130.267 192.335 147.032 175.836 165.92 157.248C168.395 154.812 170.907 152.34 173.443 149.814C195.272 128.074 218.636 102.556 235.018 61.9734Z" stroke="#BFB61F" stroke-width="3"/>
</svg>
