<svg width="48" height="38" viewBox="0 0 48 38" fill="none" xmlns="http://www.w3.org/2000/svg">
<path d="M44.5057 0H3.49432C1.56853 0 0 1.40895 0 3.13883V26.8782C0 28.6097 1.56853 30.0178 3.49432 30.0178H23.0886V36.3626H16.8227C16.3196 36.3626 15.9113 36.7294 15.9113 37.1813C15.9113 37.6349 16.3196 38 16.8227 38H31.0634C31.5665 38 31.9748 37.6349 31.9748 37.1813C31.9748 36.7294 31.5665 36.3626 31.0634 36.3626H24.9114V30.0178H44.5057C46.4315 30.0178 48 28.6097 48 26.8782V3.13883C48 1.40895 46.4315 0 44.5057 0ZM46.1772 26.879C46.1772 27.7075 45.428 28.3813 44.5057 28.3813H3.49432C2.57198 28.3813 1.82281 27.7067 1.82281 26.879V3.13883C1.82281 2.31032 2.57198 1.63655 3.49432 1.63655H44.5057C45.428 1.63655 46.1772 2.31032 46.1772 3.13883V26.879Z" fill="url(#paint0_linear_88_274)"/>
<defs>
<linearGradient id="paint0_linear_88_274" x1="24" y1="0" x2="24" y2="38" gradientUnits="userSpaceOnUse">
<stop stop-color="#BFB61F"/>
<stop offset="0.979167" stop-color="#107DA0"/>
</linearGradient>
</defs>
</svg>
