<svg width="13" height="13" viewBox="0 0 13 13" fill="none" xmlns="http://www.w3.org/2000/svg">
<g clip-path="url(#clip0_88_475)">
<path d="M12.8769 12.2927L9.52051 8.98999C10.3994 8.03506 10.9395 6.77215 10.9395 5.38244C10.9391 2.40961 8.49042 0 5.46965 0C2.44888 0 0.000244141 2.40961 0.000244141 5.38244C0.000244141 8.35527 2.44888 10.7649 5.46965 10.7649C6.77483 10.7649 7.97192 10.3134 8.91222 9.56292L12.2816 12.8787C12.4458 13.0404 12.7123 13.0404 12.8765 12.8787C13.0411 12.717 13.0411 12.4545 12.8769 12.2927ZM5.46965 9.93676C2.91375 9.93676 0.841789 7.89773 0.841789 5.38244C0.841789 2.86715 2.91375 0.82812 5.46965 0.82812C8.02557 0.82812 10.0975 2.86715 10.0975 5.38244C10.0975 7.89773 8.02557 9.93676 5.46965 9.93676Z" fill="#007299"/>
</g>
<defs>
<clipPath id="clip0_88_475">
<rect width="13" height="13" fill="white"/>
</clipPath>
</defs>
</svg>
