<svg width="36" height="45" viewBox="0 0 36 45" fill="none" xmlns="http://www.w3.org/2000/svg">
<path fill-rule="evenodd" clip-rule="evenodd" d="M17.7886 45C17.7221 45 17.6858 45 17.6193 44.9628C6.92316 41.8855 0 34.6906 0 26.7093V9.13698C0 8.815 0.211625 8.56733 0.526039 8.53018C2.69066 8.2082 5.73201 7.27943 8.91243 5.95438C12.6552 4.41262 15.9747 2.51792 17.3714 1.15573C17.6193 0.908053 18.0002 0.908053 18.2118 1.15573C19.6086 2.55508 22.9281 4.41262 26.6345 5.95438C29.8149 7.27943 32.8563 8.24535 35.0209 8.53018C35.3353 8.56733 35.5469 8.85215 35.5469 9.13698V26.7093C35.5469 34.6906 28.6601 41.8483 17.9639 44.9628C17.8974 45 17.8611 45 17.7886 45ZM1.25766 9.67566V26.7093C1.25766 34.0838 7.76361 40.74 17.7886 43.7121C27.8196 40.74 34.3195 34.0838 34.3195 26.7093V9.67566C32.1186 9.27939 29.1861 8.35061 26.181 7.09987C22.6136 5.63241 19.4695 3.88012 17.7886 2.44362C16.1137 3.88012 12.9696 5.63241 9.40219 7.09987C6.36084 8.38777 3.4646 9.27939 1.25766 9.67566Z" fill="url(#paint0_linear_88_361)"/>
<path fill-rule="evenodd" clip-rule="evenodd" d="M17.7886 40.6719C17.7221 40.6719 17.6858 40.6719 17.6193 40.6347C9.02131 38.1642 3.49487 32.3996 3.49487 25.9601V11.9295C3.49487 11.6075 3.7065 11.3598 4.02091 11.3227C5.69577 11.1059 8.1083 10.3567 10.6599 9.27936C13.6347 8.06577 16.2528 6.56116 17.3714 5.48997C17.6193 5.23611 18.0003 5.27326 18.2119 5.48997C19.2942 6.56116 21.9183 8.02862 24.8871 9.27936C27.4387 10.3567 29.8512 11.1059 31.5261 11.3227C31.8405 11.3598 32.0521 11.6446 32.0521 11.9295V25.9601C32.0521 32.3996 26.5318 38.127 17.9337 40.6347C17.8975 40.6719 17.8612 40.6719 17.7886 40.6719ZM4.7223 12.4681V25.9601C4.7223 31.7557 9.85571 37.0187 17.7886 39.384C25.7276 37.0187 30.8247 31.7928 30.8247 25.9601V12.4681C29.1136 12.1462 26.8099 11.4279 24.4336 10.4248C21.5979 9.2484 19.1188 7.88621 17.7886 6.77787C16.4282 7.92336 13.9491 9.27936 11.1134 10.4248C8.73713 11.4279 6.43344 12.1833 4.7223 12.4681Z" fill="url(#paint1_linear_88_361)"/>
<defs>
<linearGradient id="paint0_linear_88_361" x1="17.7735" y1="0.969971" x2="17.7735" y2="45" gradientUnits="userSpaceOnUse">
<stop stop-color="#BFB61F"/>
<stop offset="1" stop-color="#107DA0"/>
</linearGradient>
<linearGradient id="paint1_linear_88_361" x1="17.7735" y1="5.31323" x2="17.7735" y2="40.6719" gradientUnits="userSpaceOnUse">
<stop stop-color="#BFB61F"/>
<stop offset="1" stop-color="#107DA0"/>
</linearGradient>
</defs>
</svg>
