<svg width="20" height="22" viewBox="0 0 20 22" fill="none" xmlns="http://www.w3.org/2000/svg">
<path d="M15.5471 14.7982C14.493 14.7982 13.5434 15.2534 12.8842 15.9775L6.95572 12.3057C7.114 11.9005 7.20178 11.4604 7.20178 11C7.20178 10.5394 7.114 10.0993 6.95572 9.6943L12.8842 6.02233C13.5434 6.74642 14.493 7.20178 15.5471 7.20178C17.5327 7.20178 19.1481 5.58643 19.1481 3.60081C19.1481 1.61519 17.5327 0 15.5471 0C13.5615 0 11.9461 1.61535 11.9461 3.60098C11.9461 4.06138 12.0341 4.50147 12.1922 4.90665L6.26386 8.57846C5.60473 7.85437 4.65505 7.399 3.60098 7.399C1.61535 7.399 0 9.01452 0 11C0 12.9856 1.61535 14.601 3.60098 14.601C4.65505 14.601 5.60473 14.1458 6.26386 13.4215L12.1922 17.0933C12.0341 17.4985 11.9461 17.9386 11.9461 18.3991C11.9461 20.3846 13.5615 22 15.5471 22C17.5327 22 19.1481 20.3846 19.1481 18.3991C19.1481 16.4135 17.5327 14.7982 15.5471 14.7982ZM13.2592 3.60098C13.2592 2.33944 14.2856 1.31306 15.5471 1.31306C16.8086 1.31306 17.835 2.33944 17.835 3.60098C17.835 4.86251 16.8086 5.88889 15.5471 5.88889C14.2856 5.88889 13.2592 4.86251 13.2592 3.60098ZM3.60098 13.2879C2.33927 13.2879 1.31289 12.2615 1.31289 11C1.31289 9.73845 2.33927 8.71206 3.60098 8.71206C4.86251 8.71206 5.88872 9.73845 5.88872 11C5.88872 12.2615 4.86251 13.2879 3.60098 13.2879ZM13.2592 18.399C13.2592 17.1374 14.2856 16.1111 15.5471 16.1111C16.8086 16.1111 17.835 17.1374 17.835 18.399C17.835 19.6605 16.8086 20.6869 15.5471 20.6869C14.2856 20.6869 13.2592 19.6605 13.2592 18.399Z" fill="#007299"/>
</svg>
