<svg width="1440" height="618" viewBox="0 0 1440 618" fill="none" xmlns="http://www.w3.org/2000/svg">
<path d="M1517.68 516.1L1518.76 518.355L1517.68 516.1C1471.21 538.341 1424.91 528.864 1386.15 510.549C1352.11 494.463 1324.19 471.709 1307.41 458.042C1305.07 456.134 1302.95 454.403 1301.06 452.892C1223.45 390.927 1134.34 380.122 1037.79 393.548C955.259 405.025 866.99 434.258 775.527 464.548C760.125 469.648 744.632 474.779 729.061 479.86C512.654 550.476 280.651 611.629 60.7327 453.761C13.705 419.989 -20.7809 384.839 -37.1522 367.329L-4.19356 -302.25L1641.85 -221.227L1626.71 214.655L1626.71 214.682L1617.92 407.959C1597.68 445.148 1564.93 493.497 1517.68 516.1Z" fill="#BFB61F" stroke="#BFB61F" stroke-width="5"/>
<path d="M1614.09 -134.817L-9.75903 -196.927L-31.6151 374.501C-15.4975 389.109 19.4082 419.371 67.048 448.376C506.552 715.867 979.75 235.291 1285.89 442.418C1316.46 463.092 1409.92 534.318 1502.39 495.408C1549.41 475.629 1581.21 433.644 1600.53 401.876L1606.11 237.294L1614.09 -134.817V-134.817Z" fill="#007299"/>
</svg>
