<svg width="461" height="374" viewBox="0 0 461 374" fill="none" xmlns="http://www.w3.org/2000/svg">
<path d="M441.171 0.225918C435.289 13.2322 418.866 24.8254 395.965 36.341C379.191 44.391 359.205 51.6034 338.149 58.4917C317.094 65.38 295.04 71.9346 274.129 78.6689C138.083 118.118 130.907 176.493 99.3695 230.809C92.7212 242.042 82.8578 252.769 71.3483 263.477C45.0616 285.797 -2.32695 306.91 0.653064 330.048C5.21522 355.561 121.987 380.538 209.892 371.211C388.959 352.608 479.075 296.17 456.981 240.268C434.842 188.142 394.782 138.159 392.146 86.3498C391.392 74.5303 393.537 62.7662 399.583 51.0592C405.628 39.3522 415.574 27.6919 430.316 16.0993C437.343 6.08537 441.207 0.226347 441.207 0.226347L441.171 0.225918Z" fill="#007299"/>
</svg>
