<svg width="855" height="661" viewBox="0 0 855 661" fill="none" xmlns="http://www.w3.org/2000/svg">
<path d="M709.547 11.483C714.647 21.6998 716.534 31.0837 715.905 39.7704C715.276 48.457 712.142 56.4368 707.199 63.8548C688.114 90.8348 656.987 107.114 631.466 129.552C605.955 151.109 595.239 185.42 615.649 212.7C621.771 220.951 628.882 228.078 637.048 234.276C643.71 239.97 651.371 244.377 660.043 248.338C670.759 253.47 681.666 258.409 692.484 263.387C791.695 301.562 875.898 390.869 850.14 488.95C847.916 497.607 844.883 506.139 841.019 514.458C837.155 522.776 832.46 530.882 826.91 538.687C820.429 548.013 813.195 556.496 805.309 564.224C734.316 633.727 610.471 641.378 508.733 643.111C497.915 643.228 487.098 643.131 476.325 642.763C433.213 641.291 390.605 635.461 350.29 621.39C321.713 611.715 292.63 605.111 263.323 599.116C253.415 597.073 243.485 595.243 233.6 593.8C223.715 592.347 213.852 591.262 204.091 590.652C192.375 589.916 180.827 589.916 169.684 591.427C122.19 598.516 85.4468 629.757 56.3643 660.988C53.8144 645.59 55.8589 629.757 62.4865 614.795C65.8002 607.096 68.9229 599.349 71.821 591.563C113.002 485.463 92.0744 371.956 98.2751 262.108C98.2751 254.748 98.2751 247.456 98.2751 240.242V16.9739H173.537C181.041 16.9739 188.949 16.9739 197.216 16.9739C219.795 16.848 242.373 16.5381 264.952 16.1798C276.241 16.0055 287.542 15.8118 298.853 15.6278C323.173 14.3398 347.493 13.4489 371.824 12.8582C379.945 12.6645 388.067 12.4999 396.301 12.374C408.095 12.2868 419.879 12.1125 431.674 11.8898C443.468 11.667 455.274 11.3862 467.103 11.0763C545.746 7.68684 624.321 7.68684 703.155 8.52936C707.278 10.1757 709.536 11.483 709.536 11.483H709.547Z" fill="#BFB61F"/>
<path d="M654.244 4.23937C659.344 14.4561 661.231 23.8401 660.602 32.5267C659.973 41.2134 656.839 49.1931 651.897 56.6112C632.812 83.5912 601.685 99.8702 576.163 122.308C550.653 143.865 539.936 178.176 560.347 205.456C566.469 213.707 573.523 220.854 581.195 227.255C588.868 233.666 597.169 239.331 605.785 244.658C703.221 293.001 805.285 383.625 774.416 488.814C771.664 496.987 768.272 504.987 764.295 512.724C740.436 559.169 695.537 596.492 638.765 612.151C630.003 614.756 621.129 617.1 612.232 619.259C603.336 621.419 594.394 623.404 585.486 625.244C573.748 627.442 561.919 629.263 550.035 630.735C465.427 637.456 375.618 642.298 294.987 614.146C266.41 604.472 237.328 597.867 208.02 591.873C198.113 589.829 188.183 587.999 178.298 586.556C168.412 585.103 158.55 584.019 148.788 583.409C137.072 582.673 125.524 582.673 114.381 584.183C66.8876 591.272 30.1441 622.513 1.06158 653.745C-1.48834 638.347 0.556152 622.513 7.18372 607.551C10.4975 599.852 13.6202 592.105 16.5183 584.319C57.6989 478.22 36.7717 364.712 42.9724 254.865C42.9724 247.505 42.9724 240.213 42.9724 232.998V9.73028H118.234C125.738 9.73028 133.646 9.73028 141.914 9.73028C164.492 9.60438 187.071 9.29449 209.649 8.93618C220.938 8.76186 232.239 8.56818 243.551 8.38418C267.87 7.09619 292.19 6.20525 316.521 5.61452C324.642 5.42084 332.764 5.25621 340.998 5.13031C352.793 5.04315 364.576 4.86884 376.371 4.64611C388.166 4.42337 399.972 4.14253 411.8 3.83264C490.443 0.443191 569.019 0.443191 647.853 1.28571C651.975 2.93201 654.233 4.23937 654.233 4.23937H654.244Z" fill="#007299"/>
</svg>
