<svg width="296" height="246" viewBox="0 0 296 246" fill="none" xmlns="http://www.w3.org/2000/svg">
<path d="M241.371 202.404C240.864 202.489 240.368 202.664 239.901 202.948C239.412 203.246 238.912 203.526 238.406 203.79C238.318 203.585 238.264 203.348 238.275 203.073C238.415 199.421 236.56 195.836 234.504 192.967C234.498 192.96 234.495 192.951 234.49 192.941C235.658 192.859 236.827 192.749 237.986 192.595C239.845 195.546 241.288 198.891 241.368 202.407L241.371 202.404Z" fill="#8ACBC8"/>
<path d="M227.931 194.981C228.696 198.379 228.918 201.903 227.873 205.416C226.856 205.187 225.803 205.132 224.793 205.279C224.518 205.32 224.258 205.377 224.008 205.441C223.948 205.109 223.957 204.74 224.082 204.329C225.009 201.283 224.533 198.235 223.815 195.332C223.795 195.257 223.795 195.186 223.782 195.115C225.188 195.243 226.587 195.213 227.928 194.981L227.931 194.981Z" fill="#8ACBC8"/>
<path d="M228.043 196.822C228.58 199.234 228.925 201.985 227.949 204.329C227.837 204.597 227.434 204.461 227.546 204.19C228.496 201.914 228.151 199.27 227.63 196.931C227.565 196.641 227.978 196.538 228.04 196.825L228.043 196.822Z" fill="white"/>
<path d="M224.366 196.071C225.752 198.407 226.334 201.292 225.121 203.653C224.981 203.923 224.329 203.777 224.469 203.508C225.623 201.264 225.09 198.499 223.766 196.273C223.607 196.006 224.203 195.801 224.366 196.071Z" fill="white"/>
<path d="M237.145 195.468C238.725 197.976 239.171 200.81 239.087 203.593C239.079 203.892 238.522 203.869 238.53 203.57C238.614 200.866 238.189 198.121 236.654 195.684C236.483 195.417 236.978 195.201 237.145 195.468Z" fill="white"/>
<path d="M204.849 191.681C202.293 194.274 201.542 198.071 201.132 201.479C201.092 201.794 200.571 201.776 200.611 201.458C201.043 197.9 201.832 194.018 204.498 191.317C204.728 191.083 205.079 191.45 204.853 191.681L204.849 191.681Z" fill="white"/>
<path d="M208.428 192.539C209.394 192.462 210.758 192.803 211.56 193.301C211.484 193.873 211.395 194.448 211.287 195.016C211.236 195.036 211.189 195.056 211.132 195.076C209.11 195.846 206.904 194.58 206.205 197.797C205.932 199.056 206.293 200.473 206.963 201.535C207.077 201.719 208.487 203.027 209.468 203.636C209.371 204.186 209.28 204.739 209.198 205.292C207.09 206.027 203.606 201.77 203.22 200.185C202.264 196.257 204.211 192.864 208.425 192.536L208.428 192.539Z" fill="#EFECEB"/>
<path d="M204.567 196.374C205.982 196.806 207.426 197.064 208.838 197.495C211.105 198.188 210.375 200.358 208.113 199.662C206.699 199.227 205.254 198.972 203.839 198.538C201.572 197.845 202.302 195.678 204.564 196.371L204.567 196.374Z" fill="#EFECEB"/>
<path d="M215.374 194.022C217.7 197.647 223.791 200.366 226.077 195.206C226.208 194.905 226.676 195.156 226.544 195.451C225.628 197.523 223.695 198.939 221.227 198.595C218.518 198.218 216.312 196.452 214.921 194.286C214.74 194.006 215.194 193.745 215.374 194.022Z" fill="white"/>
<path d="M203.837 225.86L202.008 225.786C201.128 215.885 199.94 205.949 200.269 196.094C201.943 196.278 203.608 196.543 205.269 196.839C204.664 206.536 203.909 216.148 203.84 225.86L203.837 225.86Z" fill="#164B85"/>
<path d="M234.123 210C232.896 206.997 232.025 203.877 231.38 200.71C231.997 201.088 232.607 201.565 233.214 202.177C239.583 208.564 246.349 218.57 250.402 227.751L236.935 227.204C237.083 221.322 236.444 215.679 234.12 210L234.123 210Z" fill="#0F88AF"/>
<path d="M237.056 227.682L203.702 226.328C203.783 216.622 204.524 207.014 205.122 197.323C210.052 198.229 214.937 199.462 219.934 199.774C224.447 200.058 228.05 198.969 231.475 201.068C232.123 204.249 232.996 207.383 234.228 210.4C236.56 216.108 237.202 221.773 237.053 227.682L237.056 227.682Z" fill="#0F88AF"/>
<path d="M91.6001 173.213L172.962 172.629L172.843 224.602L86.3563 221.091L91.6001 173.213Z" fill="#722318"/>
<path d="M46.8359 202.443C45.0795 202.488 43.3838 202.191 41.6348 202.204C39.7889 202.217 38.4635 202.351 36.669 202.484C35.6965 202.557 34.9494 202.083 34.2292 201.487C33.8448 201.172 32.9576 200.835 32.9576 200.835C32.9576 200.835 31.6249 201.766 30.7933 201.063C29.6713 200.117 30.0299 199.296 30.2552 198.292C30.5338 197.055 30.7252 196.194 31.0658 194.969C31.6957 192.705 31.6678 191.312 32.6494 189.166C33.1093 188.161 40.2438 183.384 41.0716 182.639C41.9578 181.843 49.9945 174.95 49.9945 174.95L58.1117 177.785L63.0784 184.186C63.0784 184.186 56.649 190.934 56.3258 191.575C55.9684 192.289 53.554 195.056 52.5603 195.804C52.6663 198.971 50.0358 202.364 46.8298 202.44L46.8359 202.443Z" fill="#FFC0BB"/>
<path d="M63.0844 184.186C63.0844 184.186 56.6549 190.934 56.3318 191.575C55.9744 192.289 53.56 195.056 52.5663 195.804C52.6723 198.971 50.0418 202.364 46.8358 202.44C45.0793 202.485 43.3836 202.187 41.6347 202.201C39.7888 202.213 38.4634 202.347 36.6689 202.481C35.9348 202.536 35.3321 202.28 34.769 201.897C35.6178 199.173 36.4088 195.483 36.4329 195.043C36.4892 193.963 50.1648 180.149 54.019 176.355L57.1677 177.456L58.0529 178.149L58.8487 178.731L60.9978 181.499L63.0814 184.183L63.0844 184.186Z" fill="url(#paint0_linear_146_4604)"/>
<path d="M150.519 37.0268L149.802 62.5108C149.685 63.0755 148.032 70.5035 141.439 73.0738C135.427 75.4178 127.883 72.7196 123.943 66.2067L125.429 36.0967L150.519 37.0236L150.519 37.0268Z" fill="#FFC0BB"/>
<path d="M155.306 64.6037C151.318 102.821 147.331 141.034 143.343 179.251L99.3245 176.993L105.596 110.627C105.608 95.8171 108.54 76.8512 122.155 65.5121C122.693 65.0632 123.25 64.6243 123.825 64.1987C125.854 65.7652 130.172 68.6469 136.347 69.4681C146.212 70.776 153.54 65.8603 155.303 64.6067L155.306 64.6037Z" fill="#141414"/>
<path d="M95.7527 77.9368C94.5739 79.0678 93.2738 80.5057 92.0373 82.2925C89.5608 85.8751 88.367 89.3695 87.7561 91.8459C87.7561 91.8459 84.0874 101.106 79.164 122.566C79.1074 122.81 79.0365 122.947 78.9656 123.16C78.226 125.356 75.71 132.518 69.4893 142.239C65.3786 148.665 57.3847 159.745 45.8341 172.958C50.3281 180.626 54.8221 188.293 59.3192 195.961C64.6943 190.971 70.7732 184.59 76.7785 176.65C82.8956 168.562 87.4421 160.832 90.8079 154.201C88.418 166.613 86.0311 179.028 83.6412 191.44C83.6412 191.44 84.6688 191.579 85.1295 191.501L100.876 192.14C100.876 192.14 109.241 112.35 110.105 108.026C115.973 78.6111 120.207 76.5843 120.207 76.5843C121.851 73.2111 124.924 67.351 123.558 66.257C122.419 65.3469 119.066 68.2952 114.303 71.0864C110.356 73.3993 104.308 76.26 95.7528 77.9336L95.7527 77.9368Z" fill="#141414"/>
<path d="M151.101 15.8782L126.411 12.571L121.353 19.4887C121.353 19.4887 120.843 23.7916 120.285 28.2543C119.783 32.2993 119.24 36.4796 119.012 37.7021C118.532 40.2737 119.557 51.6033 120.087 52.6015C120.616 53.5997 124.191 53.7635 125.339 53.8848C126.487 54.006 136.736 50.9819 141.804 48.9947C144.915 47.7742 147.402 46.0151 149.086 43.1907C150.146 41.4109 150.887 39.2108 151.259 36.4513C152.222 29.3145 151.098 15.8781 151.098 15.8781L151.101 15.8782Z" fill="#FFC0BB"/>
<path d="M151.267 36.3003C151.612 33.7158 151.689 30.3071 151.645 27.0088L143.32 30.0827C143.32 30.0827 140.955 43.721 140.786 44.3341C140.619 44.9474 129.127 50.7716 127.181 51.512C126.043 51.9457 124.157 52.8007 122.784 53.4367C123.926 53.6451 134.405 54.7715 135.005 54.8364C136.132 54.9569 142.044 49.7786 146.716 41.2815C149.32 36.5422 150.313 43.4497 151.261 36.3001L151.267 36.3003Z" fill="#FF8F8F"/>
<path d="M145.494 8.13558C143.911 7.88321 142.382 7.6832 140.913 7.53891C139.497 6.68832 138.121 5.70454 136.532 5.3077C135.155 4.96653 133.738 5.00304 132.454 5.65317C131.85 5.95778 131.329 6.41002 130.725 6.70837C129.929 7.10241 129.11 7.01271 128.251 7.04368C125.655 7.14522 123.503 8.6284 122.169 10.8376C120.681 13.3008 120.155 15.5209 119.838 17.1821C119.655 18.1465 119.743 20.4385 119.853 21.1107C120.273 23.6545 120.558 26.4655 120.474 27.9982C120.739 25.8584 120.993 23.7527 121.186 22.1366C121.385 20.4675 123.44 21.6921 124.228 21.956C125.72 22.4555 127.309 22.636 128.879 22.59C131.058 22.528 133.04 22.5708 135.169 22.1965C136.526 21.9569 138.3 21.7436 139.635 22.1928C140.696 22.5494 141.146 23.9188 141.151 24.9441C141.157 26.1795 141.21 27.7177 141.211 28.5328C141.218 30.9783 140.93 32.9103 143.911 33.768C142.051 38.6299 147.332 35.8379 147.401 35.9097C147.407 35.8974 146.026 42.1989 147.076 43.8936C148.549 46.267 150.191 47.0703 150.191 47.0703C150.191 47.0703 154.113 35.2386 155.071 32.5533C156.327 29.0336 158.671 21.9781 158.766 20.5556C159.114 15.4411 156.328 9.87013 145.494 8.13558Z" fill="#1E1D1D"/>
<path d="M144.024 33.4441C144.323 31.0147 146.595 29.1079 149.307 29.1509C150.226 29.1668 150.999 29.418 151.333 30.1213C152.422 32.4178 150.013 37.8959 149.056 39.7951C148.1 41.6942 142.73 43.9728 142.73 43.9728L144.027 33.4412L144.024 33.4441Z" fill="#FF8F8F"/>
<path d="M157.72 190.41L162.139 102.768C162.193 102.231 161.369 102.129 161.283 102.662L151.883 190.217L157.72 190.41Z" fill="#282547"/>
<path d="M139.247 113.401C140.913 101.063 153.546 63.908 153.724 63.9809C155.893 64.8747 160.128 65.6244 168.288 70.0345C176.649 74.5558 183.245 78.7119 187.612 81.5939C189.587 83.0482 192.051 85.3344 193.664 88.7604C194.478 90.4924 194.769 91.9347 194.94 92.5725C196.056 96.6966 201.607 132.907 203.931 152.505C207.456 182.231 192.662 189.151 173.96 180.177C167.083 176.179 160.209 172.18 153.332 168.181C146.622 163.683 139.915 159.185 133.205 154.687C133.205 154.687 137.935 123.12 139.248 113.398L139.247 113.401Z" fill="#141414"/>
<path d="M141.198 22.6793C141.198 22.6793 141.141 30.6513 139.016 36.0751C137.682 39.4827 139.414 44.2125 135.73 44.0629C133.017 43.9528 133.218 40.0614 131.991 39.0765C131.061 38.3289 122.334 37.5399 120.844 37.9861C119.678 38.3359 120.232 42.2423 119.71 42.2868C119.193 42.3283 119.324 40.5731 119.286 39.7334C119.213 38.1231 119.069 36.3317 119.069 36.3317C119.069 36.3317 118.283 39.3081 118.241 40.5823C118.199 41.8564 118.444 41.7726 118.601 43.305C118.759 44.8375 113.864 52.0814 116.169 54.6736C120.418 59.4525 133.601 59.0776 137.737 57.0878C141.292 55.3777 143.73 48.3592 143.773 44.2925C143.816 40.2227 143.224 31.1392 145.74 26.9134C148.256 22.6875 141.202 22.6763 141.202 22.6763L141.198 22.6793Z" fill="#1E1D1D"/>
<path d="M96.2427 77.8633L93.3482 100.166L94.0786 139.989L89.6389 155.65L82.4671 192.988L108.494 194.045C113.102 151.011 117.709 107.978 122.317 64.9413C118.321 66.3019 113.87 68.0724 109.143 70.3977C104.182 72.8385 99.8814 75.4156 96.2396 77.8631L96.2427 77.8633Z" fill="#D6652D"/>
<path d="M103.211 73.0128C103.325 82.87 103.142 93.1204 102.587 103.736C100.877 136.397 95.9829 165.865 89.7889 191.609L94.8049 191.812C96.6697 184.376 98.8601 174.744 100.852 163.401C103.11 150.529 104.185 140.717 104.954 133.605C106.424 119.987 107.102 108.638 107.45 100.692C107.861 91.2828 108.043 81.1977 107.883 70.5033C107.09 70.9075 106.283 71.3298 105.466 71.7704C104.695 72.1848 103.943 72.6 103.211 73.016L103.211 73.0128Z" fill="#E6A43B"/>
<path d="M149.618 62.6668C155.207 64.0666 159.782 65.7005 163.17 67.0673C175.818 72.1723 184.185 78.5016 187.305 80.9867C187.53 81.1647 187.714 81.3129 187.832 81.4084C182.755 85.3591 177.678 89.3067 172.598 93.2572C174.915 120.629 175.883 149.781 174.901 180.509C174.7 186.866 174.417 193.141 174.062 199.332L131.563 197.607C131.563 197.607 128.797 96.6367 149.615 62.6667L149.618 62.6668Z" fill="#D6652D"/>
<path d="M166.356 68.4195C164.088 79.6625 162.042 91.3899 160.293 103.577C155.38 137.855 153.691 169.739 153.921 198.518L148.809 198.31C148.597 188.199 148.709 179.583 148.904 172.87C148.966 170.727 149.091 166.725 149.348 161.706C149.855 151.749 150.566 143.79 151.128 137.579C151.786 130.315 153.089 116.787 155.764 99.0264C157.173 89.6752 159.033 78.694 161.523 66.4217C162.321 66.6542 163.194 66.9524 164.119 67.3434C164.947 67.6898 165.695 68.058 166.359 68.4227L166.356 68.4195Z" fill="#E6A43B"/>
<path d="M175.097 167.112L128.556 168.581C126.514 168.645 124.809 167.046 124.744 165.005L122.64 98.5435C122.575 96.5034 124.176 94.8001 126.218 94.7359L172.759 93.2671C174.802 93.2029 176.507 94.8025 176.571 96.8426L178.675 163.305C178.74 165.345 177.139 167.048 175.097 167.112Z" fill="white"/>
<path d="M191.711 150.481L158.232 134.026L156.824 137.35L191.247 151.535C191.93 151.816 192.376 150.808 191.714 150.484L191.711 150.481Z" fill="#282547"/>
<path d="M146.517 157.024L152.349 157.022L153.422 153.352L154.795 146.021L120.194 129.688C119.882 134.092 118.411 141.171 120.113 143.491C122.47 146.705 141.662 152.872 141.662 152.872L146.52 157.021L146.517 157.024Z" fill="url(#paint1_linear_146_4604)"/>
<path d="M174.764 180.529C164.158 174.526 153.553 168.523 142.947 162.52L156.98 136.211L194.213 152.53C191.735 162.769 189.257 173.011 186.782 183.25C182.776 182.342 178.77 181.437 174.764 180.529Z" fill="#423A68"/>
<g opacity="0.22">
<path d="M153.606 103.845L168.658 103.247" stroke="black" stroke-width="0.5" stroke-miterlimit="10"/>
<path d="M153.647 104.88L168.699 104.282" stroke="black" stroke-width="0.5" stroke-miterlimit="10"/>
<path d="M153.692 105.997L168.745 105.403" stroke="black" stroke-width="0.5" stroke-miterlimit="10"/>
<path d="M153.87 107.122L168.918 106.525" stroke="black" stroke-width="0.5" stroke-miterlimit="10"/>
<path d="M153.83 108.155L168.881 107.557" stroke="black" stroke-width="0.5" stroke-miterlimit="10"/>
<path d="M132.875 116.07L167.959 114.821" stroke="black" stroke-width="0.5" stroke-miterlimit="10"/>
<path d="M132.972 118.717L168.053 117.472" stroke="black" stroke-width="0.5" stroke-miterlimit="10"/>
<path d="M133.079 121.742L168.16 120.494" stroke="black" stroke-width="0.5" stroke-miterlimit="10"/>
<path d="M133.173 124.363L168.254 123.118" stroke="black" stroke-width="0.5" stroke-miterlimit="10"/>
<path d="M169.887 113.527L168.985 113.559L169.017 114.461L169.919 114.429L169.887 113.527Z" stroke="black" stroke-width="0.5" stroke-miterlimit="10"/>
<path d="M169.986 116.287L169.084 116.319L169.116 117.221L170.018 117.189L169.986 116.287Z" stroke="black" stroke-width="0.5" stroke-miterlimit="10"/>
<path d="M170.085 119.044L169.182 119.076L169.214 119.979L170.117 119.947L170.085 119.044Z" stroke="black" stroke-width="0.5" stroke-miterlimit="10"/>
<path d="M170.183 121.798L169.281 121.83L169.313 122.732L170.215 122.7L170.183 121.798Z" stroke="black" stroke-width="0.5" stroke-miterlimit="10"/>
<path d="M133.366 127.239L168.447 125.994" stroke="black" stroke-width="0.5" stroke-miterlimit="10"/>
<path d="M133.459 129.89L168.54 128.645" stroke="black" stroke-width="0.5" stroke-miterlimit="10"/>
<path d="M133.567 132.915L168.647 131.667" stroke="black" stroke-width="0.5" stroke-miterlimit="10"/>
<path d="M133.66 135.536L168.741 134.291" stroke="black" stroke-width="0.5" stroke-miterlimit="10"/>
<path d="M170.377 124.701L169.474 124.733L169.506 125.636L170.409 125.604L170.377 124.701Z" stroke="black" stroke-width="0.5" stroke-miterlimit="10"/>
<path d="M170.475 127.458L169.573 127.49L169.605 128.393L170.507 128.361L170.475 127.458Z" stroke="black" stroke-width="0.5" stroke-miterlimit="10"/>
<path d="M170.57 130.212L169.668 130.244L169.7 131.146L170.602 131.114L170.57 130.212Z" stroke="black" stroke-width="0.5" stroke-miterlimit="10"/>
<path d="M170.669 132.969L169.767 133.001L169.799 133.904L170.701 133.872L170.669 132.969Z" stroke="black" stroke-width="0.5" stroke-miterlimit="10"/>
</g>
<path d="M151.98 134.451C151.98 134.451 150.676 132.598 148.95 129.373C147.224 126.151 146.114 122.788 144.411 121.197C143.043 119.92 139.185 118.695 138.676 116.406C138.164 114.121 137.127 111.248 135.313 112.006C133.499 112.763 131.481 116.277 134.015 120.491C134.729 121.676 135.682 123.214 136.449 124.442C136.858 125.099 136.205 125.903 135.488 125.621C130.861 123.79 125.306 122.259 123.73 121.71C120.29 120.505 118.987 123.952 120.635 125.696C122.282 127.437 118.634 139.876 120.921 143.112C123.208 146.348 141.858 152.534 141.858 152.534L150.92 160.556L161.788 138.976L151.98 134.454L151.98 134.451Z" fill="#FFC0BB"/>
<path d="M142.591 141.848C144.106 143.256 145.855 144.672 147.922 145.416C148.253 145.536 148.09 146.003 147.756 145.881C145.598 145.102 143.765 143.643 142.181 142.174C141.932 141.941 142.341 141.615 142.591 141.846L142.591 141.848Z" fill="white"/>
<path d="M132.033 169.796C131.446 169.894 130.874 170.096 130.336 170.422C129.774 170.765 129.196 171.083 128.611 171.388C128.51 171.152 128.45 170.877 128.463 170.562C128.622 166.361 126.48 162.24 124.109 158.939C124.103 158.926 124.1 158.92 124.091 158.91C125.441 158.821 126.79 158.691 128.128 158.513C130.274 161.906 131.943 165.755 132.033 169.796Z" fill="#8ACBC8"/>
<path d="M116.716 163.265C117.554 166.028 118.117 169.181 116.682 171.846C116.521 172.149 115.913 171.989 116.077 171.682C117.47 169.094 116.913 166.063 116.1 163.382C115.998 163.049 116.613 162.936 116.716 163.265Z" fill="white"/>
<path d="M127.286 161.96C128.851 164.793 129.286 168 129.183 171.155C129.169 171.495 128.615 171.473 128.626 171.132C128.725 168.068 128.315 164.959 126.791 162.205C126.625 161.903 127.116 161.661 127.283 161.96L127.286 161.96Z" fill="white"/>
<path d="M130.07 162.031C131.902 163.984 132.369 166.564 132.619 169.049C132.654 169.408 132.045 169.377 132.011 169.024C131.775 166.699 131.342 164.242 129.623 162.409C129.366 162.137 129.813 161.759 130.07 162.031Z" fill="white"/>
<path d="M118.869 139.301C119.159 139.875 119.247 140.458 119.226 141.074C119.21 141.486 118.46 141.455 118.477 141.044C118.497 140.548 118.444 140.061 118.209 139.595C118.019 139.219 118.679 138.918 118.869 139.301Z" fill="#114963"/>
<path d="M125.915 141.295C126.119 142.04 126.176 142.816 126.377 143.563C126.47 143.914 125.93 144.04 125.837 143.689C125.636 142.942 125.576 142.165 125.375 141.421C125.282 141.071 125.822 140.945 125.915 141.295Z" fill="#114963"/>
<path d="M144.668 154.74C144.697 154.023 144.663 153.294 144.522 152.582C144.388 151.904 145.732 151.673 145.867 152.354C146.04 153.234 146.079 154.121 146.044 155.006C146.023 155.522 146.053 156.321 145.621 156.754C145.086 157.286 143.908 156.708 144.452 156.167C144.764 155.858 144.66 155.114 144.676 154.74L144.668 154.74Z" fill="white"/>
<path d="M139.163 150.425C139.44 151.971 139.397 153.52 139.338 155.072C139.308 155.795 137.959 155.74 137.989 155.017C138.047 153.568 138.11 152.113 137.852 150.67C137.727 149.957 139.038 149.709 139.167 150.425L139.163 150.425Z" fill="white"/>
<path d="M129.83 152.252C129.891 153.256 129.869 154.256 129.828 155.28C129.8 155.956 129.353 155.938 129.38 155.262C129.418 154.331 129.443 153.427 129.388 152.513C129.348 151.852 129.792 151.591 129.832 152.252L129.83 152.252Z" fill="white"/>
<path d="M119.259 151.853C119.305 153.645 119.234 155.396 119.043 157.178C118.967 157.888 118.513 157.569 118.589 156.862C118.758 155.29 118.822 153.711 118.781 152.131C118.763 151.424 119.241 151.14 119.259 151.853Z" fill="white"/>
<path d="M146.653 174.356L148.34 174.424C148.702 174.439 148.679 174.996 148.317 174.982L146.63 174.913C146.268 174.898 146.29 174.341 146.653 174.356Z" fill="white"/>
<path d="M176.044 140.956C180.222 141.685 182.157 147.128 183.037 150.648C186.951 166.319 165.501 164.433 167.575 149.645C168.156 145.5 170.747 140.033 176.044 140.959L176.044 140.956Z" fill="#3C7870"/>
<path d="M179.229 145.498C180.844 145.632 182.189 148.287 182.902 149.543C184.207 151.847 184.685 154.514 184.521 157.116C184.493 157.58 183.758 157.519 183.786 157.055C183.926 154.875 183.567 152.842 182.715 150.826C182.309 149.858 181.734 148.962 181.114 148.111C180.909 147.833 180.585 147.342 180.212 146.929C180.313 147.281 179.727 147.515 179.507 147.148C179.178 146.607 178.89 146.555 178.835 145.924C178.818 145.695 178.969 145.478 179.229 145.501L179.229 145.498Z" fill="white"/>
<path d="M181.296 157.58C183.637 175.768 184.309 194.122 184.514 212.437C184.521 212.895 183.797 212.865 183.794 212.408C183.59 194.154 182.927 175.867 180.593 157.738C180.536 157.288 181.239 157.121 181.296 157.577L181.296 157.58Z" fill="white"/>
<path d="M145.214 154.161C147.98 153.815 150.745 153.477 153.555 153.399C154.031 153.384 154.055 153.988 153.579 154C150.837 154.078 148.134 154.4 145.43 154.738C144.965 154.795 144.746 154.215 145.214 154.158L145.214 154.161Z" fill="white"/>
<path d="M146.819 158.161C150.321 158.255 153.793 158.612 157.266 159.035C157.724 159.088 157.716 159.751 157.255 159.694C153.785 159.274 150.31 158.914 146.808 158.821C146.345 158.808 146.353 158.148 146.819 158.161Z" fill="white"/>
<path d="M211.292 102.231C211.627 101.809 212.112 102.483 211.776 102.905C211.353 103.437 211.167 104.175 210.74 104.714C210.404 105.136 209.92 104.461 210.256 104.04C210.679 103.508 210.865 102.766 211.292 102.231Z" fill="white"/>
<path d="M238.553 49.7617C243.352 52.4869 245.564 57.4045 244.706 62.66C244.347 64.8479 240.739 64.7259 241.099 62.5135C241.771 58.4023 240.415 54.852 236.614 52.6912C234.604 51.5497 236.55 48.6236 238.557 49.7619L238.553 49.7617Z" fill="#E6EAEE"/>
<path d="M167.324 164.36C167.386 163.906 168.082 163.932 168.02 164.388C167.469 168.506 166.625 172.568 165.42 176.54C165.286 176.979 164.622 176.766 164.756 176.325C165.947 172.415 166.782 168.419 167.324 164.363L167.324 164.36Z" fill="#E6EAEE"/>
<path d="M118.507 131.469C122.022 129.37 126.86 130.894 130.849 131.201C136.273 131.622 141.63 132.759 146.996 133.4C152.936 134.111 158.828 135.177 164.721 136.062C171.95 137.149 170.84 137.014 173.579 142.829C179.228 154.819 164.698 158.62 153.081 156.339C140.983 153.961 128.986 150.689 118.468 145.603C115.401 144.12 112.7 142.485 113.174 139.466C113.608 136.695 115.544 133.238 118.504 131.468L118.507 131.469Z" fill="#001C2D"/>
<path d="M174.114 134.918L174.964 134.782C175.444 140.163 175.687 145.377 177.078 150.561C178.308 155.128 180.004 161.696 177.489 166.081C174.407 171.454 164.853 167.07 160.693 165.526C155.64 163.649 149.608 165.076 144.926 161.793C141.187 159.169 140.087 153.5 139.128 149.326C137.791 143.508 136.081 136.328 136.433 130.353C144.476 130.522 151.604 133.476 159.401 133.783C163.938 133.961 169.662 136.264 174.108 134.921L174.114 134.918Z" fill="#0F88AF"/>
<path d="M145.696 132.219C149.382 131.326 156.376 132.785 157.526 135.439C158.739 138.24 156.812 142.129 156.696 144.984C156.633 146.53 156.721 168.569 156.56 168.575C154.126 168.661 145.43 167.79 143.873 165.912C141.556 163.119 142.801 153.326 142.722 149.722C142.645 146.104 141.02 136.006 143.9 133.099C144.298 132.696 144.923 132.407 145.695 132.222L145.696 132.219Z" fill="#D68030"/>
<path d="M101.138 128.665C101.639 128.391 102.267 127.996 103.255 127.945C107.614 127.713 113.332 129.644 120.223 130.298C117.914 134.204 116.62 136.643 115.01 140.655C110.592 138.996 106.062 137.269 103.03 134.24C100.226 131.434 99.1387 129.757 101.135 128.668L101.138 128.665Z" fill="#B55046"/>
<path d="M118.045 128.866C117.125 129.772 113.093 142.269 113.06 142.252C111.812 141.543 109.505 140.94 108.659 139.834C108.583 139.731 111.886 129.219 112.458 128.037C112.902 127.115 117.207 128.567 118.045 128.87L118.045 128.866Z" fill="#001C2D"/>
<path d="M114.831 136.383C115.469 134.591 116.115 132.728 116.394 130.838C116.439 130.543 116.887 130.639 116.842 130.934C116.575 132.759 115.955 134.554 115.346 136.29C114.653 138.271 113.912 140.265 112.919 142.118C112.78 142.379 112.369 142.173 112.511 141.909C113.456 140.151 114.166 138.263 114.834 136.383L114.831 136.383Z" fill="white"/>
<path d="M120.213 136.962C121.897 137.398 123.611 137.534 125.325 137.685C125.62 137.713 125.518 138.302 125.226 138.275C123.513 138.119 121.798 137.987 120.115 137.548C119.825 137.474 119.923 136.884 120.213 136.958L120.213 136.962Z" fill="#114963"/>
<path d="M129.887 147.977C131.169 148.357 132.477 148.671 133.817 148.933C134.099 148.989 134.016 149.291 133.731 149.235C132.352 148.966 131.009 148.642 129.689 148.25C129.417 148.169 129.617 147.896 129.89 147.977L129.887 147.977Z" fill="#114963"/>
<path d="M175.995 150.871C179.382 149.392 182.317 152.364 184.418 154.679L184.564 156.16C182.439 159.681 174.917 163.171 173.073 157.491C172.263 154.997 173.632 151.905 175.995 150.874L175.995 150.871Z" fill="#3C7870"/>
<path d="M188.369 113.952C190.808 111.128 192.166 108.101 195.956 106.695C198.076 105.91 201.897 105.379 202.589 108.25C203.303 111.211 199.663 115.509 198.497 118.014C195.431 124.606 196.043 131.083 196.331 138.002C196.503 142.152 195.398 146.578 193.91 150.885C192.607 154.648 191.011 158.324 189.711 161.647C188.618 164.448 187.324 168.56 183.61 168.004C179.572 167.4 175.027 160.714 173.213 157.623C170.856 153.615 168.769 148.757 169.482 144.032C171.109 133.29 181.514 121.904 188.375 113.959L188.369 113.952Z" fill="#0F88AF"/>
<path d="M141.291 151.269C141.4 151.261 141.51 151.253 141.616 151.245C141.647 151.247 141.675 151.242 141.706 151.24C142.668 151.816 145.716 152.325 148.933 152.754C148.343 153.613 148.039 154.744 146.944 155.15C146.141 155.447 144.927 155.33 143.877 154.942C143.15 154.678 142.496 154.279 142.098 153.797C141.858 153.506 140.794 151.305 141.291 151.272L141.291 151.269Z" fill="#C15C4C"/>
<path d="M222.319 53.4344C227.96 54.2573 233.059 57.757 237.678 62.8805C239.517 64.922 241.276 66.1684 241.905 69.9328C242.599 74.1052 243.008 76.1798 242.243 83.1175C240.943 94.8595 260.611 101.071 262.784 119.169C263.127 122.017 263.435 124.955 261.651 127.195C255.735 134.624 231.267 128.739 228.601 118.752C227.367 114.127 231.697 112.12 232.035 101.859C232.44 89.5689 227.579 84.4607 221.831 79.0683C218.049 75.5184 213.584 71.0924 213.053 63.2852C212.442 54.3499 217.301 52.7029 222.322 53.4345L222.319 53.4344Z" fill="#1E1D1D"/>
<path d="M231.041 86.0896C231.855 85.0078 232.797 84.0659 233.837 83.4411C234.487 87.382 235.804 90.9084 237.682 94.4107C239.802 98.3611 241.329 99.0839 245.396 96.3836C245.783 96.1269 246.167 95.8355 246.616 95.7285C246.676 95.7153 246.735 95.7051 246.797 95.7014C247.207 95.6648 247.649 95.8205 247.82 96.1876C247.939 96.443 247.906 96.7422 247.854 97.0189C247.132 100.788 243.105 102.748 239.682 103.523C233.134 105.011 225.941 97.7859 228.393 91.0241C228.961 89.4625 229.87 87.6361 231.038 86.0895L231.041 86.0896Z" fill="#1E1D1D"/>
<path d="M232.283 76.6843C236.828 76.4826 233.896 84.7522 231.036 82.3839C229.423 81.0444 230.066 76.7812 232.283 76.6843Z" fill="#EC845C"/>
<path d="M232.434 80.5521C232.392 80.0096 232.414 79.4585 232.413 78.9121L233.317 79.1281C233.553 79.7821 233.745 80.8519 232.437 80.5522L232.434 80.5521Z" fill="#AF554B"/>
<path d="M233.216 104.748C235.5 104.97 238.082 105.198 240.04 103.629C240.498 103.263 240.888 102.815 241.175 102.283C241.296 102.062 241.612 102.271 241.492 102.491C240.947 103.497 240.05 104.23 239.057 104.674C237.922 105.185 236.69 105.324 235.468 105.301C234.711 105.287 233.958 105.216 233.206 105.143C232.968 105.12 232.978 104.722 233.216 104.745L233.216 104.748Z" fill="#AE3E25"/>
<path d="M227.99 86.0874C228.08 85.8842 228.271 86.0826 228.181 86.2891C227.352 88.1594 226.976 90.5588 227.135 92.8182C227.179 93.4536 227.266 94.0745 227.393 94.668C227.414 94.7658 227.362 94.8833 227.306 94.9036C227.24 94.9365 227.192 94.8635 227.169 94.7656C226.704 92.5777 226.792 90.0341 227.376 87.8533C227.542 87.2297 227.746 86.6367 227.99 86.0874Z" fill="#AE3E25"/>
<path d="M144.798 199.529C135.524 200.023 135.718 200.518 126.494 199.533C116.2 175.639 86.2023 117.394 86.1452 116.158C89.4312 115.787 103.601 113.507 106.359 113.477C106.359 113.477 139.378 187.748 144.798 199.529Z" fill="white"/>
<path d="M153.506 205.321C146.953 206.5 138.963 205.771 131.578 207.278C125.137 190.776 103.161 136.246 95.4823 120.202C102.163 119.558 117.396 115.601 117.396 115.601C117.396 115.601 148.812 195.692 153.506 205.317L153.506 205.321Z" fill="#C5D6D4"/>
<path d="M108.068 119.271C108.649 119.025 116.881 115.832 116.756 115.575C119.481 121.054 120.149 122.739 122.548 126.444L124.207 128.527C119.638 128.77 115.197 129.875 110.702 130.624C108.23 131.036 106.786 131.157 104.981 129.364C103.591 127.985 100.702 125.017 101.687 122.843C102.53 120.984 106.342 120.005 108.065 119.271L108.068 119.271Z" fill="#B0C6CB"/>
<path d="M96.0147 121.048C101.461 135.593 108.716 149.298 115.109 163.421C121.18 176.835 125.239 191.062 131.146 204.547C131.308 204.915 130.756 205.211 130.595 204.843C124.687 191.357 120.579 177.156 114.558 163.716C108.219 149.565 100.912 135.892 95.4637 121.34C95.3239 120.967 95.8752 120.668 96.0147 121.048Z" fill="white"/>
<path d="M109.289 122.366C112.671 122.048 116.066 121.784 119.403 121.129C120.257 120.961 129.397 119.123 129.543 119.487C129.562 119.538 161.612 200.137 166.76 209.231C158.628 210.83 148.853 210.66 139.682 212.637C139.21 211.558 138.662 210.284 138.044 208.835C137.708 208.049 137.353 207.209 136.977 206.327C134.557 200.618 132.162 194.898 129.764 189.184C124.519 176.687 119.256 164.192 113.847 151.767C109.753 142.367 105.574 133.01 100.922 123.874C101.998 123.787 103.073 123.578 104.155 123.341C105.846 122.971 107.551 122.526 109.289 122.363L109.289 122.366Z" fill="white"/>
<path d="M103.162 125.296C105.793 132.806 108.9 140.119 112.057 147.409C115.259 154.807 118.344 162.257 121.49 169.681C124.623 177.086 127.676 184.52 130.766 191.942C133.1 197.549 134.553 204.157 138.744 208.706C139.018 209.006 138.561 209.433 138.287 209.133C137.642 208.435 137.067 207.683 136.536 206.895C136.505 207.051 136.392 207.178 136.182 207.198C134.704 207.348 133.07 207.586 131.652 207.014C131.077 206.78 131.367 205.843 131.945 206.074C132.133 206.151 132.327 206.206 132.525 206.254C132.712 206.262 132.913 206.251 133.037 206.15C133.266 205.958 133.556 206.164 133.565 206.391C134.369 206.424 135.197 206.319 135.966 206.24C136.019 206.236 136.068 206.241 136.113 206.246C133.598 202.234 132.243 197.366 130.544 193.035C127.498 185.282 124.192 177.641 120.943 169.976C117.794 162.552 114.715 155.105 111.51 147.707C108.333 140.366 105.207 132.999 102.56 125.438C102.424 125.055 103.03 124.917 103.162 125.293L103.162 125.296Z" fill="white"/>
<path d="M223.095 85.2113C223.761 84.8695 224.541 84.7073 225.432 84.7811C243.072 86.263 227.653 103.289 221.632 95.6864C219.261 92.6893 219.855 86.8647 223.095 85.2113Z" fill="#125064"/>
<path d="M227.775 116.219C228.018 116.038 228.227 116.465 227.99 116.642C222.017 121.052 219.407 128.752 214.944 134.548C214.762 134.787 214.373 134.531 214.558 134.289C219.084 128.414 221.722 120.69 227.778 116.219L227.775 116.219Z" fill="white"/>
<path d="M201.877 85.8794C203.729 82.4627 205.251 82.6461 204.505 78.1604C203.831 74.1111 202.654 70.8863 203.116 66.668C203.497 63.2164 205.768 56.6584 209.804 55.3662C210.369 55.1833 210.97 55.108 211.605 55.1556C216.35 55.5166 216.667 61.5187 216.699 65.0026C216.746 69.8496 218.021 73.4806 219.096 78.0419C220.279 83.066 220.086 87.8315 218.614 92.8725C218.221 94.2158 217.761 95.5565 217.159 96.8166C216.557 98.0767 215.822 99.2504 214.879 100.257C210.989 104.404 204.648 103.979 201.891 99.1026C200.612 96.8401 200.254 94.0352 200.725 91.3979C200.995 89.8968 201.168 87.1975 201.877 85.8857L201.877 85.8794Z" fill="#1E1D1D"/>
<path d="M199.769 110.42C202.914 107.544 206.536 105.205 210.438 103.529C211.464 103.087 212.548 102.685 213.664 102.743C216.371 102.881 217.695 105.215 219.072 107.183C221.097 110.073 222.782 113.532 222.94 117.135C223.186 124.807 220.878 131.969 219.689 139.429C219.63 139.798 219.554 140.204 219.269 140.442C218.996 140.671 218.61 140.69 218.259 140.694C213.832 140.739 209.404 140.628 204.987 140.355C203.265 140.247 201.523 140.114 199.885 139.567C199.335 139.383 198.79 139.149 198.292 138.851C197.772 138.54 197.299 138.158 196.914 137.691C195.46 135.931 195.503 133.397 195.625 131.103C195.822 127.327 195.515 123.705 195.62 119.941C195.672 118.137 195.852 116.316 195.756 114.513C197.051 113.105 198.36 111.711 199.769 110.42Z" fill="#001C2D"/>
<path d="M219.876 78.4032C219.98 78.4243 220.058 78.5175 220.031 78.6092C219.907 79.0179 219.916 79.4488 220.066 79.8573C220.142 80.0686 219.765 80.1743 219.689 79.963C219.521 79.5003 219.502 79.0043 219.642 78.5372C219.669 78.4482 219.769 78.3876 219.876 78.406L219.876 78.4032Z" fill="#EAF6F8"/>
<path d="M211.595 89.405C214.646 89.1682 217.666 88.5349 220.552 87.5322C222.03 87.0182 223.474 86.4119 224.871 85.7064C225.205 85.538 228.18 84.1375 228.109 83.7676C228.806 87.4815 228.641 91.3173 229.424 95.0127C229.851 97.0312 232.338 100.121 232.019 101.969C231.7 103.797 228.602 105.569 227.146 106.388C223.286 108.562 219.66 111.909 215.134 112.654C206.328 114.1 213.538 104.035 213.104 100.097C213.083 99.8981 213.056 99.6994 213.026 99.5006C212.575 96.4553 211.246 93.4466 210.754 90.3966C210.716 90.163 210.685 89.9045 210.82 89.7092C210.979 89.4741 211.308 89.4342 211.598 89.4083L211.595 89.405Z" fill="#D77355"/>
<path d="M215.735 93.2299C217.283 93.4052 219.05 92.315 220.394 91.6763C221.836 90.9946 223.187 90.1063 224.398 89.0467C225.183 88.3602 225.988 87.5996 226.445 86.6531C226.702 86.1232 226.485 84.9119 227.238 84.8582C228.425 84.769 228.376 86.3816 228.547 87.1756C228.823 88.4611 229.332 89.7311 229.697 91.0139C230.549 94.0031 231.168 97.1077 230.985 100.214C230.968 100.482 230.941 100.768 230.767 100.961C230.534 101.22 230.137 101.21 229.8 101.119C227.806 100.569 227.161 98.3255 225.605 97.1754C224.28 96.1972 222.772 97.0979 221.506 97.5868C220.323 98.0448 218.935 98.3882 217.669 98.4742C214.969 98.6644 212.762 97.1225 211.574 94.7725C211.049 93.7361 210.586 92.6648 210.1 91.605C210.819 91.553 212.062 92.3187 212.767 92.5316C213.738 92.8271 214.725 93.1139 215.735 93.2299Z" fill="#C6664F"/>
<path d="M204.227 72.0716C204.783 68.6074 206.289 65.2745 209.785 63.492C210.954 62.896 212.333 62.4693 213.939 62.2561C231.62 59.8769 236.443 81.6247 227.381 89.5824C225.827 90.9425 224.149 92.3687 222.491 93.6318C219.306 96.0518 214.84 97.5102 211.544 94.1959C207.688 90.3144 204.409 85.5188 204.91 79.9392C205.006 78.8881 205.328 77.6388 205.07 76.5239C204.682 74.856 203.928 73.9065 204.224 72.0746L204.227 72.0716Z" fill="#EC845C"/>
<path d="M217.569 61.682C223.985 62.7008 230.736 68.9801 231.433 75.4945C229.609 73.1916 226.783 71.924 224.009 70.9481C220.987 69.8852 218.247 68.8307 215.473 67.226C212.217 65.3397 208.853 64.0934 206.507 67.7467C205.144 69.8678 205.108 72.1692 204.208 74.4139C202.755 71.3246 204.347 66.2071 206.728 64.0071C209.537 61.4114 213.832 61.0925 217.569 61.685L217.569 61.682Z" fill="#DB7657"/>
<path d="M225.202 52.1173C229.228 53.0364 233.547 55.0368 236.536 57.9887C236.737 58.1858 236.474 58.5369 236.271 58.3333C233.426 55.525 229.438 53.6757 225.636 52.6728C221.838 51.6701 217.053 51.5687 214.762 55.2636C214.615 55.501 214.264 55.2274 214.411 54.99C216.695 51.3012 221.344 51.2338 225.202 52.1141L225.202 52.1173Z" fill="#AE3E25"/>
<path d="M215.166 60.5099C215.584 64.4313 219.269 66.5627 222.715 68.0777C225.98 69.5138 229.591 70.4351 232.58 72.4044C232.823 72.5636 232.526 72.8782 232.286 72.7222C228.982 70.5441 224.907 69.6133 221.34 67.9223C218.128 66.3982 215.101 64.1317 214.717 60.5384C214.687 60.2603 215.139 60.2382 215.166 60.5131L215.166 60.5099Z" fill="#1E1D1D"/>
<path d="M211.412 82.5411C211.482 82.5121 211.547 82.5571 211.571 82.6642C211.594 82.7606 211.553 82.8968 211.487 82.9224C211.469 82.9322 211.449 82.942 211.43 82.9554L211.428 82.9553C211.428 82.9553 211.412 82.9759 211.403 82.9826C211.396 82.9894 211.389 82.9997 211.382 83.0065L211.375 83.0132C211.363 83.034 211.351 83.0512 211.339 83.0719C211.334 83.0788 211.318 83.1028 211.317 83.117C211.319 83.11 211.324 83.1031 211.327 83.0961C211.324 83.1031 211.319 83.11 211.317 83.1205C211.307 83.1484 211.297 83.1762 211.287 83.2041C211.282 83.218 211.281 83.2286 211.276 83.2426C211.27 83.2741 211.265 83.3057 211.259 83.3373C211.259 83.3444 211.252 83.3901 211.249 83.4147C211.249 83.4147 211.249 83.4217 211.249 83.4253C211.249 83.4253 211.249 83.4182 211.249 83.4147C211.249 83.4147 211.249 83.4182 211.248 83.4323C211.248 83.4464 211.247 83.4641 211.246 83.4817C211.245 83.51 211.248 83.5419 211.25 83.5702C211.25 83.5702 211.249 83.5738 211.249 83.5773C211.251 83.5915 211.253 83.6057 211.256 83.62C211.262 83.645 211.268 83.6735 211.273 83.6985C211.273 83.6985 211.275 83.7021 211.277 83.7057C211.281 83.7165 211.285 83.7272 211.289 83.738C211.296 83.7524 211.302 83.7668 211.308 83.7812C211.323 83.803 211.337 83.8248 211.352 83.8466C211.407 83.9125 211.399 84.0535 211.358 84.1332C211.31 84.2231 211.23 84.2164 211.177 84.1506C210.837 83.7409 210.986 82.7182 211.41 82.5374L211.412 82.5411Z" fill="#E4785C"/>
<path d="M196.516 130.941C196.949 130.011 197.688 129.347 198.167 128.438C198.791 127.248 199.097 125.922 199.681 124.714C201.331 121.308 203.231 118.034 204.885 114.631C205.262 113.852 205.749 113.034 205.997 112.203C206.342 111.06 206.017 109.571 207.755 109.761C207.86 109.771 207.962 109.791 208.061 109.814C208.917 110.03 209.331 110.719 209.429 111.601C209.797 114.796 208.614 118.027 208.864 121.22C208.911 121.831 209.002 122.504 209.464 122.907C210.243 123.586 211.444 123.047 212.283 122.446C219.484 117.28 224.895 109.616 231.822 103.982C232.06 103.788 232.311 103.589 232.612 103.536C232.931 103.477 233.257 103.593 233.56 103.712C237.835 105.398 244.313 108.6 246.977 112.482C247.016 112.536 247.207 112.716 247.246 112.771C246.996 115.249 246.547 128.514 246.433 131.323C246.132 138.751 246.096 139.791 243.485 141.17C242.214 141.84 240.303 141.778 238.934 141.782C234.826 141.791 230.737 141.659 226.634 141.483C222.507 141.303 218.383 141.264 214.254 141.187C210.732 141.122 207.211 141.02 203.69 140.902C202.509 140.804 201.327 140.712 200.142 140.623C199.041 140.544 198.021 139.996 197.273 139.191C196.641 138.508 196.422 137.299 196.25 136.417C196.031 135.304 196.082 134.203 196.121 133.076C196.141 132.501 196.168 131.915 196.349 131.369C196.399 131.221 196.454 131.079 196.519 130.944L196.516 130.941Z" fill="#001C2D"/>
<path d="M230.454 105.729C230.666 106.189 230.919 106.605 231.206 106.961C231.265 107.035 231.288 107.161 231.239 107.263C231.197 107.355 231.098 107.397 231.037 107.327C230.732 106.945 230.458 106.511 230.231 106.017C230.188 105.922 230.188 105.793 230.251 105.709C230.308 105.637 230.411 105.633 230.454 105.729Z" fill="#EAF6F8"/>
<path d="M227.547 107.818C227.644 107.926 227.74 108.035 227.838 108.143C227.882 108.191 227.879 108.276 227.825 108.316C227.771 108.356 227.692 108.355 227.646 108.3C227.548 108.192 227.452 108.084 227.354 107.975C227.31 107.927 227.314 107.843 227.367 107.803C227.421 107.761 227.501 107.764 227.547 107.816L227.547 107.818Z" fill="#EAF6F8"/>
<path d="M222.77 113.172C222.802 113.177 222.843 113.196 222.861 113.234C222.991 113.499 223.089 113.78 223.155 114.085C223.165 114.127 223.151 114.187 223.132 114.221C223.113 114.259 223.079 114.289 223.048 114.297C222.971 114.314 222.914 114.253 222.894 114.159C222.89 114.142 222.886 114.127 222.883 114.109C222.883 114.104 222.879 114.098 222.879 114.092C222.872 114.059 222.862 114.03 222.854 113.997C222.837 113.933 222.816 113.868 222.794 113.806C222.775 113.744 222.751 113.684 222.727 113.625C222.715 113.593 222.701 113.563 222.689 113.533C222.683 113.521 222.677 113.507 222.671 113.492C222.671 113.489 222.665 113.48 222.661 113.471C222.641 113.432 222.629 113.397 222.631 113.345C222.633 113.301 222.653 113.249 222.678 113.221C222.705 113.193 222.739 113.174 222.774 113.175L222.77 113.172Z" fill="#EAF6F8"/>
<path d="M218.119 118.015C218.218 118.012 218.331 118.039 218.348 118.081C218.403 118.219 218.454 118.357 218.506 118.494C218.523 118.534 218.467 118.577 218.359 118.581C218.261 118.584 218.145 118.557 218.127 118.514C218.076 118.377 218.021 118.24 217.97 118.103C217.955 118.063 218.008 118.02 218.116 118.015L218.119 118.015Z" fill="#EAF6F8"/>
<path d="M213.382 122.868C213.456 122.837 213.56 122.859 213.593 122.94C213.702 123.215 213.781 123.501 213.82 123.796C213.832 123.876 213.782 123.967 213.697 123.979C213.617 123.991 213.526 123.941 213.512 123.855C213.492 123.718 213.466 123.581 213.431 123.446C213.413 123.381 213.395 123.316 213.374 123.253C213.374 123.253 213.37 123.237 213.368 123.232C213.361 123.214 213.354 123.196 213.349 123.178C213.338 123.146 213.324 123.112 213.31 123.078C213.279 123.002 213.301 122.903 213.382 122.868Z" fill="#EAF6F8"/>
<path d="M210.544 121.851C210.273 122.838 210.007 123.826 209.736 124.81C209.673 125.037 209.257 124.916 209.32 124.689C209.587 123.705 209.857 122.717 210.128 121.729C210.191 121.502 210.607 121.627 210.544 121.851Z" fill="#EAF6F8"/>
<path d="M210.241 104.843C210.309 104.88 210.375 104.928 210.436 105.011C210.499 105.093 210.556 105.198 210.607 105.326C210.63 105.378 210.646 105.447 210.65 105.539C210.652 105.625 210.642 105.733 210.624 105.806C210.586 105.948 210.507 106.03 210.461 105.908C210.426 105.821 210.389 105.751 210.35 105.687C210.296 105.616 210.242 105.557 210.183 105.526C210.19 105.526 210.198 105.532 210.205 105.538C210.174 105.52 210.148 105.496 210.128 105.421C210.112 105.363 210.103 105.26 210.108 105.174C210.112 105.083 210.129 104.987 210.154 104.931C210.179 104.874 210.211 104.824 210.239 104.843L210.241 104.843Z" fill="#EAF6F8"/>
<path d="M206.652 60.8256C206.998 60.5415 207.366 60.2874 207.752 60.0605C207.833 60.0141 207.932 60.0181 207.991 60.0994C208.039 60.1715 208.031 60.2969 207.95 60.3433C206.638 61.1115 205.535 62.2449 204.791 63.6004C204.58 63.9865 204.396 64.3913 204.246 64.8062C204.17 65.0165 203.861 64.8695 203.937 64.6592C204.486 63.1583 205.438 61.823 206.652 60.8227L206.652 60.8256Z" fill="#AE3E25"/>
<path d="M205.52 96.8484C205.618 96.8022 205.76 96.833 205.813 96.9263C206.093 97.4212 206.75 97.7116 207.348 97.6103C207.459 97.5928 207.578 97.6479 207.606 97.7495C207.635 97.8449 207.566 97.9583 207.451 97.9756C206.659 98.1098 205.798 97.7452 205.434 97.1024C205.384 97.0093 205.414 96.8975 205.52 96.8453L205.52 96.8484Z" fill="#AE3E25"/>
<path d="M217.936 55.4105C219.507 55.7441 221.032 56.2498 222.462 56.9228C222.871 57.1134 223.266 57.318 223.658 57.5369C223.747 57.587 223.803 57.6763 223.753 57.77C223.714 57.8467 223.584 57.9052 223.49 57.855C222.143 57.1041 220.691 56.4999 219.175 56.0758C218.744 55.9538 218.308 55.8491 217.866 55.7557C217.619 55.7022 217.685 55.3597 217.932 55.4133L217.936 55.4105Z" fill="#83291A"/>
<path d="M233.962 61.6868C235.826 63.1141 237.313 64.9759 238.273 67.0609C238.545 67.6496 238.774 68.2565 238.957 68.8787C239.02 69.089 238.684 69.2119 238.621 68.9988C237.983 66.8528 236.799 64.8582 235.191 63.2335C234.735 62.7739 234.246 62.3443 233.731 61.9477C233.551 61.8095 233.777 61.5455 233.959 61.6838L233.962 61.6868Z" fill="#722318"/>
<path d="M236.858 101.493C237.539 102.068 238.264 102.569 239.131 102.859C239.363 102.937 239.247 103.28 239.016 103.203C238.086 102.892 237.31 102.353 236.582 101.737C236.398 101.582 236.68 101.338 236.861 101.493L236.858 101.493Z" fill="#83291A"/>
<path d="M201.14 116.629C202.026 115.171 203.001 111.209 205.654 112.763C207.372 113.771 206.902 116.919 206.948 118.403C207.027 120.97 206.928 127.159 210.802 128.019C213.61 128.642 216.756 124.554 218.271 123.065C224.097 117.338 228.967 111.644 237.294 110.595C248.551 109.175 251.061 121.983 252.671 131.307C254.691 143.015 256.35 155.653 254.767 167.542C253.905 174.013 257.191 184.837 248.674 186.519C239.192 188.391 229.036 188.713 219.303 187.731C214.37 187.236 209.32 187.093 204.467 186.08C198.736 184.884 196.804 181.413 196.727 176.667C196.618 170.149 194.837 163.206 193.297 156.826C192.294 152.667 190.551 148.619 190.64 144.273C190.732 139.939 192.081 135.728 193.804 131.849C196.061 126.768 198.281 121.315 201.137 116.626L201.14 116.629Z" fill="#001C2D"/>
<path d="M202.304 174.98C199.962 179.413 193.578 177.559 191.427 173.628C186.6 164.818 206.484 167.064 202.304 174.98Z" fill="#001C2D"/>
<path d="M205.773 141.145C206.006 140.778 206.582 141.163 206.349 141.53C205.397 143.024 204.736 144.656 204.098 146.285C203.939 146.688 203.282 146.452 203.437 146.052C204.097 144.367 204.791 142.689 205.773 141.145Z" fill="#001C2D"/>
<path d="M202.265 190.824C202.265 190.824 202.272 190.825 202.275 190.825C202.901 191.213 203.496 191.652 204.126 192.034C204.194 192.077 204.266 192.111 204.341 192.148C204.232 192.798 203.905 193.457 203.306 193.944C202.635 194.49 202.082 195.899 201.687 196.701C200.95 198.202 200.374 199.933 200.095 201.552C200.087 201.595 200.072 201.631 200.067 201.675C200.057 201.674 200.047 201.668 200.038 201.664L198.417 201.168C197.861 200.999 197.288 200.936 196.717 200.968C197.447 197.419 199.12 192.937 201.66 190.561C201.856 190.659 202.058 190.748 202.268 190.821L202.265 190.824Z" fill="#8ACBC8"/>
<path d="M200.999 190.867C199.183 193.292 197.668 196.068 197.253 199.104C197.214 199.395 196.754 199.379 196.795 199.086C197.222 195.97 198.749 193.113 200.613 190.622C200.789 190.387 201.178 190.63 200.999 190.87L200.999 190.867Z" fill="white"/>
<path d="M197.555 180.334C200.337 181.467 203.696 181.963 206.65 182.322C210.072 182.735 213.538 182.984 216.969 183.331C222.32 183.873 227.702 184.19 233.085 184.313C238.356 184.432 243.549 183.843 248.77 183.494C249.939 183.439 251.106 183.404 252.282 183.401C252.993 183.398 253.686 183.33 254.346 183.201C254.378 183.279 254.406 183.353 254.437 183.431C254.31 185.952 253.942 188.448 253.424 190.935C253.325 191.365 253.229 191.794 253.124 192.22C253.083 192.397 253.044 192.57 253.009 192.741C251.649 193.508 249.688 193.948 247.054 194.274C232.31 196.088 215.067 194.811 200.818 191.011C199.397 190.631 198.367 189.991 197.623 189.173C197.852 188.01 197.975 186.836 197.96 185.663C197.938 183.884 197.718 182.11 197.555 180.338L197.555 180.334Z" fill="#053449"/>
<path d="M229.95 175.628C230.089 176.054 230.127 176.49 230.109 176.953C230.096 177.26 229.721 177.245 229.734 176.938C229.749 176.565 229.727 176.201 229.614 175.854C229.523 175.574 229.857 175.342 229.948 175.625L229.95 175.628Z" fill="#114963"/>
<path d="M213.028 177.782C213.105 178.337 213.108 178.94 213.225 179.471C213.289 179.764 213.037 180.005 212.973 179.712C212.846 179.136 212.835 178.503 212.752 177.903C212.708 177.595 212.984 177.477 213.028 177.782Z" fill="#114963"/>
<path d="M235.947 177.578C236.038 178.171 236.059 178.791 236.15 179.387C236.194 179.666 235.922 179.775 235.878 179.496C235.786 178.899 235.766 178.28 235.675 177.687C235.633 177.408 235.904 177.302 235.947 177.578Z" fill="#114963"/>
<path d="M200.192 179.362C203.11 181.573 206.655 182.347 210.044 182.822C213.73 183.34 217.463 183.375 221.177 183.353C224.932 183.329 228.686 183.305 232.44 183.308C237.082 183.312 241.751 183.251 246.355 182.365C246.659 182.306 246.767 182.865 246.46 182.928C241.953 183.795 237.388 183.88 232.845 183.887C228.837 183.893 224.828 183.91 220.818 183.935C216.983 183.956 213.14 183.867 209.338 183.304C206.089 182.819 202.721 181.97 199.926 179.853C199.667 179.655 199.929 179.167 200.189 179.365L200.192 179.362Z" fill="white"/>
<path d="M198.313 181.807C198.496 183.081 198.626 184.359 198.368 185.633C198.252 186.195 197.457 185.922 197.57 185.363C197.794 184.259 197.653 183.117 197.496 182.012C197.416 181.445 198.233 181.237 198.313 181.807Z" fill="white"/>
<path d="M230.191 186.499C230.244 188.128 230.179 189.72 229.994 191.343C229.921 191.987 229.468 191.691 229.54 191.054C229.702 189.625 229.761 188.188 229.714 186.75C229.693 186.109 230.169 185.851 230.191 186.499Z" fill="white"/>
<path d="M219.066 187.379L218.932 190.68C218.901 191.455 218.343 191.432 218.374 190.658L218.508 187.356C218.54 186.581 219.098 186.604 219.066 187.379Z" fill="white"/>
<path d="M209.816 186.889C209.842 186.266 210.726 186.302 210.701 186.925C210.667 187.776 210.625 188.646 210.359 189.457C210.169 190.045 209.323 189.757 209.514 189.166C209.754 188.432 209.782 187.656 209.813 186.889L209.816 186.889Z" fill="white"/>
<path d="M202.716 185.435C202.739 184.876 204.075 184.93 204.053 185.49C204.024 186.19 203.962 186.88 203.614 187.539C203.337 188.063 202.062 187.783 202.339 187.257C202.649 186.666 202.695 186.06 202.721 185.433L202.716 185.435Z" fill="white"/>
<path d="M226.837 112.853C226.996 112.632 227.218 112.986 227.06 113.208C226.392 114.14 226.045 115.368 225.605 116.515C225.5 116.796 225.22 116.534 225.325 116.257C225.782 115.066 226.145 113.817 226.837 112.85L226.837 112.853Z" fill="white"/>
<path d="M234.204 107.862C235.485 107.764 236.902 107.815 238.131 107.658C238.422 107.62 238.667 107.791 238.375 107.829C237.101 107.994 235.655 107.946 234.329 108.048C234.021 108.072 233.9 107.886 234.204 107.862Z" fill="white"/>
<path d="M232.253 105.744C232.398 105.69 232.514 105.902 232.368 105.959C225.389 108.628 221.757 115.453 220.828 122.478C220.809 122.631 220.565 122.625 220.584 122.469C221.523 115.362 225.193 108.444 232.253 105.744Z" fill="white"/>
<path d="M204.102 109.404C205.875 106.907 208.514 105.441 210.546 103.216C210.654 103.098 210.814 103.282 210.707 103.397C208.733 105.56 206.191 107.007 204.413 109.388C202.694 111.686 201.678 114.456 200.913 117.226C200.869 117.38 200.642 117.306 200.683 117.152C201.444 114.405 202.454 111.722 204.102 109.404Z" fill="white"/>
<path d="M203.872 102.377C203.988 102.28 204.146 102.452 204.028 102.551C202.192 104.103 200.194 105.476 199.042 107.678C198.971 107.812 198.777 107.682 198.846 107.55C200.004 105.334 202.017 103.946 203.869 102.38L203.872 102.377Z" fill="white"/>
<path d="M201.981 60.1649C203.072 58.4509 206.991 59.1654 208.815 59.0363C212.437 58.7771 216.117 60.1008 219.693 60.5031C220.4 60.5826 221.107 60.6621 221.813 60.7479C224.844 61.1058 227.87 61.5048 230.874 62.0552C233.576 62.5489 236.471 62.6918 239.018 63.8014C242.017 65.1038 242.002 67.2551 241.597 70.3427C238.116 69.5476 234.955 67.8101 231.473 66.9673C225.18 65.4423 218.3 64.1473 211.813 64.1664C208.311 64.1766 205.38 65.8667 202.136 66.8903C202.626 66.7357 201.461 60.9754 201.978 60.1648L201.981 60.1649Z" fill="#001C2D"/>
<path d="M180.438 122.93C181.013 122.359 181.618 122.032 182.229 122.165C184.446 122.66 186.371 126.63 186.915 128.564C187.818 131.758 187.298 135.066 187.123 138.322C186.989 140.851 187.916 144.068 186.624 146.357C185.583 145.057 185.748 143.201 184.978 141.741C183.161 138.289 177.979 132.19 173.804 132.096C174.644 130.613 176.16 129.716 177.092 128.315C177.754 127.324 178.996 124.36 180.435 122.927L180.438 122.93Z" fill="#D68030"/>
<path d="M201.435 99.2151C203.317 96.3326 206.728 93.7853 209.877 92.5388C210.401 92.331 212.433 96.1505 212.58 96.6428C213.061 98.2532 213.028 99.8991 213.037 101.572C213.046 103.257 212.639 105.057 212.341 106.711C212.317 106.849 210.933 107.712 210.731 107.911C210.159 108.465 209.706 109.049 209.242 109.708C208.095 111.337 207.03 113.022 206.004 114.728C205.266 115.96 204.616 117.242 203.869 118.457C202.861 120.101 201.976 121.593 201.253 123.387C200.038 126.4 199.054 129.498 198.101 132.606C197.635 134.131 197.169 135.659 196.702 137.187C196.126 139.065 195.512 140.825 195.237 142.794C195.599 140.195 195.425 137.565 195.269 134.957C194.75 126.38 194.237 116.82 197.044 108.554C198.148 105.304 199.559 102.082 201.432 99.215L201.435 99.2151Z" fill="#0F88AF"/>
<path d="M222.509 37.7106C231.469 38.1756 240.574 43.7253 244.166 52.1828C246.281 57.1574 246.25 63.5109 245.315 68.7639C245.061 70.1942 245.227 72.1483 243.699 72.8904C241.704 73.8607 240.964 72.1841 240.709 70.6476C240.326 68.3587 240.519 67.3596 238.482 65.7001C236.218 63.8572 233.57 63.1481 230.759 62.7775C225.598 62.0962 220.36 62.6087 215.175 62.5217C214.054 62.5015 200.303 61.5791 200.308 61.6078C199.655 56.55 202.51 49.6241 205.356 45.6139C209.541 39.7266 215.985 37.3729 222.509 37.7137L222.509 37.7106Z" fill="#EEA153"/>
<path d="M218.586 60.9509C226.401 60.3315 239.191 60.4236 242.667 68.9373C242.921 68.9761 243.15 69.1562 243.178 69.4896L243.306 71.0769C243.316 71.1311 243.32 71.1819 243.318 71.2293L243.331 71.3943C243.398 72.2134 242.13 72.317 242.065 71.498L242.04 71.1806C240.127 61.4457 226.241 61.6224 218.692 62.2209C217.876 62.2859 217.773 61.016 218.589 60.951L218.586 60.9509Z" fill="#D8873D"/>
<path d="M209.205 45.6036C215.436 44.9555 216.091 56.5701 214.96 60.8777C210.587 60.4677 206.458 59.8834 201.881 60.0174C201.905 59.6663 201.939 59.2769 201.985 58.8589C202.51 54.2812 204.627 46.0798 209.202 45.6035L209.205 45.6036Z" fill="#D8873D"/>
<path d="M232.022 96.3383C232.909 99.3866 235.115 102.216 238.015 103.403C238.205 103.479 238.11 103.797 237.916 103.717C234.907 102.483 232.632 99.5753 231.711 96.4109C231.653 96.2086 231.963 96.1327 232.022 96.335L232.022 96.3383Z" fill="#D07E29"/>
<path d="M195.791 60.3485C200.503 60.1916 205.211 60.2099 209.916 60.22C212.494 60.2248 217.763 60.0527 219.69 61.883C219.726 61.9196 214.155 62.6437 213.47 62.6699C212.897 62.6898 212.325 62.7071 211.752 62.7244C208.585 62.8118 205.418 62.829 202.254 62.8652C201.21 62.8768 188.522 63.4335 190.242 61.1599C191.018 60.1332 194.526 60.389 195.788 60.3484L195.791 60.3485Z" fill="#D8873D"/>
<path d="M217.208 60.7081C227.023 60.9456 241.426 59.0636 243.87 71.7783C243.947 72.1745 243.323 72.2203 243.249 71.8273C240.895 59.5744 226.645 61.5555 217.26 61.3292C216.861 61.3192 216.806 60.698 217.208 60.7081Z" fill="#D8873D"/>
<path d="M151.815 163.66C155.046 163.289 158.347 163.711 161.546 164.149C162.892 164.333 165.602 164.174 166.49 165.471C167.531 166.988 165.771 169.53 165.124 170.874C164.12 172.96 163.416 174.931 163.318 177.268C161.413 176.879 159.731 175.605 157.964 174.859C156.743 174.343 155.626 173.678 154.506 173.001C153.946 172.664 153.39 172.32 152.817 171.989C151.129 171.016 147.767 169.771 147.288 167.59C146.778 165.254 150.016 163.866 151.815 163.66Z" fill="#C15C4C"/>
<path d="M165.388 165.688C165.76 163.159 168.385 163.184 170.431 163.032C173.915 162.768 177.415 162.722 180.899 162.895C184.04 163.05 187.17 163.375 190.275 163.875C193.208 164.346 196.143 165.297 199.104 165.546C204.616 166.009 210.569 167.07 215.71 169.251C217.662 170.077 219.402 170.964 221.372 171.679C223.752 172.542 226.293 174.714 227.599 176.859C229.311 179.669 229.304 184.245 229.114 187.443C228.653 195.168 219.717 196.448 213.74 196.535C204.341 196.674 195.897 194.922 187.148 191.423C183.691 190.039 180.296 188.507 176.921 186.935C173.577 185.38 170.63 183.794 167.624 181.706C166.391 180.849 164.906 179.872 163.977 178.656C163.196 177.639 162.805 176.458 163.276 175.045C164.341 171.847 164.91 168.963 165.394 165.685L165.388 165.688Z" fill="#001C2D"/>
<path d="M140.346 169.627C138.085 169.472 136.692 167.144 138.676 165.576C141.392 163.427 144.037 169.881 140.346 169.627Z" fill="#C15C4C"/>
<path d="M129.894 161.512C131.025 161.056 131.595 162.123 132.648 162.716C133.524 163.211 134.261 163.949 135.038 164.617C134.758 165.13 133.592 166.516 132.955 165.782C131.96 164.638 129.558 162.373 129.558 162.373C129.558 162.373 129.455 161.692 129.897 161.509L129.894 161.512Z" fill="#C15C4C"/>
<path d="M134.552 164.96C135.482 164.843 138.101 165.273 138.65 166.016C138.821 166.248 138.708 168.543 138.78 168.797C138.534 168.941 137.245 169.575 133.511 167.027C132.38 166.255 132.332 165.243 134.552 164.96Z" fill="#C15C4C"/>
<path d="M132.681 155.716C132.629 155.497 131.127 152.287 131.127 152.287C131.127 152.287 131.483 151.687 131.944 151.495C133.024 151.053 133.759 152.659 134.382 152.921C134.079 152.79 134.679 152.07 134.762 152.028C135.804 151.498 138.937 155.206 138.937 155.206C138.937 155.206 140.259 155.634 142.083 156.287C141.436 157.949 140.874 159.655 140.328 161.369C139.923 162.638 140.665 164.977 139.271 165.55C138.255 165.969 136.571 164.945 135.728 164.511C135.681 164.486 135.633 164.469 135.586 164.447C135.556 164.427 135.524 164.407 135.492 164.386C135.127 164.157 134.467 163.839 134.154 163.52C133.554 162.913 129.463 155.151 129.871 154.825C130.246 154.524 131.014 154.335 132.681 155.71L132.681 155.716Z" fill="#C15C4C"/>
<path d="M135.8 159.94C136.313 160.23 139.001 161.746 140.155 162.476L139.9 162.903C138.642 162.106 135.514 160.35 135.483 160.335L135.397 160.282L135.356 160.194C135.347 160.177 134.54 158.479 132.611 155.554L132.841 155.351C134.563 157.969 135.604 159.547 135.8 159.94Z" fill="#A24D44"/>
<path d="M137.336 157.391C137.816 157.662 140.309 159.081 141.383 159.76L141.146 160.16C139.975 159.414 137.077 157.78 137.045 157.764L136.965 157.717L136.924 157.629C136.924 157.629 136.164 156.026 134.38 153.296L134.587 153.187C136.186 155.63 137.157 157.027 137.336 157.391Z" fill="#A24D44"/>
<path d="M133.089 162.266C133.585 162.608 136.15 164.36 137.25 165.197L136.945 165.578C135.752 164.672 132.759 162.636 132.731 162.616L132.647 162.56L132.612 162.468C132.612 162.468 131.954 160.712 130.29 157.665L130.541 157.493C132.032 160.222 132.932 161.863 133.086 162.266L133.089 162.266Z" fill="#A24D44"/>
<path d="M143.017 156.448C144.58 156.21 147.757 156.612 149.223 157.225C152.035 158.396 154.712 160.832 155.516 163.858C156.869 168.938 150.077 172.171 146.078 171.486C144.41 171.198 142.627 170.56 141.158 169.695C139.68 168.824 139.515 167.341 139.491 165.734C139.47 164.425 139.598 162.941 139.961 161.682C140.459 159.98 141.001 156.751 143.017 156.448Z" fill="#C15C4C"/>
<path d="M149.726 153.744C151.572 155.257 153.529 159.815 152.948 162.315C150.182 161.68 147.694 158.423 146.773 155.667C146.008 153.392 148.215 152.507 149.726 153.744Z" fill="#C15C4C"/>
<path d="M167.5 163.484C166.664 164.552 163.912 178.425 163.876 178.408C162.537 177.774 160.135 177.36 159.16 176.255C159.071 176.153 161.301 164.494 161.753 163.162C162.103 162.126 166.621 163.246 167.5 163.484Z" fill="#001C2D"/>
<path d="M218.238 160.878C220.346 152.601 223.282 144.538 226.967 136.902C230.18 130.242 233.673 122.408 240.423 118.765C246.508 115.482 252.586 116.548 256.677 122.967C261.442 130.445 261.12 140.009 259.918 148.173C259.239 152.795 258.01 157.316 256.356 161.635C255.943 162.712 255.488 163.823 254.988 164.947C249.798 176.648 239.973 190.309 227.13 192.954C222.287 193.952 218.568 191.547 216.523 187.093C214.504 182.693 214.141 180.143 214.582 175.437C215.041 170.525 217.02 165.659 218.238 160.878Z" fill="#001C2D"/>
<path d="M226.734 162.34C225.999 163.093 225.757 164.162 225.546 165.09C225.483 165.372 224.946 165.258 225.01 164.976C225.24 163.962 225.529 162.85 226.329 162.025C226.55 161.802 226.948 162.116 226.734 162.34Z" fill="#114963"/>
<path d="M233.941 180.803C234.164 180.513 234.573 180.909 234.35 181.196C233.469 182.351 232.491 183.424 231.432 184.417C231.164 184.665 230.751 184.275 231.019 184.023C232.078 183.031 233.056 181.957 233.937 180.803L233.941 180.803Z" fill="#114963"/>
<path d="M183.81 168.039C185.312 168.142 186.809 168.369 188.311 168.467C188.653 168.491 188.546 169.36 188.213 169.336C186.711 169.239 185.214 169.011 183.712 168.914C183.37 168.89 183.477 168.021 183.81 168.039Z" fill="#114963"/>
<path d="M213.251 178.273C214.1 179.264 214.948 180.26 215.88 181.189C216.121 181.427 215.742 181.791 215.501 181.55C214.537 180.587 213.661 179.557 212.782 178.532C212.561 178.275 213.034 178.019 213.251 178.273Z" fill="#114963"/>
<path d="M171.709 178.745L175.051 180.099C175.359 180.224 175.144 180.634 174.834 180.512L171.491 179.158C171.184 179.033 171.402 178.62 171.709 178.745Z" fill="#114963"/>
<path d="M189.545 178.337C190.847 178.523 192.177 178.562 193.479 178.746C193.821 178.795 193.745 179.095 193.403 179.045C192.104 178.861 190.77 178.822 189.469 178.636C189.126 178.588 189.203 178.287 189.548 178.335L189.545 178.337Z" fill="#114963"/>
<path d="M233.746 89.0265C235.501 91.6394 235.428 94.9062 236.942 97.5529C238.234 99.8173 240.223 101.587 241.453 104.023C238.014 106.858 236.633 110.588 233.577 113.581C230.375 116.718 226.489 119.071 223.612 122.559C220.548 126.271 217.929 130.315 215.437 134.426C213.943 136.891 207.623 144.543 207.894 147.22C207.019 138.576 208.046 122.463 212.626 114.753C218.254 105.275 227.267 97.8476 233.749 89.0266L233.746 89.0265Z" fill="#0F88AF"/>
<path d="M232.681 83.9532C236.572 88.2304 234.767 91.4531 236.881 96.0996C238.598 99.869 241.588 103.378 245.903 104.537L244.594 106.058C240.665 109.794 234.594 103.722 232.964 100.303C231.334 96.8869 231.63 93.8143 232.348 90.2699C232.788 88.0989 232.18 86.0997 232.681 83.9532Z" fill="#1E1D1D"/>
<path d="M117.678 115.762C118.467 116.865 118.961 118.055 119.523 119.226C119.707 119.608 118.897 119.733 118.716 119.36C118.18 118.24 117.703 117.105 116.949 116.048C116.692 115.69 117.426 115.407 117.678 115.762Z" fill="white"/>
<path d="M102.962 122.727C111.042 122.778 118.958 120.965 126.943 119.907C127.354 119.853 127.506 120.505 127.088 120.559C119.047 121.624 111.075 123.448 102.935 123.398C102.513 123.396 102.54 122.722 102.962 122.727Z" fill="#E6E9ED"/>
<path d="M103.974 121.709C107.983 119.993 112.096 118.429 115.841 116.153C116.206 115.93 116.513 116.524 116.151 116.744C112.406 119.023 108.294 120.583 104.285 122.299C103.896 122.467 103.583 121.876 103.974 121.709Z" fill="#E6E9ED"/>
<path d="M24.0959 234.825C23.6931 234.652 22.9462 234.253 21.7945 233.499C20.6428 232.745 19.0831 231.64 17.4628 230.255C15.8426 228.869 14.1587 227.202 12.7608 225.657C11.3627 224.114 10.2418 222.68 9.01515 220.923C7.78847 219.165 6.43224 217.055 5.05957 214.425C3.6869 211.795 2.29455 208.648 1.64087 207.03C0.987196 205.411 1.07232 205.318 1.43118 205.107C1.79004 204.897 2.42902 204.566 2.7485 204.401C2.9615 204.29 3.15541 204.188 3.33026 204.093C3.59253 203.95 4.12005 203.668 4.47709 203.579C4.83413 203.491 5.03292 203.602 5.49899 204.371C5.96519 205.138 6.73214 206.586 7.3669 207.669C8.00179 208.749 8.51896 209.492 9.06776 209.996C9.61655 210.5 10.2125 210.768 10.9175 210.738C11.6256 210.707 12.4673 210.391 13.9025 209.629C15.3378 208.868 17.3633 207.668 19.8211 206.066C22.2818 204.468 25.1909 202.459 27.5117 200.839C29.8326 199.22 31.5945 197.965 35.0156 195.745C35.5328 195.41 36.0949 195.048 36.6826 194.672L36.6823 194.678C36.1771 197.106 35.6655 199.538 35.1572 201.966C32.5581 203.274 29.8358 204.612 27.1163 206.034C24.1412 207.59 21.1775 209.249 18.8896 210.673C16.6017 212.097 14.9895 213.286 14.0511 214.215C13.1094 215.143 12.8385 215.807 13.1948 217.201C13.5479 218.595 14.5316 220.715 16.0941 223.215C17.6597 225.715 19.8071 228.598 21.3237 230.612C22.8372 232.622 23.7286 233.778 24.1395 234.367C24.5503 234.956 24.508 234.998 24.1084 234.825L24.0959 234.825Z" fill="#B3B3B3"/>
<path d="M47.1942 188.064C47.4605 187.899 47.7268 187.735 47.9899 187.571C52.4658 184.797 56.334 182.429 58.5167 181.208C60.6993 179.989 61.2091 179.912 61.7461 180.169C62.283 180.425 62.8725 181.006 63.3672 181.764C63.8619 182.522 64.262 183.452 64.3784 184.129C64.4979 184.806 64.3339 185.225 63.6833 185.765C63.0327 186.305 61.8957 186.962 58.5354 188.915C57.1868 189.699 55.4762 190.693 53.6473 191.751C53.6157 191.681 53.5871 191.614 53.5553 191.55C52.0819 188.55 47.8237 188.121 47.2005 188.064L47.1942 188.064Z" fill="#B3B3B3"/>
<path d="M35.1506 201.972C35.1282 201.984 35.1091 201.992 35.0868 202.004L32.3931 197.475C33.1647 196.959 34.0164 196.396 35.0154 195.749C35.5326 195.413 36.0947 195.051 36.6823 194.675C36.1739 197.106 35.6623 199.538 35.1537 201.972L35.1506 201.972Z" fill="#6F7C91"/>
<path d="M53.5489 191.547C52.0756 188.547 47.8173 188.117 47.1941 188.061C47.4603 187.896 47.7267 187.729 47.9898 187.568C52.4656 184.794 56.3338 182.426 58.5166 181.205C60.6992 179.986 61.209 179.909 61.7459 180.166C62.2829 180.422 62.8724 181.003 63.367 181.761C63.8617 182.519 64.2619 183.449 64.3783 184.126C64.4978 184.803 64.3338 185.222 63.6832 185.762C63.0326 186.302 61.8955 186.959 58.5352 188.912C57.1835 189.695 55.4728 190.693 53.6439 191.751C53.6123 191.681 53.5837 191.614 53.5489 191.547Z" fill="#6F7C91"/>
<path d="M205.276 194.782C205.235 195.48 205.191 196.177 205.15 196.874C203.544 196.577 201.933 196.317 200.313 196.135C199.983 205.98 201.12 215.898 201.959 225.784L190.141 225.304C191.012 212.914 191.663 200.532 192.977 188.088C193.141 186.531 193.263 184.991 193.36 183.456C194.695 181.505 196.167 179.7 197.799 178.109C198.565 178.929 199.684 179.52 200.784 179.803C202.426 180.224 204.138 180.387 205.859 180.432C205.781 185.223 205.555 190.005 205.276 194.782Z" fill="#1B3B5E"/>
<path d="M228.837 201.411C228.243 200.799 227.643 200.322 227.042 199.944C226.83 198.873 226.643 197.796 226.474 196.717C225.886 192.927 225.164 189.153 224.61 185.358C224.243 182.849 224.168 180.229 223.015 177.96C217.47 178.954 211.797 179.546 206.203 179.766C204.836 179.82 203.436 179.866 202.042 179.831C202.057 178.841 202.07 177.854 202.073 176.863C202.107 165.481 201.88 153.394 204.512 142.27C207.03 131.636 210.695 121.995 216.675 113.176C220.978 106.831 226.51 98.719 234.239 102.874C240.121 106.036 247.732 112.871 249.799 120.1C259.539 154.253 258.244 191.537 255.426 227.396L245.647 226.999C241.682 217.814 235.068 207.8 228.837 201.411Z" fill="#0F88AF"/>
<path d="M227.274 178.746C228.446 181.014 228.525 183.628 228.899 186.137C229.464 189.929 230.2 193.699 230.8 197.486C230.972 198.564 231.164 199.64 231.38 200.71C227.985 198.621 224.415 199.706 219.942 199.425C214.989 199.114 210.148 197.887 205.263 196.987C205.307 196.292 205.347 195.597 205.388 194.903C205.669 190.143 205.894 185.378 205.968 180.604C207.388 180.64 208.81 180.595 210.195 180.542C215.877 180.323 221.639 179.739 227.271 178.749L227.274 178.746Z" fill="#4C9589"/>
<path d="M179.791 224.881L176.191 224.735C176.911 215.707 177.905 206.697 180.046 197.88C182.993 185.746 184.021 173.126 186.023 160.716C187.381 152.298 188.047 143.589 188.026 135.096C188.005 127.152 187.328 118.17 191.289 110.955C193.011 107.819 209.773 94.6182 209.585 104.26C209.539 106.557 207.494 108.02 206.767 110.121C206.275 111.542 206.025 113.16 205.109 114.389C204.329 115.433 203.421 116.213 202.706 117.357C200.867 120.283 198.932 123.338 198.144 126.74C195.827 136.735 194.637 147.041 194.137 157.275C193.696 166.28 194.093 174.835 193.535 183.663C187.034 193.192 183.865 206.325 181.679 216.029C181.016 218.971 180.386 221.924 179.791 224.884L179.791 224.881Z" fill="#0F88AF"/>
<path d="M190.275 225.31L179.539 224.874C180.14 221.904 180.783 218.942 181.457 215.99C183.678 206.255 186.895 193.081 193.513 183.524C193.416 185.056 193.293 186.597 193.128 188.149C191.805 200.574 191.15 212.938 190.278 225.31L190.275 225.31Z" fill="#0F88AF"/>
<path d="M223.737 139.281C225.416 134.806 227.093 130.276 229.604 126.214C233.64 119.679 240.808 113.193 248.782 113.672C257.267 114.178 260.733 123.383 261.685 130.821C262.827 139.71 260.008 148.423 258.902 157.169C257.518 168.109 254.278 179.664 249.553 189.563C245.212 198.662 236.357 203.533 227.053 199.201C216.032 194.071 213.347 183.236 214.134 171.752C214.888 160.765 219.934 149.401 223.734 139.284L223.737 139.281Z" fill="#0F88AF"/>
<path d="M175.253 160.985C188.07 165.527 226.071 161.351 230.087 179.763C231.67 187.03 235.647 199.144 228.97 204.577C223.168 209.295 213.986 205.816 207.558 204.727C195.465 202.677 182.905 199.519 170.666 198.442C169.232 192.599 169.796 177.3 172.269 167.826C173.068 164.774 174.064 162.324 175.253 160.992L175.253 160.985Z" fill="#0F88AF"/>
<path d="M257.346 166.778L256.13 173.333C253.898 177.485 251.753 182.155 248.23 185.186C247.024 173.057 238.468 148.397 224.121 145.468C234.611 115.222 257.209 148.446 257.349 166.775L257.346 166.778Z" fill="#D68030"/>
<path d="M202.458 165.771C202.619 165.668 202.791 165.581 202.98 165.503C206.641 164.029 211.401 166.285 214.836 167.659C214.721 171.381 213.435 175.427 213.272 179.459C213.201 181.205 213.126 206.064 212.973 206.07C210.656 206.187 202.388 205.264 200.919 203.157C198.735 200.022 199.986 188.969 199.941 184.903C199.907 181.966 199.756 178.86 200.009 175.758C200.233 173.032 200.377 167.134 202.458 165.771Z" fill="#D68030"/>
<path d="M224.009 145.413L214.154 166.952L222.547 143.519L224.009 145.413Z" fill="#125064"/>
<path d="M247.748 186.714C247.748 186.714 247.095 187.228 245.957 188.081C242.09 190.98 232.632 197.787 224.311 201.518C213.543 206.346 242.566 194.285 248.485 187.226L247.748 186.714Z" fill="#125064"/>
<path d="M186.631 146.539L180.583 157.848L185.004 141.82L186.631 146.539Z" fill="#125064"/>
<path d="M78.3539 221.021L78.354 199.695C81.5452 201.101 85.1663 202.307 88.4356 203.572C160.558 224.899 242.836 226.431 286.579 225.286C233.422 239.14 131.696 231.109 78.3539 221.021Z" fill="#BFB61F"/>
<g opacity="0.54">
<path d="M142.66 107.583L141.706 105.054L142.393 105.731L143.489 106.847L143.424 106.334L143.754 106.654L144.686 107.495L142.66 107.58L142.66 107.583ZM138.095 105.209L137.856 103.341L138.362 103.836L139.047 104.463L137.77 101.053L138.878 102.154L141.71 105.06L138.099 105.212L138.095 105.209Z" fill="#0385A1"/>
<path d="M131.362 106.946L131.483 109.813L132.007 109.79L131.964 108.799C132.057 108.883 132.165 108.952 132.284 108.996C132.392 109.034 132.508 109.052 132.625 109.046C132.895 109.034 133.127 108.918 133.315 108.7C133.502 108.482 133.591 108.214 133.578 107.904C133.563 107.58 133.457 107.316 133.255 107.12C133.07 106.929 132.811 106.826 132.544 106.838C132.42 106.842 132.302 106.871 132.191 106.923C132.076 106.979 131.977 107.057 131.89 107.15L131.882 106.92L131.358 106.943L131.362 106.946ZM132.875 107.487C132.988 107.598 133.047 107.743 133.057 107.923C133.063 108.103 133.015 108.256 132.911 108.378C132.813 108.496 132.667 108.569 132.513 108.572C132.356 108.582 132.203 108.525 132.094 108.416C131.978 108.304 131.918 108.157 131.911 107.97C131.905 107.786 131.953 107.637 132.057 107.518C132.158 107.4 132.309 107.333 132.463 107.33C132.616 107.32 132.77 107.377 132.879 107.486L132.875 107.487Z" fill="black"/>
<path d="M135.705 107.868C135.691 107.521 135.574 107.245 135.358 107.044C135.142 106.843 134.87 106.748 134.536 106.761C134.226 106.774 133.971 106.892 133.773 107.111C133.576 107.33 133.484 107.601 133.499 107.922C133.513 108.242 133.627 108.491 133.843 108.689C134.059 108.887 134.33 108.981 134.66 108.966C134.874 108.956 135.053 108.91 135.205 108.83C135.364 108.742 135.494 108.618 135.588 108.463L135.135 108.274C135.007 108.416 134.827 108.495 134.637 108.502C134.474 108.51 134.336 108.471 134.226 108.386C134.116 108.301 134.039 108.175 134.014 108.037L135.705 107.965L135.704 107.864L135.705 107.868ZM134.02 107.624C134.072 107.491 134.133 107.397 134.2 107.343C134.308 107.254 134.444 107.206 134.581 107.205C134.708 107.198 134.835 107.231 134.943 107.3C135.044 107.366 135.121 107.461 135.161 107.578L134.02 107.627L134.02 107.624Z" fill="black"/>
<path d="M137.221 106.93C137.125 106.843 137.01 106.772 136.887 106.725C136.776 106.686 136.66 106.665 136.543 106.671C136.292 106.678 136.056 106.788 135.888 106.973C135.69 107.186 135.598 107.457 135.614 107.791C135.628 108.101 135.736 108.355 135.938 108.551C136.129 108.741 136.395 108.84 136.665 108.824C136.782 108.822 136.9 108.796 137.009 108.75C137.117 108.698 137.214 108.628 137.291 108.539C137.299 108.709 137.285 108.828 137.253 108.902C137.215 108.979 137.154 109.04 137.078 109.078C136.992 109.124 136.881 109.153 136.738 109.158C136.641 109.165 136.543 109.153 136.449 109.126C136.373 109.101 136.301 109.058 136.245 109L135.664 109.026C135.712 109.162 135.792 109.281 135.893 109.38C135.997 109.476 136.123 109.55 136.258 109.592C136.401 109.637 136.573 109.656 136.78 109.647C137.168 109.632 137.449 109.504 137.632 109.27C137.767 109.098 137.829 108.833 137.811 108.476L137.734 106.677L137.21 106.7L137.218 106.93L137.221 106.93ZM137.104 107.305C137.216 107.41 137.275 107.548 137.284 107.725C137.293 107.901 137.245 108.047 137.143 108.162C137.042 108.277 136.898 108.343 136.747 108.343C136.59 108.353 136.437 108.299 136.322 108.194C136.206 108.086 136.144 107.945 136.139 107.771C136.128 107.615 136.179 107.462 136.283 107.343C136.385 107.228 136.532 107.162 136.686 107.159C136.856 107.15 136.996 107.199 137.108 107.304L137.104 107.305Z" fill="black"/>
<path d="M138.046 108.764L138.573 108.741L138.536 107.9C138.526 107.684 138.527 107.539 138.54 107.474C138.558 107.362 138.607 107.256 138.685 107.171C138.758 107.096 138.854 107.055 138.954 107.051C139.027 107.043 139.103 107.065 139.164 107.105C139.226 107.149 139.27 107.215 139.291 107.289C139.317 107.37 139.335 107.536 139.345 107.786L139.384 108.704L139.904 108.681L139.845 107.293C139.835 107.053 139.766 106.873 139.639 106.753C139.493 106.617 139.298 106.545 139.098 106.556C138.995 106.561 138.897 106.585 138.804 106.628C138.687 106.688 138.581 106.763 138.49 106.853L138.48 106.64L137.954 106.663L138.043 108.761L138.046 108.764Z" fill="black"/>
<path d="M140.11 108.68L140.637 108.657L140.514 105.746L139.986 105.77L140.11 108.68Z" fill="black"/>
</g>
<defs>
<linearGradient id="paint0_linear_146_4604" x1="64.8884" y1="185.165" x2="40.6672" y2="192.408" gradientUnits="userSpaceOnUse">
<stop stop-color="#FFC0BB"/>
<stop offset="0.28" stop-color="#FFB7B3"/>
<stop offset="0.71" stop-color="#FFA19F"/>
<stop offset="1" stop-color="#FF8F8F"/>
</linearGradient>
<linearGradient id="paint1_linear_146_4604" x1="164.339" y1="155.442" x2="129.93" y2="141.436" gradientUnits="userSpaceOnUse">
<stop stop-color="#FFC0BB"/>
<stop offset="0.28" stop-color="#FFB7B3"/>
<stop offset="0.71" stop-color="#FFA19F"/>
<stop offset="1" stop-color="#FF8F8F"/>
</linearGradient>
</defs>
</svg>
