<svg width="495" height="451" viewBox="0 0 495 451" fill="none" xmlns="http://www.w3.org/2000/svg">
<path d="M49.2902 372.971C50.2251 373.126 51.1389 373.448 51.9997 373.972C52.9005 374.522 53.8221 375.037 54.7537 375.524C54.9163 375.147 55.0154 374.71 54.9948 374.203C54.7383 367.473 58.1564 360.867 61.9449 355.58C61.9555 355.568 61.9604 355.551 61.9708 355.533C59.8185 355.381 57.6641 355.178 55.5286 354.895C52.1021 360.333 49.4444 366.497 49.296 372.976L49.2902 372.971Z" fill="#8ACBC8"/>
<path d="M74.0561 359.292C72.6475 365.554 72.2377 372.048 74.1634 378.52C76.0375 378.098 77.9774 377.997 79.8386 378.267C80.3453 378.343 80.8238 378.449 81.2853 378.566C81.3951 377.954 81.3792 377.274 81.1494 376.517C79.4401 370.904 80.3188 365.288 81.6415 359.938C81.6769 359.8 81.6775 359.669 81.7014 359.538C79.1112 359.774 76.5327 359.719 74.062 359.292L74.0561 359.292Z" fill="#8ACBC8"/>
<path d="M73.8507 362.684C72.8608 367.128 72.2242 372.198 74.0239 376.518C74.2306 377.011 74.9721 376.761 74.7652 376.261C73.0159 372.066 73.6505 367.195 74.6105 362.885C74.7301 362.35 73.9707 362.16 73.856 362.689L73.8507 362.684Z" fill="white"/>
<path d="M80.6266 361.301C78.071 365.604 76.9997 370.922 79.2342 375.272C79.4922 375.769 80.6947 375.501 80.4368 375.004C78.3094 370.869 79.2914 365.774 81.7322 361.673C82.0237 361.18 80.9261 360.802 80.6266 361.301Z" fill="white"/>
<path d="M57.0787 360.189C54.1673 364.811 53.3441 370.034 53.4988 375.161C53.5145 375.712 54.5413 375.67 54.5257 375.119C54.3701 370.137 55.1532 365.078 57.9831 360.587C58.2971 360.095 57.386 359.697 57.0787 360.189V360.189Z" fill="white"/>
<path d="M116.589 353.21C121.3 357.989 122.684 364.986 123.439 371.265C123.512 371.846 124.473 371.813 124.399 371.226C123.602 364.671 122.15 357.518 117.237 352.541C116.813 352.109 116.166 352.785 116.583 353.211L116.589 353.21Z" fill="white"/>
<path d="M109.994 354.791C108.215 354.649 105.701 355.279 104.223 356.196C104.364 357.251 104.528 358.31 104.726 359.357C104.819 359.393 104.907 359.43 105.012 359.467C108.739 360.885 112.802 358.554 114.091 364.481C114.594 366.801 113.928 369.412 112.695 371.368C112.484 371.707 109.886 374.119 108.077 375.241C108.257 376.253 108.425 377.272 108.576 378.291C112.461 379.646 118.88 371.801 119.591 368.881C121.353 361.642 117.765 355.391 110 354.785L109.994 354.791Z" fill="#EFECEB"/>
<path d="M117.11 361.859C114.503 362.654 111.841 363.13 109.24 363.924C105.061 365.201 106.408 369.199 110.574 367.916C113.181 367.116 115.843 366.646 118.45 365.846C122.629 364.569 121.282 360.577 117.116 361.853L117.11 361.859Z" fill="#EFECEB"/>
<path d="M97.1945 357.525C92.9098 364.204 81.6859 369.215 77.4734 359.706C77.2309 359.152 76.3698 359.614 76.6118 360.157C78.3009 363.976 81.8628 366.585 86.4103 365.951C91.4011 365.256 95.466 362.003 98.0305 358.012C98.3627 357.494 97.5269 357.014 97.1945 357.525V357.525Z" fill="white"/>
<path d="M118.455 416.193L121.825 416.056C123.446 397.811 125.635 379.502 125.03 361.342C121.944 361.681 118.876 362.17 115.816 362.716C116.932 380.584 118.322 398.296 118.449 416.193L118.455 416.193Z" fill="#164B85"/>
<path d="M62.6461 386.967C64.9082 381.433 66.5124 375.684 67.7014 369.849C66.5646 370.545 65.4409 371.425 64.3215 372.552C52.5857 384.321 40.1177 402.759 32.6485 419.676L57.4639 418.669C57.192 407.83 58.3698 397.433 62.6519 386.967L62.6461 386.967Z" fill="#0F88AF"/>
<path d="M57.2411 418.55L118.704 416.055C118.553 398.169 117.189 380.465 116.086 362.607C107.002 364.276 98.0013 366.548 88.7918 367.125C80.4762 367.647 73.838 365.64 67.5257 369.508C66.3325 375.37 64.7227 381.145 62.4526 386.704C58.1556 397.223 56.9736 407.661 57.2469 418.55L57.2411 418.55Z" fill="#0F88AF"/>
<path d="M325.273 319.179L175.347 318.104L175.567 413.874L334.936 407.404L325.273 319.179Z" fill="#722318"/>
<path d="M407.761 373.043C410.997 373.124 414.122 372.577 417.345 372.602C420.746 372.625 423.189 372.872 426.495 373.118C428.287 373.252 429.664 372.378 430.991 371.281C431.7 370.699 433.334 370.079 433.334 370.079C433.334 370.079 435.79 371.795 437.322 370.5C439.39 368.756 438.729 367.244 438.314 365.393C437.801 363.114 437.448 361.526 436.82 359.269C435.66 355.098 435.711 352.531 433.902 348.576C433.055 346.725 419.908 337.922 418.383 336.549C416.75 335.082 401.94 322.381 401.94 322.381L386.983 327.605L377.831 339.4C377.831 339.4 389.678 351.835 390.274 353.015C390.932 354.331 395.381 359.43 397.212 360.808C397.017 366.643 401.864 372.896 407.772 373.036L407.761 373.043Z" fill="#FFC0BB"/>
<path d="M377.819 339.4C377.819 339.4 389.667 351.835 390.262 353.015C390.921 354.332 395.37 359.43 397.201 360.809C397.006 366.643 401.853 372.896 407.761 373.037C410.997 373.118 414.122 372.571 417.345 372.596C420.746 372.619 423.188 372.866 426.495 373.112C427.848 373.212 428.958 372.741 429.996 372.036C428.432 367.016 426.975 360.216 426.93 359.406C426.826 357.416 401.626 331.961 394.524 324.97L388.722 326.998L387.091 328.275L385.624 329.348L381.664 334.449L377.825 339.394L377.819 339.4Z" fill="url(#paint0_linear_113_2675)"/>
<path d="M216.703 68.2293L218.025 115.189C218.241 116.229 221.286 129.917 233.435 134.653C244.513 138.972 258.416 134.001 265.676 121.999L262.937 66.5155L216.703 68.2235L216.703 68.2293Z" fill="#FFC0BB"/>
<path d="M207.883 119.045C215.231 189.468 222.579 259.884 229.927 330.306L311.04 326.146L299.483 203.852C299.461 176.562 294.059 141.614 268.97 120.719C267.978 119.892 266.952 119.083 265.892 118.299C262.153 121.186 254.198 126.496 242.819 128.009C224.64 130.419 211.136 121.361 207.889 119.051L207.883 119.045Z" fill="#141414"/>
<path d="M317.621 143.614C319.794 145.698 322.189 148.348 324.468 151.64C329.031 158.242 331.231 164.681 332.357 169.245C332.357 169.245 339.117 186.308 348.189 225.852C348.294 226.302 348.424 226.555 348.555 226.946C349.918 230.994 354.554 244.19 366.017 262.103C373.592 273.945 388.322 294.363 409.606 318.71C401.325 332.839 393.044 346.968 384.757 361.097C374.853 351.901 363.651 340.144 352.585 325.514C341.313 310.61 332.936 296.365 326.733 284.146C331.137 307.018 335.536 329.895 339.939 352.767C339.939 352.767 338.046 353.022 337.197 352.879L308.18 354.057C308.18 354.057 292.766 207.028 291.175 199.059C280.361 144.857 272.559 141.122 272.559 141.122C269.531 134.906 263.868 124.108 266.384 122.092C268.483 120.415 274.663 125.848 283.439 130.991C290.712 135.253 301.857 140.524 317.621 143.608L317.621 143.614Z" fill="#141414"/>
<path d="M215.632 29.2588L261.127 23.1646L270.449 35.9118C270.449 35.9118 271.388 43.8408 272.415 52.0643C273.341 59.5181 274.341 67.221 274.761 69.4737C275.647 74.2123 273.757 95.0895 272.781 96.9289C271.805 98.7683 265.219 99.0701 263.103 99.2935C260.988 99.517 242.102 93.9444 232.762 90.2827C227.03 88.0335 222.447 84.792 219.343 79.5875C217.392 76.3079 216.026 72.2537 215.34 67.1689C213.565 54.0178 215.637 29.2586 215.637 29.2586L215.632 29.2588Z" fill="#FFC0BB"/>
<path d="M215.325 66.8907C214.689 62.1281 214.548 55.847 214.63 49.7692L229.968 55.4334C229.968 55.4334 234.327 80.5647 234.639 81.6946C234.946 82.8247 256.123 93.5568 259.709 94.9213C261.805 95.7204 265.28 97.296 267.81 98.4679C265.706 98.8518 246.397 100.928 245.291 101.047C243.215 101.269 232.32 91.7271 223.711 76.0695C218.913 67.3364 217.084 80.0648 215.336 66.8902L215.325 66.8907Z" fill="#FF8F8F"/>
<path d="M225.963 14.9914C228.88 14.5264 231.698 14.1578 234.405 13.8919C237.014 12.3246 239.549 10.5117 242.478 9.78049C245.015 9.15181 247.627 9.21909 249.991 10.4171C251.106 10.9784 252.065 11.8117 253.179 12.3615C254.645 13.0876 256.155 12.9223 257.737 12.9794C262.52 13.1665 266.487 15.8995 268.944 19.9705C271.686 24.5094 272.656 28.6003 273.24 31.6614C273.577 33.4385 273.415 37.662 273.212 38.9006C272.437 43.5881 271.912 48.768 272.067 51.5922C271.579 47.6493 271.112 43.769 270.755 40.7912C270.389 37.7155 266.602 39.972 265.151 40.4584C262.401 41.3787 259.473 41.7113 256.579 41.6266C252.564 41.5124 248.912 41.5913 244.989 40.9014C242.488 40.4599 239.22 40.0669 236.76 40.8946C234.804 41.5517 233.976 44.0751 233.966 45.9644C233.955 48.2409 233.858 51.0754 233.856 52.5774C233.843 57.0837 234.373 60.6438 228.88 62.2242C232.307 71.1834 222.577 66.0386 222.45 66.1708C222.438 66.1482 224.983 77.7599 223.047 80.8828C220.334 85.2561 217.309 86.7365 217.309 86.7365C217.309 86.7365 210.08 64.9342 208.316 59.9859C206.002 53.5003 201.682 40.4991 201.506 37.8778C200.865 28.4533 205.999 18.1877 225.963 14.9914V14.9914Z" fill="#1E1D1D"/>
<path d="M228.672 61.6276C228.12 57.1509 223.935 53.6372 218.937 53.7164C217.244 53.7457 215.818 54.2085 215.203 55.5045C213.196 59.7364 217.636 69.8309 219.399 73.3305C221.162 76.83 231.056 81.0286 231.056 81.0286L228.666 61.6222L228.672 61.6276Z" fill="#FF8F8F"/>
<path d="M203.434 350.869L195.291 189.371C195.191 188.381 196.711 188.193 196.869 189.175L214.19 350.513L203.434 350.869Z" fill="#282547"/>
<path d="M237.474 208.964C234.404 186.23 211.126 117.763 210.798 117.898C206.802 119.545 198.997 120.926 183.961 129.053C168.554 137.384 156.4 145.042 148.352 150.353C144.714 153.033 140.172 157.246 137.2 163.559C135.701 166.75 135.164 169.408 134.849 170.583C132.792 178.183 122.564 244.907 118.281 281.021C111.786 335.796 139.047 348.548 173.509 332.013C186.181 324.644 198.848 317.276 211.52 309.907C223.885 301.619 236.243 293.331 248.608 285.042C248.608 285.042 239.893 226.873 237.474 208.958L237.474 208.964Z" fill="#141414"/>
<path d="M233.879 41.7911C233.879 41.7911 233.984 56.4811 237.899 66.4756C240.358 72.7548 237.167 81.4704 243.956 81.1948C248.955 80.9918 248.583 73.8211 250.846 72.0063C252.559 70.6287 268.64 69.1749 271.385 69.9969C273.533 70.6415 272.513 77.8399 273.476 77.9218C274.428 77.9984 274.187 74.764 274.257 73.2168C274.391 70.2495 274.656 66.9483 274.656 66.9483C274.656 66.9483 276.104 72.433 276.182 74.7809C276.26 77.1288 275.809 76.9743 275.519 79.7981C275.228 82.622 284.248 95.9705 280.001 100.747C272.17 109.553 247.878 108.862 240.258 105.196C233.705 102.045 229.213 89.1116 229.135 81.6178C229.056 74.1183 230.146 57.3803 225.51 49.5932C220.874 41.8062 233.873 41.7856 233.873 41.7856L233.879 41.7911Z" fill="#1E1D1D"/>
<path d="M316.719 143.479L322.052 184.576L320.706 257.958L328.887 286.816L342.103 355.619L294.143 357.566C285.653 278.269 277.162 198.971 268.671 119.667C276.035 122.175 284.237 125.437 292.947 129.722C302.089 134.22 310.014 138.968 316.724 143.479L316.719 143.479Z" fill="#D6652D"/>
<path d="M303.879 134.541C303.668 152.705 304.005 171.593 305.029 191.154C308.179 251.339 317.197 305.64 328.611 353.077L319.368 353.453C315.932 339.75 311.895 322 308.226 301.099C304.065 277.381 302.082 259.3 300.667 246.193C297.958 221.101 296.708 200.188 296.067 185.545C295.31 168.207 294.974 149.623 295.269 129.917C296.73 130.661 298.217 131.439 299.722 132.251C301.143 133.015 302.529 133.78 303.879 134.547L303.879 134.541Z" fill="#E6A43B"/>
<path d="M218.364 115.476C208.065 118.056 199.634 121.066 193.391 123.585C170.085 132.992 154.668 144.655 148.917 149.234C148.504 149.562 148.164 149.835 147.946 150.011C157.302 157.291 166.658 164.565 176.019 171.845C171.75 222.282 169.965 276.002 171.774 332.624C172.146 344.338 172.667 355.902 173.321 367.31L251.634 364.131C251.634 364.131 256.731 178.073 218.369 115.476L218.364 115.476Z" fill="#D6652D"/>
<path d="M187.521 126.077C191.699 146.794 195.47 168.404 198.693 190.861C207.747 254.025 210.858 312.779 210.435 365.809L219.854 365.427C220.245 346.794 220.038 330.918 219.68 318.547C219.566 314.598 219.336 307.224 218.862 297.976C217.927 279.628 216.617 264.961 215.582 253.516C214.37 240.131 211.969 215.203 207.038 182.476C204.442 165.245 201.015 145.01 196.426 122.395C194.956 122.824 193.348 123.373 191.642 124.094C190.118 124.732 188.739 125.41 187.515 126.083L187.521 126.077Z" fill="#E6A43B"/>
<path d="M171.414 307.938L257.175 310.644C260.938 310.763 264.08 307.815 264.199 304.056L268.077 181.586C268.195 177.827 265.245 174.688 261.482 174.57L175.721 171.863C171.958 171.745 168.816 174.693 168.698 178.452L164.82 300.921C164.701 304.681 167.651 307.819 171.414 307.938Z" fill="white"/>
<path d="M140.799 277.291L202.49 246.97L205.086 253.095L141.654 279.233C140.396 279.751 139.573 277.894 140.793 277.297L140.799 277.291Z" fill="#282547"/>
<path d="M224.078 289.349L213.331 289.345L211.355 282.583L208.824 269.073L272.583 238.975C273.158 247.092 275.869 260.137 272.732 264.411C268.389 270.334 233.024 281.697 233.024 281.697L224.072 289.343L224.078 289.349Z" fill="url(#paint1_linear_113_2675)"/>
<path d="M172.028 332.66C191.57 321.599 211.113 310.537 230.656 299.476L204.798 250.996L136.189 281.067C140.755 299.934 145.321 318.808 149.881 337.676C157.263 336.002 164.646 334.334 172.028 332.66Z" fill="#423A68"/>
<g opacity="0.22">
<path d="M222.422 191.835L250.156 192.976" stroke="black" stroke-width="0.5" stroke-miterlimit="10"/>
<path d="M222.343 193.741L250.078 194.882" stroke="black" stroke-width="0.5" stroke-miterlimit="10"/>
<path d="M222.261 195.801L249.995 196.948" stroke="black" stroke-width="0.5" stroke-miterlimit="10"/>
<path d="M222.419 197.893L250.147 199.034" stroke="black" stroke-width="0.5" stroke-miterlimit="10"/>
<path d="M222.192 199.784L249.927 200.925" stroke="black" stroke-width="0.5" stroke-miterlimit="10"/>
<path d="M182.528 211.205L247.153 214.129" stroke="black" stroke-width="0.5" stroke-miterlimit="10"/>
<path d="M182.311 216.082L246.93 219.012" stroke="black" stroke-width="0.5" stroke-miterlimit="10"/>
<path d="M182.059 221.654L246.677 224.578" stroke="black" stroke-width="0.5" stroke-miterlimit="10"/>
<path d="M181.842 226.482L246.46 229.412" stroke="black" stroke-width="0.5" stroke-miterlimit="10"/>
<path d="M250.887 212.039L249.224 211.963L249.148 213.627L250.811 213.702L250.887 212.039Z" stroke="black" stroke-width="0.5" stroke-miterlimit="10"/>
<path d="M250.658 217.123L248.995 217.048L248.919 218.711L250.582 218.786L250.658 217.123Z" stroke="black" stroke-width="0.5" stroke-miterlimit="10"/>
<path d="M250.429 222.202L248.766 222.126L248.69 223.79L250.353 223.865L250.429 222.202Z" stroke="black" stroke-width="0.5" stroke-miterlimit="10"/>
<path d="M250.2 227.274L248.537 227.198L248.462 228.862L250.125 228.937L250.2 227.274Z" stroke="black" stroke-width="0.5" stroke-miterlimit="10"/>
<path d="M181.768 231.792L246.387 234.723" stroke="black" stroke-width="0.5" stroke-miterlimit="10"/>
<path d="M181.545 236.675L246.164 239.606" stroke="black" stroke-width="0.5" stroke-miterlimit="10"/>
<path d="M181.293 242.247L245.911 245.171" stroke="black" stroke-width="0.5" stroke-miterlimit="10"/>
<path d="M181.075 247.075L245.693 250.005" stroke="black" stroke-width="0.5" stroke-miterlimit="10"/>
<path d="M250.124 232.635L248.461 232.56L248.385 234.223L250.048 234.299L250.124 232.635Z" stroke="black" stroke-width="0.5" stroke-miterlimit="10"/>
<path d="M249.895 237.714L248.232 237.638L248.156 239.302L249.82 239.377L249.895 237.714Z" stroke="black" stroke-width="0.5" stroke-miterlimit="10"/>
<path d="M249.66 242.786L247.997 242.711L247.922 244.374L249.585 244.449L249.66 242.786Z" stroke="black" stroke-width="0.5" stroke-miterlimit="10"/>
<path d="M249.431 247.865L247.768 247.789L247.693 249.452L249.356 249.528L249.431 247.865Z" stroke="black" stroke-width="0.5" stroke-miterlimit="10"/>
</g>
<path d="M214.012 247.752C214.012 247.752 216.414 244.339 219.595 238.396C222.776 232.458 224.821 226.261 227.959 223.33C230.479 220.977 237.589 218.72 238.527 214.502C239.47 210.29 241.381 204.997 244.723 206.393C248.066 207.788 251.785 214.263 247.115 222.029C245.799 224.212 244.044 227.047 242.629 229.309C241.877 230.52 243.08 232.002 244.4 231.482C252.927 228.108 263.164 225.286 266.067 224.276C272.406 222.056 274.807 228.406 271.771 231.62C268.735 234.829 275.458 257.75 271.244 263.712C267.029 269.675 232.663 281.075 232.663 281.075L215.965 295.857L195.938 256.091L214.012 247.758L214.012 247.752Z" fill="#FFC0BB"/>
<path d="M231.313 261.384C228.52 263.977 225.298 266.588 221.489 267.959C220.879 268.179 221.179 269.039 221.795 268.814C225.772 267.38 229.15 264.691 232.068 261.985C232.528 261.555 231.773 260.955 231.313 261.379L231.313 261.384Z" fill="white"/>
<path d="M250.768 312.883C251.849 313.064 252.904 313.436 253.894 314.036C254.931 314.669 255.995 315.254 257.074 315.816C257.26 315.382 257.369 314.876 257.346 314.294C257.054 306.554 261.001 298.96 265.37 292.876C265.38 292.853 265.385 292.841 265.402 292.823C262.914 292.659 260.43 292.42 257.964 292.093C254.009 298.344 250.934 305.436 250.768 312.883V312.883Z" fill="#8ACBC8"/>
<path d="M278.993 300.849C277.447 305.941 276.411 311.75 279.055 316.66C279.351 317.22 280.472 316.924 280.169 316.359C277.603 311.59 278.629 306.004 280.128 301.064C280.316 300.451 279.182 300.242 278.993 300.849V300.849Z" fill="white"/>
<path d="M259.515 298.444C256.63 303.665 255.83 309.574 256.019 315.387C256.045 316.015 257.065 315.973 257.046 315.346C256.864 309.699 257.618 303.969 260.427 298.896C260.734 298.339 259.828 297.892 259.521 298.444L259.515 298.444Z" fill="white"/>
<path d="M254.385 298.575C251.009 302.173 250.149 306.927 249.687 311.506C249.624 312.168 250.745 312.111 250.808 311.461C251.244 307.177 252.042 302.649 255.209 299.272C255.683 298.77 254.859 298.074 254.385 298.575V298.575Z" fill="white"/>
<path d="M275.025 256.69C274.49 257.748 274.328 258.824 274.367 259.96C274.397 260.719 275.78 260.663 275.749 259.904C275.712 258.99 275.81 258.092 276.242 257.233C276.594 256.539 275.376 255.983 275.025 256.69Z" fill="#114963"/>
<path d="M262.042 260.365C261.666 261.737 261.56 263.17 261.19 264.547C261.018 265.194 262.014 265.426 262.186 264.779C262.556 263.402 262.667 261.969 263.037 260.598C263.209 259.951 262.214 259.719 262.042 260.365Z" fill="#114963"/>
<path d="M227.486 285.139C227.432 283.818 227.494 282.475 227.754 281.163C228.002 279.914 225.524 279.487 225.276 280.742C224.956 282.365 224.884 284 224.95 285.629C224.989 286.581 224.932 288.052 225.729 288.85C226.715 289.83 228.885 288.767 227.884 287.77C227.307 287.199 227.499 285.828 227.471 285.14L227.486 285.139Z" fill="white"/>
<path d="M237.629 277.189C237.118 280.038 237.199 282.892 237.308 285.751C237.362 287.083 239.848 286.982 239.794 285.65C239.685 282.98 239.569 280.298 240.045 277.64C240.276 276.325 237.86 275.869 237.622 277.189L237.629 277.189Z" fill="white"/>
<path d="M254.827 280.556C254.715 282.405 254.755 284.248 254.831 286.134C254.882 287.381 255.707 287.347 255.656 286.101C255.586 284.386 255.54 282.72 255.642 281.036C255.715 279.818 254.898 279.338 254.824 280.556L254.827 280.556Z" fill="white"/>
<path d="M274.307 279.82C274.222 283.121 274.353 286.348 274.705 289.632C274.845 290.939 275.681 290.352 275.541 289.05C275.23 286.154 275.112 283.244 275.187 280.332C275.221 279.029 274.34 278.505 274.307 279.82Z" fill="white"/>
<path d="M223.83 321.285L220.72 321.411C220.052 321.438 220.093 322.467 220.762 322.439L223.872 322.313C224.54 322.286 224.498 321.258 223.83 321.285Z" fill="white"/>
<path d="M169.668 259.74C161.969 261.082 158.403 271.112 156.783 277.6C149.57 306.476 189.095 303 185.274 275.75C184.203 268.113 179.429 258.038 169.668 259.745L169.668 259.74Z" fill="#3C7870"/>
<path d="M163.8 268.109C160.823 268.357 158.344 273.248 157.031 275.564C154.627 279.809 153.746 284.723 154.047 289.518C154.1 290.372 155.455 290.259 155.402 289.405C155.144 285.389 155.806 281.642 157.377 277.927C158.124 276.144 159.185 274.493 160.326 272.925C160.703 272.412 161.302 271.508 161.989 270.745C161.802 271.395 162.882 271.826 163.288 271.15C163.895 270.153 164.425 270.056 164.526 268.895C164.557 268.471 164.279 268.072 163.8 268.115L163.8 268.109Z" fill="white"/>
<path d="M159.99 290.373C155.678 323.888 154.438 357.708 154.06 391.459C154.048 392.301 155.381 392.247 155.388 391.405C155.764 357.769 156.986 324.07 161.285 290.664C161.391 289.835 160.095 289.526 159.99 290.367L159.99 290.373Z" fill="white"/>
<path d="M226.479 284.072C221.382 283.435 216.287 282.813 211.109 282.669C210.232 282.642 210.188 283.754 211.065 283.776C216.117 283.92 221.099 284.513 226.081 285.135C226.937 285.241 227.341 284.173 226.479 284.067L226.479 284.072Z" fill="white"/>
<path d="M223.522 291.444C217.069 291.616 210.67 292.274 204.271 293.054C203.427 293.152 203.442 294.372 204.291 294.269C210.685 293.494 217.089 292.831 223.542 292.659C224.395 292.635 224.381 291.42 223.522 291.444Z" fill="white"/>
<path d="M104.719 188.38C104.099 187.603 103.206 188.847 103.825 189.624C104.605 190.605 104.949 191.965 105.735 192.96C106.355 193.738 107.248 192.494 106.629 191.716C105.848 190.735 105.505 189.368 104.719 188.38Z" fill="white"/>
<path d="M54.4824 91.696C45.6396 96.7176 41.5632 105.779 43.145 115.464C43.8064 119.495 50.4549 119.271 49.7917 115.194C48.5531 107.618 51.0513 101.076 58.0568 97.0941C61.7598 94.9906 58.1741 89.5987 54.4766 91.6962L54.4824 91.696Z" fill="#E6EAEE"/>
<path d="M185.737 302.867C185.624 302.031 184.341 302.077 184.454 302.919C185.47 310.507 187.024 317.992 189.245 325.311C189.493 326.118 190.716 325.727 190.468 324.914C188.274 317.709 186.736 310.345 185.737 302.872L185.737 302.867Z" fill="#E6EAEE"/>
<path d="M275.692 242.257C269.215 238.389 260.3 241.198 252.95 241.764C242.955 242.539 233.083 244.636 223.196 245.817C212.25 247.126 201.393 249.091 190.534 250.722C177.213 252.725 179.258 252.477 174.211 263.191C163.801 285.286 190.576 292.29 211.983 288.086C234.276 283.705 256.383 277.675 275.764 268.302C281.415 265.569 286.393 262.557 285.519 256.993C284.719 251.888 281.153 245.518 275.697 242.257L275.692 242.257Z" fill="#001C2D"/>
<path d="M173.225 248.613L171.659 248.364C170.775 258.279 170.327 267.887 167.763 277.438C165.497 285.855 162.371 297.958 167.006 306.038C172.685 315.938 190.291 307.86 197.956 305.015C207.268 301.556 218.383 304.186 227.009 298.135C233.899 293.3 235.927 282.854 237.693 275.163C240.158 264.443 243.308 251.212 242.66 240.202C227.84 240.514 214.704 245.955 200.336 246.522C191.977 246.85 181.428 251.093 173.237 248.618L173.225 248.613Z" fill="#0F88AF"/>
<path d="M225.592 243.64C218.799 241.994 205.911 244.683 203.792 249.573C201.556 254.734 205.108 261.9 205.322 267.161C205.437 270.01 205.275 310.622 205.573 310.632C210.057 310.791 226.081 309.186 228.951 305.727C233.22 300.58 230.926 282.533 231.07 275.893C231.213 269.225 234.208 250.618 228.901 245.262C228.166 244.519 227.015 243.986 225.592 243.646L225.592 243.64Z" fill="#D68030"/>
<path d="M307.697 237.09C306.775 236.587 305.617 235.857 303.798 235.764C295.765 235.337 285.227 238.894 272.53 240.1C276.784 247.298 279.17 251.792 282.136 259.185C290.276 256.128 298.625 252.946 304.211 247.363C309.379 242.194 311.382 239.104 307.703 237.096L307.697 237.09Z" fill="#B55046"/>
<path d="M276.543 237.462C278.239 239.131 285.668 262.16 285.729 262.129C288.029 260.821 292.28 259.71 293.838 257.673C293.979 257.483 287.893 238.112 286.839 235.934C286.021 234.235 278.087 236.91 276.543 237.468L276.543 237.462Z" fill="#001C2D"/>
<path d="M282.466 251.313C281.291 248.012 280.1 244.578 279.586 241.096C279.503 240.552 278.678 240.729 278.76 241.273C279.253 244.635 280.395 247.943 281.517 251.142C282.793 254.792 284.159 258.467 285.99 261.88C286.245 262.362 287.002 261.983 286.741 261.496C284.999 258.256 283.691 254.778 282.46 251.313L282.466 251.313Z" fill="white"/>
<path d="M272.548 252.381C269.445 253.183 266.287 253.434 263.129 253.713C262.586 253.764 262.773 254.85 263.311 254.799C266.468 254.513 269.627 254.269 272.73 253.46C273.264 253.323 273.083 252.237 272.548 252.373L272.548 252.381Z" fill="#114963"/>
<path d="M254.723 272.677C252.36 273.377 249.95 273.957 247.48 274.439C246.96 274.542 247.114 275.099 247.639 274.996C250.179 274.5 252.655 273.903 255.087 273.181C255.589 273.031 255.219 272.527 254.717 272.677L254.723 272.677Z" fill="#114963"/>
<path d="M169.759 278.009C163.518 275.285 158.109 280.762 154.238 285.027L153.969 287.756C157.885 294.245 171.746 300.676 175.143 290.209C176.635 285.613 174.113 279.916 169.759 278.015L169.759 278.009Z" fill="#3C7870"/>
<path d="M146.958 209.98C142.463 204.776 139.961 199.198 132.976 196.607C129.071 195.161 122.029 194.182 120.754 199.471C119.439 204.929 126.145 212.849 128.294 217.464C133.944 229.612 132.816 241.547 132.286 254.297C131.968 261.944 134.004 270.1 136.748 278.037C139.148 284.97 142.088 291.744 144.485 297.867C146.498 303.028 148.884 310.606 155.727 309.581C163.167 308.468 171.542 296.148 174.885 290.453C179.229 283.067 183.074 274.115 181.76 265.407C178.762 245.615 159.589 224.633 146.947 209.992L146.958 209.98Z" fill="#0F88AF"/>
<path d="M233.708 278.744C233.507 278.73 233.305 278.715 233.109 278.7C233.052 278.702 233 278.693 232.942 278.69C231.171 279.751 225.554 280.689 219.626 281.481C220.713 283.062 221.274 285.147 223.291 285.895C224.771 286.443 227.007 286.227 228.942 285.512C230.283 285.026 231.487 284.289 232.221 283.402C232.664 282.867 234.624 278.809 233.708 278.75L233.708 278.744Z" fill="#C15C4C"/>
<path d="M84.3987 98.4637C74.0032 99.9799 64.6066 106.429 56.0953 115.87C52.7064 119.632 49.4663 121.929 48.307 128.865C47.0277 136.554 46.2744 140.377 47.6846 153.161C50.0791 174.798 13.8372 186.244 9.83231 219.593C9.20047 224.841 8.6332 230.254 11.9199 234.382C22.8228 248.072 67.9086 237.227 72.8211 218.825C75.0966 210.303 67.1167 206.603 66.4938 187.696C65.748 165.049 74.706 155.636 85.2978 145.699C92.2659 139.158 100.494 131.002 101.472 116.616C102.598 100.151 93.6436 97.1157 84.3929 98.4639L84.3987 98.4637Z" fill="#1E1D1D"/>
<path d="M68.3263 158.637C66.8259 156.644 65.0907 154.908 63.1741 153.757C61.9753 161.019 59.5482 167.517 56.0875 173.971C52.1815 181.25 49.368 182.582 41.8745 177.606C41.1598 177.133 40.4539 176.596 39.6249 176.399C39.5156 176.375 39.4065 176.356 39.2922 176.349C38.537 176.282 37.722 176.569 37.4074 177.245C37.1871 177.716 37.2494 178.267 37.3442 178.777C38.6751 185.723 46.0961 189.334 52.4023 190.763C64.4685 193.504 77.7242 180.19 73.2049 167.73C72.1588 164.853 70.483 161.487 68.332 158.637L68.3263 158.637Z" fill="#1E1D1D"/>
<path d="M66.0368 141.306C57.6613 140.935 63.0644 156.173 68.334 151.809C71.3075 149.341 70.1222 141.485 66.0368 141.306Z" fill="#EC845C"/>
<path d="M65.7606 148.435C65.838 147.435 65.7967 146.419 65.7993 145.411L64.1327 145.81C63.6973 147.016 63.3427 148.988 65.7544 148.436L65.7606 148.435Z" fill="#AF554B"/>
<path d="M64.3186 193.02C60.1083 193.429 55.3508 193.848 51.7425 190.958C50.8994 190.284 50.1813 189.457 49.6509 188.477C49.4291 188.07 48.8457 188.454 49.0676 188.861C50.0726 190.714 51.7246 192.065 53.5547 192.883C55.6465 193.824 57.9158 194.08 60.1673 194.038C61.5638 194.012 62.9504 193.882 64.3367 193.746C64.7742 193.704 64.7559 192.972 64.3184 193.014L64.3186 193.02Z" fill="#AE3E25"/>
<path d="M73.9476 158.633C73.7821 158.259 73.43 158.625 73.5957 159.005C75.123 162.451 75.8163 166.873 75.524 171.036C75.4422 172.207 75.2825 173.351 75.0473 174.445C75.0092 174.625 75.1053 174.842 75.2082 174.879C75.3295 174.94 75.4184 174.805 75.46 174.625C76.3168 170.593 76.1544 165.906 75.0792 161.887C74.7739 160.738 74.3975 159.646 73.9476 158.633Z" fill="#AE3E25"/>
<path d="M227.245 367.672C244.335 368.583 243.977 369.494 260.974 367.679C279.943 323.651 335.22 216.323 335.325 214.045C329.27 213.36 303.159 209.16 298.077 209.104C298.077 209.104 237.233 345.963 227.245 367.672Z" fill="white"/>
<path d="M211.2 378.344C223.276 380.518 237.999 379.175 251.605 381.951C263.475 351.544 303.969 251.06 318.12 221.497C305.809 220.309 277.74 213.019 277.74 213.019C277.74 213.019 219.848 360.601 211.2 378.339L211.2 378.344Z" fill="#C5D6D4"/>
<path d="M294.928 219.781C293.858 219.327 278.689 213.443 278.918 212.97C273.897 223.066 272.665 226.171 268.245 232.999L265.189 236.836C273.608 237.284 281.791 239.32 290.074 240.7C294.629 241.459 297.29 241.683 300.617 238.379C303.177 235.837 308.502 230.369 306.687 226.364C305.132 222.937 298.108 221.134 294.933 219.781L294.928 219.781Z" fill="#B0C6CB"/>
<path d="M317.139 223.055C307.103 249.857 293.733 275.112 281.953 301.135C270.766 325.854 263.288 352.07 252.402 376.92C252.104 377.598 253.12 378.142 253.418 377.464C264.303 352.614 271.875 326.446 282.969 301.68C294.65 275.603 308.113 250.407 318.154 223.594C318.412 222.906 317.396 222.356 317.139 223.055V223.055Z" fill="white"/>
<path d="M292.679 225.484C286.447 224.899 280.19 224.412 274.041 223.204C272.468 222.895 255.626 219.508 255.357 220.179C255.321 220.273 196.262 368.793 186.775 385.551C201.76 388.496 219.774 388.184 236.673 391.826C237.543 389.839 238.553 387.49 239.692 384.821C240.311 383.372 240.965 381.824 241.657 380.2C246.117 369.68 250.53 359.139 254.949 348.609C264.614 325.581 274.313 302.558 284.279 279.661C291.823 262.339 299.524 245.098 308.095 228.262C306.113 228.102 304.132 227.717 302.138 227.281C299.023 226.598 295.88 225.779 292.678 225.478L292.679 225.484Z" fill="white"/>
<path d="M303.969 230.883C299.12 244.722 293.395 258.197 287.578 271.63C281.678 285.263 275.992 298.991 270.196 312.672C264.421 326.317 258.796 340.014 253.102 353.691C248.802 364.023 246.124 376.2 238.402 384.582C237.897 385.135 238.739 385.923 239.244 385.37C240.432 384.083 241.492 382.697 242.47 381.245C242.527 381.532 242.735 381.767 243.122 381.803C245.847 382.08 248.856 382.52 251.47 381.464C252.529 381.034 251.995 379.307 250.93 379.732C250.584 379.874 250.226 379.975 249.861 380.065C249.516 380.079 249.147 380.06 248.919 379.872C248.496 379.519 247.962 379.899 247.945 380.317C246.463 380.377 244.937 380.184 243.52 380.039C243.424 380.031 243.333 380.041 243.249 380.05C247.883 372.656 250.38 363.687 253.512 355.706C259.125 341.419 265.216 327.338 271.204 313.216C277.005 299.535 282.681 285.813 288.586 272.179C294.439 258.653 300.2 245.077 305.079 231.145C305.328 230.44 304.212 230.184 303.969 230.877L303.969 230.883Z" fill="white"/>
<path d="M82.9681 157.019C81.7409 156.389 80.3037 156.09 78.6606 156.226C46.156 158.957 74.5683 190.331 85.663 176.321C90.0327 170.799 88.9375 160.066 82.9681 157.019Z" fill="#125064"/>
<path d="M74.3436 214.156C73.8964 213.824 73.5111 214.61 73.9471 214.937C84.9547 223.062 89.7635 237.251 97.9872 247.933C98.3235 248.373 99.04 247.901 98.698 247.455C90.3586 236.629 85.4987 222.396 74.3381 214.156L74.3436 214.156Z" fill="white"/>
<path d="M122.066 158.25C118.653 151.954 115.849 152.292 117.223 144.026C118.466 136.565 120.635 130.622 119.783 122.849C119.081 116.489 114.897 104.404 107.459 102.023C106.419 101.686 105.31 101.548 104.141 101.635C95.3973 102.3 94.8135 113.361 94.7532 119.78C94.6665 128.712 92.3181 135.403 90.3369 143.808C88.1569 153.066 88.5134 161.847 91.2246 171.136C91.9495 173.612 92.7967 176.082 93.9063 178.404C95.0159 180.726 96.3699 182.889 98.1083 184.743C105.275 192.386 116.96 191.601 122.04 182.616C124.397 178.447 125.057 173.279 124.188 168.419C123.691 165.653 123.372 160.679 122.066 158.262L122.066 158.25Z" fill="#1E1D1D"/>
<path d="M125.951 203.472C120.155 198.171 113.481 193.861 106.291 190.773C104.4 189.959 102.402 189.218 100.346 189.324C95.3578 189.579 92.9179 193.88 90.3814 197.506C86.6498 202.831 83.5438 209.206 83.2535 215.845C82.8001 229.981 87.0528 243.179 89.2442 256.927C89.3526 257.606 89.4926 258.354 90.0183 258.792C90.5203 259.214 91.2315 259.249 91.8783 259.257C100.037 259.34 108.195 259.135 116.336 258.632C119.508 258.434 122.719 258.189 125.737 257.181C126.75 256.841 127.754 256.409 128.673 255.86C129.63 255.287 130.502 254.585 131.212 253.722C133.891 250.481 133.811 245.811 133.588 241.583C133.224 234.625 133.79 227.952 133.595 221.016C133.501 217.691 133.168 214.336 133.345 211.012C130.96 208.419 128.547 205.85 125.951 203.472V203.472Z" fill="#001C2D"/>
<path d="M88.8992 144.474C88.708 144.512 88.5644 144.684 88.6135 144.854C88.8428 145.607 88.8269 146.402 88.5503 147.155C88.4095 147.544 89.104 147.739 89.2448 147.35C89.5535 146.497 89.5886 145.582 89.3308 144.721C89.282 144.557 89.0968 144.445 88.8994 144.479L88.8992 144.474Z" fill="#EAF6F8"/>
<path d="M104.16 164.747C98.5366 164.31 92.9717 163.143 87.6542 161.296C84.9301 160.349 82.2694 159.231 79.6948 157.931C79.0796 157.621 73.5977 155.04 73.728 154.359C72.4436 161.202 72.7481 168.27 71.3044 175.08C70.5192 178.8 65.935 184.494 66.5237 187.898C67.111 191.267 72.8196 194.532 75.5021 196.041C82.6158 200.047 89.2964 206.215 97.6372 207.587C113.865 210.252 100.579 191.705 101.379 184.448C101.416 184.082 101.466 183.716 101.521 183.35C102.352 177.738 104.801 172.194 105.708 166.574C105.779 166.143 105.835 165.667 105.587 165.307C105.294 164.874 104.688 164.8 104.154 164.753L104.16 164.747Z" fill="#D77355"/>
<path d="M96.5306 171.795C93.6766 172.118 90.4222 170.109 87.9458 168.932C85.2873 167.676 82.7979 166.039 80.5668 164.086C79.1194 162.821 77.6376 161.42 76.7938 159.676C76.3215 158.699 76.7212 156.467 75.3327 156.368C73.1454 156.204 73.2372 159.176 72.9216 160.639C72.412 163.007 71.4744 165.348 70.8031 167.711C69.2326 173.22 68.0919 178.94 68.4281 184.665C68.4597 185.158 68.51 185.686 68.8302 186.041C69.2591 186.519 69.991 186.5 70.613 186.331C74.287 185.319 75.4748 181.185 78.3424 179.065C80.7845 177.263 83.5632 178.922 85.8958 179.823C88.076 180.667 90.6343 181.3 92.9655 181.459C97.941 181.809 102.008 178.968 104.197 174.637C105.164 172.728 106.018 170.754 106.914 168.801C105.589 168.705 103.299 170.116 101.999 170.508C100.21 171.053 98.3911 171.581 96.5306 171.795V171.795Z" fill="#C6664F"/>
<path d="M117.735 132.806C116.711 126.423 113.937 120.281 107.494 116.997C105.339 115.899 102.8 115.112 99.8391 114.719C67.2584 110.335 58.372 150.41 75.0709 165.074C77.9332 167.58 81.0248 170.208 84.0812 172.535C89.9503 176.995 98.1802 179.682 104.253 173.575C111.359 166.422 117.401 157.586 116.478 147.304C116.301 145.367 115.707 143.065 116.182 141.011C116.897 137.937 118.286 136.188 117.741 132.812L117.735 132.806Z" fill="#EC845C"/>
<path d="M93.1508 113.661C81.327 115.539 68.8886 127.11 67.6031 139.114C70.9649 134.87 76.1712 132.534 81.2835 130.736C86.8528 128.778 91.9012 126.834 97.0128 123.877C103.013 120.402 109.212 118.105 113.535 124.837C116.045 128.746 116.113 132.986 117.77 137.123C120.447 131.43 117.515 122 113.127 117.946C107.951 113.163 100.036 112.575 93.1511 113.667L93.1508 113.661Z" fill="#DB7657"/>
<path d="M79.085 96.0366C71.667 97.7302 63.7083 101.416 58.1997 106.856C57.8302 107.219 58.3141 107.866 58.6888 107.491C63.9313 102.316 71.2797 98.9082 78.2846 97.0603C85.2839 95.2126 94.1022 95.0257 98.3225 101.834C98.5946 102.272 99.2408 101.768 98.9688 101.33C94.7602 94.5328 86.1948 94.4086 79.0847 96.0307L79.085 96.0366Z" fill="#AE3E25"/>
<path d="M97.5783 111.502C96.8083 118.728 90.0176 122.655 83.6689 125.447C77.6514 128.093 70.9968 129.791 65.4899 133.42C65.0427 133.713 65.5892 134.293 66.0308 134.005C72.1207 129.992 79.6288 128.277 86.2025 125.161C92.1205 122.352 97.6982 118.176 98.4057 111.554C98.4604 111.042 97.6277 111.001 97.5786 111.507L97.5783 111.502Z" fill="#1E1D1D"/>
<path d="M104.497 152.099C104.367 152.045 104.248 152.128 104.202 152.326C104.16 152.503 104.236 152.754 104.357 152.802C104.391 152.82 104.428 152.838 104.462 152.863L104.466 152.862C104.466 152.862 104.497 152.9 104.514 152.913C104.526 152.925 104.539 152.944 104.552 152.957L104.565 152.969C104.587 153.007 104.609 153.039 104.631 153.077C104.64 153.09 104.67 153.134 104.671 153.16C104.667 153.148 104.658 153.135 104.654 153.122C104.658 153.135 104.667 153.148 104.672 153.167C104.69 153.218 104.709 153.27 104.727 153.321C104.737 153.347 104.737 153.366 104.747 153.392C104.757 153.45 104.768 153.509 104.778 153.567C104.779 153.58 104.791 153.664 104.796 153.709C104.796 153.709 104.797 153.722 104.797 153.729C104.797 153.729 104.797 153.716 104.796 153.709C104.796 153.709 104.797 153.716 104.798 153.742C104.799 153.768 104.8 153.801 104.802 153.833C104.804 153.885 104.798 153.944 104.796 153.996C104.796 153.996 104.796 154.003 104.796 154.009C104.793 154.035 104.79 154.062 104.783 154.088C104.773 154.134 104.762 154.187 104.752 154.233C104.752 154.233 104.748 154.239 104.744 154.246C104.737 154.266 104.729 154.286 104.722 154.306C104.711 154.332 104.7 154.359 104.688 154.385C104.661 154.425 104.634 154.466 104.607 154.506C104.505 154.627 104.52 154.887 104.596 155.034C104.684 155.2 104.832 155.188 104.93 155.066C105.556 154.311 105.283 152.425 104.501 152.092L104.497 152.099Z" fill="#E4785C"/>
<path d="M131.945 241.285C131.148 239.572 129.785 238.348 128.903 236.673C127.753 234.479 127.19 232.036 126.113 229.81C123.072 223.534 119.571 217.5 116.524 211.23C115.829 209.795 114.931 208.287 114.473 206.756C113.838 204.651 114.437 201.907 111.235 202.256C111.041 202.276 110.853 202.312 110.671 202.354C109.094 202.752 108.331 204.022 108.151 205.648C107.472 211.534 109.652 217.488 109.191 223.371C109.105 224.498 108.938 225.738 108.085 226.481C106.651 227.732 104.438 226.739 102.89 225.632C89.6216 216.112 79.6515 201.989 66.8865 191.608C66.4478 191.251 65.9857 190.884 65.4313 190.785C64.8421 190.677 64.2431 190.891 63.6844 191.11C55.807 194.218 43.8692 200.117 38.9596 207.27C38.8892 207.371 38.5357 207.702 38.4653 207.803C38.9258 212.37 39.7519 236.813 39.9621 241.989C40.5178 255.677 40.5841 257.593 45.3942 260.134C47.7376 261.369 51.2589 261.255 53.7818 261.262C61.3502 261.278 68.8852 261.035 76.4456 260.711C84.0515 260.379 91.6508 260.307 99.2587 260.165C105.75 260.045 112.238 259.857 118.724 259.64C120.901 259.459 123.079 259.29 125.262 259.127C127.292 258.981 129.171 257.971 130.55 256.487C131.715 255.23 132.117 253.001 132.435 251.375C132.839 249.325 132.745 247.296 132.673 245.219C132.635 244.161 132.586 243.08 132.253 242.073C132.161 241.801 132.059 241.54 131.94 241.291L131.945 241.285Z" fill="#001C2D"/>
<path d="M69.4081 194.826C69.0181 195.675 68.5503 196.442 68.0212 197.098C67.9129 197.235 67.8699 197.468 67.9607 197.656C68.0375 197.825 68.2202 197.903 68.333 197.773C68.8952 197.069 69.401 196.268 69.8192 195.358C69.8996 195.183 69.8987 194.945 69.783 194.791C69.6769 194.656 69.4885 194.651 69.4081 194.826V194.826Z" fill="#EAF6F8"/>
<path d="M74.7654 198.676C74.5847 198.876 74.4079 199.076 74.2272 199.276C74.1461 199.365 74.1524 199.52 74.2517 199.594C74.351 199.668 74.4974 199.666 74.5819 199.566C74.7626 199.366 74.9394 199.166 75.1201 198.966C75.2013 198.877 75.195 198.722 75.0956 198.648C74.9962 198.57 74.85 198.576 74.7653 198.672L74.7654 198.676Z" fill="#EAF6F8"/>
<path d="M83.5679 208.543C83.5076 208.551 83.4323 208.586 83.3989 208.657C83.1602 209.145 82.9793 209.663 82.8568 210.226C82.8396 210.302 82.8644 210.414 82.8992 210.477C82.9343 210.546 82.9972 210.602 83.0543 210.616C83.197 210.648 83.3015 210.536 83.3389 210.363C83.3456 210.33 83.3526 210.303 83.3593 210.27C83.3589 210.26 83.3665 210.249 83.3661 210.238C83.3798 210.178 83.3978 210.124 83.4116 210.064C83.4431 209.945 83.4826 209.825 83.5224 209.711C83.5581 209.596 83.6022 209.487 83.6462 209.378C83.668 209.318 83.694 209.263 83.7161 209.208C83.7273 209.186 83.7383 209.159 83.7493 209.132C83.7491 209.126 83.7605 209.11 83.7679 209.093C83.8054 209.022 83.827 208.957 83.8231 208.86C83.8198 208.78 83.7836 208.685 83.7371 208.633C83.6866 208.581 83.6245 208.546 83.56 208.549L83.5679 208.543Z" fill="#EAF6F8"/>
<path d="M92.1374 217.467C91.9558 217.46 91.7473 217.511 91.7154 217.589C91.6146 217.843 91.5196 218.096 91.4246 218.35C91.3925 218.424 91.4952 218.503 91.6943 218.509C91.8758 218.516 92.0902 218.465 92.1221 218.387C92.2171 218.133 92.318 217.882 92.413 217.628C92.4393 217.555 92.3424 217.475 92.1432 217.466L92.1374 217.467Z" fill="#EAF6F8"/>
<path d="M100.866 226.408C100.731 226.352 100.538 226.393 100.478 226.543C100.276 227.049 100.131 227.576 100.059 228.12C100.036 228.268 100.128 228.435 100.286 228.457C100.433 228.479 100.6 228.387 100.627 228.23C100.664 227.977 100.711 227.723 100.776 227.474C100.809 227.354 100.842 227.234 100.88 227.119C100.88 227.119 100.889 227.09 100.893 227.081C100.906 227.047 100.919 227.013 100.927 226.98C100.948 226.922 100.974 226.859 101 226.796C101.056 226.657 101.015 226.473 100.866 226.408V226.408Z" fill="#EAF6F8"/>
<path d="M106.096 224.534C106.594 226.354 107.086 228.174 107.584 229.988C107.7 230.407 108.467 230.183 108.35 229.765C107.859 227.95 107.361 226.131 106.863 224.311C106.746 223.892 105.98 224.121 106.096 224.534Z" fill="#EAF6F8"/>
<path d="M106.655 193.194C106.528 193.262 106.406 193.351 106.294 193.503C106.178 193.655 106.074 193.849 105.979 194.085C105.938 194.181 105.908 194.309 105.901 194.478C105.897 194.636 105.915 194.835 105.949 194.971C106.019 195.231 106.164 195.383 106.249 195.159C106.313 194.998 106.381 194.869 106.453 194.75C106.552 194.62 106.652 194.51 106.761 194.453C106.748 194.454 106.734 194.465 106.721 194.476C106.778 194.442 106.826 194.398 106.862 194.26C106.892 194.153 106.909 193.963 106.899 193.805C106.892 193.637 106.861 193.459 106.815 193.356C106.769 193.252 106.709 193.16 106.658 193.193L106.655 193.194Z" fill="#EAF6F8"/>
<path d="M113.267 112.083C112.629 111.56 111.952 111.092 111.241 110.673C111.091 110.588 110.908 110.595 110.8 110.745C110.711 110.878 110.726 111.109 110.875 111.195C113.293 112.61 115.326 114.699 116.697 117.197C117.086 117.908 117.424 118.654 117.701 119.418C117.842 119.806 118.41 119.535 118.269 119.148C117.259 116.382 115.503 113.921 113.266 112.078L113.267 112.083Z" fill="#AE3E25"/>
<path d="M115.356 178.463C115.175 178.377 114.914 178.434 114.815 178.606C114.298 179.519 113.088 180.054 111.986 179.867C111.78 179.835 111.56 179.937 111.508 180.124C111.456 180.3 111.583 180.509 111.796 180.541C113.256 180.789 114.843 180.116 115.514 178.931C115.606 178.759 115.551 178.553 115.356 178.457L115.356 178.463Z" fill="#AE3E25"/>
<path d="M92.4749 102.105C89.5793 102.72 86.769 103.652 84.1345 104.892C83.3808 105.243 82.6524 105.62 81.931 106.023C81.7655 106.116 81.6633 106.28 81.755 106.453C81.8272 106.594 82.0674 106.702 82.239 106.61C84.7225 105.226 87.3984 104.112 90.1906 103.331C90.9857 103.106 91.7882 102.913 92.6036 102.741C93.0591 102.643 92.9367 102.011 92.4812 102.11L92.4749 102.105Z" fill="#83291A"/>
<path d="M62.9433 113.67C59.5092 116.3 56.7674 119.731 54.999 123.573C54.4987 124.658 54.0767 125.776 53.7384 126.923C53.6222 127.31 54.2417 127.537 54.3577 127.144C55.5332 123.19 57.7153 119.514 60.6783 116.52C61.5181 115.674 62.4207 114.882 63.3697 114.151C63.7002 113.896 63.2846 113.41 62.9486 113.665L62.9433 113.67Z" fill="#722318"/>
<path d="M57.6088 187.021C56.3544 188.081 55.0171 189.006 53.4182 189.541C52.9915 189.683 53.2039 190.317 53.6305 190.174C55.3462 189.6 56.7763 188.607 58.1187 187.47C58.4576 187.185 57.9386 186.736 57.6042 187.021L57.6088 187.021Z" fill="#83291A"/>
<path d="M123.424 214.912C121.791 212.226 119.995 204.924 115.107 207.789C111.941 209.647 112.806 215.448 112.723 218.181C112.577 222.912 112.759 234.316 105.62 235.901C100.445 237.049 94.6478 229.516 91.8567 226.772C81.1214 216.219 72.1466 205.727 56.8026 203.794C36.0599 201.177 31.4352 224.778 28.4681 241.96C24.746 263.535 21.689 286.823 24.6053 308.729C26.1946 320.654 20.1389 340.6 35.8336 343.699C53.3062 347.148 72.02 347.742 89.9548 345.932C99.0449 345.019 108.35 344.757 117.293 342.89C127.854 340.686 131.414 334.289 131.557 325.544C131.756 313.535 135.039 300.741 137.877 288.983C139.724 281.319 142.937 273.861 142.773 265.851C142.603 257.865 140.118 250.106 136.942 242.959C132.782 233.596 128.693 223.548 123.429 214.906L123.424 214.912Z" fill="#001C2D"/>
<path d="M121.279 322.435C125.595 330.604 137.359 327.189 141.323 319.944C150.216 303.711 113.578 307.848 121.279 322.435Z" fill="#001C2D"/>
<path d="M114.887 260.088C114.457 259.412 113.397 260.121 113.826 260.798C115.581 263.551 116.798 266.557 117.974 269.56C118.266 270.302 119.478 269.868 119.191 269.131C117.976 266.025 116.697 262.933 114.887 260.088Z" fill="#001C2D"/>
<path d="M121.351 351.632C121.351 351.632 121.339 351.633 121.333 351.633C120.178 352.348 119.083 353.158 117.922 353.862C117.796 353.941 117.664 354.003 117.525 354.072C117.727 355.269 118.329 356.483 119.432 357.381C120.669 358.387 121.688 360.984 122.417 362.462C123.774 365.228 124.836 368.417 125.349 371.4C125.365 371.479 125.392 371.546 125.401 371.626C125.42 371.625 125.438 371.613 125.456 371.607L128.442 370.692C129.466 370.382 130.522 370.265 131.574 370.325C130.229 363.784 127.146 355.526 122.466 351.147C122.106 351.328 121.732 351.491 121.345 351.627L121.351 351.632Z" fill="#8ACBC8"/>
<path d="M123.685 351.711C127.031 356.179 129.822 361.295 130.587 366.89C130.658 367.425 131.507 367.396 131.43 366.856C130.643 361.114 127.829 355.85 124.396 351.259C124.071 350.827 123.354 351.274 123.685 351.716L123.685 351.711Z" fill="white"/>
<path d="M130.03 332.302C124.904 334.389 118.715 335.304 113.271 335.966C106.966 336.727 100.578 337.185 94.2561 337.824C84.396 338.823 74.4787 339.408 64.5584 339.634C54.8457 339.852 45.2765 338.767 35.656 338.124C33.5031 338.024 31.3517 337.958 29.1853 337.952C27.8738 337.947 26.598 337.823 25.3811 337.584C25.3234 337.728 25.2712 337.865 25.2134 338.008C25.4483 342.655 26.126 347.254 27.0803 351.836C27.2626 352.628 27.4391 353.419 27.6327 354.204C27.7095 354.529 27.7802 354.849 27.845 355.164C30.3515 356.577 33.9657 357.387 38.8192 357.989C65.988 361.331 97.7604 358.978 124.018 351.976C126.635 351.277 128.534 350.096 129.906 348.59C129.483 346.446 129.257 344.283 129.285 342.121C129.325 338.843 129.729 335.573 130.03 332.308L130.03 332.302Z" fill="#053449"/>
<path d="M70.3358 323.631C70.08 324.415 70.0093 325.22 70.0439 326.073C70.0669 326.64 70.758 326.611 70.735 326.045C70.7072 325.358 70.7473 324.686 70.9551 324.047C71.1229 323.53 70.5077 323.102 70.3401 323.625L70.3358 323.631Z" fill="#114963"/>
<path d="M101.519 327.599C101.376 328.622 101.371 329.735 101.156 330.714C101.037 331.254 101.501 331.699 101.62 331.159C101.855 330.096 101.874 328.929 102.027 327.823C102.108 327.254 101.6 327.037 101.519 327.599Z" fill="#114963"/>
<path d="M59.2857 327.223C59.1183 328.317 59.0786 329.46 58.9114 330.559C58.8297 331.074 59.331 331.274 59.4127 330.759C59.5832 329.66 59.6195 328.518 59.7869 327.424C59.8653 326.909 59.3643 326.714 59.2857 327.223Z" fill="#114963"/>
<path d="M125.171 330.51C119.794 334.585 113.262 336.011 107.017 336.887C100.225 337.84 93.3449 337.905 86.5011 337.865C79.5827 337.821 72.6643 337.777 65.7479 337.781C57.1941 337.79 48.5895 337.676 40.1065 336.044C39.5467 335.935 39.3481 336.966 39.9139 337.081C48.218 338.68 56.6297 338.836 65.0011 338.849C72.3877 338.86 79.7751 338.892 87.163 338.937C94.23 338.975 101.312 338.812 108.318 337.774C114.305 336.882 120.511 335.316 125.661 331.416C126.138 331.051 125.655 330.151 125.177 330.516L125.171 330.51Z" fill="white"/>
<path d="M128.633 335.015C128.297 337.364 128.056 339.719 128.533 342.067C128.746 343.102 130.21 342.598 130.003 341.568C129.589 339.534 129.85 337.429 130.139 335.393C130.287 334.348 128.781 333.965 128.633 335.015V335.015Z" fill="white"/>
<path d="M69.8923 343.662C69.795 346.664 69.9141 349.597 70.2547 352.588C70.3894 353.774 71.2237 353.23 71.0924 352.055C70.7923 349.422 70.6848 346.774 70.7705 344.125C70.809 342.944 69.9333 342.468 69.8923 343.662Z" fill="white"/>
<path d="M90.3915 345.283L90.6385 351.367C90.6964 352.795 91.7246 352.753 91.6667 351.325L91.4197 345.241C91.3617 343.813 90.3335 343.855 90.3915 345.283Z" fill="white"/>
<path d="M107.436 344.381C107.39 343.233 105.759 343.299 105.806 344.447C105.87 346.016 105.945 347.619 106.435 349.113C106.787 350.196 108.346 349.665 107.994 348.576C107.552 347.224 107.499 345.794 107.442 344.38L107.436 344.381Z" fill="white"/>
<path d="M120.522 341.702C120.48 340.671 118.015 340.771 118.057 341.802C118.109 343.094 118.225 344.367 118.866 345.582C119.376 346.548 121.728 346.032 121.217 345.06C120.646 343.972 120.56 342.854 120.513 341.698L120.522 341.702Z" fill="white"/>
<path d="M76.0729 207.955C75.7787 207.547 75.3708 208.2 75.6609 208.608C76.8932 210.326 77.5321 212.588 78.342 214.703C78.536 215.22 79.0515 214.738 78.8577 214.226C78.0164 212.031 77.3477 209.73 76.0726 207.949L76.0729 207.955Z" fill="white"/>
<path d="M62.4972 198.757C60.1366 198.576 57.5257 198.671 55.2617 198.381C54.724 198.311 54.2733 198.626 54.811 198.696C57.1588 199.001 59.8234 198.913 62.2674 199.1C62.8338 199.144 63.0576 198.802 62.4972 198.757V198.757Z" fill="white"/>
<path d="M66.0916 194.854C65.8244 194.755 65.6122 195.145 65.8796 195.25C78.7405 200.169 85.4325 212.745 87.1452 225.691C87.1801 225.973 87.6298 225.961 87.5948 225.673C85.8643 212.577 79.101 199.83 66.0916 194.854V194.854Z" fill="white"/>
<path d="M117.967 201.599C114.699 196.998 109.837 194.296 106.091 190.197C105.893 189.979 105.598 190.318 105.796 190.531C109.433 194.515 114.117 197.183 117.393 201.569C120.56 205.804 122.434 210.908 123.843 216.013C123.923 216.296 124.342 216.16 124.267 215.877C122.865 210.813 121.004 205.87 117.967 201.599Z" fill="white"/>
<path d="M118.389 188.649C118.177 188.472 117.885 188.788 118.103 188.971C121.486 191.831 125.167 194.362 127.29 198.417C127.422 198.666 127.778 198.426 127.652 198.183C125.517 194.099 121.807 191.541 118.395 188.655L118.389 188.649Z" fill="white"/>
<path d="M121.874 110.866C119.863 107.707 112.643 109.024 109.281 108.786C102.607 108.309 95.8266 110.748 89.2375 111.489C87.9347 111.636 86.6318 111.782 85.3295 111.94C79.7447 112.6 74.1688 113.335 68.6332 114.349C63.6551 115.259 58.3206 115.522 53.626 117.567C48.1003 119.967 48.1281 123.931 48.8744 129.621C55.2894 128.155 61.1126 124.954 67.5297 123.401C79.1252 120.591 91.8034 118.204 103.758 118.24C110.21 118.258 115.612 121.373 121.589 123.259C120.686 122.974 122.832 112.359 121.88 110.866L121.874 110.866Z" fill="#001C2D"/>
<path d="M161.572 226.524C160.513 225.471 159.398 224.868 158.272 225.114C154.187 226.026 150.639 233.342 149.637 236.906C147.973 242.791 148.931 248.886 149.254 254.886C149.5 259.546 147.793 265.474 150.173 269.692C152.091 267.296 151.788 263.877 153.206 261.186C156.554 254.825 166.103 243.587 173.796 243.413C172.248 240.681 169.456 239.027 167.738 236.446C166.517 234.62 164.228 229.159 161.577 226.518L161.572 226.524Z" fill="#D68030"/>
<path d="M122.881 182.824C119.413 177.512 113.127 172.818 107.325 170.521C106.36 170.138 102.614 177.177 102.344 178.084C101.458 181.051 101.519 184.084 101.502 187.167C101.485 190.272 102.234 193.589 102.784 196.637C102.829 196.89 105.378 198.48 105.751 198.847C106.805 199.868 107.639 200.944 108.496 202.158C110.608 205.16 112.57 208.266 114.461 211.41C115.821 213.679 117.02 216.041 118.396 218.281C120.253 221.31 121.883 224.06 123.217 227.365C125.455 232.917 127.268 238.626 129.024 244.353C129.883 247.163 130.742 249.979 131.601 252.794C132.663 256.255 133.796 259.499 134.301 263.127C133.635 258.338 133.955 253.491 134.244 248.686C135.2 232.88 136.145 215.265 130.972 200.032C128.938 194.043 126.337 188.107 122.887 182.824L122.881 182.824Z" fill="#0F88AF"/>
<path d="M84.0474 69.4893C67.537 70.3463 50.7597 80.5727 44.1395 96.1572C40.2436 105.324 40.3007 117.032 42.0228 126.711C42.4907 129.347 42.1843 132.948 45.0012 134.315C48.6773 136.103 50.0414 133.014 50.5108 130.182C51.2161 125.965 50.8606 124.124 54.6149 121.066C58.7852 117.67 63.6648 116.363 68.8447 115.68C78.3553 114.425 88.0067 115.369 97.5618 115.209C99.6285 115.171 124.967 113.472 124.958 113.525C126.161 104.205 120.899 91.4423 115.655 84.0528C107.945 73.2043 96.07 68.867 84.0476 69.4951L84.0474 69.4893Z" fill="#EEA153"/>
<path d="M91.2759 112.314C76.8764 111.173 53.308 111.343 46.9019 127.031C46.4341 127.102 46.0118 127.434 45.9612 128.049L45.7254 130.973C45.7062 131.073 45.6984 131.167 45.702 131.254L45.6794 131.558C45.5548 133.068 47.8927 133.259 48.0116 131.749L48.0576 131.164C51.583 113.226 77.1705 113.552 91.0804 114.655C92.5845 114.774 92.7742 112.434 91.2701 112.315L91.2759 112.314Z" fill="#D8873D"/>
<path d="M108.562 84.0338C97.081 82.8395 95.8743 104.242 97.959 112.179C106.016 111.424 113.625 110.347 122.059 110.594C122.015 109.947 121.952 109.23 121.868 108.459C120.899 100.024 116.999 84.9113 108.568 84.0336L108.562 84.0338Z" fill="#D8873D"/>
<path d="M66.5186 177.523C64.8833 183.14 60.819 188.354 55.4752 190.54C55.1246 190.681 55.3002 191.266 55.6564 191.119C61.2011 188.846 65.3939 183.488 67.0907 177.656C67.1982 177.284 66.6259 177.144 66.5184 177.517L66.5186 177.523Z" fill="#D07E29"/>
<path d="M133.281 111.204C124.599 110.915 115.923 110.949 107.253 110.968C102.501 110.976 92.7929 110.659 89.2426 114.032C89.1759 114.099 99.4407 115.434 100.705 115.482C101.76 115.519 102.814 115.55 103.869 115.582C109.704 115.743 115.54 115.775 121.372 115.842C123.295 115.863 146.675 116.889 143.506 112.7C142.075 110.808 135.611 111.279 133.287 111.204L133.281 111.204Z" fill="#D8873D"/>
<path d="M93.8158 111.867C75.7295 112.305 49.1886 108.837 44.6852 132.266C44.5437 132.996 45.6939 133.08 45.83 132.356C50.1683 109.778 76.4256 113.428 93.7196 113.011C94.4549 112.993 94.5568 111.848 93.8158 111.867V111.867Z" fill="#D8873D"/>
<path d="M214.316 301.576C208.361 300.892 202.278 301.671 196.384 302.478C193.904 302.817 188.911 302.524 187.273 304.914C185.355 307.71 188.599 312.392 189.792 314.87C191.641 318.714 192.939 322.346 193.12 326.652C196.629 325.936 199.728 323.588 202.984 322.213C205.234 321.262 207.293 320.037 209.356 318.789C210.388 318.168 211.413 317.535 212.469 316.924C215.579 315.132 221.775 312.837 222.657 308.818C223.598 304.515 217.631 301.955 214.316 301.576V301.576Z" fill="#C15C4C"/>
<path d="M189.304 305.313C188.618 300.654 183.781 300.7 180.012 300.419C173.593 299.933 167.143 299.848 160.722 300.166C154.935 300.453 149.167 301.052 143.446 301.973C138.041 302.84 132.632 304.593 127.176 305.052C117.018 305.904 106.05 307.86 96.5761 311.878C92.9785 313.402 89.7727 315.036 86.1436 316.353C81.7567 317.943 77.0746 321.946 74.6683 325.897C71.5139 331.077 71.5267 339.508 71.8758 345.401C72.7254 359.636 89.1932 361.994 100.207 362.155C117.526 362.412 133.085 359.182 149.207 352.736C155.578 350.185 161.834 347.362 168.053 344.465C174.215 341.6 179.646 338.677 185.184 334.83C187.456 333.25 190.192 331.45 191.905 329.21C193.343 327.335 194.064 325.159 193.196 322.555C191.234 316.663 190.185 311.348 189.293 305.308L189.304 305.313Z" fill="#001C2D"/>
<path d="M235.45 312.572C239.616 312.286 242.182 307.997 238.527 305.107C233.521 301.147 228.649 313.039 235.45 312.572Z" fill="#C15C4C"/>
<path d="M254.71 297.619C252.625 296.779 251.575 298.744 249.635 299.838C248.021 300.748 246.662 302.109 245.231 303.34C245.747 304.285 247.895 306.84 249.069 305.487C250.902 303.379 255.328 299.205 255.328 299.205C255.328 299.205 255.518 297.95 254.704 297.614L254.71 297.619Z" fill="#C15C4C"/>
<path d="M246.126 303.972C244.413 303.756 239.587 304.549 238.575 305.918C238.259 306.345 238.467 310.574 238.334 311.042C238.788 311.308 241.164 312.476 248.045 307.781C250.128 306.358 250.216 304.494 246.126 303.972V303.972Z" fill="#C15C4C"/>
<path d="M249.574 286.939C249.669 286.534 252.437 280.619 252.437 280.619C252.437 280.619 251.78 279.514 250.932 279.16C248.941 278.345 247.588 281.305 246.44 281.787C246.997 281.547 245.892 280.219 245.739 280.142C243.82 279.166 238.047 285.999 238.047 285.999C238.047 285.999 235.609 286.787 232.249 287.99C233.441 291.052 234.476 294.197 235.482 297.355C236.228 299.693 234.862 304.002 237.43 305.059C239.302 305.831 242.406 303.944 243.959 303.144C244.046 303.099 244.134 303.066 244.221 303.027C244.275 302.99 244.335 302.952 244.394 302.914C245.067 302.492 246.283 301.907 246.86 301.318C247.966 300.201 255.504 285.897 254.751 285.297C254.061 284.742 252.646 284.393 249.573 286.927L249.574 286.939Z" fill="#C15C4C"/>
<path d="M243.827 294.722C242.881 295.256 237.928 298.049 235.802 299.394L236.271 300.182C238.59 298.713 244.353 295.477 244.41 295.45L244.57 295.352L244.645 295.19C244.661 295.159 246.149 292.029 249.702 286.64L249.279 286.266C246.105 291.09 244.188 293.998 243.827 294.722V294.722Z" fill="#A24D44"/>
<path d="M240.995 290.025C240.111 290.523 235.518 293.138 233.539 294.39L233.975 295.126C236.133 293.753 241.474 290.742 241.532 290.711L241.68 290.625L241.755 290.462C241.755 290.462 243.156 287.509 246.444 282.479L246.062 282.277C243.116 286.779 241.325 289.354 240.995 290.025V290.025Z" fill="#A24D44"/>
<path d="M248.822 299.008C247.907 299.638 243.181 302.866 241.155 304.409L241.716 305.111C243.914 303.441 249.43 299.69 249.481 299.652L249.637 299.55L249.701 299.38C249.701 299.38 250.913 296.145 253.98 290.53L253.518 290.213C250.769 295.241 249.111 298.266 248.828 299.008L248.822 299.008Z" fill="#A24D44"/>
<path d="M230.527 288.286C227.647 287.848 221.794 288.589 219.091 289.719C213.91 291.876 208.977 296.366 207.496 301.941C205.003 311.302 217.518 317.259 224.886 315.998C227.96 315.467 231.247 314.291 233.953 312.698C236.676 311.093 236.98 308.36 237.025 305.398C237.064 302.985 236.828 300.252 236.159 297.931C235.241 294.795 234.242 288.846 230.527 288.286V288.286Z" fill="#C15C4C"/>
<path d="M218.164 283.305C214.764 286.092 211.157 294.492 212.228 299.099C217.325 297.927 221.909 291.927 223.607 286.847C225.015 282.655 220.949 281.025 218.164 283.305Z" fill="#C15C4C"/>
<path d="M185.413 301.252C186.953 303.22 192.024 328.784 192.091 328.753C194.558 327.584 198.984 326.821 200.78 324.786C200.944 324.598 196.836 303.113 196.003 300.659C195.358 298.75 187.033 300.813 185.413 301.252V301.252Z" fill="#001C2D"/>
<path d="M91.9174 296.451C88.0328 281.197 82.6239 266.34 75.8336 252.27C69.9124 239.997 63.4764 225.562 51.0367 218.848C39.824 212.799 28.625 214.763 21.0861 226.591C12.3053 240.371 12.8996 257.994 15.1142 273.039C16.3657 281.555 18.6308 289.885 21.677 297.845C22.4383 299.83 23.2771 301.876 24.1977 303.947C33.7614 325.509 51.8658 350.682 75.5327 355.557C84.4572 357.396 91.3098 352.964 95.0785 344.757C98.7993 336.649 99.4681 331.95 98.6545 323.278C97.8082 314.227 94.1616 305.261 91.9174 296.451V296.451Z" fill="#001C2D"/>
<path d="M76.2627 299.143C77.6168 300.532 78.0633 302.501 78.4511 304.211C78.5683 304.731 79.5572 304.521 79.4399 304.001C79.0156 302.132 78.4818 300.084 77.0082 298.564C76.601 298.153 75.8674 298.732 76.2627 299.143V299.143Z" fill="#114963"/>
<path d="M62.9823 333.166C62.5716 332.631 61.8172 333.362 62.2276 333.89C63.8513 336.018 65.6541 337.996 67.6053 339.825C68.0992 340.282 68.8603 339.563 68.3661 339.1C66.415 337.271 64.6121 335.293 62.9884 333.166L62.9823 333.166Z" fill="#114963"/>
<path d="M155.358 309.646C152.59 309.835 149.833 310.254 147.065 310.433C146.435 310.478 146.632 312.079 147.245 312.035C150.012 311.856 152.77 311.438 155.538 311.258C156.168 311.213 155.971 309.612 155.358 309.646V309.646Z" fill="#114963"/>
<path d="M101.107 328.504C99.5437 330.33 97.9809 332.166 96.263 333.878C95.8189 334.316 96.5179 334.986 96.9617 334.542C98.737 332.768 100.351 330.87 101.972 328.982C102.379 328.507 101.508 328.035 101.107 328.504V328.504Z" fill="#114963"/>
<path d="M177.656 329.374L171.498 331.868C170.931 332.099 171.327 332.855 171.899 332.629L178.058 330.135C178.624 329.904 178.223 329.143 177.656 329.374Z" fill="#114963"/>
<path d="M144.79 328.622C142.391 328.964 139.94 329.037 137.541 329.376C136.91 329.465 137.051 330.018 137.682 329.927C140.075 329.588 142.532 329.515 144.931 329.172C145.562 329.084 145.421 328.53 144.784 328.619L144.79 328.622Z" fill="#114963"/>
<path d="M63.3408 164.049C60.107 168.864 60.2424 174.884 57.4527 179.761C55.0702 183.933 51.4063 187.195 49.1399 191.684C55.4765 196.907 58.0207 203.781 63.6523 209.296C69.5528 215.076 76.7135 219.411 82.0152 225.84C87.6605 232.68 92.4876 240.131 97.0789 247.707C99.8324 252.25 111.478 266.35 110.979 271.283C112.592 255.355 110.698 225.662 102.259 211.455C91.8874 193.99 75.2807 180.304 63.3351 164.049L63.3408 164.049Z" fill="#0F88AF"/>
<path d="M65.3042 154.701C58.134 162.582 61.4593 168.521 57.5647 177.083C54.401 184.029 48.8906 190.494 40.9393 192.631L43.352 195.433C50.5907 202.317 61.7783 191.128 64.7819 184.828C67.7856 178.534 67.2394 172.872 65.918 166.34C65.106 162.34 66.2273 158.656 65.3042 154.701V154.701Z" fill="#1E1D1D"/>
<path d="M277.219 213.316C275.766 215.348 274.856 217.539 273.82 219.697C273.481 220.402 274.974 220.632 275.306 219.944C276.295 217.881 277.173 215.79 278.563 213.842C279.036 213.182 277.685 212.661 277.219 213.316V213.316Z" fill="white"/>
<path d="M304.337 226.149C289.447 226.244 274.862 222.902 260.148 220.952C259.389 220.853 259.11 222.055 259.88 222.154C274.698 224.117 289.388 227.478 304.387 227.385C305.165 227.383 305.114 226.141 304.337 226.149Z" fill="#E6E9ED"/>
<path d="M302.471 224.273C295.084 221.111 287.505 218.229 280.605 214.035C279.932 213.625 279.366 214.719 280.034 215.124C286.934 219.323 294.513 222.199 301.899 225.361C302.615 225.669 303.193 224.581 302.471 224.273V224.273Z" fill="#E6E9ED"/>
<path d="M449.663 432.712C450.406 432.393 451.782 431.657 453.904 430.269C456.026 428.88 458.901 426.844 461.886 424.29C464.872 421.737 467.975 418.666 470.551 415.818C473.127 412.976 475.192 410.333 477.453 407.094C479.713 403.855 482.212 399.967 484.742 395.121C487.271 390.275 489.837 384.477 491.041 381.494C492.246 378.512 492.089 378.339 491.428 377.951C490.766 377.563 489.589 376.954 489 376.649C488.608 376.446 488.25 376.257 487.928 376.082C487.445 375.819 486.473 375.299 485.815 375.136C485.157 374.972 484.791 375.177 483.932 376.595C483.073 378.008 481.66 380.676 480.49 382.672C479.32 384.661 478.367 386.032 477.356 386.96C476.345 387.889 475.246 388.383 473.947 388.326C472.642 388.27 471.092 387.687 468.447 386.284C465.802 384.882 462.07 382.67 457.541 379.719C453.006 376.773 447.646 373.072 443.369 370.087C439.092 367.102 435.846 364.79 429.542 360.7C428.589 360.082 427.553 359.415 426.47 358.721L426.47 358.733C427.401 363.208 428.344 367.688 429.281 372.163C434.07 374.574 439.087 377.039 444.098 379.659C449.58 382.526 455.041 385.584 459.257 388.208C463.473 390.832 466.444 393.023 468.173 394.733C469.908 396.444 470.407 397.669 469.751 400.237C469.1 402.805 467.288 406.711 464.408 411.318C461.523 415.925 457.566 421.238 454.772 424.948C451.983 428.652 450.34 430.782 449.583 431.868C448.826 432.953 448.904 433.031 449.64 432.712L449.663 432.712Z" fill="#B3B3B3"/>
<path d="M407.1 346.545C406.609 346.242 406.119 345.939 405.634 345.636C397.386 340.525 390.258 336.163 386.236 333.911C382.214 331.665 381.275 331.525 380.285 331.997C379.296 332.47 378.21 333.54 377.298 334.937C376.387 336.334 375.649 338.047 375.435 339.295C375.215 340.543 375.517 341.315 376.716 342.309C377.915 343.304 380.01 344.515 386.202 348.114C388.687 349.558 391.839 351.389 395.209 353.339C395.267 353.21 395.32 353.087 395.379 352.969C398.094 347.441 405.94 346.65 407.089 346.546L407.1 346.545Z" fill="#B3B3B3"/>
<path d="M429.293 372.174C429.334 372.195 429.369 372.211 429.411 372.233L434.374 363.887C432.952 362.936 431.383 361.899 429.542 360.706C428.589 360.088 427.553 359.421 426.47 358.727C427.407 363.208 428.35 367.688 429.287 372.174L429.293 372.174Z" fill="#6F7C91"/>
<path d="M395.39 352.963C398.105 347.435 405.952 346.644 407.1 346.54C406.61 346.237 406.119 345.928 405.634 345.631C397.386 340.519 390.258 336.157 386.236 333.906C382.214 331.66 381.275 331.519 380.286 331.992C379.296 332.464 378.21 333.534 377.298 334.931C376.387 336.329 375.649 338.041 375.435 339.289C375.215 340.537 375.517 341.309 376.716 342.304C377.915 343.298 380.01 344.51 386.202 348.108C388.693 349.552 391.845 351.389 395.215 353.339C395.273 353.21 395.326 353.087 395.39 352.963V352.963Z" fill="#6F7C91"/>
<path d="M115.803 358.926C115.878 360.21 115.959 361.495 116.035 362.779C118.994 362.232 121.962 361.753 124.948 361.419C125.557 379.56 123.462 397.835 121.916 416.052L143.693 415.168C142.087 392.338 140.888 369.52 138.467 346.59C138.164 343.72 137.939 340.883 137.76 338.055C135.3 334.459 132.589 331.133 129.581 328.201C128.169 329.713 126.107 330.802 124.08 331.323C121.054 332.098 117.899 332.4 114.729 332.482C114.873 341.311 115.289 350.123 115.803 358.926Z" fill="#1B3B5E"/>
<path d="M72.3863 372.14C73.4815 371.013 74.5867 370.133 75.6937 369.437C76.0847 367.463 76.4299 365.479 76.7408 363.491C77.8253 356.506 79.1551 349.552 80.1767 342.559C80.8518 337.935 80.9908 333.109 83.1142 328.927C93.3322 330.759 103.787 331.849 114.095 332.254C116.613 332.354 119.194 332.439 121.763 332.375C121.734 330.55 121.711 328.731 121.705 326.906C121.643 305.931 122.061 283.659 117.21 263.161C112.572 243.565 105.816 225.8 94.7973 209.55C86.8696 197.857 76.6754 182.91 62.4321 190.567C51.594 196.392 37.5682 208.988 33.761 222.309C15.8129 285.242 18.1991 353.945 23.3906 420.023L41.4117 419.291C48.7169 402.366 60.9042 383.913 72.3863 372.14Z" fill="#0F88AF"/>
<path d="M75.2666 329.376C73.1068 333.555 72.9621 338.371 72.2735 342.996C71.231 349.982 69.8755 356.93 68.7692 363.908C68.452 365.894 68.1 367.876 67.7015 369.849C73.9569 365.999 80.5362 367.999 88.7777 367.48C97.9049 366.908 106.825 364.647 115.827 362.987C115.747 361.708 115.672 360.428 115.597 359.148C115.079 350.377 114.665 341.597 114.527 332.799C111.912 332.865 109.291 332.782 106.738 332.684C96.2685 332.281 85.6502 331.204 75.2725 329.382L75.2666 329.376Z" fill="#4C9589"/>
<path d="M162.764 414.389L169.397 414.119C168.071 397.484 166.239 380.881 162.295 364.634C156.863 342.274 154.969 319.019 151.28 296.152C148.778 280.64 147.55 264.592 147.589 248.942C147.628 234.303 148.875 217.753 141.576 204.458C138.403 198.679 107.515 174.353 107.862 192.12C107.948 196.352 111.716 199.049 113.054 202.92C113.962 205.538 114.423 208.52 116.111 210.784C117.549 212.709 119.221 214.147 120.539 216.254C123.927 221.645 127.492 227.276 128.945 233.544C133.214 251.962 135.408 270.953 136.329 289.811C137.141 306.404 136.41 322.169 137.439 338.437C149.417 355.996 155.257 380.195 159.284 398.076C160.507 403.498 161.667 408.939 162.765 414.394L162.764 414.389Z" fill="#0F88AF"/>
<path d="M143.445 415.179L163.229 414.375C162.12 408.902 160.936 403.444 159.694 398.005C155.602 380.066 149.674 355.79 137.478 338.18C137.657 341.003 137.884 343.843 138.188 346.702C140.626 369.597 141.833 392.382 143.439 415.179L143.445 415.179Z" fill="#0F88AF"/>
<path d="M81.784 256.653C78.6912 248.408 75.6 240.059 70.9736 232.575C63.5374 220.532 50.328 208.581 35.6348 209.464C19.9991 210.397 13.6129 227.358 11.8574 241.064C9.75275 257.445 14.9473 273.5 16.9863 289.615C19.5372 309.774 25.5064 331.067 34.2141 349.308C42.213 366.075 58.529 375.051 75.6747 367.068C95.9822 357.614 100.931 337.649 99.4811 316.488C98.0913 296.241 88.7931 275.301 81.79 256.659L81.784 256.653Z" fill="#0F88AF"/>
<path d="M171.125 296.648C147.508 305.018 77.4842 297.322 70.0841 331.25C67.1665 344.641 59.8384 366.964 72.1426 376.974C82.8332 385.668 99.7523 379.258 111.598 377.251C133.882 373.473 157.025 367.654 179.579 365.669C182.222 354.902 181.181 326.71 176.624 309.252C175.153 303.629 173.317 299.114 171.126 296.659L171.125 296.648Z" fill="#0F88AF"/>
<path d="M19.8538 307.322L22.0943 319.402C26.2064 327.052 30.1602 335.657 36.6513 341.243C38.8732 318.893 54.6392 273.452 81.0767 268.053C61.748 212.32 20.1051 273.542 19.8478 307.316L19.8538 307.322Z" fill="#D68030"/>
<path d="M120.995 305.467C120.699 305.276 120.383 305.115 120.033 304.973C113.287 302.255 104.515 306.413 98.1869 308.944C98.3989 315.805 100.768 323.26 101.069 330.689C101.2 333.907 101.337 379.714 101.62 379.726C105.888 379.94 121.125 378.24 123.831 374.357C127.856 368.581 125.55 348.213 125.634 340.721C125.696 335.308 125.974 329.586 125.509 323.87C125.095 318.847 124.831 307.978 120.995 305.467V305.467Z" fill="#D68030"/>
<path d="M81.2839 267.953L99.4441 307.643L83.977 264.462L81.2839 267.953Z" fill="#125064"/>
<path d="M37.5391 344.058C37.5391 344.058 38.7431 345.006 40.8404 346.577C47.9662 351.92 65.3941 364.462 80.7273 371.337C100.57 380.233 47.0884 358.01 36.1815 345.001L37.5391 344.058V344.058Z" fill="#125064"/>
<path d="M150.159 270.028L161.304 290.867L153.158 261.331L150.159 270.028Z" fill="#125064"/>
<g opacity="0.54">
<path d="M203.513 195.88L202.225 191.069L203.361 192.435L205.168 194.68L205.141 193.728L205.687 194.375L207.244 196.088L203.513 195.874L203.513 195.88ZM195.574 190.696L195.477 187.225L196.315 188.226L197.456 189.5L195.735 183.015L197.567 185.235L202.231 191.081L195.58 190.702L195.574 190.696Z" fill="#0385A1"/>
<path d="M182.911 192.654L182.612 197.934L183.577 197.987L183.678 196.161C183.833 196.332 184.019 196.478 184.229 196.58C184.42 196.671 184.629 196.724 184.844 196.735C185.342 196.761 185.789 196.591 186.173 196.226C186.557 195.86 186.768 195.385 186.8 194.813C186.832 194.217 186.686 193.715 186.351 193.318C186.046 192.934 185.59 192.698 185.098 192.672C184.871 192.655 184.65 192.688 184.435 192.763C184.215 192.845 184.019 192.97 183.843 193.125L183.87 192.701L182.905 192.648L182.911 192.654ZM185.588 193.921C185.774 194.146 185.856 194.422 185.841 194.754C185.819 195.086 185.705 195.357 185.492 195.562C185.291 195.76 185.009 195.867 184.726 195.845C184.437 195.835 184.166 195.702 183.986 195.483C183.793 195.257 183.711 194.975 183.733 194.631C183.754 194.293 183.869 194.028 184.082 193.829C184.289 193.631 184.577 193.536 184.86 193.558C185.143 193.568 185.414 193.701 185.594 193.921L185.588 193.921Z" fill="black"/>
<path d="M190.71 195.136C190.747 194.497 190.583 193.97 190.223 193.562C189.863 193.153 189.382 192.93 188.767 192.892C188.196 192.86 187.706 193.03 187.304 193.396C186.901 193.762 186.684 194.243 186.652 194.833C186.621 195.423 186.784 195.901 187.144 196.304C187.504 196.706 187.985 196.929 188.594 196.961C188.987 196.982 189.324 196.93 189.618 196.811C189.924 196.679 190.187 196.474 190.387 196.208L189.591 195.779C189.329 196.014 188.986 196.128 188.635 196.106C188.334 196.091 188.088 195.994 187.902 195.818C187.716 195.641 187.597 195.397 187.577 195.139L190.693 195.315L190.71 195.13L190.71 195.136ZM187.662 194.382C187.783 194.148 187.911 193.987 188.045 193.9C188.259 193.757 188.516 193.693 188.768 193.715C189.002 193.726 189.23 193.81 189.416 193.956C189.589 194.095 189.713 194.285 189.764 194.506L187.662 194.388L187.662 194.382Z" fill="black"/>
<path d="M193.659 193.692C193.498 193.515 193.3 193.363 193.084 193.254C192.886 193.164 192.677 193.104 192.462 193.094C192.001 193.061 191.547 193.218 191.206 193.528C190.804 193.882 190.587 194.363 190.555 194.978C190.523 195.549 190.675 196.033 191.01 196.43C191.326 196.814 191.795 197.044 192.293 197.064C192.508 197.08 192.729 197.054 192.938 196.991C193.146 196.915 193.335 196.803 193.494 196.654C193.478 196.968 193.431 197.183 193.358 197.313C193.273 197.449 193.151 197.548 193.004 197.605C192.839 197.674 192.63 197.706 192.366 197.69C192.188 197.685 192.009 197.644 191.843 197.578C191.707 197.517 191.584 197.426 191.49 197.31L190.421 197.252C190.485 197.509 190.61 197.742 190.777 197.943C190.951 198.138 191.167 198.296 191.408 198.398C191.66 198.507 191.974 198.572 192.355 198.593C193.068 198.636 193.608 198.453 193.985 198.057C194.265 197.766 194.427 197.291 194.458 196.634L194.645 193.321L193.68 193.268L193.653 193.692L193.659 193.692ZM193.376 194.358C193.562 194.571 193.644 194.834 193.628 195.16C193.613 195.486 193.498 195.745 193.291 195.937C193.084 196.129 192.808 196.224 192.531 196.196C192.243 196.186 191.971 196.059 191.779 195.846C191.587 195.626 191.498 195.357 191.52 195.037C191.53 194.748 191.65 194.477 191.864 194.278C192.071 194.086 192.353 193.992 192.636 194.014C192.949 194.029 193.196 194.144 193.382 194.357L193.376 194.358Z" fill="black"/>
<path d="M194.838 197.208L195.809 197.261L195.894 195.712C195.915 195.313 195.943 195.048 195.979 194.931C196.033 194.728 196.142 194.543 196.3 194.4C196.447 194.276 196.63 194.219 196.815 194.23C196.95 194.229 197.086 194.283 197.191 194.368C197.296 194.459 197.365 194.587 197.39 194.729C197.422 194.882 197.425 195.189 197.398 195.65L197.302 197.34L198.261 197.394L198.405 194.837C198.432 194.394 198.337 194.051 198.126 193.807C197.884 193.532 197.538 193.363 197.17 193.348C196.979 193.338 196.795 193.364 196.617 193.427C196.391 193.515 196.183 193.633 196 193.782L196.021 193.389L195.05 193.336L194.831 197.202L194.838 197.208Z" fill="black"/>
<path d="M198.636 197.427L199.607 197.48L199.912 192.121L198.94 192.068L198.636 197.427Z" fill="black"/>
</g>
<defs>
<linearGradient id="paint0_linear_113_2675" x1="374.495" y1="341.204" x2="419.128" y2="354.55" gradientUnits="userSpaceOnUse">
<stop stop-color="#FFC0BB"/>
<stop offset="0.28" stop-color="#FFB7B3"/>
<stop offset="0.71" stop-color="#FFA19F"/>
<stop offset="1" stop-color="#FF8F8F"/>
</linearGradient>
<linearGradient id="paint1_linear_113_2675" x1="191.238" y1="286.432" x2="254.644" y2="260.625" gradientUnits="userSpaceOnUse">
<stop stop-color="#FFC0BB"/>
<stop offset="0.28" stop-color="#FFB7B3"/>
<stop offset="0.71" stop-color="#FFA19F"/>
<stop offset="1" stop-color="#FF8F8F"/>
</linearGradient>
</defs>
</svg>
