<svg width="545" height="453" viewBox="0 0 545 453" fill="none" xmlns="http://www.w3.org/2000/svg">
<path d="M99.2902 372.971C100.225 373.126 101.139 373.448 102 373.972C102.901 374.522 103.822 375.037 104.754 375.524C104.916 375.147 105.015 374.71 104.995 374.203C104.738 367.473 108.156 360.867 111.945 355.58C111.956 355.568 111.96 355.551 111.971 355.533C109.818 355.381 107.664 355.178 105.529 354.895C102.102 360.333 99.4444 366.497 99.296 372.976L99.2902 372.971Z" fill="#8ACBC8"/>
<path d="M124.056 359.292C122.648 365.554 122.238 372.048 124.164 378.52C126.038 378.098 127.977 377.997 129.839 378.267C130.345 378.343 130.824 378.449 131.285 378.566C131.395 377.954 131.379 377.274 131.15 376.517C129.44 370.904 130.319 365.288 131.642 359.938C131.677 359.8 131.678 359.669 131.702 359.538C129.111 359.774 126.533 359.719 124.062 359.292L124.056 359.292Z" fill="#8ACBC8"/>
<path d="M123.851 362.684C122.861 367.128 122.224 372.198 124.024 376.518C124.231 377.011 124.972 376.761 124.765 376.261C123.016 372.066 123.65 367.195 124.611 362.885C124.73 362.35 123.971 362.16 123.856 362.689L123.851 362.684Z" fill="white"/>
<path d="M130.627 361.301C128.071 365.604 127 370.922 129.234 375.272C129.492 375.769 130.695 375.501 130.437 375.004C128.309 370.869 129.291 365.774 131.732 361.673C132.024 361.18 130.926 360.802 130.627 361.301Z" fill="white"/>
<path d="M107.079 360.189C104.167 364.811 103.344 370.034 103.499 375.161C103.514 375.712 104.541 375.67 104.526 375.119C104.37 370.137 105.153 365.078 107.983 360.587C108.297 360.095 107.386 359.697 107.079 360.189V360.189Z" fill="white"/>
<path d="M166.589 353.21C171.3 357.989 172.684 364.986 173.439 371.265C173.512 371.846 174.473 371.813 174.399 371.226C173.602 364.671 172.15 357.518 167.237 352.541C166.813 352.109 166.166 352.785 166.583 353.211L166.589 353.21Z" fill="white"/>
<path d="M159.994 354.791C158.215 354.649 155.701 355.279 154.223 356.196C154.364 357.251 154.528 358.31 154.726 359.357C154.819 359.393 154.907 359.43 155.012 359.467C158.739 360.885 162.802 358.554 164.091 364.481C164.594 366.801 163.928 369.412 162.695 371.368C162.484 371.707 159.886 374.119 158.077 375.241C158.257 376.253 158.425 377.272 158.576 378.291C162.461 379.646 168.88 371.801 169.591 368.881C171.353 361.642 167.765 355.391 160 354.785L159.994 354.791Z" fill="#EFECEB"/>
<path d="M167.11 361.859C164.503 362.654 161.841 363.13 159.24 363.924C155.061 365.201 156.408 369.199 160.574 367.916C163.181 367.116 165.843 366.646 168.45 365.846C172.629 364.569 171.282 360.577 167.116 361.853L167.11 361.859Z" fill="#EFECEB"/>
<path d="M147.195 357.525C142.91 364.204 131.686 369.215 127.473 359.706C127.231 359.152 126.37 359.614 126.612 360.157C128.301 363.976 131.863 366.585 136.41 365.951C141.401 365.256 145.466 362.003 148.031 358.012C148.363 357.494 147.527 357.014 147.195 357.525V357.525Z" fill="white"/>
<path d="M168.455 416.193L171.825 416.056C173.446 397.811 175.635 379.502 175.03 361.342C171.944 361.681 168.876 362.17 165.816 362.716C166.932 380.584 168.322 398.296 168.449 416.193L168.455 416.193Z" fill="#164B85"/>
<path d="M112.646 386.967C114.908 381.433 116.512 375.684 117.701 369.849C116.565 370.545 115.441 371.425 114.322 372.552C102.586 384.321 90.1177 402.759 82.6485 419.676L107.464 418.669C107.192 407.83 108.37 397.433 112.652 386.967L112.646 386.967Z" fill="#0F88AF"/>
<path d="M107.241 419.55L168.704 417.055C168.553 399.169 167.189 381.465 166.086 363.607C157.002 365.276 148.001 367.548 138.792 368.125C130.476 368.647 123.838 366.64 117.526 370.508C116.332 376.37 114.723 382.145 112.453 387.704C108.156 398.223 106.974 408.661 107.247 419.55L107.241 419.55Z" fill="#0F88AF"/>
<path d="M375.273 319.179L225.347 318.104L225.567 413.874L384.936 407.404L375.273 319.179Z" fill="#722318"/>
<path d="M457.761 373.043C460.997 373.124 464.122 372.577 467.345 372.602C470.746 372.625 473.189 372.872 476.495 373.118C478.287 373.252 479.664 372.378 480.991 371.281C481.7 370.699 483.334 370.079 483.334 370.079C483.334 370.079 485.79 371.795 487.322 370.5C489.39 368.756 488.729 367.244 488.314 365.393C487.801 363.114 487.448 361.526 486.82 359.269C485.66 355.098 485.711 352.531 483.902 348.576C483.055 346.725 469.908 337.922 468.383 336.549C466.75 335.082 451.94 322.381 451.94 322.381L436.983 327.605L427.831 339.4C427.831 339.4 439.678 351.835 440.274 353.015C440.932 354.331 445.381 359.43 447.212 360.808C447.017 366.643 451.864 372.896 457.772 373.036L457.761 373.043Z" fill="#FFC0BB"/>
<path d="M427.819 339.4C427.819 339.4 439.667 351.835 440.262 353.015C440.921 354.332 445.37 359.43 447.201 360.809C447.006 366.643 451.853 372.896 457.761 373.037C460.997 373.118 464.122 372.571 467.345 372.596C470.746 372.619 473.188 372.866 476.495 373.112C477.848 373.212 478.958 372.741 479.996 372.036C478.432 367.016 476.975 360.216 476.93 359.406C476.826 357.416 451.626 331.961 444.524 324.97L438.722 326.998L437.091 328.275L435.624 329.348L431.664 334.449L427.825 339.394L427.819 339.4Z" fill="url(#paint0_linear_113_2675)"/>
<path d="M266.703 68.2293L268.025 115.189C268.241 116.229 271.286 129.917 283.435 134.653C294.513 138.972 308.416 134.001 315.676 121.999L312.937 66.5155L266.703 68.2235L266.703 68.2293Z" fill="#FFC0BB"/>
<path d="M257.883 119.045C265.231 189.468 272.579 259.884 279.927 330.306L361.04 326.146L349.483 203.852C349.461 176.562 344.059 141.614 318.97 120.719C317.978 119.892 316.952 119.083 315.892 118.299C312.153 121.186 304.198 126.496 292.819 128.009C274.64 130.419 261.136 121.361 257.889 119.051L257.883 119.045Z" fill="#141414"/>
<path d="M367.621 143.614C369.794 145.698 372.189 148.348 374.468 151.64C379.031 158.242 381.231 164.681 382.357 169.245C382.357 169.245 389.117 186.308 398.189 225.852C398.294 226.302 398.424 226.555 398.555 226.946C399.918 230.994 404.554 244.19 416.017 262.103C423.592 273.945 438.322 294.363 459.606 318.71C451.325 332.839 443.044 346.968 434.757 361.097C424.853 351.901 413.651 340.144 402.585 325.514C391.313 310.61 382.936 296.365 376.733 284.146C381.137 307.018 385.536 329.895 389.939 352.767C389.939 352.767 388.046 353.022 387.197 352.879L358.18 354.057C358.18 354.057 342.766 207.028 341.175 199.059C330.361 144.857 322.559 141.122 322.559 141.122C319.531 134.906 313.868 124.108 316.384 122.092C318.483 120.415 324.663 125.848 333.439 130.991C340.712 135.253 351.857 140.524 367.621 143.608L367.621 143.614Z" fill="#141414"/>
<path d="M265.632 29.2588L311.127 23.1646L320.449 35.9118C320.449 35.9118 321.388 43.8408 322.415 52.0643C323.341 59.5181 324.341 67.221 324.761 69.4737C325.647 74.2123 323.757 95.0895 322.781 96.9289C321.805 98.7683 315.219 99.0701 313.103 99.2935C310.988 99.517 292.102 93.9444 282.762 90.2827C277.03 88.0335 272.447 84.792 269.343 79.5875C267.392 76.3079 266.026 72.2537 265.34 67.1689C263.565 54.0178 265.637 29.2586 265.637 29.2586L265.632 29.2588Z" fill="#FFC0BB"/>
<path d="M265.325 66.8907C264.689 62.1281 264.548 55.847 264.63 49.7692L279.968 55.4334C279.968 55.4334 284.327 80.5647 284.639 81.6946C284.946 82.8247 306.123 93.5568 309.709 94.9213C311.805 95.7204 315.28 97.296 317.81 98.4679C315.706 98.8518 296.397 100.928 295.291 101.047C293.215 101.269 282.32 91.7271 273.711 76.0695C268.913 67.3364 267.084 80.0648 265.336 66.8902L265.325 66.8907Z" fill="#FF8F8F"/>
<path d="M275.963 14.9914C278.88 14.5264 281.698 14.1578 284.405 13.8919C287.014 12.3246 289.549 10.5117 292.478 9.78049C295.015 9.15181 297.627 9.21909 299.991 10.4171C301.106 10.9784 302.065 11.8117 303.179 12.3615C304.645 13.0876 306.155 12.9223 307.737 12.9794C312.52 13.1665 316.487 15.8995 318.944 19.9705C321.686 24.5094 322.656 28.6003 323.24 31.6614C323.577 33.4385 323.415 37.662 323.212 38.9006C322.437 43.5881 321.912 48.768 322.067 51.5922C321.579 47.6493 321.112 43.769 320.755 40.7912C320.389 37.7155 316.602 39.972 315.151 40.4584C312.401 41.3787 309.473 41.7113 306.579 41.6266C302.564 41.5124 298.912 41.5913 294.989 40.9014C292.488 40.4599 289.22 40.0669 286.76 40.8946C284.804 41.5517 283.976 44.0751 283.966 45.9644C283.955 48.2409 283.858 51.0754 283.856 52.5774C283.843 57.0837 284.373 60.6438 278.88 62.2242C282.307 71.1834 272.577 66.0386 272.45 66.1708C272.438 66.1482 274.983 77.7599 273.047 80.8828C270.334 85.2561 267.309 86.7365 267.309 86.7365C267.309 86.7365 260.08 64.9342 258.316 59.9859C256.002 53.5003 251.682 40.4991 251.506 37.8778C250.865 28.4533 255.999 18.1877 275.963 14.9914V14.9914Z" fill="#1E1D1D"/>
<path d="M278.672 61.6276C278.12 57.1509 273.935 53.6372 268.937 53.7164C267.244 53.7457 265.818 54.2085 265.203 55.5045C263.196 59.7364 267.636 69.8309 269.399 73.3305C271.162 76.83 281.056 81.0286 281.056 81.0286L278.666 61.6222L278.672 61.6276Z" fill="#FF8F8F"/>
<path d="M253.434 350.869L245.291 189.371C245.191 188.381 246.711 188.193 246.869 189.175L264.19 350.513L253.434 350.869Z" fill="#282547"/>
<path d="M287.474 208.964C284.404 186.23 261.126 117.763 260.798 117.898C256.802 119.545 248.997 120.926 233.961 129.053C218.554 137.384 206.4 145.042 198.352 150.353C194.714 153.033 190.172 157.246 187.2 163.559C185.701 166.75 185.164 169.408 184.849 170.583C182.792 178.183 172.564 244.907 168.281 281.021C161.786 335.796 189.047 348.548 223.509 332.013C236.181 324.644 248.848 317.276 261.52 309.907C273.885 301.619 286.243 293.331 298.608 285.042C298.608 285.042 289.893 226.873 287.474 208.958L287.474 208.964Z" fill="#141414"/>
<path d="M283.879 41.7911C283.879 41.7911 283.984 56.4811 287.899 66.4756C290.358 72.7548 287.167 81.4704 293.956 81.1948C298.955 80.9918 298.583 73.8211 300.846 72.0063C302.559 70.6287 318.64 69.1749 321.385 69.9969C323.533 70.6415 322.513 77.8399 323.476 77.9218C324.428 77.9984 324.187 74.764 324.257 73.2168C324.391 70.2495 324.656 66.9483 324.656 66.9483C324.656 66.9483 326.104 72.433 326.182 74.7809C326.26 77.1288 325.809 76.9743 325.519 79.7981C325.228 82.622 334.248 95.9705 330.001 100.747C322.17 109.553 297.878 108.862 290.258 105.196C283.705 102.045 279.213 89.1116 279.135 81.6178C279.056 74.1183 280.146 57.3803 275.51 49.5932C270.874 41.8062 283.873 41.7856 283.873 41.7856L283.879 41.7911Z" fill="#1E1D1D"/>
<path d="M366.719 143.479L372.052 184.576L370.706 257.958L378.887 286.816L392.103 355.619L344.143 357.566C335.653 278.269 327.162 198.971 318.671 119.667C326.035 122.175 334.237 125.437 342.947 129.722C352.089 134.22 360.014 138.968 366.724 143.479L366.719 143.479Z" fill="#D6652D"/>
<path d="M353.879 134.541C353.668 152.705 354.005 171.593 355.029 191.154C358.179 251.339 367.197 305.64 378.611 353.077L369.368 353.453C365.932 339.75 361.895 322 358.226 301.099C354.065 277.381 352.082 259.3 350.667 246.193C347.958 221.101 346.708 200.188 346.067 185.545C345.31 168.207 344.974 149.623 345.269 129.917C346.73 130.661 348.217 131.439 349.722 132.251C351.143 133.015 352.529 133.78 353.879 134.547L353.879 134.541Z" fill="#E6A43B"/>
<path d="M268.364 115.476C258.065 118.056 249.634 121.066 243.391 123.585C220.085 132.992 204.668 144.655 198.917 149.234C198.504 149.562 198.164 149.835 197.946 150.011C207.302 157.291 216.658 164.565 226.019 171.845C221.75 222.282 219.965 276.002 221.774 332.624C222.146 344.338 222.667 355.902 223.321 367.31L301.634 364.131C301.634 364.131 306.731 178.073 268.369 115.476L268.364 115.476Z" fill="#D6652D"/>
<path d="M237.521 126.077C241.699 146.794 245.47 168.404 248.693 190.861C257.747 254.025 260.858 312.779 260.435 365.809L269.854 365.427C270.245 346.794 270.038 330.918 269.68 318.547C269.566 314.598 269.336 307.224 268.862 297.976C267.927 279.628 266.617 264.961 265.582 253.516C264.37 240.131 261.969 215.203 257.038 182.476C254.442 165.245 251.015 145.01 246.426 122.395C244.956 122.824 243.348 123.373 241.642 124.094C240.118 124.732 238.739 125.41 237.515 126.083L237.521 126.077Z" fill="#E6A43B"/>
<path d="M221.414 307.938L307.175 310.644C310.938 310.763 314.08 307.815 314.199 304.056L318.077 181.586C318.195 177.827 315.245 174.688 311.482 174.57L225.721 171.863C221.958 171.745 218.816 174.693 218.698 178.452L214.82 300.921C214.701 304.681 217.651 307.819 221.414 307.938Z" fill="white"/>
<path d="M190.799 277.291L252.49 246.97L255.086 253.095L191.654 279.233C190.396 279.751 189.573 277.894 190.793 277.297L190.799 277.291Z" fill="#282547"/>
<path d="M274.078 289.349L263.331 289.345L261.355 282.583L258.824 269.073L322.583 238.975C323.158 247.092 325.869 260.137 322.732 264.411C318.389 270.334 283.024 281.697 283.024 281.697L274.072 289.343L274.078 289.349Z" fill="url(#paint1_linear_113_2675)"/>
<path d="M222.028 332.66C241.57 321.599 261.113 310.537 280.656 299.476L254.798 250.996L186.189 281.067C190.755 299.934 195.321 318.808 199.881 337.676C207.263 336.002 214.646 334.334 222.028 332.66Z" fill="#423A68"/>
<g opacity="0.22">
<path d="M272.422 191.835L300.156 192.976" stroke="black" stroke-width="0.5" stroke-miterlimit="10"/>
<path d="M272.343 193.741L300.078 194.882" stroke="black" stroke-width="0.5" stroke-miterlimit="10"/>
<path d="M272.261 195.801L299.995 196.948" stroke="black" stroke-width="0.5" stroke-miterlimit="10"/>
<path d="M272.419 197.893L300.147 199.034" stroke="black" stroke-width="0.5" stroke-miterlimit="10"/>
<path d="M272.192 199.784L299.927 200.925" stroke="black" stroke-width="0.5" stroke-miterlimit="10"/>
<path d="M232.528 211.205L297.153 214.129" stroke="black" stroke-width="0.5" stroke-miterlimit="10"/>
<path d="M232.311 216.082L296.93 219.012" stroke="black" stroke-width="0.5" stroke-miterlimit="10"/>
<path d="M232.059 221.654L296.677 224.578" stroke="black" stroke-width="0.5" stroke-miterlimit="10"/>
<path d="M231.842 226.482L296.46 229.412" stroke="black" stroke-width="0.5" stroke-miterlimit="10"/>
<path d="M300.887 212.039L299.224 211.963L299.148 213.627L300.811 213.702L300.887 212.039Z" stroke="black" stroke-width="0.5" stroke-miterlimit="10"/>
<path d="M300.658 217.123L298.995 217.048L298.919 218.711L300.582 218.786L300.658 217.123Z" stroke="black" stroke-width="0.5" stroke-miterlimit="10"/>
<path d="M300.429 222.202L298.766 222.126L298.69 223.79L300.353 223.865L300.429 222.202Z" stroke="black" stroke-width="0.5" stroke-miterlimit="10"/>
<path d="M300.2 227.274L298.537 227.198L298.462 228.862L300.125 228.937L300.2 227.274Z" stroke="black" stroke-width="0.5" stroke-miterlimit="10"/>
<path d="M231.768 231.792L296.387 234.723" stroke="black" stroke-width="0.5" stroke-miterlimit="10"/>
<path d="M231.545 236.675L296.164 239.606" stroke="black" stroke-width="0.5" stroke-miterlimit="10"/>
<path d="M231.293 242.247L295.911 245.171" stroke="black" stroke-width="0.5" stroke-miterlimit="10"/>
<path d="M231.075 247.075L295.693 250.005" stroke="black" stroke-width="0.5" stroke-miterlimit="10"/>
<path d="M300.124 232.635L298.461 232.56L298.385 234.223L300.048 234.299L300.124 232.635Z" stroke="black" stroke-width="0.5" stroke-miterlimit="10"/>
<path d="M299.895 237.714L298.232 237.638L298.156 239.302L299.82 239.377L299.895 237.714Z" stroke="black" stroke-width="0.5" stroke-miterlimit="10"/>
<path d="M299.66 242.786L297.997 242.711L297.922 244.374L299.585 244.449L299.66 242.786Z" stroke="black" stroke-width="0.5" stroke-miterlimit="10"/>
<path d="M299.431 247.865L297.768 247.789L297.693 249.452L299.356 249.528L299.431 247.865Z" stroke="black" stroke-width="0.5" stroke-miterlimit="10"/>
</g>
<path d="M264.012 247.752C264.012 247.752 266.414 244.339 269.595 238.396C272.776 232.458 274.821 226.261 277.959 223.33C280.479 220.977 287.589 218.72 288.527 214.502C289.47 210.29 291.381 204.997 294.723 206.393C298.066 207.788 301.785 214.263 297.115 222.029C295.799 224.212 294.044 227.047 292.629 229.309C291.877 230.52 293.08 232.002 294.4 231.482C302.927 228.108 313.164 225.286 316.067 224.276C322.406 222.056 324.807 228.406 321.771 231.62C318.735 234.829 325.458 257.75 321.244 263.712C317.029 269.675 282.663 281.075 282.663 281.075L265.965 295.857L245.938 256.091L264.012 247.758L264.012 247.752Z" fill="#FFC0BB"/>
<path d="M281.313 261.384C278.52 263.977 275.298 266.588 271.489 267.959C270.879 268.179 271.179 269.039 271.795 268.814C275.772 267.38 279.15 264.691 282.068 261.985C282.528 261.555 281.773 260.955 281.313 261.379L281.313 261.384Z" fill="white"/>
<path d="M300.768 312.883C301.849 313.064 302.904 313.436 303.894 314.036C304.931 314.669 305.995 315.254 307.074 315.816C307.26 315.382 307.369 314.876 307.346 314.294C307.054 306.554 311.001 298.96 315.37 292.876C315.38 292.853 315.385 292.841 315.402 292.823C312.914 292.659 310.43 292.42 307.964 292.093C304.009 298.344 300.934 305.436 300.768 312.883V312.883Z" fill="#8ACBC8"/>
<path d="M328.993 300.849C327.447 305.941 326.411 311.75 329.055 316.66C329.351 317.22 330.472 316.924 330.169 316.359C327.603 311.59 328.629 306.004 330.128 301.064C330.316 300.451 329.182 300.242 328.993 300.849V300.849Z" fill="white"/>
<path d="M309.515 298.444C306.63 303.665 305.83 309.574 306.019 315.387C306.045 316.015 307.065 315.973 307.046 315.346C306.864 309.699 307.618 303.969 310.427 298.896C310.734 298.339 309.828 297.892 309.521 298.444L309.515 298.444Z" fill="white"/>
<path d="M304.385 298.575C301.009 302.173 300.149 306.927 299.687 311.506C299.624 312.168 300.745 312.111 300.808 311.461C301.244 307.177 302.042 302.649 305.209 299.272C305.683 298.77 304.859 298.074 304.385 298.575V298.575Z" fill="white"/>
<path d="M325.025 256.69C324.49 257.748 324.328 258.824 324.367 259.96C324.397 260.719 325.78 260.663 325.749 259.904C325.712 258.99 325.81 258.092 326.242 257.233C326.594 256.539 325.376 255.983 325.025 256.69Z" fill="#114963"/>
<path d="M312.042 260.365C311.666 261.737 311.56 263.17 311.19 264.547C311.018 265.194 312.014 265.426 312.186 264.779C312.556 263.402 312.667 261.969 313.037 260.598C313.209 259.951 312.214 259.719 312.042 260.365Z" fill="#114963"/>
<path d="M277.486 285.139C277.432 283.818 277.494 282.475 277.754 281.163C278.002 279.914 275.524 279.487 275.276 280.742C274.956 282.365 274.884 284 274.95 285.629C274.989 286.581 274.932 288.052 275.729 288.85C276.715 289.83 278.885 288.767 277.884 287.77C277.307 287.199 277.499 285.828 277.471 285.14L277.486 285.139Z" fill="white"/>
<path d="M287.629 277.189C287.118 280.038 287.199 282.892 287.308 285.751C287.362 287.083 289.848 286.982 289.794 285.65C289.685 282.98 289.569 280.298 290.045 277.64C290.276 276.325 287.86 275.869 287.622 277.189L287.629 277.189Z" fill="white"/>
<path d="M304.827 280.556C304.715 282.405 304.755 284.248 304.831 286.134C304.882 287.381 305.707 287.347 305.656 286.101C305.586 284.386 305.54 282.72 305.642 281.036C305.715 279.818 304.898 279.338 304.824 280.556L304.827 280.556Z" fill="white"/>
<path d="M324.307 279.82C324.222 283.121 324.353 286.348 324.705 289.632C324.845 290.939 325.681 290.352 325.541 289.05C325.23 286.154 325.112 283.244 325.187 280.332C325.221 279.029 324.34 278.505 324.307 279.82Z" fill="white"/>
<path d="M273.83 321.285L270.72 321.411C270.052 321.438 270.093 322.467 270.762 322.439L273.872 322.313C274.54 322.286 274.498 321.258 273.83 321.285Z" fill="white"/>
<path d="M219.668 259.74C211.969 261.082 208.403 271.112 206.783 277.6C199.57 306.476 239.095 303 235.274 275.75C234.203 268.113 229.429 258.038 219.668 259.745L219.668 259.74Z" fill="#3C7870"/>
<path d="M213.8 268.109C210.823 268.357 208.344 273.248 207.031 275.564C204.627 279.809 203.746 284.723 204.047 289.518C204.1 290.372 205.455 290.259 205.402 289.405C205.144 285.389 205.806 281.642 207.377 277.927C208.124 276.144 209.185 274.493 210.326 272.925C210.703 272.412 211.302 271.508 211.989 270.745C211.802 271.395 212.882 271.826 213.288 271.15C213.895 270.153 214.425 270.056 214.526 268.895C214.557 268.471 214.279 268.072 213.8 268.115L213.8 268.109Z" fill="white"/>
<path d="M209.99 290.373C205.678 323.888 204.438 357.708 204.06 391.459C204.048 392.301 205.381 392.247 205.388 391.405C205.764 357.769 206.986 324.07 211.285 290.664C211.391 289.835 210.095 289.526 209.99 290.367L209.99 290.373Z" fill="white"/>
<path d="M276.479 284.072C271.382 283.435 266.287 282.813 261.109 282.669C260.232 282.642 260.188 283.754 261.065 283.776C266.117 283.92 271.099 284.513 276.081 285.135C276.937 285.241 277.341 284.173 276.479 284.067L276.479 284.072Z" fill="white"/>
<path d="M273.522 291.444C267.069 291.616 260.67 292.274 254.271 293.054C253.427 293.152 253.442 294.372 254.291 294.269C260.685 293.494 267.089 292.831 273.542 292.659C274.395 292.635 274.381 291.42 273.522 291.444Z" fill="white"/>
<path d="M154.719 188.38C154.099 187.603 153.206 188.847 153.825 189.624C154.605 190.605 154.949 191.965 155.735 192.96C156.355 193.738 157.248 192.494 156.629 191.716C155.848 190.735 155.505 189.368 154.719 188.38Z" fill="white"/>
<path d="M104.482 91.696C95.6396 96.7176 91.5632 105.779 93.145 115.464C93.8064 119.495 100.455 119.271 99.7917 115.194C98.5531 107.618 101.051 101.076 108.057 97.0941C111.76 94.9906 108.174 89.5987 104.477 91.6962L104.482 91.696Z" fill="#E6EAEE"/>
<path d="M235.737 302.867C235.624 302.031 234.341 302.077 234.454 302.919C235.47 310.507 237.024 317.992 239.245 325.311C239.493 326.118 240.716 325.727 240.468 324.914C238.274 317.709 236.736 310.345 235.737 302.872L235.737 302.867Z" fill="#E6EAEE"/>
<path d="M325.692 242.257C319.215 238.389 310.3 241.198 302.95 241.764C292.955 242.539 283.083 244.636 273.196 245.817C262.25 247.126 251.393 249.091 240.534 250.722C227.213 252.725 229.258 252.477 224.211 263.191C213.801 285.286 240.576 292.29 261.983 288.086C284.276 283.705 306.383 277.675 325.764 268.302C331.415 265.569 336.393 262.557 335.519 256.993C334.719 251.888 331.153 245.518 325.697 242.257L325.692 242.257Z" fill="#001C2D"/>
<path d="M223.225 248.613L221.659 248.364C220.775 258.279 220.327 267.887 217.763 277.438C215.497 285.855 212.371 297.958 217.006 306.038C222.685 315.938 240.291 307.86 247.956 305.015C257.268 301.556 268.383 304.186 277.009 298.135C283.899 293.3 285.927 282.854 287.693 275.163C290.158 264.443 293.308 251.212 292.66 240.202C277.84 240.514 264.704 245.955 250.336 246.522C241.977 246.85 231.428 251.093 223.237 248.618L223.225 248.613Z" fill="#0F88AF"/>
<path d="M275.592 243.64C268.799 241.994 255.911 244.683 253.792 249.573C251.556 254.734 255.108 261.9 255.322 267.161C255.437 270.01 255.275 310.622 255.573 310.632C260.057 310.791 276.081 309.186 278.951 305.727C283.22 300.58 280.926 282.533 281.07 275.893C281.213 269.225 284.208 250.618 278.901 245.262C278.166 244.519 277.015 243.986 275.592 243.646L275.592 243.64Z" fill="#D68030"/>
<path d="M357.697 237.09C356.775 236.587 355.617 235.857 353.798 235.764C345.765 235.337 335.227 238.894 322.53 240.1C326.784 247.298 329.17 251.792 332.136 259.185C340.276 256.128 348.625 252.946 354.211 247.363C359.379 242.194 361.382 239.104 357.703 237.096L357.697 237.09Z" fill="#B55046"/>
<path d="M326.543 237.462C328.239 239.131 335.668 262.16 335.729 262.129C338.029 260.821 342.28 259.71 343.838 257.673C343.979 257.483 337.893 238.112 336.839 235.934C336.021 234.235 328.087 236.91 326.543 237.468L326.543 237.462Z" fill="#001C2D"/>
<path d="M332.466 251.313C331.291 248.012 330.1 244.578 329.586 241.096C329.503 240.552 328.678 240.729 328.76 241.273C329.253 244.635 330.395 247.943 331.517 251.142C332.793 254.792 334.159 258.467 335.99 261.88C336.245 262.362 337.002 261.983 336.741 261.496C334.999 258.256 333.691 254.778 332.46 251.313L332.466 251.313Z" fill="white"/>
<path d="M322.548 252.381C319.445 253.183 316.287 253.434 313.129 253.713C312.586 253.764 312.773 254.85 313.311 254.799C316.468 254.513 319.627 254.269 322.73 253.46C323.264 253.323 323.083 252.237 322.548 252.373L322.548 252.381Z" fill="#114963"/>
<path d="M304.723 272.677C302.36 273.377 299.95 273.957 297.48 274.439C296.96 274.542 297.114 275.099 297.639 274.996C300.179 274.5 302.655 273.903 305.087 273.181C305.589 273.031 305.219 272.527 304.717 272.677L304.723 272.677Z" fill="#114963"/>
<path d="M219.759 278.009C213.518 275.285 208.109 280.762 204.238 285.027L203.969 287.756C207.885 294.245 221.746 300.676 225.143 290.209C226.635 285.613 224.113 279.916 219.759 278.015L219.759 278.009Z" fill="#3C7870"/>
<path d="M196.958 209.98C192.463 204.776 189.961 199.198 182.976 196.607C179.071 195.161 172.029 194.182 170.754 199.471C169.439 204.929 176.145 212.849 178.294 217.464C183.944 229.612 182.816 241.547 182.286 254.297C181.968 261.944 184.004 270.1 186.748 278.037C189.148 284.97 192.088 291.744 194.485 297.867C196.498 303.028 198.884 310.606 205.727 309.581C213.167 308.468 221.542 296.148 224.885 290.453C229.229 283.067 233.074 274.115 231.76 265.407C228.762 245.615 209.589 224.633 196.947 209.992L196.958 209.98Z" fill="#0F88AF"/>
<path d="M283.708 278.744C283.507 278.73 283.305 278.715 283.109 278.7C283.052 278.702 283 278.693 282.942 278.69C281.171 279.751 275.554 280.689 269.626 281.481C270.713 283.062 271.274 285.147 273.291 285.895C274.771 286.443 277.007 286.227 278.942 285.512C280.283 285.026 281.487 284.289 282.221 283.402C282.664 282.867 284.624 278.809 283.708 278.75L283.708 278.744Z" fill="#C15C4C"/>
<path d="M134.399 98.4637C124.003 99.9799 114.607 106.429 106.095 115.87C102.706 119.632 99.4663 121.929 98.307 128.865C97.0277 136.554 96.2744 140.377 97.6846 153.161C100.079 174.798 63.8372 186.244 59.8323 219.593C59.2005 224.841 58.6332 230.254 61.9199 234.382C72.8228 248.072 117.909 237.227 122.821 218.825C125.097 210.303 117.117 206.603 116.494 187.696C115.748 165.049 124.706 155.636 135.298 145.699C142.266 139.158 150.494 131.002 151.472 116.616C152.598 100.151 143.644 97.1157 134.393 98.4639L134.399 98.4637Z" fill="#1E1D1D"/>
<path d="M118.326 158.637C116.826 156.644 115.091 154.908 113.174 153.757C111.975 161.019 109.548 167.517 106.088 173.971C102.181 181.25 99.368 182.582 91.8745 177.606C91.1598 177.133 90.4539 176.596 89.6249 176.399C89.5156 176.375 89.4065 176.356 89.2922 176.349C88.537 176.282 87.722 176.569 87.4074 177.245C87.1871 177.716 87.2494 178.267 87.3442 178.777C88.6751 185.723 96.0961 189.334 102.402 190.763C114.469 193.504 127.724 180.19 123.205 167.73C122.159 164.853 120.483 161.487 118.332 158.637L118.326 158.637Z" fill="#1E1D1D"/>
<path d="M116.037 141.306C107.661 140.935 113.064 156.173 118.334 151.809C121.308 149.341 120.122 141.485 116.037 141.306Z" fill="#EC845C"/>
<path d="M115.761 148.435C115.838 147.435 115.797 146.419 115.799 145.411L114.133 145.81C113.697 147.016 113.343 148.988 115.754 148.436L115.761 148.435Z" fill="#AF554B"/>
<path d="M114.319 193.02C110.108 193.429 105.351 193.848 101.742 190.958C100.899 190.284 100.181 189.457 99.6509 188.477C99.4291 188.07 98.8457 188.454 99.0676 188.861C100.073 190.714 101.725 192.065 103.555 192.883C105.646 193.824 107.916 194.08 110.167 194.038C111.564 194.012 112.95 193.882 114.337 193.746C114.774 193.704 114.756 192.972 114.318 193.014L114.319 193.02Z" fill="#AE3E25"/>
<path d="M123.948 158.633C123.782 158.259 123.43 158.625 123.596 159.005C125.123 162.451 125.816 166.873 125.524 171.036C125.442 172.207 125.282 173.351 125.047 174.445C125.009 174.625 125.105 174.842 125.208 174.879C125.329 174.94 125.418 174.805 125.46 174.625C126.317 170.593 126.154 165.906 125.079 161.887C124.774 160.738 124.398 159.646 123.948 158.633Z" fill="#AE3E25"/>
<path d="M277.245 367.672C294.335 368.583 293.977 369.494 310.974 367.679C329.943 323.651 385.22 216.323 385.325 214.045C379.27 213.36 353.159 209.16 348.077 209.104C348.077 209.104 287.233 345.963 277.245 367.672Z" fill="white"/>
<path d="M261.2 378.344C273.276 380.518 287.999 379.175 301.605 381.951C313.475 351.544 353.969 251.06 368.12 221.497C355.809 220.309 327.74 213.019 327.74 213.019C327.74 213.019 269.848 360.601 261.2 378.339L261.2 378.344Z" fill="#C5D6D4"/>
<path d="M344.928 219.781C343.858 219.327 328.689 213.443 328.918 212.97C323.897 223.066 322.665 226.171 318.245 232.999L315.189 236.836C323.608 237.284 331.791 239.32 340.074 240.7C344.629 241.459 347.29 241.683 350.617 238.379C353.177 235.837 358.502 230.369 356.687 226.364C355.132 222.937 348.108 221.134 344.933 219.781L344.928 219.781Z" fill="#B0C6CB"/>
<path d="M367.139 223.055C357.103 249.857 343.733 275.112 331.953 301.135C320.766 325.854 313.288 352.07 302.402 376.92C302.104 377.598 303.12 378.142 303.418 377.464C314.303 352.614 321.875 326.446 332.969 301.68C344.65 275.603 358.113 250.407 368.154 223.594C368.412 222.906 367.396 222.356 367.139 223.055V223.055Z" fill="white"/>
<path d="M342.679 225.484C336.447 224.899 330.19 224.412 324.041 223.204C322.468 222.895 305.626 219.508 305.357 220.179C305.321 220.273 246.262 368.793 236.775 385.551C251.76 388.496 269.774 388.184 286.673 391.826C287.543 389.839 288.553 387.49 289.692 384.821C290.311 383.372 290.965 381.824 291.657 380.2C296.117 369.68 300.53 359.139 304.949 348.609C314.614 325.581 324.313 302.558 334.279 279.661C341.823 262.339 349.524 245.098 358.095 228.262C356.113 228.102 354.132 227.717 352.138 227.281C349.023 226.598 345.88 225.779 342.678 225.478L342.679 225.484Z" fill="white"/>
<path d="M353.969 230.883C349.12 244.722 343.395 258.197 337.578 271.63C331.678 285.263 325.992 298.991 320.196 312.672C314.421 326.317 308.796 340.014 303.102 353.691C298.802 364.023 296.124 376.2 288.402 384.582C287.897 385.135 288.739 385.923 289.244 385.37C290.432 384.083 291.492 382.697 292.47 381.245C292.527 381.532 292.735 381.767 293.122 381.803C295.847 382.08 298.856 382.52 301.47 381.464C302.529 381.034 301.995 379.307 300.93 379.732C300.584 379.874 300.226 379.975 299.861 380.065C299.516 380.079 299.147 380.06 298.919 379.872C298.496 379.519 297.962 379.899 297.945 380.317C296.463 380.377 294.937 380.184 293.52 380.039C293.424 380.031 293.333 380.041 293.249 380.05C297.883 372.656 300.38 363.687 303.512 355.706C309.125 341.419 315.216 327.338 321.204 313.216C327.005 299.535 332.681 285.813 338.586 272.179C344.439 258.653 350.2 245.077 355.079 231.145C355.328 230.44 354.212 230.184 353.969 230.877L353.969 230.883Z" fill="white"/>
<path d="M132.968 157.019C131.741 156.389 130.304 156.09 128.661 156.226C96.156 158.957 124.568 190.331 135.663 176.321C140.033 170.799 138.937 160.066 132.968 157.019Z" fill="#125064"/>
<path d="M124.344 214.156C123.896 213.824 123.511 214.61 123.947 214.937C134.955 223.062 139.763 237.251 147.987 247.933C148.324 248.373 149.04 247.901 148.698 247.455C140.359 236.629 135.499 222.396 124.338 214.156L124.344 214.156Z" fill="white"/>
<path d="M172.066 158.25C168.653 151.954 165.849 152.292 167.223 144.026C168.466 136.565 170.635 130.622 169.783 122.849C169.081 116.489 164.897 104.404 157.459 102.023C156.419 101.686 155.31 101.548 154.141 101.635C145.397 102.3 144.814 113.361 144.753 119.78C144.666 128.712 142.318 135.403 140.337 143.808C138.157 153.066 138.513 161.847 141.225 171.136C141.949 173.612 142.797 176.082 143.906 178.404C145.016 180.726 146.37 182.889 148.108 184.743C155.275 192.386 166.96 191.601 172.04 182.616C174.397 178.447 175.057 173.279 174.188 168.419C173.691 165.653 173.372 160.679 172.066 158.262L172.066 158.25Z" fill="#1E1D1D"/>
<path d="M175.951 203.472C170.155 198.171 163.481 193.861 156.291 190.773C154.4 189.959 152.402 189.218 150.346 189.324C145.358 189.579 142.918 193.88 140.381 197.506C136.65 202.831 133.544 209.206 133.254 215.845C132.8 229.981 137.053 243.179 139.244 256.927C139.353 257.606 139.493 258.354 140.018 258.792C140.52 259.214 141.232 259.249 141.878 259.257C150.037 259.34 158.195 259.135 166.336 258.632C169.508 258.434 172.719 258.189 175.737 257.181C176.75 256.841 177.754 256.409 178.673 255.86C179.63 255.287 180.502 254.585 181.212 253.722C183.891 250.481 183.811 245.811 183.588 241.583C183.224 234.625 183.79 227.952 183.595 221.016C183.501 217.691 183.168 214.336 183.345 211.012C180.96 208.419 178.547 205.85 175.951 203.472V203.472Z" fill="#001C2D"/>
<path d="M138.899 144.474C138.708 144.512 138.564 144.684 138.613 144.854C138.843 145.607 138.827 146.402 138.55 147.155C138.41 147.544 139.104 147.739 139.245 147.35C139.553 146.497 139.589 145.582 139.331 144.721C139.282 144.557 139.097 144.445 138.899 144.479L138.899 144.474Z" fill="#EAF6F8"/>
<path d="M154.16 164.747C148.537 164.31 142.972 163.143 137.654 161.296C134.93 160.349 132.269 159.231 129.695 157.931C129.08 157.621 123.598 155.04 123.728 154.359C122.444 161.202 122.748 168.27 121.304 175.08C120.519 178.8 115.935 184.494 116.524 187.898C117.111 191.267 122.82 194.532 125.502 196.041C132.616 200.047 139.296 206.215 147.637 207.587C163.865 210.252 150.579 191.705 151.379 184.448C151.416 184.082 151.466 183.716 151.521 183.35C152.352 177.738 154.801 172.194 155.708 166.574C155.779 166.143 155.835 165.667 155.587 165.307C155.294 164.874 154.688 164.8 154.154 164.753L154.16 164.747Z" fill="#D77355"/>
<path d="M146.531 171.795C143.677 172.118 140.422 170.109 137.946 168.932C135.287 167.676 132.798 166.039 130.567 164.086C129.119 162.821 127.638 161.42 126.794 159.676C126.321 158.699 126.721 156.467 125.333 156.368C123.145 156.204 123.237 159.176 122.922 160.639C122.412 163.007 121.474 165.348 120.803 167.711C119.233 173.22 118.092 178.94 118.428 184.665C118.46 185.158 118.51 185.686 118.83 186.041C119.259 186.519 119.991 186.5 120.613 186.331C124.287 185.319 125.475 181.185 128.342 179.065C130.784 177.263 133.563 178.922 135.896 179.823C138.076 180.667 140.634 181.3 142.966 181.459C147.941 181.809 152.008 178.968 154.197 174.637C155.164 172.728 156.018 170.754 156.914 168.801C155.589 168.705 153.299 170.116 151.999 170.508C150.21 171.053 148.391 171.581 146.531 171.795V171.795Z" fill="#C6664F"/>
<path d="M167.735 132.806C166.711 126.423 163.937 120.281 157.494 116.997C155.339 115.899 152.8 115.112 149.839 114.719C117.258 110.335 108.372 150.41 125.071 165.074C127.933 167.58 131.025 170.208 134.081 172.535C139.95 176.995 148.18 179.682 154.253 173.575C161.359 166.422 167.401 157.586 166.478 147.304C166.301 145.367 165.707 143.065 166.182 141.011C166.897 137.937 168.286 136.188 167.741 132.812L167.735 132.806Z" fill="#EC845C"/>
<path d="M143.151 113.661C131.327 115.539 118.889 127.11 117.603 139.114C120.965 134.87 126.171 132.534 131.284 130.736C136.853 128.778 141.901 126.834 147.013 123.877C153.013 120.402 159.212 118.105 163.535 124.837C166.045 128.746 166.113 132.986 167.77 137.123C170.447 131.43 167.515 122 163.127 117.946C157.951 113.163 150.036 112.575 143.151 113.667L143.151 113.661Z" fill="#DB7657"/>
<path d="M129.085 96.0366C121.667 97.7302 113.708 101.416 108.2 106.856C107.83 107.219 108.314 107.866 108.689 107.491C113.931 102.316 121.28 98.9082 128.285 97.0603C135.284 95.2126 144.102 95.0257 148.323 101.834C148.595 102.272 149.241 101.768 148.969 101.33C144.76 94.5328 136.195 94.4086 129.085 96.0307L129.085 96.0366Z" fill="#AE3E25"/>
<path d="M147.578 111.502C146.808 118.728 140.018 122.655 133.669 125.447C127.651 128.093 120.997 129.791 115.49 133.42C115.043 133.713 115.589 134.293 116.031 134.005C122.121 129.992 129.629 128.277 136.203 125.161C142.121 122.352 147.698 118.176 148.406 111.554C148.46 111.042 147.628 111.001 147.579 111.507L147.578 111.502Z" fill="#1E1D1D"/>
<path d="M154.497 152.099C154.367 152.045 154.248 152.128 154.202 152.326C154.16 152.503 154.236 152.754 154.357 152.802C154.391 152.82 154.428 152.838 154.462 152.863L154.466 152.862C154.466 152.862 154.497 152.9 154.514 152.913C154.526 152.925 154.539 152.944 154.552 152.957L154.565 152.969C154.587 153.007 154.609 153.039 154.631 153.077C154.64 153.09 154.67 153.134 154.671 153.16C154.667 153.148 154.658 153.135 154.654 153.122C154.658 153.135 154.667 153.148 154.672 153.167C154.69 153.218 154.709 153.27 154.727 153.321C154.737 153.347 154.737 153.366 154.747 153.392C154.757 153.45 154.768 153.509 154.778 153.567C154.779 153.58 154.791 153.664 154.796 153.709C154.796 153.709 154.797 153.722 154.797 153.729C154.797 153.729 154.797 153.716 154.796 153.709C154.796 153.709 154.797 153.716 154.798 153.742C154.799 153.768 154.8 153.801 154.802 153.833C154.804 153.885 154.798 153.944 154.796 153.996C154.796 153.996 154.796 154.003 154.796 154.009C154.793 154.035 154.79 154.062 154.783 154.088C154.773 154.134 154.762 154.187 154.752 154.233C154.752 154.233 154.748 154.239 154.744 154.246C154.737 154.266 154.729 154.286 154.722 154.306C154.711 154.332 154.7 154.359 154.688 154.385C154.661 154.425 154.634 154.466 154.607 154.506C154.505 154.627 154.52 154.887 154.596 155.034C154.684 155.2 154.832 155.188 154.93 155.066C155.556 154.311 155.283 152.425 154.501 152.092L154.497 152.099Z" fill="#E4785C"/>
<path d="M181.945 241.285C181.148 239.572 179.785 238.348 178.903 236.673C177.753 234.479 177.19 232.036 176.113 229.81C173.072 223.534 169.571 217.5 166.524 211.23C165.829 209.795 164.931 208.287 164.473 206.756C163.838 204.651 164.437 201.907 161.235 202.256C161.041 202.276 160.853 202.312 160.671 202.354C159.094 202.752 158.331 204.022 158.151 205.648C157.472 211.534 159.652 217.488 159.191 223.371C159.105 224.498 158.938 225.738 158.085 226.481C156.651 227.732 154.438 226.739 152.89 225.632C139.622 216.112 129.651 201.989 116.886 191.608C116.448 191.251 115.986 190.884 115.431 190.785C114.842 190.677 114.243 190.891 113.684 191.11C105.807 194.218 93.8692 200.117 88.9596 207.27C88.8892 207.371 88.5357 207.702 88.4653 207.803C88.9258 212.37 89.7519 236.813 89.9621 241.989C90.5178 255.677 90.5841 257.593 95.3942 260.134C97.7376 261.369 101.259 261.255 103.782 261.262C111.35 261.278 118.885 261.035 126.446 260.711C134.052 260.379 141.651 260.307 149.259 260.165C155.75 260.045 162.238 259.857 168.724 259.64C170.901 259.459 173.079 259.29 175.262 259.127C177.292 258.981 179.171 257.971 180.55 256.487C181.715 255.23 182.117 253.001 182.435 251.375C182.839 249.325 182.745 247.296 182.673 245.219C182.635 244.161 182.586 243.08 182.253 242.073C182.161 241.801 182.059 241.54 181.94 241.291L181.945 241.285Z" fill="#001C2D"/>
<path d="M119.408 194.826C119.018 195.675 118.55 196.442 118.021 197.098C117.913 197.235 117.87 197.468 117.961 197.656C118.038 197.825 118.22 197.903 118.333 197.773C118.895 197.069 119.401 196.268 119.819 195.358C119.9 195.183 119.899 194.945 119.783 194.791C119.677 194.656 119.489 194.651 119.408 194.826V194.826Z" fill="#EAF6F8"/>
<path d="M124.765 198.676C124.585 198.876 124.408 199.076 124.227 199.276C124.146 199.365 124.152 199.52 124.252 199.594C124.351 199.668 124.497 199.666 124.582 199.566C124.763 199.366 124.939 199.166 125.12 198.966C125.201 198.877 125.195 198.722 125.096 198.648C124.996 198.57 124.85 198.576 124.765 198.672L124.765 198.676Z" fill="#EAF6F8"/>
<path d="M133.568 208.543C133.508 208.551 133.432 208.586 133.399 208.657C133.16 209.145 132.979 209.663 132.857 210.226C132.84 210.302 132.864 210.414 132.899 210.477C132.934 210.546 132.997 210.602 133.054 210.616C133.197 210.648 133.301 210.536 133.339 210.363C133.346 210.33 133.353 210.303 133.359 210.27C133.359 210.26 133.367 210.249 133.366 210.238C133.38 210.178 133.398 210.124 133.412 210.064C133.443 209.945 133.483 209.825 133.522 209.711C133.558 209.596 133.602 209.487 133.646 209.378C133.668 209.318 133.694 209.263 133.716 209.208C133.727 209.186 133.738 209.159 133.749 209.132C133.749 209.126 133.761 209.11 133.768 209.093C133.805 209.022 133.827 208.957 133.823 208.86C133.82 208.78 133.784 208.685 133.737 208.633C133.687 208.581 133.625 208.546 133.56 208.549L133.568 208.543Z" fill="#EAF6F8"/>
<path d="M142.137 217.467C141.956 217.46 141.747 217.511 141.715 217.589C141.615 217.843 141.52 218.096 141.425 218.35C141.392 218.424 141.495 218.503 141.694 218.509C141.876 218.516 142.09 218.465 142.122 218.387C142.217 218.133 142.318 217.882 142.413 217.628C142.439 217.555 142.342 217.475 142.143 217.466L142.137 217.467Z" fill="#EAF6F8"/>
<path d="M150.866 226.408C150.731 226.352 150.538 226.393 150.478 226.543C150.276 227.049 150.131 227.576 150.059 228.12C150.036 228.268 150.128 228.435 150.286 228.457C150.433 228.479 150.6 228.387 150.627 228.23C150.664 227.977 150.711 227.723 150.776 227.474C150.809 227.354 150.842 227.234 150.88 227.119C150.88 227.119 150.889 227.09 150.893 227.081C150.906 227.047 150.919 227.013 150.927 226.98C150.948 226.922 150.974 226.859 151 226.796C151.056 226.657 151.015 226.473 150.866 226.408V226.408Z" fill="#EAF6F8"/>
<path d="M156.096 224.534C156.594 226.354 157.086 228.174 157.584 229.988C157.7 230.407 158.467 230.183 158.35 229.765C157.859 227.95 157.361 226.131 156.863 224.311C156.746 223.892 155.98 224.121 156.096 224.534Z" fill="#EAF6F8"/>
<path d="M156.655 193.194C156.528 193.262 156.406 193.351 156.294 193.503C156.178 193.655 156.074 193.849 155.979 194.085C155.938 194.181 155.908 194.309 155.901 194.478C155.897 194.636 155.915 194.835 155.949 194.971C156.019 195.231 156.164 195.383 156.249 195.159C156.313 194.998 156.381 194.869 156.453 194.75C156.552 194.62 156.652 194.51 156.761 194.453C156.748 194.454 156.734 194.465 156.721 194.476C156.778 194.442 156.826 194.398 156.862 194.26C156.892 194.153 156.909 193.963 156.899 193.805C156.892 193.637 156.861 193.459 156.815 193.356C156.769 193.252 156.709 193.16 156.658 193.193L156.655 193.194Z" fill="#EAF6F8"/>
<path d="M163.267 112.083C162.629 111.56 161.952 111.092 161.241 110.673C161.091 110.588 160.908 110.595 160.8 110.745C160.711 110.878 160.726 111.109 160.875 111.195C163.293 112.61 165.326 114.699 166.697 117.197C167.086 117.908 167.424 118.654 167.701 119.418C167.842 119.806 168.41 119.535 168.269 119.148C167.259 116.382 165.503 113.921 163.266 112.078L163.267 112.083Z" fill="#AE3E25"/>
<path d="M165.356 178.463C165.175 178.377 164.914 178.434 164.815 178.606C164.298 179.519 163.088 180.054 161.986 179.867C161.78 179.835 161.56 179.937 161.508 180.124C161.456 180.3 161.583 180.509 161.796 180.541C163.256 180.789 164.843 180.116 165.514 178.931C165.606 178.759 165.551 178.553 165.356 178.457L165.356 178.463Z" fill="#AE3E25"/>
<path d="M142.475 102.105C139.579 102.72 136.769 103.652 134.135 104.892C133.381 105.243 132.652 105.62 131.931 106.023C131.765 106.116 131.663 106.28 131.755 106.453C131.827 106.594 132.067 106.702 132.239 106.61C134.723 105.226 137.398 104.112 140.191 103.331C140.986 103.106 141.788 102.913 142.604 102.741C143.059 102.643 142.937 102.011 142.481 102.11L142.475 102.105Z" fill="#83291A"/>
<path d="M112.943 113.67C109.509 116.3 106.767 119.731 104.999 123.573C104.499 124.658 104.077 125.776 103.738 126.923C103.622 127.31 104.242 127.537 104.358 127.144C105.533 123.19 107.715 119.514 110.678 116.52C111.518 115.674 112.421 114.882 113.37 114.151C113.7 113.896 113.285 113.41 112.949 113.665L112.943 113.67Z" fill="#722318"/>
<path d="M107.609 187.021C106.354 188.081 105.017 189.006 103.418 189.541C102.991 189.683 103.204 190.317 103.631 190.174C105.346 189.6 106.776 188.607 108.119 187.47C108.458 187.185 107.939 186.736 107.604 187.021L107.609 187.021Z" fill="#83291A"/>
<path d="M173.424 214.912C171.791 212.226 169.995 204.924 165.107 207.789C161.941 209.647 162.806 215.448 162.723 218.181C162.577 222.912 162.759 234.316 155.62 235.901C150.445 237.049 144.648 229.516 141.857 226.772C131.121 216.219 122.147 205.727 106.803 203.794C86.0599 201.177 81.4352 224.778 78.4681 241.96C74.746 263.535 71.689 286.823 74.6053 308.729C76.1946 320.654 70.1389 340.6 85.8336 343.699C103.306 347.148 122.02 347.742 139.955 345.932C149.045 345.019 158.35 344.757 167.293 342.89C177.854 340.686 181.414 334.289 181.557 325.544C181.756 313.535 185.039 300.741 187.877 288.983C189.724 281.319 192.937 273.861 192.773 265.851C192.603 257.865 190.118 250.106 186.942 242.959C182.782 233.596 178.693 223.548 173.429 214.906L173.424 214.912Z" fill="#001C2D"/>
<path d="M171.279 322.435C175.595 330.604 187.359 327.189 191.323 319.944C200.216 303.711 163.578 307.848 171.279 322.435Z" fill="#001C2D"/>
<path d="M164.887 260.088C164.457 259.412 163.397 260.121 163.826 260.798C165.581 263.551 166.798 266.557 167.974 269.56C168.266 270.302 169.478 269.868 169.191 269.131C167.976 266.025 166.697 262.933 164.887 260.088Z" fill="#001C2D"/>
<path d="M171.351 351.632C171.351 351.632 171.339 351.633 171.333 351.633C170.178 352.348 169.083 353.158 167.922 353.862C167.796 353.941 167.664 354.003 167.525 354.072C167.727 355.269 168.329 356.483 169.432 357.381C170.669 358.387 171.688 360.984 172.417 362.462C173.774 365.228 174.836 368.417 175.349 371.4C175.365 371.479 175.392 371.546 175.401 371.626C175.42 371.625 175.438 371.613 175.456 371.607L178.442 370.692C179.466 370.382 180.522 370.265 181.574 370.325C180.229 363.784 177.146 355.526 172.466 351.147C172.106 351.328 171.732 351.491 171.345 351.627L171.351 351.632Z" fill="#8ACBC8"/>
<path d="M173.685 351.711C177.031 356.179 179.822 361.295 180.587 366.89C180.658 367.425 181.507 367.396 181.43 366.856C180.643 361.114 177.829 355.85 174.396 351.259C174.071 350.827 173.354 351.274 173.685 351.716L173.685 351.711Z" fill="white"/>
<path d="M180.03 332.302C174.904 334.389 168.715 335.304 163.271 335.966C156.966 336.727 150.578 337.185 144.256 337.824C134.396 338.823 124.479 339.408 114.558 339.634C104.846 339.852 95.2765 338.767 85.656 338.124C83.5031 338.024 81.3517 337.958 79.1853 337.952C77.8738 337.947 76.598 337.823 75.3811 337.584C75.3234 337.728 75.2712 337.865 75.2134 338.008C75.4483 342.655 76.126 347.254 77.0803 351.836C77.2626 352.628 77.4391 353.419 77.6327 354.204C77.7095 354.529 77.7802 354.849 77.845 355.164C80.3515 356.577 83.9657 357.387 88.8192 357.989C115.988 361.331 147.76 358.978 174.018 351.976C176.635 351.277 178.534 350.096 179.906 348.59C179.483 346.446 179.257 344.283 179.285 342.121C179.325 338.843 179.729 335.573 180.03 332.308L180.03 332.302Z" fill="#053449"/>
<path d="M120.336 323.631C120.08 324.415 120.009 325.22 120.044 326.073C120.067 326.64 120.758 326.611 120.735 326.045C120.707 325.358 120.747 324.686 120.955 324.047C121.123 323.53 120.508 323.102 120.34 323.625L120.336 323.631Z" fill="#114963"/>
<path d="M151.519 327.599C151.376 328.622 151.371 329.735 151.156 330.714C151.037 331.254 151.501 331.699 151.62 331.159C151.855 330.096 151.874 328.929 152.027 327.823C152.108 327.254 151.6 327.037 151.519 327.599Z" fill="#114963"/>
<path d="M109.286 327.223C109.118 328.317 109.079 329.46 108.911 330.559C108.83 331.074 109.331 331.274 109.413 330.759C109.583 329.66 109.62 328.518 109.787 327.424C109.865 326.909 109.364 326.714 109.286 327.223Z" fill="#114963"/>
<path d="M175.171 330.51C169.794 334.585 163.262 336.011 157.017 336.887C150.225 337.84 143.345 337.905 136.501 337.865C129.583 337.821 122.664 337.777 115.748 337.781C107.194 337.79 98.5895 337.676 90.1065 336.044C89.5467 335.935 89.3481 336.966 89.9139 337.081C98.218 338.68 106.63 338.836 115.001 338.849C122.388 338.86 129.775 338.892 137.163 338.937C144.23 338.975 151.312 338.812 158.318 337.774C164.305 336.882 170.511 335.316 175.661 331.416C176.138 331.051 175.655 330.151 175.177 330.516L175.171 330.51Z" fill="white"/>
<path d="M178.633 335.015C178.297 337.364 178.056 339.719 178.533 342.067C178.746 343.102 180.21 342.598 180.003 341.568C179.589 339.534 179.85 337.429 180.139 335.393C180.287 334.348 178.781 333.965 178.633 335.015V335.015Z" fill="white"/>
<path d="M119.892 343.662C119.795 346.664 119.914 349.597 120.255 352.588C120.389 353.774 121.224 353.23 121.092 352.055C120.792 349.422 120.685 346.774 120.77 344.125C120.809 342.944 119.933 342.468 119.892 343.662Z" fill="white"/>
<path d="M140.391 345.283L140.638 351.367C140.696 352.795 141.725 352.753 141.667 351.325L141.42 345.241C141.362 343.813 140.334 343.855 140.391 345.283Z" fill="white"/>
<path d="M157.436 344.381C157.39 343.233 155.759 343.299 155.806 344.447C155.87 346.016 155.945 347.619 156.435 349.113C156.787 350.196 158.346 349.665 157.994 348.576C157.552 347.224 157.499 345.794 157.442 344.38L157.436 344.381Z" fill="white"/>
<path d="M170.522 341.702C170.48 340.671 168.015 340.771 168.057 341.802C168.109 343.094 168.225 344.367 168.866 345.582C169.376 346.548 171.728 346.032 171.217 345.06C170.646 343.972 170.56 342.854 170.513 341.698L170.522 341.702Z" fill="white"/>
<path d="M126.073 207.955C125.779 207.547 125.371 208.2 125.661 208.608C126.893 210.326 127.532 212.588 128.342 214.703C128.536 215.22 129.051 214.738 128.858 214.226C128.016 212.031 127.348 209.73 126.073 207.949L126.073 207.955Z" fill="white"/>
<path d="M112.497 198.757C110.137 198.576 107.526 198.671 105.262 198.381C104.724 198.311 104.273 198.626 104.811 198.696C107.159 199.001 109.823 198.913 112.267 199.1C112.834 199.144 113.058 198.802 112.497 198.757V198.757Z" fill="white"/>
<path d="M116.092 194.854C115.824 194.755 115.612 195.145 115.88 195.25C128.74 200.169 135.432 212.745 137.145 225.691C137.18 225.973 137.63 225.961 137.595 225.673C135.864 212.577 129.101 199.83 116.092 194.854V194.854Z" fill="white"/>
<path d="M167.967 201.599C164.699 196.998 159.837 194.296 156.091 190.197C155.893 189.979 155.598 190.318 155.796 190.531C159.433 194.515 164.117 197.183 167.393 201.569C170.56 205.804 172.434 210.908 173.843 216.013C173.923 216.296 174.342 216.16 174.267 215.877C172.865 210.813 171.004 205.87 167.967 201.599Z" fill="white"/>
<path d="M168.389 188.649C168.177 188.472 167.885 188.788 168.103 188.971C171.486 191.831 175.167 194.362 177.29 198.417C177.422 198.666 177.778 198.426 177.652 198.183C175.517 194.099 171.807 191.541 168.395 188.655L168.389 188.649Z" fill="white"/>
<path d="M171.874 110.866C169.863 107.707 162.643 109.024 159.281 108.786C152.607 108.309 145.827 110.748 139.238 111.489C137.935 111.636 136.632 111.782 135.329 111.94C129.745 112.6 124.169 113.335 118.633 114.349C113.655 115.259 108.321 115.522 103.626 117.567C98.1003 119.967 98.1281 123.931 98.8744 129.621C105.289 128.155 111.113 124.954 117.53 123.401C129.125 120.591 141.803 118.204 153.758 118.24C160.21 118.258 165.612 121.373 171.589 123.259C170.686 122.974 172.832 112.359 171.88 110.866L171.874 110.866Z" fill="#001C2D"/>
<path d="M211.572 226.524C210.513 225.471 209.398 224.868 208.272 225.114C204.187 226.026 200.639 233.342 199.637 236.906C197.973 242.791 198.931 248.886 199.254 254.886C199.5 259.546 197.793 265.474 200.173 269.692C202.091 267.296 201.788 263.877 203.206 261.186C206.554 254.825 216.103 243.587 223.796 243.413C222.248 240.681 219.456 239.027 217.738 236.446C216.517 234.62 214.228 229.159 211.577 226.518L211.572 226.524Z" fill="#D68030"/>
<path d="M172.881 182.824C169.413 177.512 163.127 172.818 157.325 170.521C156.36 170.138 152.614 177.177 152.344 178.084C151.458 181.051 151.519 184.084 151.502 187.167C151.485 190.272 152.234 193.589 152.784 196.637C152.829 196.89 155.378 198.48 155.751 198.847C156.805 199.868 157.639 200.944 158.496 202.158C160.608 205.16 162.57 208.266 164.461 211.41C165.821 213.679 167.02 216.041 168.396 218.281C170.253 221.31 171.883 224.06 173.217 227.365C175.455 232.917 177.268 238.626 179.024 244.353C179.883 247.163 180.742 249.979 181.601 252.794C182.663 256.255 183.796 259.499 184.301 263.127C183.635 258.338 183.955 253.491 184.244 248.686C185.2 232.88 186.145 215.265 180.972 200.032C178.938 194.043 176.337 188.107 172.887 182.824L172.881 182.824Z" fill="#0F88AF"/>
<path d="M134.047 69.4893C117.537 70.3463 100.76 80.5727 94.1395 96.1572C90.2436 105.324 90.3007 117.032 92.0228 126.711C92.4907 129.347 92.1843 132.948 95.0012 134.315C98.6773 136.103 100.041 133.014 100.511 130.182C101.216 125.965 100.861 124.124 104.615 121.066C108.785 117.67 113.665 116.363 118.845 115.68C128.355 114.425 138.007 115.369 147.562 115.209C149.628 115.171 174.967 113.472 174.958 113.525C176.161 104.205 170.899 91.4423 165.655 84.0528C157.945 73.2043 146.07 68.867 134.048 69.4951L134.047 69.4893Z" fill="#EEA153"/>
<path d="M141.276 112.314C126.876 111.173 103.308 111.343 96.9019 127.031C96.4341 127.102 96.0118 127.434 95.9612 128.049L95.7254 130.973C95.7062 131.073 95.6984 131.167 95.702 131.254L95.6794 131.558C95.5548 133.068 97.8927 133.259 98.0116 131.749L98.0576 131.164C101.583 113.226 127.171 113.552 141.08 114.655C142.584 114.774 142.774 112.434 141.27 112.315L141.276 112.314Z" fill="#D8873D"/>
<path d="M158.562 84.0338C147.081 82.8395 145.874 104.242 147.959 112.179C156.016 111.424 163.625 110.347 172.059 110.594C172.015 109.947 171.952 109.23 171.868 108.459C170.899 100.024 166.999 84.9113 158.568 84.0336L158.562 84.0338Z" fill="#D8873D"/>
<path d="M116.519 177.523C114.883 183.14 110.819 188.354 105.475 190.54C105.125 190.681 105.3 191.266 105.656 191.119C111.201 188.846 115.394 183.488 117.091 177.656C117.198 177.284 116.626 177.144 116.518 177.517L116.519 177.523Z" fill="#D07E29"/>
<path d="M183.281 111.204C174.599 110.915 165.923 110.949 157.253 110.968C152.501 110.976 142.793 110.659 139.243 114.032C139.176 114.099 149.441 115.434 150.705 115.482C151.76 115.519 152.814 115.55 153.869 115.582C159.704 115.743 165.54 115.775 171.372 115.842C173.295 115.863 196.675 116.889 193.506 112.7C192.075 110.808 185.611 111.279 183.287 111.204L183.281 111.204Z" fill="#D8873D"/>
<path d="M143.816 111.867C125.73 112.305 99.1886 108.837 94.6852 132.266C94.5437 132.996 95.6939 133.08 95.83 132.356C100.168 109.778 126.426 113.428 143.72 113.011C144.455 112.993 144.557 111.848 143.816 111.867V111.867Z" fill="#D8873D"/>
<path d="M264.316 301.576C258.361 300.892 252.278 301.671 246.384 302.478C243.904 302.817 238.911 302.524 237.273 304.914C235.355 307.71 238.599 312.392 239.792 314.87C241.641 318.714 242.939 322.346 243.12 326.652C246.629 325.936 249.728 323.588 252.984 322.213C255.234 321.262 257.293 320.037 259.356 318.789C260.388 318.168 261.413 317.535 262.469 316.924C265.579 315.132 271.775 312.837 272.657 308.818C273.598 304.515 267.631 301.955 264.316 301.576V301.576Z" fill="#C15C4C"/>
<path d="M239.304 305.313C238.618 300.654 233.781 300.7 230.012 300.419C223.593 299.933 217.143 299.848 210.722 300.166C204.935 300.453 199.167 301.052 193.446 301.973C188.041 302.84 182.632 304.593 177.176 305.052C167.018 305.904 156.05 307.86 146.576 311.878C142.978 313.402 139.773 315.036 136.144 316.353C131.757 317.943 127.075 321.946 124.668 325.897C121.514 331.077 121.527 339.508 121.876 345.401C122.725 359.636 139.193 361.994 150.207 362.155C167.526 362.412 183.085 359.182 199.207 352.736C205.578 350.185 211.834 347.362 218.053 344.465C224.215 341.6 229.646 338.677 235.184 334.83C237.456 333.25 240.192 331.45 241.905 329.21C243.343 327.335 244.064 325.159 243.196 322.555C241.234 316.663 240.185 311.348 239.293 305.308L239.304 305.313Z" fill="#001C2D"/>
<path d="M285.45 312.572C289.616 312.286 292.182 307.997 288.527 305.107C283.521 301.147 278.649 313.039 285.45 312.572Z" fill="#C15C4C"/>
<path d="M304.71 297.619C302.625 296.779 301.575 298.744 299.635 299.838C298.021 300.748 296.662 302.109 295.231 303.34C295.747 304.285 297.895 306.84 299.069 305.487C300.902 303.379 305.328 299.205 305.328 299.205C305.328 299.205 305.518 297.95 304.704 297.614L304.71 297.619Z" fill="#C15C4C"/>
<path d="M296.126 303.972C294.413 303.756 289.587 304.549 288.575 305.918C288.259 306.345 288.467 310.574 288.334 311.042C288.788 311.308 291.164 312.476 298.045 307.781C300.128 306.358 300.216 304.494 296.126 303.972V303.972Z" fill="#C15C4C"/>
<path d="M299.574 286.939C299.669 286.534 302.437 280.619 302.437 280.619C302.437 280.619 301.78 279.514 300.932 279.16C298.941 278.345 297.588 281.305 296.44 281.787C296.997 281.547 295.892 280.219 295.739 280.142C293.82 279.166 288.047 285.999 288.047 285.999C288.047 285.999 285.609 286.787 282.249 287.99C283.441 291.052 284.476 294.197 285.482 297.355C286.228 299.693 284.862 304.002 287.43 305.059C289.302 305.831 292.406 303.944 293.959 303.144C294.046 303.099 294.134 303.066 294.221 303.027C294.275 302.99 294.335 302.952 294.394 302.914C295.067 302.492 296.283 301.907 296.86 301.318C297.966 300.201 305.504 285.897 304.751 285.297C304.061 284.742 302.646 284.393 299.573 286.927L299.574 286.939Z" fill="#C15C4C"/>
<path d="M293.827 294.722C292.881 295.256 287.928 298.049 285.802 299.394L286.271 300.182C288.59 298.713 294.353 295.477 294.41 295.45L294.57 295.352L294.645 295.19C294.661 295.159 296.149 292.029 299.702 286.64L299.279 286.266C296.105 291.09 294.188 293.998 293.827 294.722V294.722Z" fill="#A24D44"/>
<path d="M290.995 290.025C290.111 290.523 285.518 293.138 283.539 294.39L283.975 295.126C286.133 293.753 291.474 290.742 291.532 290.711L291.68 290.625L291.755 290.462C291.755 290.462 293.156 287.509 296.444 282.479L296.062 282.277C293.116 286.779 291.325 289.354 290.995 290.025V290.025Z" fill="#A24D44"/>
<path d="M298.822 299.008C297.907 299.638 293.181 302.866 291.155 304.409L291.716 305.111C293.914 303.441 299.43 299.69 299.481 299.652L299.637 299.55L299.701 299.38C299.701 299.38 300.913 296.145 303.98 290.53L303.518 290.213C300.769 295.241 299.111 298.266 298.828 299.008L298.822 299.008Z" fill="#A24D44"/>
<path d="M280.527 288.286C277.647 287.848 271.794 288.589 269.091 289.719C263.91 291.876 258.977 296.366 257.496 301.941C255.003 311.302 267.518 317.259 274.886 315.998C277.96 315.467 281.247 314.291 283.953 312.698C286.676 311.093 286.98 308.36 287.025 305.398C287.064 302.985 286.828 300.252 286.159 297.931C285.241 294.795 284.242 288.846 280.527 288.286V288.286Z" fill="#C15C4C"/>
<path d="M268.164 283.305C264.764 286.092 261.157 294.492 262.228 299.099C267.325 297.927 271.909 291.927 273.607 286.847C275.015 282.655 270.949 281.025 268.164 283.305Z" fill="#C15C4C"/>
<path d="M235.413 301.252C236.953 303.22 242.024 328.784 242.091 328.753C244.558 327.584 248.984 326.821 250.78 324.786C250.944 324.598 246.836 303.113 246.003 300.659C245.358 298.75 237.033 300.813 235.413 301.252V301.252Z" fill="#001C2D"/>
<path d="M141.917 296.451C138.033 281.197 132.624 266.34 125.834 252.27C119.912 239.997 113.476 225.562 101.037 218.848C89.824 212.799 78.625 214.763 71.0861 226.591C62.3053 240.371 62.8996 257.994 65.1142 273.039C66.3657 281.555 68.6308 289.885 71.677 297.845C72.4383 299.83 73.2771 301.876 74.1977 303.947C83.7614 325.509 101.866 350.682 125.533 355.557C134.457 357.396 141.31 352.964 145.078 344.757C148.799 336.649 149.468 331.95 148.655 323.278C147.808 314.227 144.162 305.261 141.917 296.451V296.451Z" fill="#001C2D"/>
<path d="M126.263 299.143C127.617 300.532 128.063 302.501 128.451 304.211C128.568 304.731 129.557 304.521 129.44 304.001C129.016 302.132 128.482 300.084 127.008 298.564C126.601 298.153 125.867 298.732 126.263 299.143V299.143Z" fill="#114963"/>
<path d="M112.982 333.166C112.572 332.631 111.817 333.362 112.228 333.89C113.851 336.018 115.654 337.996 117.605 339.825C118.099 340.282 118.86 339.563 118.366 339.1C116.415 337.271 114.612 335.293 112.988 333.166L112.982 333.166Z" fill="#114963"/>
<path d="M205.358 309.646C202.59 309.835 199.833 310.254 197.065 310.433C196.435 310.478 196.632 312.079 197.245 312.035C200.012 311.856 202.77 311.438 205.538 311.258C206.168 311.213 205.971 309.612 205.358 309.646V309.646Z" fill="#114963"/>
<path d="M151.107 328.504C149.544 330.33 147.981 332.166 146.263 333.878C145.819 334.316 146.518 334.986 146.962 334.542C148.737 332.768 150.351 330.87 151.972 328.982C152.379 328.507 151.508 328.035 151.107 328.504V328.504Z" fill="#114963"/>
<path d="M227.656 329.374L221.498 331.868C220.931 332.099 221.327 332.855 221.899 332.629L228.058 330.135C228.624 329.904 228.223 329.143 227.656 329.374Z" fill="#114963"/>
<path d="M194.79 328.622C192.391 328.964 189.94 329.037 187.541 329.376C186.91 329.465 187.051 330.018 187.682 329.927C190.075 329.588 192.532 329.515 194.931 329.172C195.562 329.084 195.421 328.53 194.784 328.619L194.79 328.622Z" fill="#114963"/>
<path d="M113.341 164.049C110.107 168.864 110.242 174.884 107.453 179.761C105.07 183.933 101.406 187.195 99.1399 191.684C105.477 196.907 108.021 203.781 113.652 209.296C119.553 215.076 126.714 219.411 132.015 225.84C137.66 232.68 142.488 240.131 147.079 247.707C149.832 252.25 161.478 266.35 160.979 271.283C162.592 255.355 160.698 225.662 152.259 211.455C141.887 193.99 125.281 180.304 113.335 164.049L113.341 164.049Z" fill="#0F88AF"/>
<path d="M115.304 154.701C108.134 162.582 111.459 168.521 107.565 177.083C104.401 184.029 98.8906 190.494 90.9393 192.631L93.352 195.433C100.591 202.317 111.778 191.128 114.782 184.828C117.786 178.534 117.239 172.872 115.918 166.34C115.106 162.34 116.227 158.656 115.304 154.701V154.701Z" fill="#1E1D1D"/>
<path d="M327.219 213.316C325.766 215.348 324.856 217.539 323.82 219.697C323.481 220.402 324.974 220.632 325.306 219.944C326.295 217.881 327.173 215.79 328.563 213.842C329.036 213.182 327.685 212.661 327.219 213.316V213.316Z" fill="white"/>
<path d="M354.337 226.149C339.447 226.244 324.862 222.902 310.148 220.952C309.389 220.853 309.11 222.055 309.88 222.154C324.698 224.117 339.388 227.478 354.387 227.385C355.165 227.383 355.114 226.141 354.337 226.149Z" fill="#E6E9ED"/>
<path d="M352.471 224.273C345.084 221.111 337.505 218.229 330.605 214.035C329.932 213.625 329.366 214.719 330.034 215.124C336.934 219.323 344.513 222.199 351.899 225.361C352.615 225.669 353.193 224.581 352.471 224.273V224.273Z" fill="#E6E9ED"/>
<path d="M499.663 432.712C500.406 432.393 501.782 431.657 503.904 430.269C506.026 428.88 508.901 426.844 511.886 424.29C514.872 421.737 517.975 418.666 520.551 415.818C523.127 412.976 525.192 410.333 527.453 407.094C529.713 403.855 532.212 399.967 534.742 395.121C537.271 390.275 539.837 384.477 541.041 381.494C542.246 378.512 542.089 378.339 541.428 377.951C540.766 377.563 539.589 376.954 539 376.649C538.608 376.446 538.25 376.257 537.928 376.082C537.445 375.819 536.473 375.299 535.815 375.136C535.157 374.972 534.791 375.177 533.932 376.595C533.073 378.008 531.66 380.676 530.49 382.672C529.32 384.661 528.367 386.032 527.356 386.96C526.345 387.889 525.246 388.383 523.947 388.326C522.642 388.27 521.092 387.687 518.447 386.284C515.802 384.882 512.07 382.67 507.541 379.719C503.006 376.773 497.646 373.072 493.369 370.087C489.092 367.102 485.846 364.79 479.542 360.7C478.589 360.082 477.553 359.415 476.47 358.721L476.47 358.733C477.401 363.208 478.344 367.688 479.281 372.163C484.07 374.574 489.087 377.039 494.098 379.659C499.58 382.526 505.041 385.584 509.257 388.208C513.473 390.832 516.444 393.023 518.173 394.733C519.908 396.444 520.407 397.669 519.751 400.237C519.1 402.805 517.288 406.711 514.408 411.318C511.523 415.925 507.566 421.238 504.772 424.948C501.983 428.652 500.34 430.782 499.583 431.868C498.826 432.953 498.904 433.031 499.64 432.712L499.663 432.712Z" fill="#B3B3B3"/>
<path d="M457.1 346.545C456.609 346.242 456.119 345.939 455.634 345.636C447.386 340.525 440.258 336.163 436.236 333.911C432.214 331.665 431.275 331.525 430.285 331.997C429.296 332.47 428.21 333.54 427.298 334.937C426.387 336.334 425.649 338.047 425.435 339.295C425.215 340.543 425.517 341.315 426.716 342.309C427.915 343.304 430.01 344.515 436.202 348.114C438.687 349.558 441.839 351.389 445.209 353.339C445.267 353.21 445.32 353.087 445.379 352.969C448.094 347.441 455.94 346.65 457.089 346.546L457.1 346.545Z" fill="#B3B3B3"/>
<path d="M479.293 372.174C479.334 372.195 479.369 372.211 479.411 372.233L484.374 363.887C482.952 362.936 481.383 361.899 479.542 360.706C478.589 360.088 477.553 359.421 476.47 358.727C477.407 363.208 478.35 367.688 479.287 372.174L479.293 372.174Z" fill="#6F7C91"/>
<path d="M445.39 352.963C448.105 347.435 455.952 346.644 457.1 346.54C456.61 346.237 456.119 345.928 455.634 345.631C447.386 340.519 440.258 336.157 436.236 333.906C432.214 331.66 431.275 331.519 430.286 331.992C429.296 332.464 428.21 333.534 427.298 334.931C426.387 336.329 425.649 338.041 425.435 339.289C425.215 340.537 425.517 341.309 426.716 342.304C427.915 343.298 430.01 344.51 436.202 348.108C438.693 349.552 441.845 351.389 445.215 353.339C445.273 353.21 445.326 353.087 445.39 352.963V352.963Z" fill="#6F7C91"/>
<path d="M165.803 358.926C165.878 360.21 165.959 361.495 166.035 362.779C168.994 362.232 171.962 361.753 174.948 361.419C175.557 379.56 173.462 397.835 171.916 416.052L193.693 415.168C192.087 392.338 190.888 369.52 188.467 346.59C188.164 343.72 187.939 340.883 187.76 338.055C185.3 334.459 182.589 331.133 179.581 328.201C178.169 329.713 176.107 330.802 174.08 331.323C171.054 332.098 167.899 332.4 164.729 332.482C164.873 341.311 165.289 350.123 165.803 358.926Z" fill="#1B3B5E"/>
<path d="M122.386 371.14C123.481 370.013 124.587 369.133 125.694 368.437C126.085 366.463 126.43 364.479 126.741 362.491C127.825 355.506 129.155 348.552 130.177 341.559C130.852 336.935 130.991 332.109 133.114 327.927C143.332 329.759 153.787 330.849 164.095 331.254C166.613 331.354 169.194 331.439 171.763 331.375C171.734 329.55 171.711 327.731 171.705 325.906C171.643 304.931 172.061 282.659 167.21 262.161C162.572 242.565 155.816 224.8 144.797 208.55C136.87 196.857 126.675 181.91 112.432 189.567C101.594 195.392 87.5682 207.988 83.761 221.309C65.8129 284.242 68.1991 352.945 73.3906 419.023L91.4117 418.291C98.7169 401.366 110.904 382.913 122.386 371.14Z" fill="#0F88AF"/>
<path d="M125.267 329.376C123.107 333.555 122.962 338.371 122.273 342.996C121.231 349.982 119.876 356.93 118.769 363.908C118.452 365.894 118.1 367.876 117.702 369.849C123.957 365.999 130.536 367.999 138.778 367.48C147.905 366.908 156.825 364.647 165.827 362.987C165.747 361.708 165.672 360.428 165.597 359.148C165.079 350.377 164.665 341.597 164.527 332.799C161.912 332.865 159.291 332.782 156.738 332.684C146.268 332.281 135.65 331.204 125.273 329.382L125.267 329.376Z" fill="#4C9589"/>
<path d="M212.764 414.389L219.397 414.119C218.071 397.484 216.239 380.881 212.295 364.634C206.863 342.274 204.969 319.019 201.28 296.152C198.778 280.64 197.55 264.592 197.589 248.942C197.628 234.303 198.875 217.753 191.576 204.458C188.403 198.679 157.515 174.353 157.862 192.12C157.948 196.352 161.716 199.049 163.054 202.92C163.962 205.538 164.423 208.52 166.111 210.784C167.549 212.709 169.221 214.147 170.539 216.254C173.927 221.645 177.492 227.276 178.945 233.544C183.214 251.962 185.408 270.953 186.329 289.811C187.141 306.404 186.41 322.169 187.439 338.437C199.417 355.996 205.257 380.195 209.284 398.076C210.507 403.498 211.667 408.939 212.765 414.394L212.764 414.389Z" fill="#0F88AF"/>
<path d="M193.445 415.179L213.229 414.375C212.12 408.902 210.936 403.444 209.694 398.005C205.602 380.066 199.674 355.79 187.478 338.18C187.657 341.003 187.884 343.843 188.188 346.702C190.626 369.597 191.833 392.382 193.439 415.179L193.445 415.179Z" fill="#0F88AF"/>
<path d="M131.784 256.653C128.691 248.408 125.6 240.059 120.974 232.575C113.537 220.532 100.328 208.581 85.6348 209.464C69.9991 210.397 63.6129 227.358 61.8574 241.064C59.7528 257.445 64.9473 273.5 66.9863 289.615C69.5372 309.774 75.5064 331.067 84.2141 349.308C92.213 366.075 108.529 375.051 125.675 367.068C145.982 357.614 150.931 337.649 149.481 316.488C148.091 296.241 138.793 275.301 131.79 256.659L131.784 256.653Z" fill="#0F88AF"/>
<path d="M221.125 296.648C197.508 305.018 127.484 297.322 120.084 331.25C117.166 344.641 109.838 366.964 122.143 376.974C132.833 385.668 149.752 379.258 161.598 377.251C183.882 373.473 207.025 367.654 229.579 365.669C232.222 354.902 231.181 326.71 226.624 309.252C225.153 303.629 223.317 299.114 221.126 296.659L221.125 296.648Z" fill="#0F88AF"/>
<path d="M69.8538 307.322L72.0943 319.402C76.2064 327.052 80.1602 335.657 86.6513 341.243C88.8732 318.893 104.639 273.452 131.077 268.053C111.748 212.32 70.1051 273.542 69.8478 307.316L69.8538 307.322Z" fill="#D68030"/>
<path d="M170.995 305.467C170.699 305.276 170.383 305.115 170.033 304.973C163.287 302.255 154.515 306.413 148.187 308.944C148.399 315.805 150.768 323.26 151.069 330.689C151.2 333.907 151.337 379.714 151.62 379.726C155.888 379.94 171.125 378.24 173.831 374.357C177.856 368.581 175.55 348.213 175.634 340.721C175.696 335.308 175.974 329.586 175.509 323.87C175.095 318.847 174.831 307.978 170.995 305.467V305.467Z" fill="#D68030"/>
<path d="M131.284 267.953L149.444 307.643L133.977 264.462L131.284 267.953Z" fill="#125064"/>
<path d="M87.5391 344.058C87.5391 344.058 88.7431 345.006 90.8404 346.577C97.9662 351.92 115.394 364.462 130.727 371.337C150.57 380.233 97.0884 358.01 86.1815 345.001L87.5391 344.058V344.058Z" fill="#125064"/>
<path d="M200.159 270.028L211.304 290.867L203.158 261.331L200.159 270.028Z" fill="#125064"/>
<path d="M399.682 407.276L399.682 367.977C393.802 370.57 387.129 372.79 381.105 375.123C248.204 414.421 96.5914 417.244 15.9857 415.136C113.938 440.664 301.388 425.865 399.682 407.276Z" fill="#BFB61F"/>
<g opacity="0.54">
<path d="M253.513 195.88L252.225 191.069L253.361 192.435L255.168 194.68L255.141 193.728L255.687 194.375L257.244 196.088L253.513 195.874L253.513 195.88ZM245.574 190.696L245.477 187.225L246.315 188.226L247.456 189.5L245.735 183.015L247.567 185.235L252.231 191.081L245.58 190.702L245.574 190.696Z" fill="#0385A1"/>
<path d="M232.911 192.654L232.612 197.934L233.577 197.987L233.678 196.161C233.833 196.332 234.019 196.478 234.229 196.58C234.42 196.671 234.629 196.724 234.844 196.735C235.342 196.761 235.789 196.591 236.173 196.226C236.557 195.86 236.768 195.385 236.8 194.813C236.832 194.217 236.686 193.715 236.351 193.318C236.046 192.934 235.59 192.698 235.098 192.672C234.871 192.655 234.65 192.688 234.435 192.763C234.215 192.845 234.019 192.97 233.843 193.125L233.87 192.701L232.905 192.648L232.911 192.654ZM235.588 193.921C235.774 194.146 235.856 194.422 235.841 194.754C235.819 195.086 235.705 195.357 235.492 195.562C235.291 195.76 235.009 195.867 234.726 195.845C234.437 195.835 234.166 195.702 233.986 195.483C233.793 195.257 233.711 194.975 233.733 194.631C233.754 194.293 233.869 194.028 234.082 193.829C234.289 193.631 234.577 193.536 234.86 193.558C235.143 193.568 235.414 193.701 235.594 193.921L235.588 193.921Z" fill="black"/>
<path d="M240.71 195.136C240.747 194.497 240.583 193.97 240.223 193.562C239.863 193.153 239.382 192.93 238.767 192.892C238.196 192.86 237.706 193.03 237.304 193.396C236.901 193.762 236.684 194.243 236.652 194.833C236.621 195.423 236.784 195.901 237.144 196.304C237.504 196.706 237.985 196.929 238.594 196.961C238.987 196.982 239.324 196.93 239.618 196.811C239.924 196.679 240.187 196.474 240.387 196.208L239.591 195.779C239.329 196.014 238.986 196.128 238.635 196.106C238.334 196.091 238.088 195.994 237.902 195.818C237.716 195.641 237.597 195.397 237.577 195.139L240.693 195.315L240.71 195.13L240.71 195.136ZM237.662 194.382C237.783 194.148 237.911 193.987 238.045 193.9C238.259 193.757 238.516 193.693 238.768 193.715C239.002 193.726 239.23 193.81 239.416 193.956C239.589 194.095 239.713 194.285 239.764 194.506L237.662 194.388L237.662 194.382Z" fill="black"/>
<path d="M243.659 193.692C243.498 193.515 243.3 193.363 243.084 193.254C242.886 193.164 242.677 193.104 242.462 193.094C242.001 193.061 241.547 193.218 241.206 193.528C240.804 193.882 240.587 194.363 240.555 194.978C240.523 195.549 240.675 196.033 241.01 196.43C241.326 196.814 241.795 197.044 242.293 197.064C242.508 197.08 242.729 197.054 242.938 196.991C243.146 196.915 243.335 196.803 243.494 196.654C243.478 196.968 243.431 197.183 243.358 197.313C243.273 197.449 243.151 197.548 243.004 197.605C242.839 197.674 242.63 197.706 242.366 197.69C242.188 197.685 242.009 197.644 241.843 197.578C241.707 197.517 241.584 197.426 241.49 197.31L240.421 197.252C240.485 197.509 240.61 197.742 240.777 197.943C240.951 198.138 241.167 198.296 241.408 198.398C241.66 198.507 241.974 198.572 242.355 198.593C243.068 198.636 243.608 198.453 243.985 198.057C244.265 197.766 244.427 197.291 244.458 196.634L244.645 193.321L243.68 193.268L243.653 193.692L243.659 193.692ZM243.376 194.358C243.562 194.571 243.644 194.834 243.628 195.16C243.613 195.486 243.498 195.745 243.291 195.937C243.084 196.129 242.808 196.224 242.531 196.196C242.243 196.186 241.971 196.059 241.779 195.846C241.587 195.626 241.498 195.357 241.52 195.037C241.53 194.748 241.65 194.477 241.864 194.278C242.071 194.086 242.353 193.992 242.636 194.014C242.949 194.029 243.196 194.144 243.382 194.357L243.376 194.358Z" fill="black"/>
<path d="M244.838 197.208L245.809 197.261L245.894 195.712C245.915 195.313 245.943 195.048 245.979 194.931C246.033 194.728 246.142 194.543 246.3 194.4C246.447 194.276 246.63 194.219 246.815 194.23C246.95 194.229 247.086 194.283 247.191 194.368C247.296 194.459 247.365 194.587 247.39 194.729C247.422 194.882 247.425 195.189 247.398 195.65L247.302 197.34L248.261 197.394L248.405 194.837C248.432 194.394 248.337 194.051 248.126 193.807C247.884 193.532 247.538 193.363 247.17 193.348C246.979 193.338 246.795 193.364 246.617 193.427C246.391 193.515 246.183 193.633 246 193.782L246.021 193.389L245.05 193.336L244.831 197.202L244.838 197.208Z" fill="black"/>
<path d="M248.636 197.427L249.607 197.48L249.912 192.121L248.94 192.068L248.636 197.427Z" fill="black"/>
</g>
<defs>
<linearGradient id="paint0_linear_113_2675" x1="424.495" y1="341.204" x2="469.128" y2="354.55" gradientUnits="userSpaceOnUse">
<stop stop-color="#FFC0BB"/>
<stop offset="0.28" stop-color="#FFB7B3"/>
<stop offset="0.71" stop-color="#FFA19F"/>
<stop offset="1" stop-color="#FF8F8F"/>
</linearGradient>
<linearGradient id="paint1_linear_113_2675" x1="241.238" y1="286.432" x2="304.644" y2="260.625" gradientUnits="userSpaceOnUse">
<stop stop-color="#FFC0BB"/>
<stop offset="0.28" stop-color="#FFB7B3"/>
<stop offset="0.71" stop-color="#FFA19F"/>
<stop offset="1" stop-color="#FF8F8F"/>
</linearGradient>
</defs>
</svg>
